<svg width="56" height="64" viewBox="0 0 56 64" fill="none" xmlns="http://www.w3.org/2000/svg">
<path fill-rule="evenodd" clip-rule="evenodd" d="M40.5731 50.3741C39.5333 48.5565 37.7807 47.1836 35.651 46.6576H35.6509L30.7128 45.4371C30.4977 45.384 30.3376 45.2083 30.301 44.995C30.2957 44.9645 30.293 44.9333 30.293 44.9015V43.0538L30.2931 43.0538V40.1796C34.2434 38.0475 37.9164 33.7666 39.0891 27.7546C39.0119 27.7299 38.9355 27.7045 38.8597 27.6783C38.7457 27.6388 38.6333 27.5975 38.5225 27.5546C37.2702 27.0694 36.2226 26.3685 35.3451 25.536L35.345 25.5378C30.8387 21.2642 30.8387 13.5064 30.8387 13.5064C28.7715 18.7788 20.5111 27.8641 10.712 29.2596C12.1597 34.4836 15.5399 38.2297 19.152 40.1793V42.4784L19.152 43.0535L19.152 44.8876C19.152 45.1418 18.9794 45.3626 18.7323 45.4234L13.7375 46.6576C12.7284 46.9068 11.804 47.3462 11 47.9328V40.6875L9.75002 37.9375L4.69149 35.9375V20.969C4.69149 9.90588 13.6599 0.9375 24.7229 0.9375C35.786 0.9375 44.7544 9.90588 44.7544 20.969V33.125L40.1875 34.6875L38.5 36.8125L44.3403 43.1875C43.7105 45.9122 42.3899 48.3725 40.5731 50.3741Z" fill="#F3C000"/>
<path d="M48.187 31.8427L46.1442 32.5862C47.4262 32.1197 48.8712 33.5154 48.8027 35.154L48.4453 43.7067L50.1021 43.1037L51.2267 34.2717C51.4422 32.5795 49.7901 31.2592 48.187 31.8427Z" fill="#FDCA67"/>
<path d="M10.9366 40.5531C10.9366 40.7091 10.9018 40.8514 10.8291 40.9755C10.3175 41.8626 8.10113 41.5417 5.88037 40.2595C3.97125 39.1574 2.68 37.7025 2.68 36.7519C2.68 36.5975 2.71487 36.4551 2.786 36.331C3.29912 35.4439 5.514 35.7648 7.73475 37.047C9.64375 38.1491 10.9366 39.6025 10.9366 40.5531Z" fill="#FF9794"/>
<path d="M43.2934 46.321C42.8371 46.0767 42.2687 46.2482 42.0242 46.7046C41.6271 47.4457 41.1677 48.1512 40.655 48.8147C39.4792 47.3285 37.8224 46.2281 35.8756 45.7472L31.2308 44.5995V40.7322C32.6824 39.8796 34.063 38.765 35.2856 37.431C35.6355 37.0492 35.6096 36.4562 35.2279 36.1064C34.8462 35.7566 34.2534 35.7824 33.9033 36.1641C31.2933 39.0119 27.7756 40.781 24.723 40.781C23.0007 40.781 21.3426 40.3135 19.8124 39.5135C19.6901 39.3921 19.5345 39.3049 19.3606 39.2654C15.9396 37.299 13.212 33.6827 11.927 30.0036C17.2127 28.9576 21.5327 25.957 24.2922 23.5425C26.6607 21.4701 28.7596 19.0374 30.2132 16.7354C31.0427 21.7049 33.3589 26.4519 38 28.3551C37.5881 30.0794 36.943 31.7056 36.0778 33.1991C35.8181 33.6471 35.971 34.2207 36.4189 34.4802C36.867 34.7399 37.4405 34.587 37.7 34.1391C38.6364 32.5229 39.338 30.7685 39.7933 28.9121C40.2415 29.0127 40.7021 29.09 41.1762 29.141C41.692 29.1974 42.1533 28.8239 42.2086 28.3091C42.264 27.7944 41.8915 27.3321 41.3768 27.2767C40.5172 27.1844 39.7116 26.9976 38.9606 26.7172C38.96 26.717 38.9594 26.7167 38.9588 26.7166C38.8521 26.6767 38.7467 26.6351 38.6424 26.5915C38.6416 26.5912 38.641 26.5909 38.6403 26.5906C35.6454 25.3391 33.858 22.6567 32.8317 19.5639C32.8265 19.5481 32.8213 19.5324 32.816 19.5165C31.7948 16.4104 31.777 13.5371 31.777 13.5074C31.777 13.0569 31.4561 12.6694 31.0131 12.5856C30.5693 12.5017 30.1306 12.745 29.9661 13.1646C27.7842 18.7284 19.5457 27.0551 10.58 28.332C10.573 28.333 10.5663 28.3349 10.5594 28.3361C9.781 28.445 8.98413 28.5061 8.16975 28.5061C7.652 28.5061 7.23225 28.9257 7.23225 29.4436C7.23225 29.9615 7.652 30.3811 8.16975 30.3811C8.7985 30.3811 9.4225 30.348 10.041 30.2856C11.4638 34.7374 14.0446 37.5712 16.0134 39.1891C16.718 39.7681 17.4568 40.2815 18.2147 40.7249V44.5864L13.5119 45.748C12.9431 45.8887 12.3963 46.0831 11.8744 46.3289V40.5536C11.8744 38.9306 9.897 37.2132 8.20387 36.2357C7.029 35.5574 5.804 35.1001 4.75463 34.9481C2.94763 34.6869 2.23725 35.4085 1.97325 35.865C1.82037 36.1312 1.74288 36.4299 1.74288 36.7524V48.7905C1.01288 49.1392 0.506 49.8827 0.506 50.7442V55.1317C0.506 55.6496 0.92575 56.0692 1.4435 56.0692C1.96125 56.0692 2.381 55.6496 2.381 55.1317V54.1597H11.236V61.8342C11.236 61.9949 11.1054 62.1255 10.9447 62.1255H2.67225C2.51162 62.1255 2.381 61.9949 2.381 61.8342V58.8817C2.381 58.3639 1.96125 57.9442 1.4435 57.9442C0.92575 57.9442 0.506 58.3639 0.506 58.8817V61.8342C0.506 63.0287 1.47775 64.0005 2.67225 64.0005H10.9447C12.1392 64.0005 13.111 63.0287 13.111 61.8342V59.305H41.8797C42.1386 59.305 42.386 59.198 42.5633 59.0092C42.7405 58.8205 42.8316 58.5669 42.8155 58.3086L42.5255 53.7099C42.4538 52.5701 42.1663 51.4877 41.7021 50.5036C42.4578 49.6049 43.1214 48.6281 43.6775 47.5902C43.9215 47.1337 43.7497 46.5655 43.2934 46.321ZM9.99912 48.5775H3.6175L3.61763 39.8004C4.18513 40.2915 4.81575 40.7274 5.4115 41.0712C6.69613 41.813 8.539 42.5525 9.99912 42.3917V48.5775ZM9.992 40.4941C9.61888 40.6302 8.21275 40.5236 6.34912 39.4475C4.53937 38.4027 3.70438 37.2532 3.62425 36.8127C5.23525 36.2251 9.76887 39.1841 9.992 40.4941ZM2.38062 52.2841V50.7437C2.38062 50.5831 2.51125 50.4525 2.67188 50.4525C11.5946 50.4527 10.8987 50.4527 10.9366 50.4527C10.9382 50.4527 10.9399 50.4525 10.9415 50.4525H10.9445C11.1051 50.4525 11.2357 50.5831 11.2357 50.7437V52.2841H2.38062ZM13.1106 57.43V53.2265C13.1106 53.2249 13.1109 53.2234 13.1109 53.2216C13.1109 53.2199 13.1106 53.2185 13.1106 53.2167V50.7437C13.1106 49.8822 12.604 49.139 11.874 48.7901V48.4707C12.5134 48.0571 13.2132 47.7527 13.9616 47.5675L18.9568 46.3337C19.6236 46.169 20.0894 45.5741 20.0894 44.8874V41.6607C21.644 42.3082 23.2275 42.6559 24.7229 42.6559C26.24 42.6559 27.8157 42.3106 29.3555 41.6696V44.9011C29.3555 45.5867 29.8206 46.1814 30.4883 46.3475L35.4258 47.5675C37.2798 48.0255 38.7999 49.1974 39.7171 50.7585C39.7412 50.812 39.7706 50.8635 39.8051 50.9124C40.2891 51.7871 40.5874 52.7767 40.6536 53.8276L40.8807 57.4299H13.1106V57.43Z" fill="white"/>
<path d="M4.69188 33.1937C5.20963 33.1937 5.62938 32.7741 5.62938 32.2562V20.9688C5.62938 10.4404 14.1949 1.875 24.7231 1.875C29.8226 1.875 34.6172 3.86137 38.2239 7.468C38.3509 7.59487 38.4755 7.72438 38.5989 7.85488C38.1869 8.08162 37.668 8.27525 36.9912 8.459C36.3441 8.63475 35.9095 9.20363 35.9095 9.87438C35.9095 10.5451 36.3442 11.114 36.9915 11.2898C39.1871 11.8855 39.8689 12.5671 40.4649 14.7639C40.6408 15.41 41.2095 15.8441 41.88 15.8441C42.3156 15.8441 42.7074 15.6601 42.9774 15.3542C43.5342 17.1619 43.8169 19.0417 43.8169 20.9688V29.3188C43.8169 29.8366 44.2365 30.2563 44.7544 30.2563C45.2723 30.2563 45.6919 29.8366 45.6919 29.3188V20.9688C45.6919 18.1593 45.1464 15.4395 44.0713 12.876C44.5875 12.1123 45.3493 11.6751 46.7689 11.2898L46.7694 11.2895C47.4156 11.1136 47.8498 10.5449 47.8498 9.87438C47.8498 9.20388 47.4156 8.63512 46.7687 8.459C44.5731 7.86312 43.8914 7.1815 43.2956 4.9855C43.1199 4.33838 42.551 3.90375 41.8802 3.90375C41.2095 3.90375 40.6406 4.3385 40.4649 4.98575C40.2941 5.61525 40.114 6.109 39.906 6.50787C39.7886 6.38462 39.6702 6.26238 39.55 6.14213C35.589 2.18125 30.3234 0 24.7231 0C13.1609 0 3.75438 9.4065 3.75438 20.9688V32.2562C3.75438 32.774 4.17413 33.1937 4.69188 33.1937ZM41.8805 6.68225C42.5208 8.29387 43.457 9.231 45.0667 9.87187C43.845 10.3511 42.876 11.0595 42.19 12.3778C42.188 12.3818 42.186 12.3859 42.1839 12.3899C42.1829 12.3918 42.1819 12.3936 42.181 12.3956C42.0746 12.6018 41.9741 12.824 41.8789 13.0653C41.2379 11.4528 40.3005 10.5157 38.6881 9.875C39.5148 9.54813 40.1396 9.15475 40.6421 8.65425C40.6455 8.651 40.6485 8.64738 40.6517 8.644C40.6561 8.63937 40.6604 8.63488 40.6647 8.63025C41.163 8.12725 41.5554 7.504 41.8805 6.68225Z" fill="white"/>
<path d="M55.2692 53.0204L51.6404 43.0501C51.5361 42.7636 51.3668 42.5132 51.1479 42.3134L52.1566 34.39C52.2996 33.2684 51.8575 32.1772 50.9741 31.4714C50.0909 30.7655 48.9291 30.5747 47.8664 30.9616L45.5382 31.809C45.5359 31.8099 45.5334 31.8102 45.5311 31.8111L42.1418 33.0447C42.1395 33.0455 42.1375 33.0467 42.1353 33.0475L39.8068 33.895C38.7443 34.2819 37.9767 35.1745 37.7537 36.283C37.5309 37.3916 37.8935 38.5116 38.724 39.2791L44.5897 44.7001C44.5505 44.9939 44.5818 45.2946 44.686 45.5811L45.7892 48.6121C45.7894 48.6126 45.7895 48.613 45.7896 48.6135C45.7897 48.6137 45.7899 48.614 45.79 48.6142L48.3149 55.5512C49.4326 58.6231 53.7496 58.844 55.1457 55.8496C55.5634 54.9541 55.6074 53.9492 55.2692 53.0204ZM46.6058 45.374L50.0364 44.1254L50.6614 45.8427L47.2308 47.0914L46.6058 45.374ZM39.5919 36.6531C39.6862 36.1839 39.9983 35.821 40.448 35.6572L41.1424 35.4045C41.2325 36.206 41.5341 37.0917 42.0055 37.839L43.0629 39.5156C43.2411 39.7984 43.5455 39.9531 43.8568 39.9531C44.0276 39.9531 44.2007 39.9064 44.356 39.8085C44.7939 39.5322 44.9251 38.9534 44.6489 38.5154L43.5915 36.8386C43.0732 36.0171 42.9506 35.0944 42.9955 34.73L45.9604 33.6509C46.229 33.9011 46.7282 34.6869 46.8592 35.6494L47.127 37.6134C47.1971 38.1264 47.6719 38.4857 48.1825 38.4157C48.6955 38.3457 49.0547 37.8731 48.9849 37.3602L48.7171 35.3962C48.5977 34.5207 48.2595 33.6484 47.8134 32.9765C48.1689 32.9284 48.972 32.2715 49.8036 32.9362C50.1775 33.235 50.3572 33.6785 50.2966 34.1532L49.3076 41.9211C49.2899 41.927 49.272 41.9312 49.2544 41.9376L45.7985 43.1955C45.7809 43.2019 45.7644 43.2102 45.747 43.2171L39.9964 37.9025C39.6448 37.5776 39.4975 37.1224 39.5919 36.6531ZM51.0205 55.9404C50.5786 55.7344 50.2434 55.3685 50.0766 54.9102L47.8721 48.8534L51.3027 47.6047L53.5074 53.6617C54.0666 55.1982 52.4788 56.6202 51.0205 55.9404Z" fill="white"/>
</svg>
