<svg width="40" height="40" viewBox="0 0 40 40" fill="none" xmlns="http://www.w3.org/2000/svg">
<path fill-rule="evenodd" clip-rule="evenodd" d="M20 40C31.0457 40 40 31.0457 40 20C40 8.9543 31.0457 0 20 0C8.9543 0 0 8.9543 0 20C0 31.0457 8.9543 40 20 40ZM12.4546 21.7479L7.07815 19.7412C6.53207 19.5366 6.52733 18.7657 7.07185 18.5557L29.137 10.0436C29.6048 9.86268 30.0875 10.2725 29.9856 10.7637L26.0258 29.8108C25.9325 30.2605 25.4052 30.4645 25.0331 30.1939L19.6277 26.2695C19.2994 26.0312 18.8519 26.044 18.5378 26.2999L15.5408 28.7431C15.1929 29.0275 14.6688 28.8691 14.5356 28.4404L12.4546 21.7479ZM24.7079 14.208L14.2003 20.6797C13.7975 20.9283 13.6079 21.4146 13.738 21.8699L14.8741 25.8619C14.9548 26.1448 15.3654 26.1157 15.4045 25.8235L15.6999 23.6343C15.7556 23.2222 15.9522 22.8425 16.257 22.5587L24.9288 14.4978C25.091 14.3474 24.8967 14.0921 24.7079 14.208Z" fill="white"/>
</svg>
