<svg width="40" height="40" viewBox="0 0 40 40" fill="none" xmlns="http://www.w3.org/2000/svg">
<path d="M20.0065 1.05462e-06C16.0506 -0.00128333 12.1832 1.17061 8.89333 3.36746C5.60349 5.56431 3.03903 8.68743 1.52428 12.3418C0.00953426 15.9962 -0.387459 20.0178 0.383512 23.8978C1.15448 27.7779 3.05878 31.3421 5.85558 34.1398C8.65237 36.9375 12.216 38.843 16.0958 39.6152C19.9756 40.3875 23.9973 39.9918 27.6522 38.4782C31.3071 36.9647 34.431 34.4012 36.6289 31.1121C38.8269 27.823 40 23.9559 40 20C40 14.6968 37.8938 9.6107 34.1444 5.86016C30.3951 2.10962 25.3097 0.00172288 20.0065 1.05462e-06ZM30.1039 27.6494H27.6364C26.6948 27.6494 26.4221 26.9156 24.7468 25.2727C23.2792 23.8831 22.6494 23.7013 22.2857 23.7013C21.5 23.7013 21.6364 23.9611 21.6364 26.7078C21.6364 27.3052 21.4416 27.6494 19.8701 27.6494C17.2727 27.6494 14.3896 26.0909 12.3442 23.2208C9.28572 19.0065 8.44806 15.8182 8.44806 15.1753C8.44806 14.8182 8.59092 14.526 9.29222 14.526H11.7597C12.4091 14.526 12.6299 14.7922 12.8766 15.4675C14.0844 18.9221 16.1234 21.9611 16.9546 21.9611C17.2727 21.9611 17.4091 21.8182 17.4091 21.039V17.4675C17.3182 15.8247 16.4286 15.6883 16.4286 15.1039C16.4334 15.0245 16.4543 14.9468 16.4899 14.8756C16.5254 14.8044 16.575 14.7412 16.6357 14.6896C16.6963 14.6381 16.7668 14.5993 16.8428 14.5757C16.9188 14.552 16.9987 14.5439 17.0779 14.552H20.974C21.4935 14.552 21.6753 14.8247 21.6753 15.4416V20.2403C21.6753 20.7533 21.9091 20.9351 22.0649 20.9351C22.3766 20.9351 22.6429 20.7533 23.2143 20.1883C24.46 18.6926 25.4815 17.0236 26.2468 15.2338C26.3333 15.0244 26.4847 14.8484 26.6787 14.7315C26.8728 14.6146 27.0992 14.5631 27.3247 14.5844H29.7468C30.4935 14.5844 30.6494 14.961 30.4935 15.474C30.1818 16.8831 27.1753 21.0455 27.1688 21.052C26.9091 21.461 26.8052 21.7013 27.1688 22.1299C27.3117 22.3247 30.4805 25.2792 30.9481 26.7143C31.1753 27.3052 30.8182 27.6494 30.1169 27.6494H30.1039Z" fill="white"/>
</svg>
