<svg width="25" height="24" viewBox="0 0 25 24" fill="none" xmlns="http://www.w3.org/2000/svg">
<path d="M7.83996 22.9053C7.40374 22.9049 6.98174 22.7501 6.64886 22.4682C6.31598 22.1862 6.09375 21.7955 6.0216 21.3653L5.65783 19.1832C5.65078 19.1279 5.63147 19.075 5.60131 19.0282C5.57115 18.9814 5.53091 18.9419 5.48352 18.9126C4.84187 18.5913 4.26539 18.1537 3.78332 17.6221C1.28186 14.7295 1.28186 7.05717 3.78332 4.16411C5.54212 2.13037 9.43957 1.40527 12.5006 1.40527C15.5612 1.40576 19.4591 2.13037 21.2169 4.16406C23.7189 7.05713 23.7189 14.7295 21.2169 17.6226C19.4259 19.6948 15.4289 20.3931 12.3019 20.3711C12.2374 20.3719 12.1742 20.3897 12.1188 20.4229L8.86053 22.5952C8.55848 22.7972 8.20333 22.9051 7.83996 22.9053ZM12.5001 2.90527C9.07043 2.90527 6.09436 3.78467 4.91812 5.14551C2.92056 7.45508 2.92056 14.3315 4.91812 16.6411C5.27882 17.0313 5.70815 17.3519 6.18472 17.5869C6.43618 17.724 6.65282 17.917 6.81798 18.1509C6.98314 18.3849 7.0924 18.6537 7.13736 18.9365L7.50112 21.1182C7.51043 21.1746 7.53373 21.2278 7.5689 21.2729C7.60406 21.318 7.64997 21.3535 7.70242 21.3763C7.75487 21.3991 7.81219 21.4083 7.86915 21.4033C7.92611 21.3982 7.98088 21.3789 8.02846 21.3472L11.2873 19.1743C11.593 18.9734 11.9516 18.8678 12.3175 18.8711C15.8449 18.8896 18.882 18.0293 20.0822 16.6416C22.0792 14.3315 22.0792 7.45507 20.0822 5.1455C18.9064 3.78466 15.9298 2.90575 12.5012 2.90526L12.5001 2.90527Z" fill="#D20912"/>
<path d="M12.5 11.75C12.3011 11.7499 12.1104 11.6709 11.9697 11.5303C11.8291 11.3896 11.7501 11.1989 11.75 11V7C11.75 6.80109 11.829 6.61032 11.9697 6.46967C12.1103 6.32902 12.3011 6.25 12.5 6.25C12.6989 6.25 12.8897 6.32902 13.0303 6.46967C13.171 6.61032 13.25 6.80109 13.25 7V11C13.2499 11.1989 13.1709 11.3896 13.0303 11.5303C12.8896 11.6709 12.6989 11.7499 12.5 11.75Z" fill="#D20912"/>
<path d="M12.5 14.75C13.0523 14.75 13.5 14.3023 13.5 13.75C13.5 13.1977 13.0523 12.75 12.5 12.75C11.9477 12.75 11.5 13.1977 11.5 13.75C11.5 14.3023 11.9477 14.75 12.5 14.75Z" fill="#D20912"/>
</svg>
