<svg width="17" height="16" viewBox="0 0 17 16" fill="none" xmlns="http://www.w3.org/2000/svg">
<g clip-path="url(#clip0_357_914)">
<path d="M10.1703 16C10.7052 16 11.1718 15.5335 11.1718 14.9985V12.6596H11.8405C12.2418 12.6596 12.5092 12.392 12.5092 11.9909V5.31055H4.49097V11.9909C4.49097 12.3922 4.75845 12.6596 5.15968 12.6596H5.82845V14.9986C5.82845 15.5335 6.29487 16.0001 6.82995 16.0001C7.36487 16.0001 7.83134 15.5335 7.83134 14.9986V12.6596H9.16883V14.9986C9.16877 15.5335 9.6353 16 10.1703 16Z" fill="#0A0A0A"/>
<path d="M14.1795 11.9909C14.7144 11.9909 15.1809 11.5244 15.1809 10.9894V6.31162C15.1809 5.77948 14.7144 5.31055 14.1795 5.31055C13.6445 5.31055 13.178 5.77948 13.178 6.31162V10.9894C13.178 11.5244 13.6444 11.9909 14.1795 11.9909Z" fill="#0A0A0A"/>
<path d="M2.82073 11.9909C3.35575 11.9909 3.82223 11.5244 3.82223 10.9894V6.31162C3.82223 5.77948 3.35581 5.31055 2.82073 5.31055C2.28576 5.31055 1.81934 5.77948 1.81934 6.31162V10.9894C1.81934 11.5244 2.28576 11.9909 2.82073 11.9909Z" fill="#0A0A0A"/>
<path d="M11.7067 0.100908C11.573 -0.033636 11.374 -0.033636 11.2403 0.100908L10.3434 0.994825L10.302 1.03615C9.77016 0.769837 9.1739 0.636841 8.50988 0.63556C8.50662 0.63556 8.50342 0.635453 8.50016 0.635453H8.50006C8.49669 0.635453 8.4936 0.63556 8.49023 0.63556C7.82627 0.636841 7.23 0.769837 6.69824 1.03615L6.65675 0.994825L5.7599 0.100908C5.6261 -0.033636 5.42717 -0.033636 5.29348 0.100908C5.15968 0.234704 5.15968 0.433264 5.29348 0.566953L6.16107 1.43471C5.88152 1.62136 5.62802 1.84977 5.40757 2.11101C4.87981 2.73658 4.54318 3.55073 4.49689 4.43285C4.49647 4.44203 4.49556 4.45111 4.49513 4.46029C4.4923 4.52036 4.49097 4.58074 4.49097 4.64134H12.5092C12.5092 4.58074 12.5078 4.52036 12.505 4.46029C12.5046 4.45111 12.5037 4.44203 12.5032 4.43285C12.457 3.55073 12.1203 2.73653 11.5925 2.11106C11.3721 1.84982 11.1185 1.62142 10.839 1.43476L11.7067 0.567007C11.8405 0.433264 11.8405 0.234704 11.7067 0.100908ZM6.82867 3.47374C6.552 3.47374 6.32771 3.24945 6.32771 2.97278C6.32771 2.69611 6.552 2.47182 6.82867 2.47182C7.10534 2.47182 7.32963 2.69611 7.32963 2.97278C7.32963 3.24945 7.10534 3.47374 6.82867 3.47374ZM10.1715 3.47374C9.89483 3.47374 9.67054 3.24945 9.67054 2.97278C9.67054 2.69611 9.89483 2.47182 10.1715 2.47182C10.4482 2.47182 10.6725 2.69611 10.6725 2.97278C10.6725 3.24945 10.4482 3.47374 10.1715 3.47374Z" fill="#0A0A0A"/>
</g>
<defs>
<clipPath id="clip0_357_914">
<rect width="16" height="16" fill="white" transform="translate(0.5)"/>
</clipPath>
</defs>
</svg>
