<svg width="17" height="16" viewBox="0 0 17 16" fill="none" xmlns="http://www.w3.org/2000/svg">
<g clip-path="url(#clip0_357_922)">
<path d="M11.4994 0C10.6464 0.0589997 9.64942 0.604996 9.06843 1.31599C8.53843 1.96099 8.10243 2.91898 8.27243 3.84998C9.20442 3.87898 10.1674 3.31998 10.7254 2.59698C11.2474 1.92399 11.6424 0.971994 11.4994 0Z" fill="#0A0A0A"/>
<path d="M14.8703 5.36786C14.0513 4.34087 12.9003 3.74487 11.8133 3.74487C10.3783 3.74487 9.77133 4.43187 8.77433 4.43187C7.74634 4.43187 6.96534 3.74687 5.72435 3.74687C4.50536 3.74687 3.20736 4.49187 2.38437 5.76586C1.22738 7.55985 1.42537 10.9328 3.30036 13.8058C3.97136 14.8338 4.86735 15.9898 6.03935 15.9998C7.08234 16.0098 7.37634 15.3308 8.78933 15.3238C10.2023 15.3158 10.4703 16.0088 11.5113 15.9978C12.6843 15.9888 13.6293 14.7078 14.3003 13.6798C14.7813 12.9428 14.9603 12.5718 15.3333 11.7398C12.6203 10.7068 12.1853 6.84886 14.8703 5.36786Z" fill="#0A0A0A"/>
</g>
<defs>
<clipPath id="clip0_357_922">
<rect width="16" height="16" fill="white" transform="translate(0.5)"/>
</clipPath>
</defs>
</svg>
