<svg width="24" height="24" viewBox="0 0 24 24" fill="none" xmlns="http://www.w3.org/2000/svg">
<g clip-path="url(#clip0_314_14237)">
<path d="M23.8435 15.12L21.3913 12.7304C21.1884 12.5258 20.8581 12.5245 20.6535 12.7274C20.6524 12.7284 20.6515 12.7294 20.6504 12.7304L17.4365 15.9444L16.0382 14.5357C15.9419 14.4374 15.8106 14.3811 15.673 14.3792C15.5354 14.3811 15.4041 14.4374 15.3078 14.5357L14.1704 15.673V0.521755C14.1704 0.237619 13.9431 0.00572282 13.6591 0H0.521755C0.233609 0 0 0.233609 0 0.521755V23.4782C0 23.7664 0.233609 24 0.521755 24H23.4782C23.7664 24 24 23.7664 24 23.4782V15.4852C23.998 15.3476 23.9417 15.2163 23.8435 15.12ZM6.59479 22.9565H5.0713V20.1287H6.59479V22.9565ZM9.15128 22.9565H7.63826V20.1287H9.15128V22.9565ZM13.1374 22.9565H10.1948V19.6069C10.1948 19.3188 9.96118 19.0852 9.67304 19.0852H4.54955C4.2614 19.0852 4.02779 19.3188 4.02779 19.6069V22.9565H1.08518V1.04346H13.1373V22.9565H13.1374ZM22.9148 22.9565H14.1809V17.1548L15.6939 15.6522L17.0922 17.0609C17.2951 17.2655 17.6254 17.2668 17.83 17.0639C17.831 17.0629 17.832 17.0619 17.833 17.0609L21.047 13.8469L22.9148 15.7148L22.9148 22.9565Z" fill="black"/>
<path d="M3.8609 17.1234H2.22266V18.1669H3.8609V17.1234Z" fill="black"/>
<path d="M6.57391 17.1234H4.93567V18.1669H6.57391V17.1234Z" fill="black"/>
<path d="M9.28692 17.1234H7.64868V18.1669H9.28692V17.1234Z" fill="black"/>
<path d="M12 17.1234H10.3722V18.1669H12V17.1234Z" fill="black"/>
<path d="M3.8609 14.3269H2.22266V15.3704H3.8609V14.3269Z" fill="black"/>
<path d="M6.57391 14.3269H4.93567V15.3704H6.57391V14.3269Z" fill="black"/>
<path d="M9.28692 14.3269H7.64868V15.3704H9.28692V14.3269Z" fill="black"/>
<path d="M12 14.3269H10.3722V15.3704H12V14.3269Z" fill="black"/>
<path d="M3.8609 11.5409H2.22266V12.5844H3.8609V11.5409Z" fill="black"/>
<path d="M6.57391 11.5409H4.93567V12.5844H6.57391V11.5409Z" fill="black"/>
<path d="M9.28692 11.5409H7.64868V12.5844H9.28692V11.5409Z" fill="black"/>
<path d="M12 11.5409H10.3722V12.5844H12V11.5409Z" fill="black"/>
<path d="M3.8609 8.74438H2.22266V9.78785H3.8609V8.74438Z" fill="black"/>
<path d="M6.57391 8.74438H4.93567V9.78785H6.57391V8.74438Z" fill="black"/>
<path d="M9.28692 8.74438H7.64868V9.78785H9.28692V8.74438Z" fill="black"/>
<path d="M12 8.74438H10.3722V9.78785H12V8.74438Z" fill="black"/>
<path d="M3.8609 5.95825H2.22266V7.00171H3.8609V5.95825Z" fill="black"/>
<path d="M6.57391 5.95825H4.93567V7.00171H6.57391V5.95825Z" fill="black"/>
<path d="M9.28692 5.95825H7.64868V7.00171H9.28692V5.95825Z" fill="black"/>
<path d="M12 5.95825H10.3722V7.00171H12V5.95825Z" fill="black"/>
<path d="M3.8609 3.16174H2.22266V4.2052H3.8609V3.16174Z" fill="black"/>
<path d="M6.57391 3.16174H4.93567V4.2052H6.57391V3.16174Z" fill="black"/>
<path d="M9.28692 3.16174H7.64868V4.2052H9.28692V3.16174Z" fill="black"/>
<path d="M12 3.16174H10.3722V4.2052H12V3.16174Z" fill="black"/>
<path d="M23.1102 5.56922C23.1077 5.56673 23.1052 5.56423 23.1026 5.56174L22.2783 4.73741C21.2196 3.68275 19.5074 3.68275 18.4488 4.73741C17.6499 4.46032 16.763 4.66277 16.1635 5.25916L15.527 5.89567C14.6626 6.75086 14.6551 8.14488 15.5103 9.00937C15.5159 9.015 15.5215 9.02057 15.527 9.0261L16.174 9.69391C16.7714 10.2862 17.653 10.4884 18.4488 10.2157C19.5021 11.2732 21.2134 11.2765 22.2709 10.2231C22.2734 10.2207 22.2759 10.2182 22.2784 10.2157L23.1026 9.39129C24.1601 8.33794 24.1635 6.62672 23.1102 5.56922ZM22.405 8.6594C22.4045 8.65989 22.404 8.66038 22.4035 8.66087L21.5792 9.4852C20.922 10.112 19.8885 10.112 19.2314 9.4852L18.96 9.21388C18.7809 9.02904 18.7468 8.74749 18.8766 8.52518L17.9687 8.00343C17.7501 8.39938 17.7084 8.86909 17.8539 9.29732C17.5256 9.32168 17.2026 9.2039 16.967 8.97386L16.3305 8.33736C15.8752 7.88799 15.8704 7.15464 16.3198 6.69936C16.3233 6.69579 16.3269 6.69222 16.3305 6.68865L16.2783 6.66776L16.9148 6.03126C17.2862 5.66265 17.8575 5.5859 18.3131 5.84343C18.6213 6.02294 18.7742 6.38411 18.6887 6.73037L19.7322 6.99122C19.8746 6.42471 19.739 5.82421 19.367 5.37382C20.0257 4.84213 20.979 4.89158 21.5791 5.48861L22.4035 6.31295C23.0519 6.96055 23.0525 8.01106 22.405 8.6594Z" fill="black"/>
</g>
<defs>
<clipPath id="clip0_314_14237">
<rect width="24" height="24" fill="white"/>
</clipPath>
</defs>
</svg>
