<svg width="24" height="24" viewBox="0 0 24 24" fill="none" xmlns="http://www.w3.org/2000/svg">
<g clip-path="url(#clip0_314_14316)">
<path d="M23.4034 7.9938C23.5902 8.04715 23.7847 7.93905 23.8381 7.75235C23.9245 7.45001 23.9784 7.13674 23.9982 6.82123C24.0175 6.51584 23.877 6.2322 23.6223 6.06246C23.3677 5.89273 23.0518 5.8722 22.7773 6.00753L22.1938 6.2952C22.2964 5.59428 22.2533 4.87714 22.0634 4.18723C21.9799 3.88414 21.7486 3.65563 21.4445 3.57594C21.1404 3.49616 20.8267 3.58194 20.6054 3.80516L15.5739 8.8796C15.406 8.65019 15.1479 8.49101 14.8523 8.45435C14.6807 8.09787 14.5094 7.65682 14.7752 7.26059C14.9391 7.01515 15.2024 6.87439 15.4975 6.87439H16.5894C16.7501 6.87439 16.8903 6.76545 16.93 6.60973C17.06 6.1001 16.9496 5.56962 16.6269 5.15431C16.47 4.95228 16.274 4.79258 16.0538 4.68139L16.1759 4.15789C16.2365 3.89844 16.1762 3.62998 16.0106 3.42134C15.845 3.2127 15.5973 3.09299 15.3309 3.09299H15.2771V2.87122C15.2771 2.67706 15.1197 2.51966 14.9256 2.51966C14.7314 2.51966 14.574 2.67706 14.574 2.87122V3.09299H14.5202C14.2538 3.09299 14.0061 3.21266 13.8404 3.42134C13.7 3.59333 13.6033 3.93228 13.6896 4.21962C13.5783 4.13033 13.4903 4.01234 13.4349 3.87308C13.3441 3.64452 13.3485 3.38234 13.4459 3.15186L13.7029 2.68255C13.8688 2.37955 13.8761 2.01393 13.7225 1.70455C13.5689 1.39513 13.2733 1.17997 12.9316 1.12888C12.7698 1.10469 12.602 1.1188 12.4464 1.16971C12.415 1.17997 12.3834 1.1886 12.3516 1.19666V1.03101C12.3516 0.836849 12.1942 0.679443 12.0001 0.679443C11.8059 0.679443 11.6485 0.836849 11.6485 1.03101V1.19661C11.6168 1.18855 11.5852 1.17993 11.5537 1.16966C11.3982 1.11875 11.2304 1.10465 11.0685 1.12883C10.7269 1.17988 10.4312 1.39508 10.2776 1.7045C10.1241 2.01393 10.1314 2.3795 10.2973 2.6825L10.5554 3.15397C10.6519 3.3838 10.6561 3.64489 10.5655 3.8727C10.5101 4.01211 10.422 4.13019 10.3106 4.21958C10.3756 3.99776 10.3525 3.677 10.1597 3.4213C9.99408 3.21261 9.74634 3.09294 9.47991 3.09294H9.42614V2.87117C9.42614 2.67702 9.26873 2.51961 9.07458 2.51961C8.88042 2.51961 8.72302 2.67702 8.72302 2.87117V3.09294H8.66925C8.40286 3.09294 8.15513 3.21261 7.98952 3.4213C7.82391 3.62998 7.76367 3.89844 7.82419 4.15789L7.94635 4.68139C7.72613 4.79258 7.53014 4.95228 7.37321 5.15431C7.05057 5.56962 6.94008 6.1001 7.07011 6.60973C7.10986 6.7654 7.25007 6.87439 7.41075 6.87439H8.50261C8.79773 6.87439 9.06098 7.01515 9.22491 7.26059C9.47709 7.57601 9.33281 8.0997 9.14784 8.45435C8.8522 8.49101 8.59411 8.65019 8.42625 8.8796L5.8028 6.23375C5.66607 6.09589 5.44351 6.09495 5.30565 6.23164C5.16779 6.36832 5.16685 6.59093 5.30354 6.72879L7.80671 9.25333L2.60336 6.6882C2.40212 5.93037 2.40545 5.1334 2.61451 4.3738C2.63767 4.2897 2.70559 4.26345 2.73367 4.25609C2.76184 4.24873 2.83384 4.23828 2.89529 4.30025L4.14437 5.56001C4.2811 5.69787 4.50366 5.69886 4.64152 5.56212C4.77938 5.42539 4.78032 5.20283 4.64363 5.06497L3.3946 3.80516C3.17326 3.58194 2.85967 3.4962 2.5555 3.57594C2.25142 3.65563 2.02009 3.88414 1.93665 4.18719C1.74667 4.87742 1.70369 5.59437 1.80634 6.29524L1.22266 6.00748C0.948157 5.87215 0.632267 5.89273 0.377642 6.06242C0.123018 6.2321 -0.0175134 6.51579 0.00175218 6.82118C0.072252 7.93835 0.554642 8.95812 1.33745 9.70793L1.02981 9.69588C0.713594 9.68318 0.423486 9.83585 0.254267 10.1034C0.085002 10.371 0.0715489 10.6982 0.218267 10.9788C0.73661 11.9699 1.63703 12.677 2.67789 12.9652C2.50764 13.0947 2.39687 13.2873 2.37245 13.5077C2.3409 13.7926 2.45983 14.0642 2.69054 14.2343C3.4202 14.772 4.29952 15.0495 5.18438 15.0495C5.33316 15.0495 5.48208 15.0409 5.63049 15.0251L5.51874 15.1482C5.32374 15.363 5.25994 15.6561 5.34802 15.9324C5.43615 16.2088 5.65787 16.4109 5.94118 16.4732C6.41358 16.5536 6.85139 16.594 7.35835 16.5255C7.33238 16.6342 7.31855 16.7465 7.31855 16.8615C7.31855 17.0088 7.34096 17.1518 7.38296 17.2883L5.36452 18.2861C5.1083 18.1092 4.66004 18.0732 4.33276 18.2889L3.75268 17.4289C3.98917 17.1521 4.1079 16.7776 4.04617 16.3907C3.93446 15.6904 3.2739 15.2117 2.5735 15.3233C2.50215 15.3347 2.4332 15.352 2.36683 15.3743L2.11951 15.0077C2.01095 14.8467 1.79247 14.8042 1.63145 14.9128C1.47048 15.0214 1.42801 15.2399 1.53658 15.4009L1.78722 15.7725C1.55894 16.0478 1.44536 16.416 1.50601 16.796C1.63478 17.5449 2.4024 18.0645 3.16736 17.8186L3.73023 18.6531C3.58084 18.7763 3.47298 18.9416 3.42189 19.1325C3.35711 19.3746 3.39043 19.6274 3.51578 19.8443C3.62378 20.0313 3.79215 20.1708 3.98621 20.2472C3.9526 20.4587 3.99188 20.6737 4.10049 20.8618C4.26901 21.1536 4.58424 21.3307 4.91518 21.3307C5.03593 21.3308 5.2523 21.2923 5.43202 21.1761L5.97802 21.9856C6.04594 22.0863 6.15685 22.1406 6.26982 22.1406C6.33741 22.1406 6.4058 22.1211 6.46608 22.0805C6.62705 21.9719 6.66952 21.7534 6.56096 21.5924L6.03465 20.8121C6.23494 20.6124 6.36699 20.4445 6.37533 20.0673L8.38078 19.367C8.33189 19.5374 8.30461 19.7021 8.30461 19.8583C8.30461 20.2096 8.43197 20.5194 8.67291 20.7542C9.03459 21.1066 9.57234 21.2218 9.92517 21.2586C9.93609 21.7238 10.2303 22.0976 10.7576 22.3127C11.1488 22.4722 11.4813 22.767 11.6941 23.1429C11.7565 23.2532 11.8738 23.3206 12.0005 23.3206C12.1272 23.3206 12.2445 23.2517 12.3069 23.1414C12.5195 22.7657 12.8514 22.4711 13.2414 22.312C13.7694 22.0964 14.064 21.7229 14.0749 21.2586C14.4277 21.2218 14.9655 21.1066 15.3272 20.7542C15.5681 20.5194 15.6955 20.2096 15.6955 19.8583C15.6955 19.7111 15.6734 19.5581 15.6331 19.4008L17.8536 20.2617C17.9446 20.463 18.1047 20.6316 18.312 20.728C18.483 20.787 18.6206 20.853 18.934 20.7874C19.0272 20.9741 19.1813 21.1295 19.3772 21.2206C19.5049 21.28 19.6392 21.3081 19.7714 21.3081C20.1252 21.3081 20.4647 21.1071 20.6235 20.7657L20.879 20.2165C20.898 20.1756 20.9129 20.1336 20.9258 20.0911C21.6364 19.765 22.101 19.0527 22.101 18.2575C22.101 17.2649 21.3803 16.438 20.4348 16.2711V16.0479C20.4348 15.8538 20.2774 15.6964 20.0832 15.6964C19.8891 15.6964 19.7317 15.8538 19.7317 16.0479V16.2711C18.833 16.4297 18.138 17.1848 18.0714 18.1116L16.6115 17.3022C16.6648 17.1253 16.7146 16.8224 16.6425 16.5334C16.8007 16.5572 16.9649 16.5694 17.1369 16.5694C17.4186 16.5694 17.7208 16.5377 18.0493 16.4752C18.0525 16.4746 18.0558 16.4739 18.059 16.4732C18.3423 16.4109 18.564 16.2088 18.6521 15.9325C18.7402 15.6561 18.6764 15.363 18.4814 15.1482L18.3696 15.0251C18.518 15.0409 18.6669 15.0495 18.8157 15.0495C19.7004 15.0495 20.58 14.772 21.3095 14.2343C21.5403 14.0642 21.6592 13.7926 21.6276 13.5077C21.6032 13.2874 21.4924 13.0947 21.3222 12.9653C22.3631 12.6771 23.2634 11.97 23.7818 10.9788C23.9285 10.6983 23.9151 10.371 23.7458 10.1035C23.5765 9.83589 23.286 9.68304 22.9703 9.69593L22.6584 9.70816C22.786 9.5854 22.9074 9.45551 23.0205 9.3168C23.1432 9.16633 23.1207 8.94485 22.9702 8.82218C22.8198 8.69941 22.5983 8.72196 22.4756 8.87243C22.1815 9.23299 21.8275 9.52966 21.4236 9.75654L16.3608 9.95491L23.0882 6.63823C23.1533 6.60612 23.2065 6.63031 23.2323 6.6476C23.2583 6.6649 23.301 6.70465 23.2965 6.77703C23.2797 7.04224 23.2345 7.3054 23.1619 7.55927C23.1086 7.74588 23.2167 7.94046 23.4034 7.9938ZM21.1046 4.30025C21.1661 4.23823 21.2381 4.24869 21.2663 4.25609C21.2944 4.26345 21.3623 4.2897 21.3854 4.37384C21.5944 5.13317 21.5976 5.93051 21.3964 6.68834L16.1934 9.25343L21.1046 4.30025ZM14.3692 16.173C14.3692 16.4632 14.2003 16.7235 13.9491 16.848C13.7455 16.6323 13.5368 16.4238 13.3306 16.2258C13.6328 16.052 13.9649 15.9368 14.3129 15.8868C14.3499 15.9767 14.3692 16.0733 14.3692 16.173ZM16.2797 6.17131H15.4975C14.9713 6.17131 14.4827 6.43254 14.1905 6.87012C13.8943 7.29762 13.8446 7.94712 14.0876 8.44601H12.3515V7.48034C12.3515 6.22512 13.3727 5.20395 14.6279 5.20395H15.2916C15.5988 5.20395 15.8832 5.34312 16.0716 5.58575C16.2045 5.75675 16.2758 5.96121 16.2797 6.17131ZM11.2189 4.13244C11.3169 3.88564 11.3517 3.61705 11.3242 3.35356H12.676C12.6486 3.61719 12.6833 3.88592 12.7814 4.13276C12.8915 4.40984 13.073 4.64272 13.3052 4.81156C12.7499 5.08793 12.2924 5.53226 11.9999 6.07803C11.7075 5.53226 11.25 5.08793 10.6947 4.81156C10.9272 4.64267 11.1087 4.4097 11.2189 4.13244ZM14.3911 3.85841C14.4096 3.83511 14.4509 3.79611 14.5201 3.79611H15.3308C15.4 3.79611 15.4413 3.83516 15.4598 3.85841C15.4783 3.88166 15.5069 3.93078 15.4911 3.99814L15.3733 4.50308L14.4779 4.50458L14.3597 3.99814C14.3441 3.93078 14.3727 3.8817 14.3911 3.85841ZM10.9074 2.01716C10.9596 1.91193 11.0562 1.84161 11.1724 1.82427C11.2267 1.81621 11.2829 1.82089 11.335 1.83796C11.77 1.98036 12.23 1.98041 12.665 1.83796C12.7171 1.82089 12.7734 1.81625 12.8276 1.82427C12.9438 1.84166 13.0404 1.91197 13.0926 2.01716C13.1449 2.12239 13.1424 2.24183 13.086 2.34491L12.9188 2.65044H11.0812L10.9139 2.34491C10.8575 2.24188 10.8551 2.12239 10.9074 2.01716ZM8.5088 3.99819C8.49309 3.93078 8.52169 3.88166 8.54016 3.85841C8.55863 3.83511 8.59992 3.79611 8.66911 3.79611H9.47981C9.54905 3.79611 9.59034 3.83516 9.60881 3.85841C9.62728 3.88166 9.65587 3.93073 9.64017 3.99814L9.522 4.50458L8.62659 4.50308L8.5088 3.99819ZM8.50247 6.17131H7.72027C7.72416 5.96126 7.79545 5.75679 7.9283 5.58575C8.11678 5.34312 8.40108 5.20395 8.70834 5.20395H9.37205C10.6273 5.20395 11.6484 6.22512 11.6484 7.48034V8.44601H9.91237C10.1437 7.98354 10.1218 7.33043 9.80948 6.87012C9.51726 6.43254 9.02864 6.17131 8.50247 6.17131ZM8.92584 9.50149C8.92584 9.30719 9.08391 9.14913 9.2782 9.14913H14.7218C14.9161 9.14913 15.0742 9.30719 15.0742 9.50149V14.8027C15.0742 14.897 15.0374 14.9856 14.9707 15.0521C14.9042 15.1186 14.8158 15.1551 14.7218 15.1551C13.8456 15.1496 12.9118 15.5113 12.2662 16.1593L12 16.4221L11.7338 16.1593C11.1018 15.5354 10.2726 15.1828 9.38873 15.1576C9.30961 15.1558 9.15427 15.1663 9.02939 15.0522C8.96269 14.9856 8.92589 14.897 8.92589 14.8028L8.92584 9.50149ZM10.0685 16.8566C9.80676 16.7362 9.62976 16.4713 9.62976 16.1729C9.62976 16.0732 9.64912 15.9766 9.68616 15.8867C10.0392 15.9372 10.3761 16.0548 10.682 16.2329C10.4774 16.4319 10.2706 16.641 10.0685 16.8566ZM0.70347 6.77693C0.698876 6.70456 0.741673 6.66476 0.767594 6.64751C0.793422 6.63021 0.846626 6.60603 0.911735 6.63813L7.63917 9.95482L2.57518 9.75644C1.48108 9.14149 0.782641 8.03234 0.70347 6.77693ZM0.841235 10.6529C0.799282 10.5727 0.832235 10.5048 0.84836 10.4793C0.864485 10.4538 0.9115 10.3954 1.0022 10.3984L7.8443 10.6665L3.9039 12.4008C2.63186 12.4669 1.43355 11.7854 0.841235 10.6529ZM3.10764 13.6682C3.07276 13.6426 3.06859 13.6089 3.07126 13.5851C3.07389 13.5614 3.08532 13.5295 3.12498 13.512L8.22272 11.2682V12.1705L6.4696 14.101C5.35618 14.5437 4.07401 14.3805 3.10764 13.6682ZM6.08691 15.7852C6.04383 15.7738 6.02555 15.7431 6.01787 15.7188C6.00985 15.6937 6.00704 15.6563 6.03919 15.6209L8.22272 13.2164V14.8027C8.22272 15.0036 8.27939 15.1954 8.38355 15.3615C7.76396 15.7555 7.09341 15.9892 6.08691 15.7852ZM8.51367 16.0851C8.60705 16.0239 8.75053 15.9598 8.95209 15.9048C8.93583 15.9925 8.92659 16.082 8.92659 16.173C8.92659 16.6759 9.1867 17.1303 9.58903 17.3931C9.45815 17.5474 9.33272 17.7031 9.21464 17.8591C8.54541 17.8074 8.02163 17.3797 8.02163 16.8615C8.02088 16.6039 8.20496 16.2585 8.51367 16.0851ZM8.7533 18.4921L6.09446 19.4205C6.00474 19.3321 5.89824 19.2626 5.77941 19.2164C5.79769 19.1004 5.79385 18.9835 5.76887 18.8705L7.73756 17.8973C7.99167 18.1755 8.34511 18.3864 8.7533 18.4921ZM4.85227 18.8368C4.87266 18.8368 4.8932 18.8395 4.91345 18.8449C4.9741 18.8611 5.02477 18.9 5.05618 18.9544C5.08759 19.0088 5.09593 19.0721 5.07971 19.1327C5.06345 19.1933 5.02459 19.2441 4.97021 19.2754L4.44568 19.5784C4.42042 19.593 4.39337 19.6027 4.36529 19.6072C4.26971 19.6225 4.1731 19.5764 4.12463 19.4925C4.09323 19.4381 4.08488 19.3748 4.1011 19.3141C4.11737 19.2535 4.15623 19.2028 4.2106 19.1715L4.73518 18.8684C4.77137 18.8475 4.81154 18.8368 4.85227 18.8368ZM2.20037 16.6852C2.1497 16.3678 2.36678 16.0683 2.68422 16.0176C2.94282 15.9712 3.29237 16.1589 3.35181 16.5015C3.40248 16.8189 3.1854 17.1184 2.86796 17.1691C2.55039 17.2196 2.251 17.0026 2.20037 16.6852ZM5.03035 20.596C5.00509 20.6106 4.97804 20.6202 4.94996 20.6247C4.85438 20.6401 4.75773 20.5939 4.70926 20.51C4.67785 20.4556 4.66951 20.3923 4.68577 20.3317C4.70199 20.271 4.74085 20.2203 4.79523 20.189C4.80043 20.1852 5.30209 19.8955 5.31985 19.8859C5.37423 19.8546 5.43746 19.8462 5.49812 19.8624C5.55877 19.8787 5.60944 19.9176 5.6409 19.9719C5.6723 20.0263 5.68065 20.0896 5.66438 20.1503C5.64816 20.2109 5.60926 20.2616 5.55493 20.293L5.03035 20.596ZM14.8373 20.2496C14.6385 20.4443 14.2838 20.5267 14.0179 20.5569C13.9762 20.3063 13.913 20.0538 13.8283 19.8069C13.7653 19.6232 13.5653 19.5255 13.3817 19.5884C13.198 19.6514 13.1002 19.8514 13.1632 20.035C13.2983 20.4289 13.3727 20.8539 13.3727 21.2319C13.3727 21.2979 13.3727 21.4988 12.9756 21.6609C12.6013 21.8137 12.2666 22.0562 11.9997 22.3636C11.7328 22.0568 11.3977 21.8144 11.023 21.6615C10.6272 21.5001 10.6272 21.3052 10.6272 21.2319C10.6272 20.0184 11.3456 18.6859 11.9999 18.6859C12.1288 18.6859 12.2631 18.7368 12.3992 18.8373C12.5554 18.9526 12.7755 18.9195 12.8908 18.7632C13.0061 18.607 12.9729 18.3869 12.8167 18.2716C12.5571 18.08 12.2824 17.9828 11.9999 17.9828C11.4243 17.9828 10.8822 18.3879 10.4734 19.1234C10.2369 19.5488 10.0659 20.0543 9.98217 20.5567C9.7184 20.5261 9.36183 20.4438 9.16359 20.2506C9.05719 20.147 9.00769 20.0223 9.00769 19.8583C9.00769 19.1945 9.82003 18.0391 11.2458 16.6656L11.753 17.1662C11.8214 17.2338 11.9107 17.2676 12 17.2676C12.0893 17.2676 12.1785 17.2338 12.247 17.1662L12.7601 16.6597C12.7612 16.6586 12.7624 16.6576 12.7634 16.6566C13.0641 16.9419 13.3378 17.2189 13.5818 17.4847C13.5831 17.4862 13.5846 17.4877 13.586 17.4893C14.4914 18.4766 14.9923 19.3108 14.9923 19.8582C14.9923 20.0218 14.943 20.1462 14.8373 20.2496ZM18.6085 20.0905C18.5207 20.0497 18.4662 19.9574 18.473 19.8608C18.475 19.8324 18.4822 19.8046 18.4945 19.7783L18.75 19.229C18.7765 19.1721 18.8236 19.1288 18.8825 19.1073C18.9088 19.0977 18.9361 19.0929 18.9633 19.0929C18.9971 19.0929 19.0307 19.1003 19.0623 19.115C19.1192 19.1415 19.1624 19.1886 19.184 19.2475C19.2055 19.3065 19.2028 19.3703 19.1763 19.4272C19.1742 19.4335 18.9299 19.9582 18.9208 19.9765C18.8943 20.0334 18.8472 20.0767 18.7883 20.0982C18.7292 20.1196 18.6654 20.1169 18.6085 20.0905ZM20.2414 19.9198L19.9858 20.469C19.9312 20.5866 19.791 20.6377 19.6736 20.583C19.5858 20.5422 19.5313 20.4499 19.5381 20.3534C19.5401 20.325 19.5473 20.2972 19.5596 20.2708L19.8151 19.7215C19.8416 19.6646 19.8887 19.6215 19.9476 19.5999C20.0066 19.5784 20.0704 19.5811 20.1274 19.6076C20.1843 19.6341 20.2275 19.6811 20.249 19.7401C20.2706 19.7991 20.2679 19.8629 20.2414 19.9198ZM20.0831 16.9429C20.808 16.9429 21.3977 17.5326 21.3977 18.2575C21.3977 18.6964 21.18 19.096 20.8323 19.3373C20.7368 19.1777 20.5962 19.0502 20.4239 18.97C20.2273 18.8786 20.0101 18.8584 19.8027 18.9102C19.7084 18.72 19.554 18.5683 19.3588 18.4774C19.1748 18.3918 18.9727 18.3695 18.7775 18.4094C18.7717 18.3593 18.7685 18.3086 18.7685 18.2574C18.7685 17.5326 19.3582 16.9429 20.0831 16.9429ZM18.1103 18.9371L17.8473 19.5051L15.2386 18.4937C15.6449 18.39 15.9973 18.1819 16.2523 17.907L18.1103 18.9371ZM15.9773 16.8615C15.9773 17.3735 15.466 17.7968 14.8084 17.8568C14.6886 17.6972 14.5606 17.5383 14.4272 17.3812C14.8194 17.1162 15.0723 16.6668 15.0723 16.173C15.0723 16.082 15.0631 15.9925 15.0468 15.9048C15.4508 15.9848 15.9821 16.3636 15.9773 16.8615ZM17.9821 15.7188C17.9742 15.7434 17.9556 15.7746 17.9113 15.7856C16.9279 15.9846 16.3177 15.7991 15.6162 15.3618C15.7205 15.1957 15.7772 15.0038 15.7772 14.8027V13.2164L17.9607 15.6209C17.993 15.6563 17.9901 15.6937 17.9821 15.7188ZM20.8923 13.6682C19.9259 14.3804 18.6438 14.5437 17.5303 14.101L15.7772 12.1705V11.2682L20.875 13.512C20.9146 13.5294 20.9261 13.5614 20.9287 13.5851C20.9314 13.6089 20.9272 13.6426 20.8923 13.6682ZM22.9977 10.3984C23.0882 10.3958 23.1355 10.4538 23.1516 10.4793C23.1677 10.5048 23.2007 10.5727 23.1587 10.6529C22.5664 11.7854 21.3685 12.4672 20.0961 12.4009L16.1556 10.6665L22.9977 10.3984Z" fill="black"/>
<path d="M9.98198 14.452C10.623 14.444 11.3083 14.7542 11.7347 15.2698C11.8015 15.3465 11.8982 15.3905 11.9999 15.3905C12.1015 15.3905 12.1982 15.3465 12.265 15.2698C12.6605 14.7862 13.3497 14.4408 14.0164 14.452C14.1115 14.4515 14.1997 14.4155 14.2658 14.3495C14.3321 14.2835 14.3693 14.1939 14.3693 14.1004V10.2054C14.3693 10.0113 14.2119 9.85388 14.0177 9.85388H9.98193C9.78778 9.85388 9.63037 10.0113 9.63037 10.2054V11.4021C9.63037 11.5963 9.78778 11.7537 9.98193 11.7537C10.1761 11.7537 10.3335 11.5963 10.3335 11.4021V10.557H13.6662V13.7686C13.0442 13.8405 12.461 14.1074 11.9999 14.5314C11.5387 14.1073 10.9556 13.8405 10.3335 13.7686V13.0427C10.3335 12.8486 10.1761 12.6912 9.98198 12.6912C9.78782 12.6912 9.63042 12.8486 9.63042 13.0427V14.1004C9.63042 14.1939 9.66764 14.2835 9.73387 14.3495C9.79978 14.4151 9.88898 14.452 9.98198 14.452Z" fill="black"/>
</g>
<defs>
<clipPath id="clip0_314_14316">
<rect width="24" height="24" fill="white"/>
</clipPath>
</defs>
</svg>
