<svg width="16" height="16" viewBox="0 0 16 16" fill="none" xmlns="http://www.w3.org/2000/svg">
<g clip-path="url(#clip0_314_11121)">
<path d="M4.8001 10.2969L4.76885 10.0125C4.62197 8.675 4.62197 7.325 4.76885 5.9875L4.8001 5.70312H11.2032L11.2345 5.9875C11.3095 6.65625 11.347 7.32812 11.347 8C11.347 8.67188 11.3095 9.34375 11.2345 10.0125L11.2032 10.2969H4.8001Z" fill="#0A0A0A"/>
<path d="M0.796875 4.47502L1.07812 3.99377C1.85625 2.65315 3.00313 1.56565 4.38438 0.865649L5.26875 0.415649L4.81563 1.2969C4.75625 1.41252 4.69688 1.53127 4.64375 1.65315C4.29688 2.40627 4.01875 3.26877 3.8125 4.2219L3.75938 4.47502H0.796875Z" fill="#0A0A0A"/>
<path d="M4.38438 15.1344C3.00313 14.4313 1.85625 13.3469 1.07812 12.0063L0.796875 11.525H3.75625L3.80938 11.7781C4.0125 12.7281 4.29375 13.5938 4.64062 14.3469C4.69688 14.4657 4.75312 14.5844 4.8125 14.7031L5.26562 15.5844L4.38438 15.1344Z" fill="#0A0A0A"/>
<path d="M0.331299 10.2969L0.268799 10.0594C-0.0905762 8.70937 -0.0905762 7.29063 0.268799 5.94063L0.331299 5.70312H3.55942L3.52192 6.05625C3.39067 7.35 3.39067 8.65313 3.52192 9.94375L3.55942 10.2969H0.331299Z" fill="#0A0A0A"/>
<path d="M5.00635 4.475L5.10322 4.07812C5.2626 3.42188 5.48135 2.78125 5.75635 2.16875C6.39072 0.7875 7.20947 0 8.0001 0C8.79072 0 9.60947 0.7875 10.2407 2.16563C10.5188 2.78125 10.7376 3.42187 10.8938 4.075L10.9907 4.47188L5.00635 4.475Z" fill="#0A0A0A"/>
<path d="M8.00002 16C7.2094 16 6.39065 15.2125 5.7594 13.8343C5.48127 13.2187 5.26252 12.5781 5.10627 11.925L5.0094 11.5281H10.9969L10.9 11.925C10.7406 12.5812 10.5219 13.2218 10.2469 13.8343C9.6094 15.2125 8.79065 16 8.00002 16Z" fill="#0A0A0A"/>
<path d="M12.2437 4.47502L12.1906 4.2219C11.9875 3.2719 11.7063 2.40627 11.3594 1.65315C11.3031 1.5344 11.2469 1.41252 11.1875 1.2969L10.7344 0.415649L11.6187 0.865649C13 1.56565 14.1469 2.65315 14.925 3.99377L15.2063 4.47502H12.2437Z" fill="#0A0A0A"/>
<path d="M12.4407 10.2969L12.475 9.94375C12.5407 9.29688 12.5719 8.65 12.5719 8C12.5719 7.35 12.5407 6.70313 12.475 6.05625L12.4407 5.70312H15.6688L15.7313 5.94063C16.0907 7.29063 16.0907 8.70937 15.7313 10.0594L15.6688 10.2969H12.4407Z" fill="#0A0A0A"/>
<path d="M11.1844 14.7031C11.2438 14.5875 11.3031 14.4688 11.3563 14.3469C11.7031 13.5938 11.9813 12.7281 12.1875 11.7781L12.2407 11.525H15.2L14.9188 12.0063C14.1406 13.3469 12.9938 14.4313 11.6125 15.1344L10.7281 15.5844L11.1844 14.7031Z" fill="#0A0A0A"/>
</g>
<defs>
<clipPath id="clip0_314_11121">
<rect width="16" height="16" fill="white"/>
</clipPath>
</defs>
</svg>
