<svg width="24" height="24" viewBox="0 0 24 24" fill="none" xmlns="http://www.w3.org/2000/svg">
<path d="M7.33984 22.9053C6.90362 22.9049 6.48162 22.7501 6.14874 22.4682C5.81586 22.1862 5.59362 21.7955 5.52148 21.3653L5.15771 19.1832C5.15066 19.1279 5.13135 19.075 5.10119 19.0282C5.07103 18.9814 5.03078 18.9419 4.9834 18.9126C4.34175 18.5913 3.76527 18.1537 3.2832 17.6221C0.781739 14.7295 0.781739 7.05717 3.2832 4.16411C5.042 2.13037 8.93945 1.40527 12.0005 1.40527C15.061 1.40576 18.959 2.13037 20.7168 4.16406C23.2188 7.05713 23.2188 14.7295 20.7168 17.6226C18.9258 19.6948 14.9287 20.3931 11.8018 20.3711C11.7373 20.3719 11.6741 20.3897 11.6187 20.4229L8.36041 22.5952C8.05836 22.7972 7.7032 22.9051 7.33984 22.9053ZM12 2.90527C8.57031 2.90527 5.59424 3.78467 4.418 5.14551C2.42044 7.45508 2.42044 14.3315 4.418 16.6411C4.77869 17.0313 5.20802 17.3519 5.6846 17.5869C5.93606 17.724 6.1527 17.917 6.31786 18.1509C6.48302 18.3849 6.59228 18.6537 6.63724 18.9365L7.001 21.1182C7.01031 21.1746 7.03361 21.2278 7.06877 21.2729C7.10394 21.318 7.14984 21.3535 7.2023 21.3763C7.25475 21.3991 7.31207 21.4083 7.36903 21.4033C7.42598 21.3982 7.48076 21.3789 7.52834 21.3472L10.7871 19.1743C11.0929 18.9734 11.4515 18.8678 11.8174 18.8711C15.3447 18.8896 18.3819 18.0293 19.5821 16.6416C21.5791 14.3315 21.5791 7.45507 19.5821 5.1455C18.4063 3.78466 15.4297 2.90575 12.001 2.90526L12 2.90527Z" fill="#D20912"/>
<path d="M12 11.75C11.8011 11.7499 11.6104 11.6709 11.4697 11.5303C11.3291 11.3896 11.2501 11.1989 11.25 11V7C11.25 6.80109 11.329 6.61032 11.4697 6.46967C11.6103 6.32902 11.8011 6.25 12 6.25C12.1989 6.25 12.3897 6.32902 12.5303 6.46967C12.671 6.61032 12.75 6.80109 12.75 7V11C12.7499 11.1989 12.6709 11.3896 12.5303 11.5303C12.3896 11.6709 12.1989 11.7499 12 11.75Z" fill="#D20912"/>
<path d="M12 14.75C12.5523 14.75 13 14.3023 13 13.75C13 13.1977 12.5523 12.75 12 12.75C11.4477 12.75 11 13.1977 11 13.75C11 14.3023 11.4477 14.75 12 14.75Z" fill="#D20912"/>
</svg>
