<svg width="33" height="32" viewBox="0 0 33 32" fill="none" xmlns="http://www.w3.org/2000/svg">
<path d="M6.90039 5.33317C6.90039 3.86042 8.09431 2.6665 9.56706 2.6665H19.1671C20.6398 2.6665 21.8337 3.86042 21.8337 5.33317V22.9332C21.8337 24.4059 20.6398 25.5998 19.1671 25.5998H9.56706C8.09431 25.5998 6.90039 24.4059 6.90039 22.9332V5.33317Z" fill="#FFD4D4"/>
<path d="M14.6338 22.6667C14.6338 26.3486 17.6186 29.3333 21.3005 29.3333C24.9823 29.3333 27.9671 26.3486 27.9671 22.6667C27.9671 18.9848 24.9823 16 21.3005 16C17.6186 16 14.6338 18.9848 14.6338 22.6667Z" fill="#CE3B3B"/>
<path fill-rule="evenodd" clip-rule="evenodd" d="M22.3667 20C22.3667 19.4109 21.8892 18.9333 21.3001 18.9333C20.711 18.9333 20.2334 19.4109 20.2334 20V22.6667C20.2334 23.2558 20.711 23.7334 21.3001 23.7334C21.8892 23.7334 22.3667 23.2558 22.3667 22.6667V20ZM21.3001 26.4C21.8892 26.4 22.3667 25.9224 22.3667 25.3334C22.3667 24.7443 21.8892 24.2667 21.3001 24.2667C20.711 24.2667 20.2334 24.7443 20.2334 25.3334C20.2334 25.9224 20.711 26.4 21.3001 26.4Z" fill="#FFD4D4"/>
</svg>
