<svg width="40" height="41" viewBox="0 0 40 41" fill="none" xmlns="http://www.w3.org/2000/svg">
<g clip-path="url(#clip0_357_790)">
<path d="M27.7988 40.5H12.2012C11.8903 40.5 11.5923 40.3766 11.3726 40.1567L0.343281 29.1275C0.123438 28.9077 0 28.6097 0 28.2988V12.7012C0 12.3903 0.123438 12.0923 0.343281 11.8726L11.3725 0.843281C11.5923 0.623438 11.8903 0.5 12.2012 0.5H27.7988C28.1097 0.5 28.4077 0.623438 28.6274 0.843281L39.6567 11.8726C39.8765 12.0923 40 12.3904 40 12.7012V28.2988C40 28.6097 39.8766 28.9077 39.6567 29.1274L28.6275 40.1567C28.4077 40.3766 28.1097 40.5 27.7988 40.5Z" fill="#FF674F"/>
<path d="M27.7988 40.5C28.1097 40.5 28.4077 40.3766 28.6274 40.1567L39.6567 29.1274C39.8765 28.9077 40 28.6096 40 28.2988V12.7012C40 12.3903 39.8766 12.0923 39.6567 11.8726L28.6275 0.843281C28.4077 0.623438 28.1097 0.5 27.7988 0.5H20V40.5H27.7988Z" fill="#F2472C"/>
<path d="M22.2994 25.301H17.7007C17.2398 25.301 16.8605 24.9383 16.8399 24.4779L16.0955 7.79423C16.0517 6.81345 16.8351 5.99438 17.8168 5.99438H22.1832C23.1649 5.99438 23.9482 6.81345 23.9045 7.79423L23.16 24.4779C23.1395 24.9383 22.7603 25.301 22.2994 25.301Z" fill="white"/>
<path d="M20 35.0056C18.2751 35.0056 16.8767 33.6073 16.8767 31.8823C16.8767 30.1574 18.2751 28.7591 20 28.7591C21.7249 28.7591 23.1233 30.1574 23.1233 31.8823C23.1233 33.6073 21.7249 35.0056 20 35.0056Z" fill="white"/>
<path d="M20.0004 28.7591V35.0056C21.7251 35.0054 23.1233 33.6072 23.1233 31.8823V31.8823C23.1233 30.1575 21.7251 28.7593 20.0004 28.7591Z" fill="#FFEDCD"/>
<path d="M22.1832 5.99438H20.0004V25.301H22.2994C22.7602 25.301 23.1395 24.9384 23.1601 24.4779L23.9045 7.79423C23.9483 6.81345 23.165 5.99438 22.1832 5.99438Z" fill="#FFEDCD"/>
</g>
<defs>
<clipPath id="clip0_357_790">
<rect width="40" height="40" fill="white" transform="translate(0 0.5)"/>
</clipPath>
</defs>
</svg>
