<svg width="32" height="32" viewBox="0 0 32 32" fill="none" xmlns="http://www.w3.org/2000/svg">
<path d="M20.0371 2.90601H18.1621C19.525 2.90601 20.6298 4.01082 20.6298 5.37369V5.47294C20.6298 6.83582 19.525 7.94063 18.1621 7.94063H20.0371C21.4 7.94063 22.5048 6.83582 22.5048 5.47294V5.37369C22.5048 4.01088 21.4 2.90601 20.0371 2.90601Z" fill="#0272B8" fill-opacity="0.48"/>
<path d="M25.3478 20.28C19.1828 21.5728 12.8167 21.5728 6.65171 20.28C6.35646 20.218 6.14502 19.9576 6.14502 19.656V10.2906C6.14502 9.93851 6.43046 9.65308 6.78258 9.65308H25.217C25.5691 9.65308 25.8546 9.93851 25.8546 10.2906V19.656C25.8545 19.9576 25.6431 20.2181 25.3478 20.28Z" fill="#0272B8" fill-opacity="0.48"/>
<path d="M19.4589 27.3555H12.5454C12.3728 27.3555 12.2329 27.2155 12.2329 27.043V25.9443C12.2329 25.7718 12.3728 25.6318 12.5454 25.6318H19.4589C19.6315 25.6318 19.7714 25.7718 19.7714 25.9443V27.043C19.7714 27.2155 19.6315 27.3555 19.4589 27.3555Z" fill="#0272B8" fill-opacity="0.48"/>
<path d="M20.0373 8.40939C21.6565 8.40939 22.9737 7.09207 22.9737 5.47295C23.0273 3.82007 21.6933 2.43407 20.0373 2.43726H11.9624C10.3064 2.43407 8.97235 3.82014 9.02598 5.47295C9.02598 7.09207 10.3433 8.40939 11.9624 8.40939H20.0373ZM9.96348 5.47289C9.91173 4.33714 10.8223 3.37157 11.9624 3.3747H20.0372C21.1774 3.37157 22.0879 4.3372 22.0362 5.47289C22.0362 6.57514 21.1394 7.47182 20.0372 7.47182H11.9624C10.8602 7.47189 9.96348 6.57514 9.96348 5.47289Z" fill="#0A0A0A"/>
<path d="M5.67627 10.2904V19.6558C5.67627 20.1763 6.04602 20.6316 6.55552 20.7385C9.68889 21.3956 12.8443 21.7242 15.9998 21.7242C19.1552 21.7242 22.3106 21.3956 25.444 20.7385H25.4441C25.9535 20.6316 26.3233 20.1763 26.3233 19.6558V10.2904C26.3233 9.68033 25.827 9.18408 25.217 9.18408H6.78258C6.17258 9.18408 5.67627 9.68039 5.67627 10.2904ZM25.3858 10.2904V19.6558C25.3858 19.7352 25.3293 19.8047 25.2516 19.8211C19.1125 21.1084 12.887 21.1084 6.74796 19.8211C6.67021 19.8047 6.61377 19.7353 6.61377 19.6558V10.2904C6.61377 10.1973 6.68952 10.1216 6.78258 10.1216H25.217C25.31 10.1216 25.3858 10.1973 25.3858 10.2904Z" fill="#0A0A0A"/>
<path d="M10.9185 24.2409V23.1694C10.9185 22.5938 10.5058 22.1108 9.93725 22.0209L7.19806 21.5881C6.51563 21.4633 5.83719 22.0429 5.85382 22.7366V24.2408C5.85382 24.882 6.37544 25.4036 7.01656 25.4036H9.75575C10.3969 25.4036 10.9185 24.882 10.9185 24.2409ZM6.79132 24.2409V22.7366C6.80982 22.5702 6.89688 22.5074 7.05175 22.5141L9.79094 22.947C9.90113 22.9644 9.98107 23.0579 9.98107 23.1695V24.2409C9.98107 24.3651 9.88 24.4662 9.75582 24.4662H7.01663C6.89231 24.4661 6.79132 24.3651 6.79132 24.2409Z" fill="#0A0A0A"/>
<path d="M26.3235 24.241V22.7367C26.34 22.0429 25.6618 21.4637 24.9792 21.5882L22.2401 22.0211C21.6715 22.111 21.2588 22.5939 21.2588 23.1696V24.2411C21.2588 24.8822 21.7804 25.4038 22.4215 25.4038H25.1607C25.8019 25.4037 26.3235 24.8821 26.3235 24.241ZM22.1963 24.241V23.1696C22.1963 23.0581 22.2762 22.9645 22.3864 22.9471L25.1256 22.5142C25.2805 22.5075 25.3675 22.5702 25.386 22.7367V24.2409C25.386 24.3651 25.285 24.4662 25.1608 24.4662H22.4216C22.2974 24.4662 22.1963 24.3652 22.1963 24.241Z" fill="#0A0A0A"/>
<path d="M8.77632 26.7827C8.41557 26.2789 7.66863 26.7776 7.99694 27.3033C8.35657 27.8072 9.10313 27.3087 8.77632 26.7827Z" fill="#0A0A0A"/>
<path d="M24.1812 26.7826C24.0093 26.5088 23.5724 26.5086 23.4012 26.7826C23.192 27.0819 23.4251 27.5201 23.7912 27.5113C24.1571 27.5196 24.3902 27.0822 24.1812 26.7826Z" fill="#0A0A0A"/>
<path d="M12.5454 25.1628C12.1146 25.1628 11.7642 25.5133 11.7642 25.9441V27.0427C11.7642 27.4735 12.1146 27.824 12.5454 27.824H19.4589C19.8897 27.824 20.2402 27.4735 20.2402 27.0427V25.9441C20.2402 25.5133 19.8897 25.1628 19.4589 25.1628H12.5454ZM19.3027 26.8865H12.7017V26.1004H19.3027V26.8865Z" fill="#0A0A0A"/>
<path d="M30.3164 11.2043H29.9786V10.9281C29.9786 9.96651 29.1963 9.18426 28.2347 9.18426H27.9454V8.09876C27.9454 3.68038 24.3507 0.0856934 19.9324 0.0856934H12.0677C10.8017 0.0856934 9.59025 0.372631 8.46712 0.938443C8.23594 1.05494 8.14294 1.33676 8.25944 1.56794C8.37588 1.79913 8.65763 1.89219 8.88894 1.77569C9.88006 1.27638 10.9496 1.02319 12.0677 1.02319H19.9322C23.8337 1.02319 27.0077 4.19726 27.0077 8.09876V27.9584C27.0077 28.3893 26.6573 28.7397 26.2265 28.7397H24.7822C24.5234 28.7397 24.3135 28.9495 24.3135 29.2084C24.3135 29.4674 24.5234 29.6772 24.7822 29.6772H25.3431V30.5083C25.3431 30.7668 25.1328 30.9771 24.8743 30.9771H22.439C22.1805 30.9771 21.9702 30.7668 21.9702 30.5083V29.6772H22.7358C22.9947 29.6772 23.2046 29.4674 23.2046 29.2084C23.2046 28.9495 22.9947 28.7397 22.7358 28.7397C19.3343 28.7397 9.00519 28.7397 5.77344 28.7397C5.34263 28.7397 4.99219 28.3893 4.99219 27.9584V8.09869C4.99219 6.06513 5.86869 4.12788 7.397 2.78376C7.59137 2.61282 7.61037 2.31657 7.43944 2.12219C7.26844 1.92782 6.97219 1.90876 6.77787 2.07976C5.04731 3.60188 4.05475 5.79563 4.05475 8.09869V9.18419H3.76544C2.80387 9.18419 2.02156 9.96651 2.02156 10.9281V11.2042H1.68375C0.75525 11.2043 0 11.9596 0 12.8879V18.3756C0 19.304 0.75525 20.0593 1.68362 20.0593H1.7235C2.40475 20.0593 2.959 19.505 2.959 18.8238V10.9281C2.959 10.4835 3.32075 10.1218 3.76537 10.1218H4.05469V27.9584C4.05469 28.888 4.79663 29.6471 5.71938 29.6758V30.5083C5.71938 31.2837 6.35019 31.9146 7.12563 31.9146H9.56094C10.3364 31.9146 10.9672 31.2837 10.9672 30.5083V29.6772H21.0327V30.5083C21.0327 31.2837 21.6636 31.9146 22.439 31.9146H24.8743C25.6498 31.9146 26.2806 31.2837 26.2806 30.5083V29.6758C27.2033 29.6471 27.9452 28.888 27.9452 27.9584V10.1217H28.2346C28.6792 10.1217 29.0409 10.4834 29.0409 10.9281V18.8238C29.0409 19.505 29.5952 20.0593 30.2764 20.0593H30.3163C31.2447 20.0593 31.9999 19.304 31.9999 18.3757V12.8879C32 11.9596 31.2448 11.2043 30.3164 11.2043ZM2.0215 18.8238C2.0215 18.9881 1.88781 19.1218 1.7235 19.1218H1.68362C1.27219 19.1218 0.9375 18.7871 0.9375 18.3757V12.8879C0.9375 12.4765 1.27219 12.1418 1.68362 12.1418H2.02144V18.8238H2.0215ZM10.0297 30.5083C10.0297 30.7668 9.8195 30.977 9.561 30.977H7.12569C6.86719 30.977 6.65694 30.7668 6.65694 30.5083V29.6771H10.0297V30.5083ZM31.0625 18.3756C31.0625 18.7871 30.7278 19.1218 30.3164 19.1218H30.2765C30.1122 19.1218 29.9785 18.9881 29.9785 18.8238V12.1418H30.3163C30.7278 12.1418 31.0624 12.4764 31.0624 12.8879V18.3756H31.0625Z" fill="#0A0A0A"/>
<path d="M8.0244 14.6813C8.14434 14.6813 8.26434 14.6356 8.35584 14.5441L11.085 11.8148C11.2681 11.6317 11.2681 11.335 11.085 11.1519C10.902 10.9689 10.6051 10.9689 10.4221 11.1519L7.69296 13.8811C7.5099 14.0643 7.5099 14.361 7.69296 14.5441C7.78446 14.6356 7.9044 14.6813 8.0244 14.6813Z" fill="#0A0A0A"/>
<path d="M8.0244 17.465C8.14434 17.465 8.26434 17.4192 8.35584 17.3277L13.8687 11.8148C14.0518 11.6317 14.0518 11.335 13.8687 11.1519C13.6856 10.9689 13.3888 10.9689 13.2058 11.1519L7.69296 16.6648C7.5099 16.8479 7.5099 17.1446 7.69296 17.3277C7.78446 17.4192 7.9044 17.465 8.0244 17.465Z" fill="#0A0A0A"/>
</svg>
