<svg width="28" height="35" viewBox="0 0 28 35" fill="none" xmlns="http://www.w3.org/2000/svg">
<circle cx="14" cy="14" r="14" fill="#DE3A34"/>
<path d="M10.5316 13.9368C12.7165 12.6673 15.402 12.6895 17.5664 13.9949C19.7095 15.3269 21.012 17.7042 20.9999 20.2614C20.95 22.8019 19.5533 25.19 17.8075 27.0361C16.7998 28.1064 15.6726 29.0528 14.4488 29.856C14.3228 29.9289 14.1847 29.9777 14.0415 30C13.9036 29.9941 13.7693 29.9534 13.6508 29.8814C11.7824 28.6746 10.1433 27.134 8.81233 25.334C7.69859 23.8314 7.06583 22.016 7 20.1344L7.00499 19.8607C7.09592 17.4046 8.4248 15.1609 10.5316 13.9368ZM14.9073 18.0348C14.0191 17.6572 12.995 17.8623 12.3133 18.5543C11.6316 19.2463 11.4266 20.2887 11.7942 21.1948C12.1617 22.1008 13.0292 22.6918 13.9916 22.6918C14.6221 22.6964 15.2282 22.4438 15.6748 21.9905C16.1214 21.5371 16.3715 20.9206 16.3693 20.2784C16.3726 19.298 15.7955 18.4123 14.9073 18.0348Z" fill="#DE3A34"/>
<path d="M14.9073 18.0348C14.0191 17.6572 12.995 17.8623 12.3133 18.5543C11.6316 19.2463 11.4266 20.2887 11.7942 21.1948C12.1617 22.1008 13.0292 22.6918 13.9916 22.6918C14.6221 22.6964 15.2282 22.4438 15.6748 21.9905C16.1214 21.5371 16.3715 20.9206 16.3693 20.2784C16.3726 19.298 15.7955 18.4123 14.9073 18.0348Z" fill="#DE3A34"/>
<path opacity="0.4" d="M14 33C16.7614 33 19 32.5523 19 32C19 31.4477 16.7614 31 14 31C11.2386 31 9 31.4477 9 32C9 32.5523 11.2386 33 14 33Z" fill="black"/>
</svg>
