<svg width="32" height="32" viewBox="0 0 32 32" fill="none" xmlns="http://www.w3.org/2000/svg">
<g clip-path="url(#clip0_700_50928)">
<path d="M16 26.1334C21.5965 26.1334 26.1334 21.5965 26.1334 16C26.1334 10.4035 21.5965 5.8667 16 5.8667C10.4035 5.8667 5.8667 10.4035 5.8667 16C5.8667 21.5965 10.4035 26.1334 16 26.1334Z" fill="#0272B8" fill-opacity="0.48"/>
<path d="M22.8367 13.7185C23.0088 12.7404 22.9483 11.7355 22.6602 10.7851L22.3178 9.6582C21.8829 8.37807 20.4925 7.69294 19.2124 8.12787C18.4923 8.37254 17.9267 8.93807 17.6821 9.6582L17.3397 10.7851C17.0515 11.7355 16.9911 12.7404 17.1631 13.7185C17.3201 14.5419 17.8429 15.2494 18.5839 15.6411L18.2005 24.2134C18.1491 24.6919 18.3043 25.1695 18.6271 25.5265C19.3213 26.2858 20.4997 26.3386 21.2591 25.6444C21.3001 25.6069 21.3395 25.5675 21.377 25.5265C21.6926 25.1797 21.8475 24.716 21.8037 24.2491L21.4181 15.6401C22.1581 15.2481 22.6801 14.5411 22.8367 13.7185ZM21.7861 13.5329C21.6706 14.1245 21.249 14.6099 20.6794 14.807C20.4632 14.8883 20.3239 15.0995 20.3343 15.3302L20.7397 24.3334C20.7583 24.51 20.7001 24.6861 20.5797 24.8166C20.2585 25.1345 19.7413 25.1345 19.4202 24.8166C19.2938 24.6755 19.2364 24.4857 19.2634 24.2982L19.6655 15.3302C19.6759 15.0995 19.5367 14.8883 19.3205 14.807C18.7509 14.6099 18.3293 14.1245 18.2138 13.5329C18.0711 12.7209 18.1214 11.8867 18.3605 11.0977L18.7029 9.9702C18.9678 9.25387 19.7633 8.88794 20.4797 9.15287C20.8584 9.29294 21.1569 9.59154 21.297 9.9702L21.6394 11.0977C21.8782 11.8867 21.9285 12.7209 21.7861 13.5329Z" fill="#0A0A0A"/>
<path d="M14.7773 13.7104C14.8773 13.6104 14.9336 13.4748 14.9336 13.3333V8.53333C14.9336 8.2388 14.6948 8 14.4002 8C14.1057 8 13.8669 8.2388 13.8669 8.53333V13.1125L12.4232 14.5563C12.3164 14.6627 12.2596 14.8094 12.2669 14.96L12.7336 24.2933C12.7447 24.4946 12.6716 24.6915 12.532 24.8368C12.24 25.1313 11.7646 25.1335 11.47 24.8415C11.4684 24.8399 11.4668 24.8383 11.4653 24.8368C11.3256 24.6915 11.2526 24.4946 11.2637 24.2933L11.7336 14.96C11.741 14.8095 11.6844 14.6628 11.5778 14.5563L10.1336 13.1125V8.53333C10.1336 8.2388 9.89476 8 9.60023 8C9.30569 8 9.06689 8.2388 9.06689 8.53333V13.3333C9.06689 13.4748 9.12316 13.6104 9.22316 13.7104L10.6557 15.1435L10.2008 24.2416C10.1524 25.2354 10.9188 26.0803 11.9126 26.1287C12.9064 26.1771 13.7513 25.4107 13.7997 24.4169C13.8026 24.3585 13.8026 24.3001 13.7997 24.2417L13.3448 15.1435L14.7773 13.7104Z" fill="#0A0A0A"/>
<path d="M11.1998 13.3333C11.4944 13.3333 11.7332 13.0945 11.7332 12.8V8.53333C11.7332 8.2388 11.4944 8 11.1998 8C10.9053 8 10.6665 8.2388 10.6665 8.53333V12.8C10.6665 13.0945 10.9053 13.3333 11.1998 13.3333Z" fill="#0A0A0A"/>
<path d="M12.2666 8.53333V12.8C12.2666 13.0945 12.5054 13.3333 12.7999 13.3333C13.0945 13.3333 13.3333 13.0945 13.3333 12.8V8.53333C13.3333 8.2388 13.0945 8 12.7999 8C12.5054 8 12.2666 8.2388 12.2666 8.53333Z" fill="#0A0A0A"/>
<path d="M16 0C7.16347 0 0 7.16347 0 16C0 24.8365 7.16347 32 16 32C24.8365 32 32 24.8365 32 16C31.99 7.1676 24.8324 0.01 16 0ZM16 30.9333C7.75253 30.9333 1.06667 24.2475 1.06667 16C1.06667 7.75253 7.75253 1.06667 16 1.06667C24.2475 1.06667 30.9333 7.75253 30.9333 16C30.9239 24.2435 24.2435 30.9239 16 30.9333Z" fill="#0A0A0A"/>
<path d="M17.1304 25.5343C16.3795 25.6215 15.621 25.6215 14.8701 25.5343C14.5774 25.4999 14.3124 25.7093 14.2781 26.002C14.2438 26.2947 14.4532 26.5597 14.7458 26.594C15.5786 26.6913 16.4198 26.6913 17.2525 26.594C17.5456 26.5654 17.7601 26.3045 17.7315 26.0113C17.7029 25.7182 17.442 25.5037 17.1488 25.5323C17.142 25.533 17.1351 25.5338 17.1282 25.5347L17.1304 25.5343Z" fill="#0A0A0A"/>
<path d="M23.4064 9.06338C23.1813 9.25324 23.1526 9.58964 23.3424 9.81484C26.5581 13.6322 26.3121 19.2768 22.7765 22.7999C22.5679 23.0078 22.5673 23.3456 22.7752 23.5543C22.9831 23.763 23.3209 23.7636 23.5296 23.5556C27.4587 19.6414 27.7327 13.3693 24.16 9.12738C23.9707 8.90171 23.6343 8.87218 23.4087 9.06151C23.4079 9.06211 23.4071 9.06278 23.4064 9.06338Z" fill="#0A0A0A"/>
<path d="M12.4234 7.04968C12.4878 7.04955 12.5516 7.03782 12.6117 7.01502C14.4196 6.33895 16.3881 6.21822 18.265 6.66835C18.5514 6.73755 18.8396 6.56162 18.9088 6.27528C18.978 5.98895 18.802 5.70075 18.5157 5.63155C16.4314 5.13202 14.2454 5.26628 12.2378 6.01715C11.9621 6.12082 11.8227 6.42835 11.9264 6.70408C12.0046 6.91222 12.2038 7.04988 12.4261 7.04968H12.4234Z" fill="#0A0A0A"/>
<path d="M6.39994 16.0001C6.39467 13.9703 7.0376 11.9919 8.23514 10.3531C8.41214 10.1177 8.36474 9.78332 8.12927 9.60632C7.8938 9.42932 7.55947 9.47672 7.38247 9.71219C7.37934 9.71639 7.37627 9.72059 7.37327 9.72485C4.28974 13.9641 4.74347 19.8155 8.44367 23.5286C8.6522 23.7373 8.99047 23.7374 9.19914 23.5289C9.4078 23.3203 9.40794 22.9821 9.1994 22.7734C7.40147 20.9785 6.3938 18.5406 6.39994 16.0001Z" fill="#0A0A0A"/>
</g>
<defs>
<clipPath id="clip0_700_50928">
<rect width="32" height="32" fill="white"/>
</clipPath>
</defs>
</svg>
