<svg width="40" height="40" viewBox="0 0 40 40" fill="none" xmlns="http://www.w3.org/2000/svg">
<g clip-path="url(#clip0_314_20944)">
<path d="M34.1672 0.000366211H15.8341C15.3739 0.000366211 15.0008 0.373488 15.0008 0.833717V10.0003H5.83421C5.37398 10.0003 5.00085 10.3734 5.00085 10.8336V39.1667C5.00085 39.6269 5.37398 40.0001 5.83421 40.0001H34.1673C34.6275 40.0001 35.0006 39.6269 35.0006 39.1667V0.833639C35.0006 0.373409 34.6274 0.000366211 34.1672 0.000366211Z" fill="#CFD8DC"/>
<path d="M16.1525 0.0636987C15.8411 -0.0655188 15.4826 0.00549616 15.2441 0.243697L5.2442 10.2436C4.91835 10.5686 4.91772 11.0962 5.24272 11.4221C5.39944 11.5792 5.61232 11.6673 5.8342 11.6669H15.8341C16.2943 11.6669 16.6674 11.2938 16.6674 10.8336V0.833691C16.6674 0.496507 16.4641 0.192526 16.1525 0.0636987Z" fill="#B0BEC5"/>
<path d="M29.1673 15.0003H10.8342C10.374 15.0003 10.0009 14.6271 10.0009 14.1669C10.0009 13.7067 10.374 13.3336 10.8342 13.3336H29.1674C29.6276 13.3336 30.0007 13.7067 30.0007 14.1669C30.0007 14.6271 29.6275 15.0003 29.1673 15.0003Z" fill="#607D8B"/>
<path d="M29.1673 10.0003H20.8341C20.3739 10.0003 20.0007 9.6272 20.0007 9.16697C20.0007 8.70674 20.3739 8.33362 20.8341 8.33362H29.1674C29.6276 8.33362 30.0007 8.70674 30.0007 9.16697C30.0007 9.6272 29.6275 10.0003 29.1673 10.0003Z" fill="#607D8B"/>
<path d="M29.1673 20.0002H10.8342C10.374 20.0002 10.0009 19.6271 10.0009 19.1668C10.0009 18.7066 10.374 18.3335 10.8342 18.3335H29.1674C29.6276 18.3335 30.0007 18.7066 30.0007 19.1668C30.0007 19.6271 29.6275 20.0002 29.1673 20.0002Z" fill="#607D8B"/>
<path d="M29.1673 25.0002H10.8342C10.374 25.0002 10.0009 24.6271 10.0009 24.1668C10.0009 23.7066 10.374 23.3335 10.8342 23.3335H29.1674C29.6276 23.3335 30.0007 23.7066 30.0007 24.1668C30.0007 24.6271 29.6275 25.0002 29.1673 25.0002Z" fill="#607D8B"/>
<path d="M29.1673 30.0001H10.8342C10.374 30.0001 10.0009 29.627 10.0009 29.1668C10.0009 28.7066 10.374 28.3334 10.8342 28.3334H29.1674C29.6276 28.3334 30.0007 28.7066 30.0007 29.1668C30.0007 29.627 29.6275 30.0001 29.1673 30.0001Z" fill="#607D8B"/>
<path d="M29.1673 35.0001H10.8342C10.374 35.0001 10.0009 34.627 10.0009 34.1667C10.0009 33.7065 10.374 33.3334 10.8342 33.3334H29.1674C29.6276 33.3334 30.0007 33.7065 30.0007 34.1667C30.0007 34.627 29.6275 35.0001 29.1673 35.0001Z" fill="#607D8B"/>
</g>
<defs>
<clipPath id="clip0_314_20944">
<rect width="40" height="40" fill="white"/>
</clipPath>
</defs>
</svg>
