<svg width="64" height="64" viewBox="0 0 64 64" fill="none" xmlns="http://www.w3.org/2000/svg">
<path d="M57.8399 39.7438C57.2624 40.685 56.6699 41.6463 55.9199 42.6313L54.0774 40.7888C54.2999 40.4375 54.5136 40.09 54.7261 39.7438C55.4886 38.5175 55.3049 36.9275 54.2836 35.9063L46.2411 27.8638C46.0461 27.6688 45.8286 27.5038 45.5986 27.37C46.8136 26.6675 48.3561 26.865 49.3549 27.8638L57.3974 35.9063C58.4186 36.9275 58.6025 38.5175 57.8399 39.7438Z" fill="#F3C000"/>
<path d="M63.0625 18.9864V25.4103L54.9824 33.4914L51.7699 30.2789L63.0625 18.9864Z" fill="#F3C000"/>
<path d="M55.9205 42.6308L42.6301 29.3404L28.5171 36.9705C26.534 38.0426 26.143 40.7223 27.7371 42.3164L42.9445 57.5238C44.5386 59.1179 47.2183 58.7269 48.2904 56.7438L55.9205 42.6308Z" fill="#F3C000"/>
<path d="M55.9199 42.6313L48.2899 56.7438C47.3674 58.4525 45.2511 58.9788 43.6636 58.0725C44.1911 57.775 44.6461 57.3288 44.9624 56.7438L54.0774 40.7888L55.9199 42.6313Z" fill="#F3C000"/>
<path d="M32.5113 43.5725C32.5088 43.5725 32.5063 43.5725 32.5038 43.5738V43.57C32.5062 43.57 32.5088 43.5713 32.5113 43.5725Z" fill="#F3C000"/>
<path d="M62.3995 24.7474L54.9826 32.1653L53.096 30.2786L63.7253 19.6494C64.0914 19.2831 64.0914 18.6896 63.7253 18.3235C63.3591 17.9575 62.7655 17.9575 62.3995 18.3235L51.7701 28.9529L50.0179 27.2006C49.1544 26.3371 47.991 25.9334 46.8451 26.0228V15.386C46.8362 14.2636 46.4095 12.9954 45.4624 12.0474L39.3505 5.93551C38.5794 5.14226 37.3041 4.55414 36.0107 4.55151H10.2024C8.24613 4.55151 6.65462 6.14301 6.65462 8.09926V14.1135C6.65462 14.6314 7.07438 15.051 7.59212 15.051C8.10987 15.051 8.52962 14.6314 8.52962 14.1135V8.09926C8.52962 7.17689 9.28 6.42651 10.2024 6.42651H36.6403V11.33C36.6403 13.2193 38.1772 14.7563 40.0665 14.7563H44.9701V26.6555C44.0445 27.2181 42.8431 27.9913 42.1177 28.5516L28.0713 36.1459C27.1788 36.6284 26.4919 37.4075 26.1209 38.336C23.4403 38.8753 21.2858 41.4745 21.3231 44.2816C21.3231 44.6938 21.3647 45.106 21.4468 45.5068C21.5376 45.9506 21.9282 46.2565 22.3643 46.2565C22.4266 46.2565 22.4897 46.2501 22.5531 46.2373C23.0604 46.1335 23.3875 45.6381 23.2836 45.1308C23.2269 44.8535 23.1981 44.5678 23.1981 44.2816C23.1981 42.4223 24.44 40.7646 26.2208 40.2426C28.1871 39.5811 30.7994 40.8773 31.4028 42.9621C30.3118 43.4085 29.3298 44.0944 28.5285 44.9774C28.1805 45.3608 28.2092 45.9538 28.5926 46.3016C28.7722 46.4646 28.9976 46.5449 29.2224 46.5449C29.4776 46.5449 29.7319 46.4413 29.9169 46.2374C31.014 45.031 32.6432 44.255 34.4094 44.247C37.7536 44.247 40.4745 46.9679 40.4745 50.3121C40.4745 50.5344 40.4608 50.768 40.4336 51.0064C40.4034 51.2718 40.4879 51.5374 40.6656 51.7366C40.8435 51.936 41.0979 52.0499 41.365 52.0499H45.9074C47.4304 52.0499 48.6694 53.2889 48.6694 54.8119C48.6694 56.3348 47.4304 57.5738 45.9074 57.5738H7.59212C4.43975 57.5735 1.875 55.0088 1.875 51.8563C1.875 49.0066 3.97075 46.6378 6.70188 46.2088C6.90388 48.4084 7.762 50.515 9.17025 52.2276C9.35563 52.4531 9.62412 52.5696 9.89487 52.5696C10.1044 52.5696 10.3152 52.4996 10.4897 52.3563C10.8896 52.0274 10.9472 51.4366 10.6184 51.0366C9.27137 49.3986 8.5295 47.3263 8.5295 45.2014C8.5295 40.132 12.6537 36.0078 17.723 36.0078C19.2144 36.0078 20.6947 36.3733 22.0041 37.0646C22.4621 37.3065 23.0291 37.1313 23.271 36.6734C23.5128 36.2156 23.3376 35.6484 22.8797 35.4066C21.3016 34.5733 19.5184 34.1328 17.7231 34.1328C13.8966 34.1328 10.5182 36.0851 8.52962 39.0455V18.7241C8.52962 18.2063 8.10987 17.7866 7.59212 17.7866C7.07438 17.7866 6.65462 18.2063 6.65462 18.7241V44.3225C2.90912 44.7859 0 47.9874 0 51.8563C0 56.0425 3.40587 59.4484 7.59212 59.4484H45.9074C48.4719 59.4558 50.7028 57.2211 50.5373 54.559L56.7134 43.1354C57.4815 42.119 58.0964 41.119 58.6369 40.2386C59.6339 38.6335 59.3968 36.5793 58.0604 35.2428L56.3085 33.4909L63.7254 26.0729C64.0915 25.7068 64.0914 25.1131 63.7253 24.7471C63.3592 24.3814 62.7656 24.3813 62.3995 24.7474ZM40.0665 12.8814C39.2111 12.8814 38.5153 12.1855 38.5153 11.3301V7.75214L43.6445 12.8813H40.0665V12.8814ZM49.7051 52.1558C48.8657 50.9591 47.4769 50.1746 45.9075 50.1746H45.5981L50.2199 43.1463C50.5044 42.7136 50.3843 42.1324 49.9516 41.8478C49.5191 41.5635 48.9378 41.6834 48.6533 42.116L43.354 50.1746H42.3484C42.3201 48.5248 41.7849 46.9966 40.8939 45.7374L46.635 39.9963C47.0011 39.63 47.0011 39.0365 46.635 38.6704C46.2689 38.3044 45.6753 38.3044 45.3092 38.6704L39.6371 44.3425C38.2579 43.1331 36.4581 42.3933 34.4884 42.3739L36.4369 41.0925C36.8694 40.808 36.9895 40.2266 36.7051 39.794C36.4207 39.3614 35.8394 39.2415 35.4066 39.5258L32.7064 41.3015C31.8018 39.7029 30.197 38.5623 28.3419 38.2715C28.5185 38.0839 28.7267 37.923 28.9631 37.7953L42.4615 30.4974L54.7637 42.7995L49.7051 52.1558ZM56.7345 36.5689C57.4516 37.286 57.579 38.3884 57.0415 39.2538C56.6541 39.8848 56.2575 40.5308 55.8052 41.1896L44.0721 29.4565C44.6989 29.0305 45.4351 28.5661 46.0115 28.2169C46.8729 27.6823 47.9753 27.8093 48.6922 28.5266L56.7345 36.5689Z" fill="#0A0A0A"/>
<path d="M39.2502 36.9983C38.8176 37.2826 38.6975 37.8641 38.982 38.2968C39.1621 38.5705 39.4611 38.7193 39.7661 38.7193C39.9429 38.7193 40.1216 38.6694 40.2804 38.565L43.1891 36.6523C43.6217 36.3679 43.7419 35.7864 43.4574 35.3538C43.1729 34.9213 42.5915 34.8011 42.159 35.0855L39.2502 36.9983Z" fill="#0A0A0A"/>
<path d="M14.1008 15.3326H24.1643C24.682 15.3326 25.1018 14.913 25.1018 14.3951C25.1018 13.8773 24.682 13.4576 24.1643 13.4576H14.1008C13.583 13.4576 13.1633 13.8773 13.1633 14.3951C13.1633 14.913 13.583 15.3326 14.1008 15.3326Z" fill="#0A0A0A"/>
<path d="M14.1008 22.5308H35.9216C36.4394 22.5308 36.8591 22.1111 36.8591 21.5933C36.8591 21.0754 36.4394 20.6558 35.9216 20.6558H14.1008C13.583 20.6558 13.1633 21.0754 13.1633 21.5933C13.1633 22.1111 13.583 22.5308 14.1008 22.5308Z" fill="#0A0A0A"/>
<path d="M14.1008 27.1765H35.9216C36.4394 27.1765 36.8591 26.7569 36.8591 26.239C36.8591 25.7211 36.4394 25.3015 35.9216 25.3015H14.1008C13.583 25.3015 13.1633 25.7211 13.1633 26.239C13.1633 26.7569 13.583 27.1765 14.1008 27.1765Z" fill="#0A0A0A"/>
<path d="M14.1008 31.8221H29.2226C29.7404 31.8221 30.1601 31.4025 30.1601 30.8846C30.1601 30.3668 29.7404 29.9471 29.2226 29.9471H14.1008C13.583 29.9471 13.1633 30.3668 13.1633 30.8846C13.1633 31.4025 13.583 31.8221 14.1008 31.8221Z" fill="#0A0A0A"/>
</svg>
