<svg width="64" height="64" viewBox="0 0 64 64" fill="none" xmlns="http://www.w3.org/2000/svg">
<g clip-path="url(#clip0_487_1164)">
<path d="M1.06669 25.6H11.7333V38.4H1.06669V25.6Z" fill="#F3C000"/>
<path d="M1.06669 38.4H11.7333V42.6666H1.06669V38.4Z" fill="#F3C000"/>
<path d="M38.4 11.7333C38.4 15.2682 35.5349 18.1333 32 18.1333C28.4656 18.1333 25.6 15.2682 25.6 11.7333C25.6 8.19895 28.4656 5.33333 32 5.33333C35.5349 5.33333 38.4 8.19895 38.4 11.7333Z" fill="#F3C000"/>
<path d="M36.2667 11.7333H34.1333C34.1333 10.5552 33.1781 9.59999 32 9.59999V7.46666C34.3562 7.46666 36.2667 9.37707 36.2667 11.7333Z" fill="#F3C000"/>
<path d="M32 23.4667C29.4599 23.4739 26.9875 22.6495 24.9599 21.1198L26.2401 19.4135C27.899 20.6651 29.9219 21.3396 32 21.3333V23.4667Z" fill="#F3C000"/>
<path d="M38.8557 5.01354C37.0552 3.16407 34.5812 2.125 32 2.13334C31.3552 2.13334 30.712 2.19792 30.0802 2.32552L29.6531 0.234901C30.426 0.0786516 31.212 5.7489e-06 32 5.7489e-06C35.1542 -0.00936924 38.1776 1.26094 40.3786 3.51979L38.8557 5.01354Z" fill="#F3C000"/>
<path d="M8.53335 25.6H19.2V29.8666H8.53335C7.35523 29.8666 6.40002 28.9114 6.40002 27.7333C6.40002 26.5552 7.35523 25.6 8.53335 25.6Z" fill="#F3C000"/>
<path d="M25.6 27.7333C25.6 28.9114 24.6448 29.8666 23.4667 29.8666C22.2885 29.8666 21.3333 28.9114 21.3333 27.7333C21.3333 26.5552 22.2885 25.6 23.4667 25.6C24.6448 25.6 25.6 26.5552 25.6 27.7333Z" fill="#F3C000"/>
<path d="M56.5333 45.8666H45.8667V41.6H56.5333V45.8666Z" fill="#F3C000"/>
<path d="M49.0667 33.0666H38.4V28.8H49.0667C50.2448 28.8 51.2 29.7552 51.2 30.9333C51.2 32.1114 50.2448 33.0666 49.0667 33.0666Z" fill="#F3C000"/>
<path d="M36.2667 30.9333C36.2667 32.1114 35.3115 33.0666 34.1333 33.0666C32.9552 33.0666 32 32.1114 32 30.9333C32 29.7552 32.9552 28.8 34.1333 28.8C35.3115 28.8 36.2667 29.7552 36.2667 30.9333Z" fill="#F3C000"/>
<path d="M18.1333 61.8666H20.2667V64H18.1333V61.8666Z" fill="#F3C000"/>
<path d="M24.5333 59.7333H26.6667V61.8666H24.5333V59.7333Z" fill="#F3C000"/>
<path d="M34.1333 61.8666H36.2667V64H34.1333V61.8666Z" fill="#F3C000"/>
<path d="M1.06669 22.4H11.7333C12.3224 22.4 12.8 21.9224 12.8 21.3333V8.53332C12.8 8.25051 12.6875 7.97916 12.4875 7.77916L9.28752 4.57916C8.87085 4.16302 8.19585 4.16302 7.77918 4.57916L5.23335 7.12551L1.70679 4.4802C1.38336 4.23749 0.951066 4.19843 0.589608 4.37916C0.22815 4.55989 2.47955e-05 4.92916 2.47955e-05 5.33333V21.3333C2.47955e-05 21.9224 0.477628 22.4 1.06669 22.4ZM10.6667 20.2666H2.13336V13.8667H10.6667V20.2666ZM2.13336 7.46666L4.69325 9.38645C5.11825 9.7052 5.712 9.66301 6.08752 9.28749L8.53335 6.84166L10.6667 8.97499V11.7333H2.13336V7.46666Z" fill="#0A0A0A"/>
<path d="M1.06669 43.7333H2.13336V59.7333C2.13336 60.3223 2.61096 60.7999 3.20002 60.7999H12.8C13.3891 60.7999 13.8667 60.3223 13.8667 59.7333V55.4666C13.8667 54.8776 13.3891 54.4 12.8 54.4H10.6667V43.7333H11.7333C12.3224 43.7333 12.8 43.2557 12.8 42.6666V30.9333H19.2C19.7891 30.9333 20.2667 30.4557 20.2667 29.8666V25.6C20.2667 25.0109 19.7891 24.5333 19.2 24.5333H1.06669C0.477629 24.5333 2.47955e-05 25.0109 2.47955e-05 25.6V42.6666C2.47955e-05 43.2557 0.477629 43.7333 1.06669 43.7333ZM11.7333 58.6666H4.26669V56.5333H11.7333V58.6666ZM8.53335 54.4H4.26669V43.7333H8.53335V54.4ZM10.6667 41.6H2.13336V39.4666H10.6667V41.6ZM18.1333 26.6666V28.8H8.53335C7.94429 28.8 7.46669 28.3224 7.46669 27.7333C7.46669 27.1442 7.94429 26.6666 8.53335 26.6666H18.1333ZM2.13336 26.6666H5.52971C5.40315 27.0083 5.337 27.3692 5.33335 27.7333C5.33335 29.5005 6.76617 30.9333 8.53335 30.9333H10.6667V37.3333H2.13336V26.6666Z" fill="#0A0A0A"/>
<path d="M32 19.2C36.124 19.2 39.4667 15.8573 39.4667 11.7333C39.4667 7.60989 36.124 4.26666 32 4.26666C27.876 4.26666 24.5333 7.60989 24.5333 11.7333C24.538 15.8552 27.8781 19.1953 32 19.2ZM32 6.39999C34.9453 6.39999 37.3333 8.78801 37.3333 11.7333C37.3333 14.6786 34.9453 17.0667 32 17.0667C29.0547 17.0667 26.6667 14.6786 26.6667 11.7333C26.6703 8.78958 29.0557 6.40364 32 6.39999Z" fill="#0A0A0A"/>
<path d="M34.1333 11.7333H36.2667C36.2667 9.37707 34.3562 7.46666 32 7.46666V9.59999C33.1781 9.59999 34.1333 10.5552 34.1333 11.7333Z" fill="#0A0A0A"/>
<path d="M32 21.3333C29.9219 21.3396 27.899 20.6651 26.2401 19.4135L24.9599 21.1198C26.9875 22.6495 29.4599 23.4739 32 23.4667V21.3333Z" fill="#0A0A0A"/>
<path d="M32 2.13334C34.5812 2.125 37.0552 3.16407 38.8557 5.01354L40.3786 3.51979C38.1776 1.26094 35.1542 -0.00936924 32 5.7489e-06C31.212 5.7489e-06 30.426 0.0786516 29.6531 0.234901L30.0802 2.32552C30.712 2.19792 31.3552 2.13334 32 2.13334Z" fill="#0A0A0A"/>
<path d="M23.4667 30.9333C25.2339 30.9333 26.6667 29.5005 26.6667 27.7333C26.6667 25.9661 25.2339 24.5333 23.4667 24.5333C21.6995 24.5333 20.2667 25.9661 20.2667 27.7333C20.2667 29.5005 21.6995 30.9333 23.4667 30.9333ZM23.4667 26.6666C24.0557 26.6666 24.5333 27.1442 24.5333 27.7333C24.5333 28.3224 24.0557 28.8 23.4667 28.8C22.8776 28.8 22.4 28.3224 22.4 27.7333C22.4 27.1442 22.8776 26.6666 23.4667 26.6666Z" fill="#0A0A0A"/>
<path d="M34.1333 27.7333C32.3661 27.7333 30.9333 29.1661 30.9333 30.9333C30.9333 32.7005 32.3661 34.1333 34.1333 34.1333C35.9005 34.1333 37.3333 32.7005 37.3333 30.9333C37.3333 29.1661 35.9005 27.7333 34.1333 27.7333ZM34.1333 32C33.5443 32 33.0667 31.5224 33.0667 30.9333C33.0667 30.3442 33.5443 29.8666 34.1333 29.8666C34.7224 29.8666 35.2 30.3442 35.2 30.9333C35.2 31.5224 34.7224 32 34.1333 32Z" fill="#0A0A0A"/>
<path d="M44.8 57.6C44.2109 57.6 43.7333 58.0776 43.7333 58.6666V62.9333C43.7333 63.5223 44.2109 63.9999 44.8 63.9999H54.4C54.989 63.9999 55.4666 63.5223 55.4666 62.9333V46.9333H56.5333C57.1224 46.9333 57.6 46.4557 57.6 45.8666V28.8C57.6 28.2109 57.1224 27.7333 56.5333 27.7333H38.4C37.8109 27.7333 37.3333 28.2109 37.3333 28.8V33.0666C37.3333 33.6557 37.8109 34.1333 38.4 34.1333H44.8V45.8666C44.8 46.4557 45.2776 46.9333 45.8667 46.9333H46.9333V57.6H44.8ZM53.3333 61.8666H45.8667V59.7333H53.3333V61.8666ZM55.4666 44.8H46.9333V42.6666H55.4666V44.8ZM39.4667 29.8666H49.0667C49.6557 29.8666 50.1333 30.3442 50.1333 30.9333C50.1333 31.5224 49.6557 32 49.0667 32H39.4667V29.8666ZM49.0667 34.1333C50.8338 34.1333 52.2667 32.7005 52.2667 30.9333C52.263 30.5692 52.1969 30.2083 52.0703 29.8666H55.4666V40.5333H46.9333V34.1333H49.0667ZM49.0667 46.9333H53.3333V57.6H49.0667V46.9333Z" fill="#0A0A0A"/>
<path d="M56.5333 10.6667H45.8667C45.2776 10.6667 44.8 11.1443 44.8 11.7333V24.5333C44.8 25.1224 45.2776 25.6 45.8667 25.6H56.5333C57.1224 25.6 57.6 25.1224 57.6 24.5333V21.2161C59.001 22.6552 60.9245 23.4672 62.9333 23.4666C63.5224 23.4666 64 22.989 64 22.4V18.1333C63.9953 14.0114 60.6552 10.6713 56.5333 10.6667ZM46.9333 12.8H55.4667V14.9333H46.9333V12.8ZM46.9333 23.4666V17.0667H55.4667V23.4666H46.9333ZM61.8666 21.2265C59.3849 20.7166 57.6026 18.5338 57.6 16V12.9068C60.0818 13.4167 61.864 15.6 61.8666 18.1333V21.2265Z" fill="#0A0A0A"/>
<path d="M18.1333 61.8666H20.2667V64H18.1333V61.8666Z" fill="#0A0A0A"/>
<path d="M24.5333 59.7333H26.6667V61.8666H24.5333V59.7333Z" fill="#0A0A0A"/>
<path d="M34.1333 61.8666H36.2667V64H34.1333V61.8666Z" fill="#0A0A0A"/>
</g>
<defs>
<clipPath id="clip0_487_1164">
<rect width="64" height="64" fill="white"/>
</clipPath>
</defs>
</svg>
