<svg width="64" height="64" viewBox="0 0 64 64" fill="none" xmlns="http://www.w3.org/2000/svg">
<g clip-path="url(#clip0_469_738)">
<path d="M22.3214 38.2789C22.57 39.5622 22.6314 40.8895 22.5035 42.2238C22.3755 43.5595 23.345 44.7499 24.6689 44.8828C24.7489 44.8908 24.8281 44.8948 24.9067 44.8949C26.131 44.8965 27.1775 43.9598 27.2977 42.7048C27.4705 40.9025 27.3865 39.1038 27.0484 37.3587C26.6637 35.3742 25.9812 33.6197 25.1595 32.0918C23.4835 32.5214 21.9169 33.0384 20.4849 33.6307C21.2909 34.938 21.9745 36.4885 22.3214 38.2789Z" fill="#F3C000"/>
<path d="M39.5965 13.9719C44.5265 18.8883 37.6613 28.3723 27.5564 38.4493C17.4515 48.5263 7.93353 55.3806 3.00353 50.4642C-1.92647 45.5478 2.26865 33.3932 12.3735 23.3162C22.4784 13.2391 34.6665 9.05557 39.5965 13.9719Z" fill="#F3C000"/>
<path d="M7.23857 39.2314C8.32182 39.963 9.30369 40.8581 10.1568 41.8921C11.0108 42.9271 12.5381 43.0834 13.5682 42.2411C13.6304 42.1902 13.6893 42.137 13.7451 42.0815C14.6119 41.217 14.6894 39.8146 13.8871 38.8422C12.7348 37.4457 11.4036 36.2332 9.93045 35.2382C8.2552 34.1069 6.53195 33.3489 4.87057 32.8496C3.98932 34.3385 3.24707 35.8119 2.65332 37.2432C4.1477 37.5977 5.72732 38.2107 7.23857 39.2314Z" fill="#F3C000"/>
<path d="M12.3284 23.3618C10.8992 24.7903 9.58924 26.2602 8.40674 27.7451C10.6711 27.8052 13.6135 28.3247 16.3336 30.1617C17.4169 30.8933 18.3987 31.7884 19.2519 32.8224C20.1059 33.8574 21.6331 34.0137 22.6632 33.1714C22.7255 33.1206 22.7844 33.0673 22.8401 33.0118C23.707 32.1473 23.7845 30.7449 22.9821 29.7726C21.8299 28.3761 20.4986 27.1636 19.0255 26.1686C16.7917 24.6601 14.4719 23.8123 12.3284 23.3618Z" fill="#F3C000"/>
<path d="M25.344 21.2187C26.3934 21.998 27.3342 22.9363 28.1398 24.0073C28.9463 25.0793 30.4655 25.3043 31.5333 24.5098C31.5978 24.4618 31.659 24.4113 31.7173 24.3584C32.6228 23.5343 32.7639 22.1374 32.0063 21.1302C30.918 19.6837 29.6428 18.4128 28.2157 17.3528C26.7198 16.2418 25.1687 15.4459 23.6525 14.8787C21.7772 15.8569 19.8603 17.0655 17.9565 18.4837C20.15 18.6955 22.871 19.382 25.344 21.2187Z" fill="#F3C000"/>
<path d="M60.2318 36.2998C59.8366 35.9647 59.2452 36.0135 58.9104 36.4083C58.5755 36.8032 58.624 37.3949 59.019 37.7297C61.0481 39.4507 62.1222 41.3768 62.125 43.2999C62.1269 44.5909 61.664 45.6823 60.7099 46.6363C59.1145 48.2318 56.1459 49.4202 51.8865 50.1688C48.0629 50.8407 43.2743 51.1668 37.2425 51.1548C27.9301 51.1422 21.3609 50.3363 17.2506 48.6978C18.8339 47.5713 20.5278 46.2192 22.3442 44.6324C22.8941 45.2903 23.6825 45.725 24.5662 45.8143C26.4018 45.9997 28.0535 44.6408 28.2306 42.7945C28.349 41.5599 28.3516 40.3167 28.24 39.0917C29.8856 37.4499 31.37 35.9002 32.7043 34.4302C33.4557 35.7164 33.9732 37.072 34.2445 38.4744C34.4761 39.6695 34.5332 40.9068 34.4141 42.152C34.2381 43.997 35.5858 45.6488 37.4255 45.8347C39.2565 46.0197 40.8951 44.6712 41.0742 42.8123C41.2562 40.9249 41.1683 39.036 40.8128 37.1979C40.4378 35.2619 39.7631 33.3928 38.8045 31.6208C40.6048 31.677 42.3656 31.8234 44.0654 32.0564C45.6305 34.0397 46.5957 36.1993 46.9326 38.4812C47.1104 39.6855 47.1119 40.9238 46.9367 42.1617C46.6774 43.997 47.9497 45.7078 49.774 45.9755C51.584 46.2412 53.3004 44.9718 53.5616 43.1237C53.8275 41.2424 53.8241 39.3517 53.5514 37.504C53.3873 36.3925 53.1232 35.2928 52.7635 34.216C53.696 34.574 54.5849 34.9659 55.4216 35.3917C55.876 35.6229 56.4445 35.4485 56.6823 34.9813C56.9171 34.5199 56.7334 33.9554 56.2719 33.7205C51.1197 31.0985 43.9974 29.6534 36.6768 29.7217C37.1813 29.0679 37.6511 28.4308 38.0868 27.8094C40.8326 23.8924 42.1675 20.6824 42.1675 17.9962C42.1675 16.1492 41.525 14.5718 40.258 13.3083C37.607 10.6644 33.1189 10.2478 27.6208 12.1349C22.3471 13.9449 16.6969 17.6802 11.711 22.6524C4.4875 29.8564 0 38.3153 0 44.728C0 47.3874 0.809625 49.6005 2.3415 51.1282C3.61212 52.3953 5.17462 53.0287 7.01687 53.0285C8.96712 53.0285 11.2309 52.3188 13.7935 50.8997C14.3188 50.6088 14.8581 50.2873 15.4115 49.9367C19.6869 52.0028 26.8383 53.0158 37.2399 53.0298C43.1854 53.0378 48.3656 52.6913 52.211 52.0155C56.9226 51.1875 60.1362 49.8617 62.0356 47.9622C63.3416 46.6562 64.0025 45.0867 63.9999 43.2973C63.9964 40.8072 62.6934 38.3875 60.2318 36.2998ZM50.4562 33.4268C51.0592 34.8332 51.4777 36.2944 51.6968 37.7778C51.9432 39.4475 51.9461 41.1579 51.7052 42.8612C51.59 43.6764 50.8488 44.238 50.0455 44.1202C49.2396 44.002 48.678 43.241 48.7934 42.4242C48.9936 41.0083 48.9916 39.5895 48.7875 38.2073C48.4914 36.2012 47.7762 34.2858 46.6585 32.488C47.9751 32.7473 49.245 33.0607 50.4562 33.4268ZM26.3643 42.6155C26.2911 43.3807 25.6656 43.9572 24.9079 43.9572C24.4439 43.9572 24.0231 43.7444 23.7451 43.3842C24.6178 42.5919 25.5176 41.7482 26.4459 40.8523C26.447 41.4398 26.4206 42.0287 26.3643 42.6155ZM38.972 37.554C39.2933 39.2154 39.3727 40.9239 39.208 42.633C39.1292 43.4505 38.4137 44.0499 37.6068 43.9684C36.7971 43.8867 36.2024 43.1517 36.2808 42.3304C36.4169 40.9064 36.3511 39.4893 36.0855 38.118C35.7367 36.3152 35.038 34.5853 34.007 32.9653C34.3999 32.5139 34.7785 32.0699 35.1419 31.6337C35.633 31.615 36.1286 31.6014 36.6269 31.5965C37.7799 33.4688 38.5685 35.4707 38.972 37.554ZM23.706 15.9073C25.1257 16.4753 26.4538 17.2122 27.6562 18.1053C29.0111 19.1118 30.2225 20.319 31.2568 21.6938C31.719 22.3083 31.6456 23.1557 31.0861 23.6649C30.4434 24.2498 29.4158 24.1443 28.8888 23.4437C28.0291 22.3009 27.0245 21.2992 25.9029 20.4662C24.2758 19.2577 22.4167 18.409 20.3566 17.9282C21.4707 17.181 22.5904 16.5053 23.706 15.9073ZM5.31125 33.9782C6.77463 34.4838 8.14937 35.1667 9.40588 36.0152C10.8045 36.9599 12.069 38.1118 13.1641 39.439C13.6539 40.0327 13.6193 40.8834 13.0831 41.4179C12.4685 42.0308 11.4379 41.9713 10.8802 41.2955C9.97 40.1924 8.92138 39.2364 7.7635 38.4544C6.60475 37.6718 5.32475 37.0629 3.95012 36.6317C4.35125 35.7567 4.80575 34.87 5.31125 33.9782ZM12.8853 49.2594C8.66162 51.5984 5.64587 51.7755 3.6655 49.8005C2.47738 48.6157 1.875 46.909 1.875 44.728C1.875 42.8125 2.34863 40.6488 3.22038 38.3685C4.48637 38.748 5.6595 39.2962 6.714 40.0083C7.72288 40.6897 8.638 41.5243 9.43388 42.4889C10.691 44.0125 13.0156 44.1329 14.4071 42.7454C15.6319 41.5242 15.7193 39.5897 14.6103 38.2457C13.4008 36.7799 12.0029 35.5068 10.4552 34.4615C9.17 33.5935 7.77363 32.8844 6.29413 32.3403C7.0625 31.1235 7.9185 29.9053 8.855 28.7023C10.7701 28.8103 13.3914 29.306 15.8088 30.9388C16.8178 31.62 17.7327 32.4547 18.5285 33.4192C19.7102 34.8514 21.8319 35.062 23.2565 33.8974C24.6915 32.7244 24.8834 30.6039 23.705 29.176C22.9603 28.2734 22.1356 27.4357 21.2541 26.686C20.8599 26.3508 20.268 26.3984 19.9326 26.7929C19.5971 27.1873 19.645 27.779 20.0395 28.1144C20.8372 28.7928 21.5839 29.5514 22.2586 30.3693C22.7825 31.0043 22.6979 31.9319 22.0695 32.4457C21.4394 32.9609 20.4996 32.8622 19.9746 32.2257C19.0644 31.1225 18.0159 30.1667 16.858 29.3848C14.959 28.1022 12.7127 27.2768 10.2817 26.955C11.0254 26.0852 11.8091 25.2285 12.63 24.3913C14.02 24.722 15.348 25.2018 16.5833 25.8225C17.0384 26.0513 17.6065 25.8742 17.8419 25.4059C18.0744 24.9433 17.8879 24.3798 17.4252 24.1473C16.3972 23.6307 15.3119 23.2044 14.1851 22.8685C15.4973 21.6364 16.8474 20.4943 18.2166 19.4559C20.7249 19.7519 22.9335 20.5964 24.7847 21.9713C25.7621 22.6973 26.6388 23.5719 27.3904 24.5709C28.578 26.1495 30.8984 26.3709 32.3479 25.0518C33.6275 23.8873 33.8025 21.9592 32.755 20.5667C31.6128 19.0483 30.2734 17.7138 28.7741 16.6002C27.8722 15.9304 26.908 15.3395 25.8924 14.8325C26.6783 14.4822 27.4586 14.1732 28.2297 13.9084C30.3088 13.1948 32.2015 12.84 33.8517 12.84C36 12.84 37.7368 13.4415 38.9344 14.6359C39.8485 15.5475 40.2929 16.6467 40.2929 17.9962C40.2929 20.2524 39.0342 23.1919 36.5518 26.7332C35.311 28.503 33.7526 30.5703 32.1495 32.2387C26.5635 38.0518 19.7974 45.4314 12.8853 49.2594Z" fill="black"/>
</g>
<defs>
<clipPath id="clip0_469_738">
<rect width="64" height="64" fill="white"/>
</clipPath>
</defs>
</svg>
