<svg width="64" height="64" viewBox="0 0 64 64" fill="none" xmlns="http://www.w3.org/2000/svg">
<g clip-path="url(#clip0_487_1153)">
<path d="M61.1335 12.3822H59.4713C58.7841 12.3822 58.0975 12.3684 57.4116 12.3431L56.8711 12.8836C55.9249 13.8299 54.6414 14.3615 53.3031 14.3615H52.0971C50.7589 14.3615 49.4754 14.8931 48.5291 15.8394C47.5829 16.7856 46.2994 17.3172 44.9611 17.3172H42.5071C41.1689 17.3172 39.8854 17.8489 38.9391 18.7951L38.2495 19.4849C37.3033 20.4311 36.0198 20.9627 34.6815 20.9627H33.7889V23.7127H38.4315C39.7698 23.7127 41.0533 23.1811 41.9995 22.2349L42.6891 21.5451C43.6354 20.5989 44.9189 20.0672 46.2571 20.0672H48.7111C50.0494 20.0672 51.3329 19.5356 52.2791 18.5894C53.2254 17.6431 54.5089 17.1115 55.8471 17.1115H57.0531C58.3914 17.1115 59.6749 16.5799 60.6211 15.6336L61.9358 14.3189C62.6505 13.6042 62.1443 12.3822 61.1335 12.3822Z" fill="#F3C000"/>
<path d="M37.7786 50.228C36.894 49.3183 35.8552 48.5855 34.7734 47.9153H34.299C33.6154 48.1641 32.9434 48.4463 32.2827 48.7494C31.977 48.8896 31.6736 49.0349 31.3725 49.1848C31.2731 49.2343 31.1745 49.285 31.0757 49.3354C31.0277 49.361 30.8371 49.4606 30.7805 49.4914C31.6729 49.9135 32.5676 50.3325 33.4295 50.8108C34.8429 51.595 36.2326 52.6194 36.8549 54.1111C37.5356 55.7434 37.1695 57.6156 36.6205 59.2968C38.4851 59.0226 39.8495 57.1578 39.9477 55.2756C40.0462 53.3938 39.0925 51.5791 37.7786 50.228Z" fill="#F3C000"/>
<path d="M49.8065 25.5681C49.5926 24.481 49.026 23.4781 48.2385 22.7C47.5519 22.0215 46.6972 21.5137 45.7622 21.2699C45.3219 21.155 44.866 21.0939 44.4405 20.9324C43.9856 20.7596 43.5807 20.478 43.1406 20.2704C42.377 19.9102 41.5065 19.7805 40.671 19.9025C39.2899 20.1042 37.9426 21.1931 37.9139 22.5885C37.8926 23.6222 38.6145 24.5835 39.5519 25.0199C40.4892 25.4562 41.5949 25.4232 42.5819 25.115C43.2522 24.9056 43.9145 24.5714 44.6146 24.6254C45.4156 24.6873 46.134 25.3084 46.3405 26.0847C46.547 26.8611 46.2461 27.7403 45.6267 28.2519C45.2067 28.5989 44.6764 28.7771 44.1591 28.9481C39.5409 30.4761 34.9226 32.004 30.3044 33.532C28.7652 34.0413 27.19 34.5696 25.9241 35.5825C24.0027 37.1199 23.2541 39.4503 23.4164 41.8353C23.5864 44.3328 25.1959 46.2297 27.2246 47.5849C28.1922 48.2311 29.2307 48.7537 30.2819 49.2557V47.3706H33.8671C33.6384 47.2364 33.4091 47.1034 33.1802 46.9709C32.0135 46.2952 30.8467 45.6198 29.68 44.9441C28.9439 44.5179 28.1915 44.0781 27.6489 43.4231C26.5379 42.082 26.6099 39.9116 27.8074 38.6471C28.6237 37.785 29.8005 37.3831 30.9281 37.0115L44.4205 32.5653C45.5634 32.1886 46.729 31.8004 47.6916 31.0781C49.351 29.8334 50.2069 27.6034 49.8065 25.5681Z" fill="#F3C000"/>
<path d="M63.0479 12.7238C62.726 11.9467 61.9746 11.4446 61.1336 11.4446H59.4712C56.9012 11.4446 54.3076 11.2622 51.7625 10.9028C51.2507 10.8302 50.7755 11.1873 50.7031 11.7C50.6306 12.2126 50.9875 12.687 51.5002 12.7594C54.132 13.1311 56.8137 13.3196 59.4711 13.3196H61.1335C61.1661 13.3196 61.2652 13.3196 61.3155 13.4412C61.3659 13.5629 61.2959 13.6329 61.2727 13.6559L59.958 14.9706C59.1821 15.7465 58.1504 16.174 57.053 16.174H55.847C54.2487 16.174 52.7461 16.7964 51.616 17.9265C50.8401 18.7025 49.8084 19.1297 48.711 19.1297H46.257C45.453 19.1297 44.6475 19.2955 43.9072 19.6109C43.7895 19.5467 43.669 19.483 43.5404 19.4224C42.6151 18.9859 41.5472 18.827 40.5355 18.9748C39.6516 19.1039 38.8046 19.5063 38.1506 20.1077C37.4121 20.7869 36.9952 21.661 36.9765 22.5691C36.9751 22.638 36.9776 22.7066 36.9807 22.7752H34.7271V13.456C34.7342 13.4503 34.7416 13.4452 34.7486 13.4392C37.4077 11.1649 41.0101 10.36 44.3856 11.2866C45.488 11.5892 46.6141 11.8621 47.7329 12.0976C48.2381 12.2039 48.7367 11.8801 48.8434 11.3734C48.9501 10.8667 48.6259 10.3695 48.1191 10.2629C47.0372 10.0351 45.948 9.77125 44.882 9.47863C41.3925 8.52075 37.697 9.13412 34.7272 11.1099V9.25863C36.1609 8.33825 37.0294 6.76713 37.0294 5.0305C37.0294 2.25675 34.7731 0 32 0C29.2269 0 26.9706 2.25675 26.9706 5.03062C26.9706 6.76 27.8341 8.32788 29.2596 9.24975V11.1024C26.2922 9.13787 22.5832 8.5275 19.118 9.47863C14.3656 10.7833 9.457 11.4447 4.52875 11.4447H2.8665C2.02537 11.4447 1.27412 11.9469 0.952245 12.7239C0.63037 13.5009 0.806745 14.3873 1.40137 14.9819L2.71612 16.2965C3.84625 17.4266 5.34887 18.049 6.94712 18.049H8.15312C9.25049 18.049 10.2822 18.4764 11.0581 19.2523C12.1882 20.3824 13.6909 21.0047 15.2891 21.0047H16.2346C15.6789 21.35 15.2057 21.7446 14.7997 22.2014C13.6235 23.525 13.0076 25.0719 13.0189 26.675C13.0319 28.4716 13.8456 30.2519 15.1957 31.4373C16.3565 32.4564 17.7875 32.9788 19.1539 33.4264C19.2507 33.4581 19.3492 33.4733 19.4459 33.4733C19.8402 33.4733 20.2072 33.2225 20.3366 32.8274C20.4979 32.3354 20.2297 31.8059 19.7376 31.6446C18.556 31.2575 17.3274 30.8139 16.4329 30.0284C15.4784 29.1903 14.9031 27.9317 14.8939 26.6616C14.886 25.53 15.338 24.4184 16.2012 23.447C16.5821 23.0185 17.0587 22.6604 17.6584 22.3519C18.0851 22.1324 18.534 21.9684 19.0092 21.7948C19.2682 21.7001 19.5362 21.6023 19.8092 21.492C20.854 21.0701 22.0737 20.6661 23.1962 20.8661C24.0607 21.0203 25.001 21.7277 25.0129 22.6017C25.02 23.1304 24.6701 23.6949 24.1424 24.0065C23.6156 24.3174 22.898 24.4129 22.1725 24.2685C21.9064 24.2155 21.6262 24.1321 21.3296 24.0439C20.5014 23.7974 19.5625 23.5179 18.5617 23.815C17.6495 24.0859 16.9411 24.8485 16.6667 25.8549C16.3925 26.8612 16.6159 27.8779 17.2645 28.5742C17.8619 29.2156 18.6784 29.503 19.2746 29.7129C22.4954 30.8468 25.7767 31.9406 29.0391 32.9695C28.2765 33.2355 27.4921 33.5399 26.7432 33.9379C25.656 33.5777 24.5685 33.2193 23.4799 32.8629C22.9876 32.7018 22.4584 32.9701 22.2971 33.462C22.136 33.954 22.4042 34.4836 22.8964 34.6447C23.5452 34.8573 24.1934 35.0719 24.8419 35.2856C23.1351 36.912 22.3001 39.2339 22.4815 41.899C22.6511 44.3907 24.1046 46.6214 26.6847 48.351C26.1322 48.7845 25.6064 49.2615 25.1275 49.7981C23.6196 51.4879 22.8529 53.5547 23.024 55.4688C23.2341 57.8176 24.9262 59.8078 27.0475 60.201C27.1045 60.2115 27.1616 60.2166 27.2184 60.2166C27.4774 60.2166 27.728 60.1091 27.9071 59.9151C28.1256 59.6785 28.2074 59.3465 28.1236 59.0355C27.6711 57.3532 27.3107 55.733 27.8634 54.3991C28.1462 53.7164 28.6546 53.152 29.2597 52.671V61.266C29.2597 62.7735 30.4861 63.9999 31.9936 63.9999C33.5011 63.9999 34.7275 62.7735 34.7275 61.266V52.8203C35.3295 53.3435 35.747 53.8896 35.99 54.4721C36.6034 55.9428 36.1351 57.7639 35.7296 59.0057C35.6289 59.3142 35.695 59.653 35.9041 59.9011C36.0837 60.1141 36.3467 60.2342 36.6206 60.2342C36.6659 60.2342 36.7116 60.231 36.7571 60.2243C38.9811 59.8974 40.7554 57.791 40.8844 55.3245C40.9865 53.3657 40.0996 51.2697 38.4507 49.5741C38.029 49.1404 37.561 48.7279 37.0221 48.3151C38.3059 47.4275 39.4434 46.3649 40.2684 44.9669C40.5839 44.4319 40.8385 43.8536 41.0254 43.2482C41.6982 41.0656 41.4299 38.6838 40.3076 36.8769C39.9571 36.3124 39.5341 35.7999 39.0321 35.3278L44.7142 33.4552C45.8602 33.0775 47.1594 32.6495 48.2546 31.8277C50.2034 30.3657 51.1967 27.7774 50.7264 25.3869C50.4827 24.1488 49.8332 22.9576 48.8974 22.0329C48.4891 21.6295 48.0365 21.2844 47.553 21.0045H48.7111C50.3094 21.0045 51.812 20.3821 52.9421 19.252C53.718 18.4761 54.7497 18.0487 55.8471 18.0487H57.0531C58.6514 18.0487 60.154 17.4264 61.2841 16.2962L62.5989 14.9816C63.1934 14.3871 63.3697 13.5008 63.0479 12.7238ZM37.6672 24.6504C38.0421 25.16 38.5514 25.5882 39.1564 25.8699C40.2319 26.3704 41.5475 26.4201 42.8614 26.01C43.0417 25.9536 43.2152 25.8915 43.383 25.8314C43.809 25.6788 44.2132 25.535 44.5425 25.5601C44.9366 25.5906 45.3285 25.9269 45.4346 26.3259C45.5445 26.7386 45.3742 27.2448 45.0299 27.5291C44.74 27.7686 44.295 27.9159 43.8649 28.0581L34.7274 31.0812V24.6502H37.6672V24.6504ZM28.8456 5.03062C28.8456 3.29062 30.2606 1.875 32 1.875C33.7394 1.875 35.1544 3.29062 35.1544 5.03062C35.1544 6.24787 34.4741 7.3355 33.3791 7.86912C33.0567 8.02625 32.8522 8.35337 32.8522 8.71187V31.7016L31.0902 32.2846C31.1189 32.1948 31.1345 32.0993 31.1345 32V8.70512C31.1345 8.34787 30.9314 8.02162 30.6109 7.86387C29.522 7.32825 28.8456 6.24262 28.8456 5.03062ZM23.5251 19.0203C22.2062 18.7852 20.9264 19.0854 19.7911 19.492C19.1337 19.252 18.4461 19.1297 17.7429 19.1297H15.2889C14.1915 19.1297 13.1597 18.7024 12.3839 17.9265C11.2537 16.7964 9.75125 16.174 8.15287 16.174H6.94687C5.8495 16.174 4.81775 15.7466 4.04187 14.9706L2.72712 13.6559C2.704 13.6329 2.634 13.5627 2.68437 13.4412C2.73462 13.3196 2.83375 13.3196 2.86637 13.3196H4.52875C9.62475 13.3196 14.7001 12.6356 19.6142 11.2866C22.8781 10.3909 26.3976 11.126 29.0286 13.2541C29.1004 13.3121 29.1782 13.3574 29.2595 13.391V22.7752H26.8827C26.8862 22.709 26.8884 22.6427 26.8875 22.5765C26.8615 20.6514 25.1357 19.3074 23.5251 19.0203ZM18.6362 27.2962C18.3971 27.0395 18.3965 26.6381 18.4755 26.3481C18.5546 26.058 18.759 25.7125 19.0952 25.6126C19.5615 25.4741 20.133 25.6441 20.7949 25.8411C21.1194 25.9377 21.4547 26.0375 21.8062 26.1075C22.995 26.3444 24.1631 26.1716 25.0954 25.6213C25.5231 25.3687 25.8897 25.0343 26.1787 24.6504H29.2596V31.0731C26.1302 30.0821 22.9855 29.0316 19.8971 27.9445C19.4387 27.783 18.9194 27.6001 18.6362 27.2962ZM31.9934 62.125C31.5197 62.125 31.1345 61.7397 31.1345 61.2661V51.4984C31.1471 51.4917 31.16 51.4849 31.1726 51.4782C31.6992 51.2036 32.2544 50.9296 32.7911 50.6646C32.8115 50.6545 32.8319 50.6445 32.8522 50.6344V61.2661C32.8522 61.7397 32.467 62.125 31.9934 62.125ZM37.1065 50.8815C38.3925 52.204 39.087 53.7879 39.0117 55.2269C38.9669 56.0884 38.592 56.9093 38.0405 57.499C38.2342 56.3114 38.2375 54.9907 37.7201 53.7505C37.2075 52.5214 36.2269 51.4552 34.7272 50.4936V49.6855C34.9179 49.5845 35.1074 49.4818 35.2956 49.3773C36.0232 49.8835 36.6077 50.3688 37.1065 50.8815ZM38.7147 37.8664C39.555 39.2191 39.7487 41.0246 39.2335 42.6961C39.0899 43.1619 38.8946 43.6054 38.6534 44.0145C37.2666 46.3645 34.5695 47.6959 31.9612 48.9834C31.4152 49.2529 30.8507 49.5315 30.3056 49.8158C28.6827 50.6621 26.9175 51.7833 26.131 53.6818C25.6269 54.8986 25.6351 56.1838 25.8446 57.4621C25.323 56.8974 24.9651 56.1282 24.8912 55.302C24.7661 53.9022 25.362 52.3512 26.5261 51.0466C27.6626 49.7731 29.1821 48.8439 30.655 48.0294C30.9719 47.8541 31.291 47.6816 31.6101 47.5091C32.9006 46.8115 34.2351 46.0904 35.4505 45.169C36.1449 44.6426 37.0055 43.9019 37.5017 42.8386C38.309 41.1088 37.8477 38.9277 36.4049 37.6531C35.934 37.2371 35.3929 36.9386 34.8556 36.7044L36.919 36.0244C37.6927 36.566 38.2815 37.1689 38.7147 37.8664ZM34.7272 38.7409C34.883 38.8365 35.0302 38.9405 35.1632 39.0581C35.9706 39.7715 36.2514 41.0837 35.8024 42.0457C35.599 42.4816 35.2601 42.8939 34.7271 43.3469V38.7409H34.7272ZM31.9939 37.6474C32.0526 37.6832 32.1157 37.7139 32.1839 37.7368C32.4067 37.8118 32.6296 37.8869 32.8524 37.9622V44.6595C32.2987 44.9955 31.7252 45.3139 31.1346 45.6344V37.9306C31.1637 37.921 31.193 37.9114 31.2219 37.9019L31.9939 37.6474ZM29.2595 43.5892C28.9215 43.362 28.6109 43.1145 28.3711 42.825C27.5685 41.8563 27.6234 40.2053 28.4884 39.2918C28.7071 39.0608 28.9707 38.8672 29.2596 38.6996L29.2595 43.5892ZM48.8866 25.7491C49.2159 27.422 48.4932 29.305 47.1292 30.3281C46.28 30.9653 45.1856 31.3259 44.1271 31.6746L30.6347 36.1209C29.5167 36.4894 28.1252 36.9479 27.1267 38.0023C25.6014 39.6129 25.5119 42.3129 26.927 44.0209C27.5831 44.8131 28.4476 45.3136 29.2104 45.7552C29.2264 45.7645 29.243 45.7721 29.2594 45.7804V46.6621C28.9595 46.8327 28.6592 47.0094 28.3606 47.1935C28.1447 47.0644 27.9417 46.9362 27.7454 46.805C25.6244 45.3884 24.4826 43.6949 24.3516 41.7714C24.1965 39.49 24.963 37.552 26.5099 36.3143C27.6596 35.3943 29.1537 34.8999 30.5987 34.4219L44.4536 29.838C44.9922 29.6597 45.6626 29.4379 46.2237 28.9745C47.1336 28.223 47.5446 26.9647 47.2465 25.8436C46.934 24.6681 45.8814 23.7827 44.6867 23.6904C43.9561 23.6339 43.3154 23.8635 42.7502 24.0659C42.5936 24.122 42.4457 24.175 42.3024 24.2197C41.4351 24.4904 40.5989 24.4726 39.9475 24.1696C39.2997 23.8681 38.8387 23.2111 38.8511 22.6075C38.866 21.8879 39.6177 21.0035 40.8065 20.8299C41.4576 20.7348 42.1449 20.837 42.7406 21.118C42.8906 21.1887 43.0451 21.275 43.2087 21.3664C43.4734 21.5141 43.7735 21.6816 44.1076 21.8086C44.451 21.939 44.7962 22.0135 45.1007 22.0791C45.2502 22.1114 45.3915 22.1419 45.5255 22.1768C46.2807 22.3738 46.991 22.7851 47.5794 23.3665C48.2506 24.0301 48.7149 24.8761 48.8866 25.7491Z" fill="#0A0A0A"/>
</g>
<defs>
<clipPath id="clip0_487_1153">
<rect width="64" height="64" fill="white"/>
</clipPath>
</defs>
</svg>
