<svg width="64" height="64" viewBox="0 0 64 64" fill="none" xmlns="http://www.w3.org/2000/svg">
<g clip-path="url(#clip0_469_755)">
<path d="M24.5269 16.0042C11.5703 16.0042 1.06641 26.5081 1.06641 39.4646C1.06641 52.4212 11.5703 62.9252 24.5269 62.9252C37.4834 62.9252 47.9873 52.4213 47.9873 39.4647C47.9873 26.5082 37.4836 16.0042 24.5269 16.0042ZM24.5269 47.9958C19.8156 47.9958 15.9958 44.176 15.9958 39.4647C15.9958 34.7535 19.8156 30.9337 24.5269 30.9337C29.2381 30.9337 33.0579 34.7535 33.0579 39.4647C33.0579 44.176 29.2383 47.9958 24.5269 47.9958Z" fill="#F3C000"/>
<path d="M37.9047 20.1973C41.4025 49.315 24.9439 57.3897 12.0693 59.3412C23.0873 66.1597 37.5464 62.7557 44.3648 51.7389C50.904 41.173 48.0706 27.3409 37.9047 20.1973Z" fill="#F3C000"/>
<path d="M18.1289 21.3384H15.9961V23.4711H18.1289V21.3384Z" fill="#F3C000"/>
<path d="M22.3945 25.604H20.2617V27.7368H22.3945V25.604Z" fill="#F3C000"/>
<path d="M31.9916 24.5376H29.8589V26.6704H31.9916V24.5376Z" fill="#F3C000"/>
<path d="M40.5229 26.6702H38.3901V28.8029H40.5229V26.6702Z" fill="#F3C000"/>
<path d="M38.3901 34.135H36.2573V36.2678H38.3901V34.135Z" fill="#F3C000"/>
<path d="M43.7221 40.5334H41.5894V42.6662H43.7221V40.5334Z" fill="#F3C000"/>
<path d="M36.2573 46.9316H34.1245V49.0644H36.2573V46.9316Z" fill="#F3C000"/>
<path d="M24.5268 56.5291H22.394V58.6618H24.5268V56.5291Z" fill="#F3C000"/>
<path d="M11.7304 38.4006H9.59766V40.5334H11.7304V38.4006Z" fill="#F3C000"/>
<path d="M33.0581 55.4626H30.9253V57.5954H33.0581V55.4626Z" fill="#F3C000"/>
<path d="M9.5976 29.8694H7.46484V32.0021H9.5976V29.8694Z" fill="#F3C000"/>
<path d="M9.5976 47.998H7.46484V50.1308H9.5976V47.998Z" fill="#F3C000"/>
<path d="M18.1289 52.2634H15.9961V54.3962H18.1289V52.2634Z" fill="#F3C000"/>
<path d="M39.4563 0.00861091C30.2311 -0.0127642 21.7799 5.16026 17.604 13.3864L19.5043 14.3568C25.1315 3.34312 38.6225 -1.02264 49.6361 4.60575C60.6498 10.2342 65.0156 23.724 59.3872 34.7376C57.2438 38.9328 53.8303 42.3453 49.635 44.4898L50.6054 46.389C62.6737 40.2381 67.4713 25.4676 61.3204 13.3993C57.1307 5.17738 48.6827 0.00423589 39.4563 0.00861091Z" fill="black"/>
<path d="M48.751 26.9335C50.0723 21.7978 46.9808 16.5619 41.844 15.2406C41.0645 15.0401 40.2615 14.9377 39.4564 14.9377C38.647 14.9377 37.8419 15.039 37.0581 15.2395L37.5914 17.3061C41.5892 16.2793 45.6618 18.6881 46.6886 22.686C47.0021 23.9049 47.0021 25.1835 46.6886 26.4024L48.751 26.9335Z" fill="black"/>
<path d="M0 39.4648C0 53.0111 10.9805 63.9917 24.5268 63.9917C38.0732 63.9917 49.0537 53.0111 49.0537 39.4648C49.0537 25.9185 38.0732 14.938 24.5268 14.938C10.987 14.9529 0.0148751 25.9249 0 39.4648ZM46.9211 39.4648C46.9211 51.8328 36.8949 61.8589 24.527 61.8589C12.159 61.8589 2.13276 51.8328 2.13276 39.4648C2.13276 27.0969 12.1589 17.0707 24.5268 17.0707C36.8884 17.0845 46.9072 27.1022 46.9211 39.4648Z" fill="black"/>
<path d="M24.5267 29.8672C19.2257 29.8672 14.9292 34.1637 14.9292 39.4647C14.9292 44.7657 19.2257 49.0623 24.5267 49.0623C29.8278 49.0623 34.1243 44.7657 34.1243 39.4647C34.1179 34.1668 29.8246 29.8726 24.5267 29.8672ZM24.5267 46.9294C20.4041 46.9294 17.0621 43.5874 17.0621 39.4647C17.0621 35.3421 20.4041 32.0001 24.5267 32.0001C28.6494 32.0001 31.9914 35.3421 31.9914 39.4647C31.9873 43.5852 28.6473 46.9251 24.5267 46.9294Z" fill="black"/>
<path d="M18.1284 21.3384H15.9956V23.4711H18.1284V21.3384Z" fill="black"/>
<path d="M22.394 25.6038H20.2612V27.7365H22.394V25.6038Z" fill="black"/>
<path d="M31.9916 24.5374H29.8589V26.6701H31.9916V24.5374Z" fill="black"/>
<path d="M40.5229 26.6702H38.3901V28.8029H40.5229V26.6702Z" fill="black"/>
<path d="M38.3901 34.1348H36.2573V36.2675H38.3901V34.1348Z" fill="black"/>
<path d="M43.7216 40.5332H41.5889V42.666H43.7216V40.5332Z" fill="black"/>
<path d="M36.2573 46.9316H34.1245V49.0644H36.2573V46.9316Z" fill="black"/>
<path d="M24.5268 56.5291H22.394V58.6618H24.5268V56.5291Z" fill="black"/>
<path d="M11.7304 38.4006H9.59766V40.5334H11.7304V38.4006Z" fill="black"/>
<path d="M33.0581 55.4626H30.9253V57.5954H33.0581V55.4626Z" fill="black"/>
<path d="M9.5976 29.8694H7.46484V32.0021H9.5976V29.8694Z" fill="black"/>
<path d="M9.5976 47.998H7.46484V50.1308H9.5976V47.998Z" fill="black"/>
<path d="M18.1284 52.2634H15.9956V54.3962H18.1284V52.2634Z" fill="black"/>
<path d="M20.688 36.7498L18.8965 37.9143C20.7616 40.7829 23.2079 43.2292 26.0765 45.0953L27.242 43.3038C24.6293 41.5943 22.3974 39.3624 20.688 36.7498Z" fill="black"/>
</g>
<defs>
<clipPath id="clip0_469_755">
<rect width="64" height="64" fill="white"/>
</clipPath>
</defs>
</svg>
