<svg width="64" height="64" viewBox="0 0 64 64" fill="none" xmlns="http://www.w3.org/2000/svg">
<g clip-path="url(#clip0_469_794)">
<path d="M61.3692 44.6241C59.3902 47.5704 55.8047 48.1011 52.5606 48.584C51.8794 48.6866 51.1973 48.7671 50.5122 48.8394C52.7549 48.2891 54.8487 47.3477 56.2149 45.3116C59.1573 40.9263 58.0904 34.0996 56.3765 29.4234C54.46 24.1939 50.0088 19.4556 45.3862 16.4912C44.3853 15.8501 43.3091 15.3311 42.1982 14.9097C41.0537 14.4751 39.8745 14.1465 38.6802 13.8823C39.6802 13.9834 40.6738 14.1079 41.6563 14.2573C43.832 14.5859 46.0137 15.0068 48.0762 15.7905C49.1299 16.1899 50.1509 16.6821 51.1001 17.291C55.4834 20.1016 59.7051 24.5962 61.5235 29.5552C63.149 33.9912 64.1612 40.4644 61.3692 44.6241Z" fill="#F3C000"/>
<path d="M37.8794 46.6772C36.3076 49.0385 32.5254 49.9389 29.8692 50.3398C27.3423 50.7226 24.5454 50.7944 21.7471 50.665C22.8867 50.6064 23.9985 50.5004 25.062 50.3398C27.7173 49.9389 31.5005 49.0385 33.0723 46.6772C36.4595 41.5903 34.0049 33.4042 31.6128 28.4862C29.8931 24.9511 27.6289 21.6156 24.583 19.1303C22.1743 17.1664 19.3608 15.83 16.499 15.3343C20.8765 14.5272 25.6289 16.0614 29.3897 19.1303C32.437 21.6156 34.7012 24.9511 36.4209 28.4862C38.8135 33.4047 41.2681 41.5903 37.8794 46.6772Z" fill="#F3C000"/>
<path d="M30.1219 28.7167C30.244 26.6005 29.4369 24.3422 28.0204 22.8095C26.5497 21.2187 24.6 20.0878 22.5941 19.3119C19.2367 18.0136 14.5316 17.831 13.2225 21.9784C13.0257 22.6029 12.972 23.2963 13.2162 23.9037C13.6351 24.9442 14.7821 25.4672 15.8431 25.83C17.0042 26.227 18.1898 26.5522 19.3905 26.8036C20.1947 26.9721 21.0184 27.1112 21.7562 27.4745C23.7469 28.455 24.3387 31.1093 26.2264 32.0185C28.4457 33.0868 29.9154 30.9941 30.1034 28.9613C30.1112 28.8798 30.1171 28.7983 30.1219 28.7167Z" fill="#F3C000"/>
<path d="M30.1221 28.7172C30.1172 28.7978 30.1109 28.8803 30.1035 28.9613C29.9903 30.184 29.4136 31.4291 28.4883 31.9936C28.6055 31.6371 28.6826 31.2626 28.7173 30.8901C28.7246 30.809 28.731 30.727 28.7359 30.6459C28.8579 28.5287 28.0498 26.2709 26.6338 24.7382C25.1631 23.1474 23.2129 22.017 21.208 21.2411C18.6846 20.2646 15.4009 19.9184 13.3696 21.5683C14.8516 17.8446 19.3511 18.058 22.5938 19.3119C24.6001 20.0878 26.5503 21.2187 28.02 22.809C29.437 24.3422 30.2442 26.601 30.1221 28.7172Z" fill="#F3C000"/>
<path d="M6.98914 34.208C6.38757 32.2754 6.61121 29.8291 7.76258 28.5317C8.85975 27.2949 10.9921 27.502 12.3226 28.1401C13.2592 28.5894 14.1586 29.187 15.1889 29.3233C17.1366 29.5816 18.1478 29.1265 19.4745 30.77C23.1889 35.3726 17.7089 37.7012 13.8251 38.1314C12.6835 38.2578 11.5023 38.2403 10.4203 37.8555C8.91736 37.3208 7.46277 35.7276 6.98914 34.208Z" fill="#F3C000"/>
<path d="M18.4195 36.7607C18.9326 35.6835 18.7705 34.3383 17.4541 32.707C16.1279 31.0634 15.1167 31.519 13.169 31.2612C12.1392 31.1245 11.2398 30.5263 10.3023 30.0771C9.40332 29.6459 8.1377 29.4121 7.07422 29.687C7.24756 29.2475 7.47656 28.8539 7.7627 28.5312C8.85987 27.2949 10.9922 27.5014 12.3223 28.1406C13.2598 28.5888 14.1592 29.1865 15.189 29.3237C17.1367 29.5815 18.148 29.1269 19.4741 30.7705C21.7534 33.5937 20.5713 35.5615 18.4195 36.7607Z" fill="#F3C000"/>
<path d="M29.8795 37.7144C28.8843 39.5772 26.9493 40.8687 26.9869 43.1461C26.9971 43.7599 27.0494 44.3863 27.295 44.9483C27.8487 46.2159 29.3365 46.9049 30.7159 46.8023C32.0953 46.6998 33.3526 45.9332 34.3428 44.9674C34.8409 44.4815 35.2925 43.9308 35.5562 43.2867C36.2618 41.5616 35.7901 39.7608 35.6153 38.022C35.4483 36.3585 35.2672 34.9698 34.0587 33.6754C33.1964 32.7515 31.8204 33.1212 31.0577 34.0172C30.2144 35.0098 30.5587 36.2725 30.0225 37.4283C29.9771 37.525 29.9297 37.6202 29.8795 37.7144Z" fill="#F3C000"/>
<path d="M35.5552 43.2867C35.2925 43.9303 34.8403 44.4821 34.3423 44.9679C33.3525 45.9327 32.0947 46.6998 30.7158 46.8024C30.2686 46.8356 29.8105 46.7858 29.377 46.6603C30.4307 46.3785 31.3882 45.736 32.1768 44.9679C32.6748 44.4821 33.1255 43.9303 33.3897 43.2862C34.0957 41.5616 33.6235 39.7609 33.4482 38.0221C33.2813 36.3585 33.1006 34.9698 31.8926 33.6749C31.8252 33.6036 31.7559 33.5392 31.6836 33.483C32.4395 33.0187 33.3994 32.9689 34.0581 33.6749C35.2661 34.9698 35.4483 36.3585 35.6152 38.0221C35.7896 39.7609 36.2617 41.5616 35.5552 43.2867Z" fill="#F3C000"/>
<path d="M15.918 42.0248C13.5386 42.2831 11.1372 41.8071 8.87842 41.0849C8.17432 40.8593 7.45703 40.6069 6.71143 40.6332C5.96582 40.6596 5.17383 41.0468 4.95508 41.7167C4.60742 42.7831 5.7998 43.6918 6.8584 44.1874C11.1856 46.2153 16.0484 47.2431 20.9019 47.1562C21.3609 47.1479 21.8369 47.1254 22.2447 46.9257C23.0679 46.5219 23.3448 45.5366 23.334 44.6689C23.3233 43.8017 23.1167 42.9208 23.3365 42.0761C23.6304 40.9462 25.0264 39.8198 24.7945 38.603C24.5117 37.1191 23.3052 37.3583 22.4864 38.1757C20.48 40.1786 19.0532 41.6835 15.918 42.0248Z" fill="#F3C000"/>
<path d="M24.3721 40.1903C23.8706 39.747 23.0771 40.037 22.4868 40.6264C20.4805 42.6288 19.0532 44.1332 15.9175 44.4745C13.539 44.7333 11.1377 44.2577 8.87887 43.5356C8.17379 43.31 7.45651 43.057 6.71188 43.0834C6.33053 43.0971 5.93746 43.204 5.61471 43.3959C5.08541 42.9277 4.74801 42.35 4.95455 41.7172C5.17379 41.0473 5.96578 40.6601 6.71188 40.6337C7.45651 40.6064 8.17379 40.8593 8.87887 41.0844C11.1382 41.807 13.539 42.2841 15.9175 42.0248C19.0532 41.6835 20.4805 40.1791 22.4868 38.1767C23.3052 37.3583 24.5117 37.1195 24.7944 38.6024C24.8979 39.1479 24.6763 39.6737 24.3721 40.1903Z" fill="#F3C000"/>
<path d="M62.3418 29.2559C60.604 24.5152 56.5776 19.7681 51.5708 16.5572C50.625 15.9507 49.5532 15.4185 48.3862 14.9751C46.142 14.1236 43.791 13.6983 41.7875 13.395C40.101 13.1392 38.3129 12.9449 36.4721 12.8169C35.9892 12.7823 35.5751 13.1455 35.5419 13.626C35.5082 14.106 35.8705 14.5225 36.351 14.5562C38.1455 14.6807 39.8862 14.8701 41.5263 15.1187C43.4389 15.4082 45.6767 15.812 47.7671 16.6055C48.8217 17.0059 49.7851 17.4834 50.6298 18.0249C55.3276 21.0371 59.0937 25.46 60.7046 29.8555C62.331 34.294 63.1699 40.3765 60.6455 44.1378C58.8847 46.7608 55.6128 47.2486 52.4482 47.7198L52.4326 47.7222C51.4453 47.8692 50.4248 47.9742 49.4384 48.0753C48.9223 48.1285 48.3886 48.1832 47.8623 48.2437C46.2602 48.4278 42.1489 48.71 38.5224 48.9591C37.8461 49.0055 37.1782 49.0514 36.5346 49.0958C37.4252 48.5387 38.1176 47.8941 38.6054 47.1612C40.2465 44.6964 40.7768 41.4092 40.1801 37.3907C39.5917 33.4239 38.0634 29.8707 37.2045 28.1055C35.2123 24.0093 32.7685 20.7622 29.9408 18.4556C27.8031 16.711 25.3901 15.4639 22.9203 14.8008C23.0361 14.7852 23.1508 14.7686 23.267 14.7539C24.6195 14.5855 26.0585 14.4746 27.5439 14.4239C29.121 14.3701 30.6821 14.3555 32.184 14.3799C32.1889 14.3799 32.1938 14.3804 32.1987 14.3804C32.6738 14.3804 33.0624 13.9995 33.0702 13.523C33.0781 13.0415 32.6943 12.6446 32.2128 12.6367C30.6821 12.6118 29.0907 12.6265 27.4843 12.6812C25.9467 12.7339 24.4555 12.8491 23.0512 13.024C19.6737 13.4449 15.746 14.1348 12.6913 15.7207C11.3461 16.419 10.1327 17.355 9.08632 18.4493C6.8036 20.8379 5.22645 23.6954 3.56092 27.251C2.75379 28.9732 1.28553 32.3824 0.516971 35.8682C-0.37805 39.9268 -0.109983 43.0362 1.31385 45.1095C2.8783 47.3878 5.72401 48.3995 8.01064 49.2125L8.31044 49.3194C9.90419 49.8878 11.5473 50.3184 13.1947 50.5992C15.725 51.0304 19.8813 51.5977 24.2299 51.5977C26.6528 51.5977 29.0834 51.4884 31.475 51.2335C32.6118 51.1119 35.541 50.9107 38.642 50.6983C42.4653 50.4356 46.4194 50.1641 48.061 49.9757C48.5776 49.9161 49.1054 49.8619 49.6167 49.8097C50.6225 49.7061 51.6626 49.5992 52.6894 49.4464L52.705 49.4439C56.0791 48.9415 59.9033 48.3717 62.0932 45.109C65.7295 39.6915 63.2026 31.605 62.3418 29.2559ZM29.7392 49.4781C23.8652 50.3663 17.0356 49.4849 13.4872 48.8805C11.9398 48.6168 10.3949 48.212 8.89638 47.6773L8.59413 47.5694C6.43886 46.8033 3.99549 45.9346 2.75086 44.1226C1.61121 42.463 1.4325 39.8121 2.21961 36.2432C2.95155 32.9224 4.36317 29.647 5.13954 27.9903C6.73231 24.5899 8.22743 21.8711 10.3466 19.6538C15.8568 13.8882 23.7948 15.6909 28.8388 19.8062C31.4687 21.9517 33.7558 25.0005 35.6367 28.8677C36.4516 30.543 37.9013 33.9107 38.456 37.6465C38.9868 41.2242 38.5488 44.1002 37.1542 46.1949C36.0917 47.7901 33.5971 48.8951 29.7392 49.4781Z" fill="black"/>
<path d="M28.852 32.791C30.0058 32.1382 30.8183 30.7012 30.9717 29.0405C30.98 28.9492 30.9873 28.8574 30.9922 28.7661C31.1269 26.4287 30.2339 23.9199 28.6601 22.2178C27.2344 20.6748 25.2993 19.4238 22.9087 18.499C20.1064 17.4155 17.2563 17.334 15.2846 18.2817C13.8691 18.9619 12.896 20.1172 12.3911 21.7163C12.1049 22.623 12.1108 23.4922 12.4077 24.2295C12.9653 25.6147 14.3862 26.2534 15.5615 26.6553C16.7519 27.062 17.9804 27.3994 19.2119 27.6572C19.31 27.6777 19.4087 27.6977 19.5078 27.7182C20.1841 27.8564 20.8227 27.9873 21.3711 28.2568C22.1772 28.6538 22.7402 29.4546 23.3364 30.3032C24.0117 31.2632 24.7095 32.2559 25.8481 32.8037C26.418 33.0781 26.9336 33.1811 27.3872 33.1811C27.9936 33.1811 28.4888 32.9966 28.852 32.791ZM26.6045 31.2329C25.875 30.8813 25.3349 30.1133 24.7632 29.3003C24.0996 28.3559 23.3471 27.2861 22.1411 26.6924C21.3921 26.3237 20.6118 26.164 19.8569 26.0097C19.7612 25.9902 19.665 25.9707 19.5693 25.9507C18.4077 25.7075 17.2485 25.3891 16.1255 25.0054C15.3017 24.7236 14.3188 24.3071 14.0254 23.5781C13.8828 23.2251 13.893 22.75 14.0542 22.2407C14.413 21.104 15.0625 20.3227 16.04 19.853C16.7256 19.5234 17.5659 19.3603 18.4951 19.3603C19.6606 19.3603 20.9658 19.6172 22.2798 20.1255C24.4204 20.9531 26.1367 22.0552 27.3804 23.4013C28.6435 24.7676 29.3603 26.7851 29.2519 28.6665C29.2519 28.6665 29.2519 28.667 29.2515 28.6675C29.2475 28.7392 29.2422 28.8105 29.2358 28.8808C29.1372 29.9477 28.6382 30.9092 27.9936 31.2739C27.5903 31.5019 27.1362 31.4888 26.6045 31.2329Z" fill="black"/>
<path d="M10.1286 38.6768C10.8747 38.9419 11.6999 39.0733 12.632 39.0733C12.947 39.0733 13.2736 39.0581 13.614 39.0283C14.0935 38.9863 14.448 38.5635 14.406 38.084C14.364 37.604 13.9416 37.2485 13.4611 37.2915C12.3689 37.3872 11.4699 37.3032 10.7126 37.0337C9.4958 36.6011 8.22578 35.2461 7.82197 33.9487C7.27412 32.189 7.529 30.1089 8.41475 29.1099C9.2209 28.2017 10.9646 28.4556 11.9455 28.9258C12.1579 29.0273 12.3689 29.1377 12.592 29.2544C13.3527 29.6523 14.1399 30.0635 15.0744 30.1875C15.5822 30.2544 16.0246 30.2764 16.4152 30.2959C17.5285 30.3511 18.0363 30.376 18.7966 31.3174C19.6452 32.3691 19.9778 33.2993 19.7849 34.0815C19.573 34.9385 18.6765 35.7476 17.259 36.3599C16.8171 36.5508 16.614 37.064 16.8049 37.5059C16.9958 37.9478 17.5085 38.1519 17.9509 37.9605C19.9074 37.1148 21.1272 35.918 21.4773 34.4995C21.8078 33.1597 21.3625 31.7207 20.153 30.2227C18.9026 28.6733 17.7361 28.6157 16.5012 28.5542C16.1272 28.5356 15.74 28.5166 15.3034 28.459C14.6745 28.3755 14.0554 28.0517 13.3996 27.709C13.1731 27.5908 12.9392 27.4683 12.6994 27.3535C10.9362 26.5083 8.45039 26.4424 7.11054 27.9526C5.81123 29.4175 5.41914 32.0962 6.15742 34.4673C6.72529 36.29 8.39521 38.0606 10.1286 38.6768Z" fill="black"/>
<path d="M36.6067 38.9474C36.5603 38.5968 36.5158 38.2658 36.4826 37.9347C36.3274 36.3903 36.1516 34.6398 34.696 33.0807C34.1911 32.5397 33.508 32.2521 32.7678 32.2677C31.8957 32.2877 31.0085 32.7306 30.3938 33.4532C29.7414 34.2203 29.6252 35.069 29.5227 35.8175C29.4611 36.2672 29.403 36.6925 29.2312 37.0621C29.195 37.1403 29.1545 37.2218 29.1106 37.3038C28.8127 37.8619 28.4099 38.3751 27.9841 38.9181C27.0939 40.0529 26.0852 41.339 26.1159 43.1608C26.1267 43.8117 26.1804 44.5744 26.4963 45.2975C27.1252 46.737 28.7121 47.6847 30.4333 47.6847C30.5485 47.6847 30.6648 47.6803 30.7805 47.672C32.6037 47.5363 34.0549 46.466 34.9514 45.5919C35.6277 44.9328 36.0896 44.2868 36.3635 43.6168C37.0168 42.0187 36.799 40.3868 36.6067 38.9474ZM34.7492 42.9567C34.5652 43.4069 34.2429 43.8478 33.7346 44.3434C33.0451 45.0153 31.9509 45.8366 30.6516 45.9332C29.5441 46.0167 28.4675 45.4547 28.094 44.5997C27.9011 44.1578 27.8669 43.61 27.8591 43.1315C27.8386 41.9284 28.5417 41.0324 29.3557 39.9948C29.8093 39.4161 30.2785 38.818 30.6486 38.1251C30.7082 38.0138 30.7634 37.903 30.8132 37.7955C31.0949 37.1886 31.1775 36.5856 31.2502 36.0538C31.3337 35.4435 31.3996 34.9615 31.7219 34.5826C32.01 34.2438 32.4362 34.0192 32.8078 34.0109C32.8156 34.0104 32.823 34.0104 32.8303 34.0104C33.0652 34.0104 33.2585 34.0953 33.4216 34.2701C34.4045 35.3234 34.5783 36.423 34.7478 38.109C34.7839 38.4684 34.8318 38.8287 34.8786 39.1779C35.0578 40.5206 35.2268 41.7887 34.7492 42.9567Z" fill="black"/>
<path d="M24.3187 36.7325C23.5433 36.4932 22.6283 36.8023 21.8705 37.5591L21.7069 37.7227C19.8167 39.6118 18.5677 40.8599 15.8231 41.1582C13.8875 41.3692 11.7025 41.0733 9.14388 40.2544L8.98763 40.2041C8.30111 39.9829 7.52522 39.7325 6.6805 39.7622C5.67073 39.7984 4.48958 40.333 4.12629 41.4463C3.6966 42.7632 4.57991 44.083 6.48811 44.9771C10.764 46.9805 15.5379 48.0328 20.3309 48.0328C20.5262 48.0328 20.722 48.0313 20.9173 48.0279C21.474 48.0176 22.0648 47.9849 22.6283 47.7085C23.6332 47.2154 24.223 46.0752 24.2054 44.6582C24.202 44.354 24.1771 44.0586 24.1537 43.7735C24.1092 43.2369 24.0668 42.73 24.18 42.2954C24.2606 41.9844 24.5062 41.6055 24.7655 41.2041C25.2513 40.4532 25.8563 39.5186 25.6507 38.44C25.4227 37.2408 24.7181 36.8555 24.3187 36.7325ZM23.3021 40.2574C22.9789 40.7569 22.6444 41.2735 22.4925 41.857C22.3045 42.5787 22.3641 43.2906 22.4164 43.918C22.4383 44.1851 22.4593 44.4371 22.4623 44.6802C22.4691 45.2413 22.3148 45.9205 21.8607 46.1436C21.6185 46.2623 21.2616 46.2779 20.8866 46.2847C16.1639 46.3702 11.4388 45.3716 7.22835 43.3985C6.42757 43.023 5.64876 42.4009 5.78401 41.9873C5.86555 41.7373 6.29524 41.5205 6.74251 41.5049C6.76839 41.5039 6.79427 41.5035 6.82015 41.5035C7.33431 41.5035 7.87825 41.6787 8.45296 41.8638L8.61263 41.9151C11.4085 42.8096 13.8289 43.1289 16.0121 42.8912C19.3666 42.5264 20.9432 40.9507 22.9393 38.9556L23.1019 38.793C23.4466 38.4488 23.7435 38.3833 23.7948 38.3931C23.8168 38.4102 23.8905 38.5152 23.9383 38.7661C24.0126 39.1582 23.6512 39.7168 23.3021 40.2574Z" fill="black"/>
</g>
<defs>
<clipPath id="clip0_469_794">
<rect width="64" height="64" fill="white"/>
</clipPath>
</defs>
</svg>
