<svg width="64" height="64" viewBox="0 0 64 64" fill="none" xmlns="http://www.w3.org/2000/svg">
<path d="M34.5 24.5H39.5V29.5H34.5V24.5Z" fill="#F3C000"/>
<path d="M26.25 62.75H1.25V39.5H26.25V62.75Z" fill="#F3C000"/>
<path d="M23.75 29.5V34.5L18.75 39.5H8.75L3.75 34.5V29.5H23.75Z" fill="#F3C000"/>
<path d="M21.25 25.75C21.25 27.1575 20.4625 28.455 19.3425 29.5H8.1575C7.0375 28.455 6.25 27.1575 6.25 25.75C6.25 22.551 8.29888 19.5 11.25 19.5C12.1613 19.5 13.015 19.8038 13.75 20.3363C14.485 19.8038 15.3387 19.5 16.25 19.5C19.1475 19.5 21.25 22.4736 21.25 25.75Z" fill="#F3C000"/>
<path d="M18.75 1.25V6.25C18.75 9.00338 16.5176 11.25 13.75 11.25C10.9855 11.25 8.75 9.00638 8.75 6.25V1.25H18.75Z" fill="#F3C000"/>
<path d="M49.5 59C50.1904 59 50.75 58.4404 50.75 57.75C50.75 57.0596 50.1904 56.5 49.5 56.5C48.8096 56.5 48.25 57.0596 48.25 57.75C48.25 58.4404 48.8096 59 49.5 59Z" fill="#0A0A0A"/>
<path d="M13.75 7.5C14.4404 7.5 15 6.94036 15 6.25C15 5.55964 14.4404 5 13.75 5C13.0596 5 12.5 5.55964 12.5 6.25C12.5 6.94036 13.0596 7.5 13.75 7.5Z" fill="#0A0A0A"/>
<path d="M58.0325 51.5071C58.1729 51.1139 58.25 50.6908 58.25 50.25V39.8937C58.25 38.009 57.6326 36.1818 56.465 34.61C55.9705 33.9436 55.75 33.271 55.75 32.4287V24.5C55.75 23.8096 55.1904 23.25 54.5 23.25H49.5C48.8096 23.25 48.25 23.8096 48.25 24.5V32.4287C48.25 33.2976 48.0337 33.9544 47.5267 34.6247C46.381 36.1399 45.75 38.012 45.75 39.8963V50.25C45.75 50.6883 45.8263 51.1087 45.965 51.5H43.035C43.1737 51.1087 43.25 50.6883 43.25 50.25V39.8937C43.25 38.009 42.6326 36.1818 41.465 34.61C40.9705 33.9436 40.75 33.271 40.75 32.4287V24.5C40.75 23.8096 40.1904 23.25 39.5 23.25H34.5C33.8096 23.25 33.25 23.8096 33.25 24.5V32.4287C33.25 33.2976 33.0337 33.9544 32.5267 34.6247C31.381 36.1399 30.75 38.012 30.75 39.8963V50.25C30.75 50.6883 30.8263 51.1087 30.965 51.5H27.5V39.5C27.5 38.8096 26.9404 38.25 26.25 38.25H21.7679L24.634 35.3839C24.8684 35.1495 25.0001 34.8315 25.0001 34.5V29.5C25.0001 28.8096 24.4405 28.25 23.7501 28.25H21.8716C22.2436 27.5229 22.4537 26.7696 22.4924 26.0075L26.9435 23.04C27.2913 22.8083 27.5001 22.4179 27.5001 22V16.25C27.5001 15.8702 27.3275 15.5111 27.031 15.2739L19.3113 9.098C19.7595 8.22187 20 7.24337 20 6.25V2.5H23.75C24.4404 2.5 25 1.94037 25 1.25C25 0.559625 24.4404 0 23.75 0C22.0136 0 8.27588 0 3.75 0C3.05963 0 2.5 0.559625 2.5 1.25C2.5 1.94037 3.05963 2.5 3.75 2.5H7.5V6.25C7.5 7.24337 7.7405 8.22187 8.18875 9.098L0.469125 15.2739C0.172625 15.5111 0 15.8702 0 16.25V22C0 22.418 0.208875 22.8083 0.556625 23.04L5.00775 26.0075C5.04637 26.7698 5.25637 27.5229 5.6285 28.25H3.75C3.05963 28.25 2.5 28.8096 2.5 29.5V34.5C2.5 34.8315 2.63175 35.1495 2.86613 35.3839L5.73212 38.25H1.25C0.559625 38.25 0 38.8096 0 39.5V62.75C0 63.4404 0.559625 64 1.25 64H8.125C8.81538 64 9.375 63.4404 9.375 62.75C9.375 62.0596 8.81538 61.5 8.125 61.5H2.5V40.75H25V61.5H19.375C18.6846 61.5 18.125 62.0596 18.125 62.75C18.125 63.4404 18.6846 64 19.375 64H57.75C61.1963 64 64 61.1963 64 57.75C64 54.3985 61.3481 51.6555 58.0325 51.5071ZM10 2.5H17.5V6.25C17.5 8.30062 15.8414 10 13.75 10C11.658 10 10 8.29838 10 6.25V2.5ZM5.36037 23.238L2.5 21.331V16.8507L9.75 11.0505C10.8621 11.9811 12.2659 12.5 13.75 12.5C15.2346 12.5 16.6388 11.9809 17.7502 11.0507L25 16.8507V21.331L22.1391 23.2383C21.2745 20.3226 18.9487 18.25 16.25 18.25C15.8275 18.25 15.409 18.3014 15 18.4004V16.25C15 15.5596 14.4404 15 13.75 15C13.0596 15 12.5 15.5596 12.5 16.25V18.4004C12.091 18.3014 11.6725 18.25 11.25 18.25C8.5505 18.25 6.22437 20.3238 5.36037 23.238ZM20 25.75C20 26.7412 19.4198 27.6146 18.8256 28.25H8.67437C8.08025 27.6146 7.5 26.7412 7.5 25.75C7.5 23.264 9.00138 20.75 11.25 20.75C11.8741 20.75 12.4685 20.9514 13.0166 21.3485C13.4559 21.6672 14.0529 21.6609 14.4832 21.3485C15.0315 20.9514 15.6259 20.75 16.25 20.75C18.5018 20.75 20 23.26 20 25.75ZM9.26787 38.25L5 33.9823V30.75H22.5V33.9823L18.2321 38.25H9.26787ZM50.75 25.75H53.25V28.25H50.75V25.75ZM48.25 39.8963C48.25 38.5529 48.7012 37.2164 49.5207 36.1328C50.3594 35.0238 50.75 33.8469 50.75 32.4289V30.75H53.25V32.4287C53.25 33.8041 53.645 35.005 54.4579 36.1004C55.3031 37.2384 55.75 38.55 55.75 39.8937V50.25C55.75 50.9393 55.1893 51.5 54.5 51.5H49.5C48.8107 51.5 48.25 50.9393 48.25 50.25V39.8963ZM35.75 25.75H38.25V28.25H35.75V25.75ZM33.25 39.8963C33.25 38.5529 33.7012 37.2164 34.5207 36.1328C35.3594 35.0238 35.75 33.8469 35.75 32.4289V30.75H38.25V32.4287C38.25 33.8041 38.645 35.005 39.4579 36.1004C40.3031 37.2384 40.75 38.55 40.75 39.8937V50.25C40.75 50.9393 40.1893 51.5 39.5 51.5H34.5C33.8107 51.5 33.25 50.9393 33.25 50.25V39.8963ZM44.5034 61.5H27.5V53.9987H44.5034C43.7169 55.0441 43.25 56.3441 43.25 57.75C43.25 59.1559 43.7169 60.4546 44.5034 61.5ZM49.5 61.5C47.4323 61.5 45.75 59.8177 45.75 57.75C45.75 55.6789 47.4323 54 49.5 54C51.5677 54 53.25 55.6823 53.25 57.75C53.25 59.8177 51.5677 61.5 49.5 61.5ZM57.75 61.5H54.4966C55.2831 60.4546 55.75 59.1559 55.75 57.75C55.75 56.3441 55.2831 55.0454 54.4966 54H57.75C59.8177 54 61.5 55.6823 61.5 57.75C61.5 59.8177 59.8177 61.5 57.75 61.5Z" fill="#0A0A0A"/>
<path d="M6.25 45.75H11.25C11.9404 45.75 12.5 45.1904 12.5 44.5C12.5 43.8096 11.9404 43.25 11.25 43.25H6.25C5.55963 43.25 5 43.8096 5 44.5C5 45.1904 5.55963 45.75 6.25 45.75Z" fill="#0A0A0A"/>
<path d="M6.25 50.75H11.25C11.9404 50.75 12.5 50.1904 12.5 49.5C12.5 48.8096 11.9404 48.25 11.25 48.25H6.25C5.55963 48.25 5 48.8096 5 49.5C5 50.1904 5.55963 50.75 6.25 50.75Z" fill="#0A0A0A"/>
<path d="M13.75 64C14.4404 64 15 63.4404 15 62.75C15 62.0596 14.4404 61.5 13.75 61.5C13.0596 61.5 12.5 62.0596 12.5 62.75C12.5 63.4404 13.0596 64 13.75 64Z" fill="#0A0A0A"/>
</svg>
