<svg width="64" height="64" viewBox="0 0 64 64" fill="none" xmlns="http://www.w3.org/2000/svg">
<path d="M38.4701 55.2976H25.5297V60.4875C25.5297 61.9096 26.6825 63.0623 28.1046 63.0623H35.8953C37.3174 63.0623 38.4701 61.9096 38.4701 60.4875V55.2976Z" fill="#F3C000"/>
<path d="M31.8538 63.0626H28.1041C26.683 63.0626 25.5294 61.9102 25.5294 60.4878V55.2971H29.279V60.4878C29.279 61.9102 30.4326 63.0626 31.8538 63.0626Z" fill="#F3C000"/>
<path d="M39.7647 55.2849H24.2351C23.1629 55.2849 22.2939 54.4158 22.2939 53.3438C22.2939 52.2716 23.1631 51.4026 24.2351 51.4026H39.7647C40.8369 51.4026 41.7059 52.2717 41.7059 53.3438C41.7061 54.4159 40.8369 55.2849 39.7647 55.2849Z" fill="#F3C000"/>
<path d="M27.9854 55.2846H24.2357C23.1633 55.2846 22.2934 54.4159 22.2934 53.3435C22.2934 52.8073 22.5109 52.3224 22.8621 51.9711C23.2133 51.6199 23.6995 51.4024 24.2357 51.4024H27.9854C27.4492 51.4024 26.963 51.6199 26.6117 51.9711C26.2605 52.3224 26.043 52.8073 26.043 53.3435C26.043 54.4159 26.913 55.2846 27.9854 55.2846Z" fill="#F3C000"/>
<path d="M51.4119 28.1146H44.9413C44.93 26.3373 43.4852 24.8999 41.7066 24.8999C39.9267 24.8999 38.4819 26.3373 38.4706 28.1146H32V21.6652C30.2127 21.6652 28.7653 20.2166 28.7653 18.4293C28.7653 16.6419 30.2127 15.1946 32 15.1946V8.72394C42.714 8.72394 51.4007 17.4031 51.4119 28.1146Z" fill="#F3C000"/>
<path d="M49.3351 17.4737C49.0633 17.033 48.4857 16.896 48.0452 17.1676C47.6045 17.4392 47.4675 18.0168 47.7391 18.4575C49.3615 21.0893 50.2879 24.0864 50.4471 27.177H45.7674C45.332 25.3379 43.6723 23.9626 41.7064 23.9626C39.7401 23.9626 38.08 25.3379 37.6444 27.177H32.9375V21.665C32.9375 21.1473 32.5179 20.7276 32.0001 20.7276C30.7331 20.7276 29.7024 19.6968 29.7024 18.4299C29.7024 17.163 30.7331 16.1322 32.0001 16.1322C32.5179 16.1322 32.9375 15.7125 32.9375 15.1948V9.68447C37.6649 9.91745 42.0402 11.9103 45.342 15.3557C45.7799 15.7312 46.2218 15.7405 46.6674 15.3839C47.0411 15.0257 47.0538 14.4323 46.6956 14.0586C42.8226 10.0171 37.6086 7.79015 32.013 7.78677C32.0086 7.78677 32.0045 7.78615 32.0001 7.78615C31.9959 7.78615 31.9919 7.78677 31.9876 7.78677C27.0424 7.78977 22.2816 9.57598 18.5811 12.8172C18.1916 13.1583 18.1524 13.7506 18.4936 14.1399C18.8347 14.5295 19.427 14.5686 19.8164 14.2275C22.9437 11.4883 26.9065 9.89483 31.0627 9.68585V14.3637C29.2119 14.7902 27.8276 16.4516 27.8276 18.43C27.8276 20.4085 29.2119 22.0698 31.0627 22.4964V27.1772H25.5298C25.012 27.1772 24.5924 27.5969 24.5924 28.1146V28.1365C24.5924 29.4035 23.5613 30.4342 22.2936 30.4342C21.0266 30.4342 19.996 29.4034 19.996 28.1365V28.1146C19.996 27.5969 19.5764 27.1772 19.0586 27.1772H13.5505C13.7353 23.5039 14.9786 20.0326 17.1754 17.0864C17.4848 16.6713 17.3992 16.084 16.9843 15.7745C16.5694 15.4652 15.9819 15.5507 15.6724 15.9656C13.0464 19.4873 11.6558 23.6882 11.6506 28.1149C11.4633 35.8464 16.3971 43.2648 23.2993 46.5354C24.0845 46.9075 24.5919 47.7165 24.5919 48.5967V50.4653C22.6675 50.4653 21.3559 51.4962 21.3559 53.3438C21.3559 55.19 22.6257 56.2239 24.5919 56.2222V60.4881C24.5919 62.3439 26.2569 64.0003 28.1041 64.0003H35.8959C37.7432 64.0003 39.408 62.3444 39.408 60.4881V56.2222C41.6033 56.224 42.6449 55.0573 42.6441 53.3438C42.6432 51.5572 41.5201 50.4653 39.408 50.4653V48.5967C39.408 47.7164 39.9184 46.9059 40.7084 46.5315C47.8091 43.1643 52.2235 35.9206 52.3493 28.114C52.3456 24.3457 51.3032 20.6664 49.3351 17.4737ZM24.1021 44.8408C17.9539 41.9276 13.8903 35.798 13.5512 29.0517H18.2223C18.6407 30.9135 20.3073 32.3086 22.2935 32.3086C24.2803 32.3086 25.9473 30.9135 26.3659 29.0517H31.0624V34.6063C31.0624 35.124 31.482 35.5437 31.9999 35.5437C33.2669 35.5437 34.2975 36.5744 34.2975 37.8413C34.2975 39.1082 33.2669 40.139 31.9999 40.139C31.482 40.139 31.0624 40.5587 31.0624 41.0764V50.4648H26.4666V48.5962C26.4667 46.9956 25.5386 45.5215 24.1021 44.8408ZM35.8959 62.1252H28.1041C26.9127 62.1252 26.4081 61.0647 26.4667 60.1252H37.5331C37.5352 61.1251 37.2182 62.1252 35.8959 62.1252ZM39.7643 54.3472H33.9698C33.452 54.3472 33.0324 54.7669 33.0324 55.2846C33.0324 55.2867 33.0326 55.2887 33.0326 55.2908C33.0326 55.2929 33.0324 55.2949 33.0324 55.2971C33.0324 55.8148 33.452 56.2345 33.9698 56.2345H37.5332V58.2504H26.4669V56.2345H29.8853C30.4031 56.2345 30.8227 55.8148 30.8227 55.2971C30.8227 55.2949 30.8225 55.2929 30.8225 55.2908C30.8225 55.2887 30.8227 55.2867 30.8227 55.2846C30.8227 54.7669 30.4031 54.3472 29.8853 54.3472H24.2358C22.751 54.3697 22.7094 52.3398 24.2358 52.3398H39.7644C41.0616 52.3398 41.2491 54.3488 39.7643 54.3472ZM39.9052 44.837C38.4642 45.5199 37.5331 46.9956 37.5331 48.5964V50.465H32.9373V41.9078C34.7881 41.4812 36.1723 39.8199 36.1723 37.8415C36.1723 35.863 34.7881 34.2017 32.9373 33.7751V29.0517H38.4701C38.9854 29.0517 39.4043 28.6356 39.4075 28.1202C39.4155 26.8615 40.4468 25.8373 41.7063 25.8373C42.9652 25.8373 43.996 26.8615 44.0041 28.1202C44.0074 28.6356 44.4262 29.0517 44.9415 29.0517H50.4486C50.1092 35.7959 46.0485 41.9239 39.9052 44.837Z" fill="#0A0A0A"/>
<path d="M32 5.75734C31.4821 5.75734 31.0626 5.33762 31.0626 4.81992V0.937412C31.0626 0.419711 31.4821 0 32 0C32.5178 0 32.9374 0.419711 32.9374 0.937412V4.81992C32.9374 5.33762 32.5178 5.75734 32 5.75734Z" fill="#0A0A0A"/>
<path d="M45.1165 9.27189C44.6669 9.01529 44.5146 8.43972 44.7734 7.99138L46.7146 4.62907C46.9733 4.18074 47.5464 4.02688 47.9951 4.28598C48.4434 4.54483 48.5971 5.11815 48.3382 5.56648L46.397 8.92879C46.2235 9.22939 45.6237 9.56136 45.1165 9.27189Z" fill="#0A0A0A"/>
<path d="M54.7186 18.8737C54.4598 18.4254 54.6134 17.8521 55.0617 17.5932L58.4239 15.652C58.872 15.3932 59.4457 15.5467 59.7044 15.9951C59.9632 16.4435 59.8096 17.0168 59.3613 17.2756L55.9991 19.2168C55.4665 19.5292 54.8921 19.1746 54.7186 18.8737Z" fill="#0A0A0A"/>
<path d="M4.29558 47.9855C4.0556 47.5268 4.19034 46.9638 4.63867 46.705L8.00086 44.7638C8.44894 44.505 9.02239 44.6584 9.28136 45.1069C9.54021 45.5552 9.3866 46.1285 8.93827 46.3874L5.57608 48.3286C5.03376 48.6202 4.53381 48.441 4.29558 47.9855Z" fill="#0A0A0A"/>
<path d="M17.6028 8.92878L15.6616 5.56647C15.4028 5.11814 15.5564 4.54482 16.0047 4.28597C16.4528 4.02699 17.0264 4.1806 17.2852 4.62906L19.2264 7.99137C19.4853 8.4397 19.3208 8.99515 18.8833 9.27187C18.3763 9.59259 17.7764 9.2295 17.6028 8.92878Z" fill="#0A0A0A"/>
<path d="M8.00085 19.217L4.63867 17.2758C4.19033 17.0169 4.03672 16.4436 4.29557 15.9953C4.5543 15.5468 5.12737 15.3932 5.57608 15.6522L8.93826 17.5934C9.3866 17.8522 9.6072 18.4715 9.28136 18.8739C8.87714 19.3729 8.47093 19.4354 8.00085 19.217Z" fill="#0A0A0A"/>
<path d="M58.4239 48.3287L55.0617 46.3875C54.6134 46.1287 54.4598 45.5554 54.7186 45.107C54.9773 44.6586 55.5509 44.5051 55.9991 44.7639L59.3613 46.7051C59.8096 46.964 59.9839 47.5498 59.7044 47.9856C59.4037 48.4546 58.9662 48.6514 58.4239 48.3287Z" fill="#0A0A0A"/>
<path d="M4.82941 32.9278H0.947025C0.429199 32.9278 0.00961304 32.5081 0.00961304 31.9904C0.00961304 31.4727 0.429199 31.053 0.947025 31.053H4.82954C5.34736 31.053 5.76695 31.4727 5.76695 31.9904C5.76695 32.5081 5.34724 32.9278 4.82941 32.9278Z" fill="#0A0A0A"/>
<path d="M63.053 32.9278H59.1704C58.6526 32.9278 58.233 32.5081 58.233 31.9904C58.233 31.4727 58.6526 31.053 59.1704 31.053H63.053C63.5708 31.053 63.9904 31.4727 63.9904 31.9904C63.9904 32.5081 63.5708 32.9278 63.053 32.9278Z" fill="#0A0A0A"/>
</svg>
