<svg width="64" height="64" viewBox="0 0 64 64" fill="none" xmlns="http://www.w3.org/2000/svg">
<path fill-rule="evenodd" clip-rule="evenodd" d="M38.57 3.22125V6.00375C38.57 7.265 37.5475 8.2875 36.285 8.2875H27.0763H22.48C21.2175 8.2875 20.195 7.265 20.195 6.00375V3.22125C20.195 1.96 21.2175 0.9375 22.48 0.9375H27.1525H36.285C37.5475 0.9375 38.57 1.96 38.57 3.22125ZM10.3612 26.9812V40.7875C10.3612 41.6762 9.85375 42.4475 9.11125 42.8237C8.80123 42.9825 8.44873 43.0713 8.07748 43.0713H5.29498C4.03373 43.0713 3.01123 42.0488 3.01123 40.7875V26.9813C3.01123 25.7188 4.03373 24.6963 5.29498 24.6963H8.07748C8.44123 24.6963 8.78623 24.7825 9.09248 24.9338L9.0925 24.9337C9.845 25.3075 10.3612 26.0837 10.3612 26.9812ZM60.9887 37.0187V23.2125C60.9887 22.155 60.27 21.265 59.2937 21.0062C59.1062 20.955 58.9087 20.9287 58.705 20.9287H55.9225C54.6612 20.9287 53.6387 21.9513 53.6387 23.2125V37.0187C53.6387 38.2812 54.6612 39.3037 55.9225 39.3037H58.705C58.915 39.3037 59.1187 39.275 59.3125 39.2212C60.2787 38.955 60.9887 38.07 60.9887 37.0187ZM27.8687 63.0625H32.0862C30.4025 60.9325 30.1887 57.9887 31.6537 55.7125H27.8687C26.6075 55.7125 25.585 56.735 25.585 57.9962V60.7787C25.585 62.04 26.6075 63.0625 27.8687 63.0625Z" fill="#F3C000"/>
<path fill-rule="evenodd" clip-rule="evenodd" d="M5.29535 25.6342C4.55171 25.6342 3.94885 26.237 3.94885 26.9807V40.7869C3.94885 41.5306 4.55174 42.1334 5.29538 42.1334H8.07748C8.82112 42.1334 9.42398 41.5306 9.42398 40.7869V26.9807C9.42398 26.2371 8.82118 25.6342 8.07748 25.6342H5.29535ZM2.07385 26.9807C2.07385 25.2014 3.51624 23.7592 5.29535 23.7592H8.07748C9.85678 23.7592 11.299 25.2016 11.299 26.9807V40.7869C11.299 42.5662 9.85659 44.0084 8.07748 44.0084H5.29557C5.29554 44.0084 5.2956 44.0084 5.29557 44.0084C3.51626 44.0085 2.07385 42.5661 2.07385 40.7869V26.9807Z" fill="black"/>
<path fill-rule="evenodd" clip-rule="evenodd" d="M23.959 21.7459C24.4768 21.7459 24.8965 22.1656 24.8965 22.6834V26.9706C24.8965 27.4884 24.4768 27.9081 23.959 27.9081C23.4412 27.9081 23.0215 27.4884 23.0215 26.9706V22.6834C23.0215 22.1656 23.4412 21.7459 23.959 21.7459Z" fill="black"/>
<path fill-rule="evenodd" clip-rule="evenodd" d="M22.4795 1.875C21.7357 1.875 21.1329 2.47792 21.133 3.22141V6.0035C21.133 6.74714 21.7358 7.35 22.4795 7.35H36.2856C37.0293 7.35 37.6321 6.7472 37.6321 6.0035V3.2215C37.6321 2.47786 37.0293 1.875 36.2856 1.875H22.4795ZM19.258 3.2215C19.2579 1.44228 20.7003 0 22.4795 0H36.2856C38.0649 0 39.5071 1.44239 39.5071 3.2215V6.0035C39.5071 7.7828 38.0647 9.225 36.2856 9.225H22.4795C20.7002 9.225 19.258 7.78261 19.258 6.0035V3.2215C19.258 3.22153 19.258 3.22147 19.258 3.2215Z" fill="black"/>
<path fill-rule="evenodd" clip-rule="evenodd" d="M22.995 27.324C22.995 25.353 24.5929 23.7551 26.5639 23.7551H37.2525C37.7703 23.7551 38.19 24.1749 38.19 24.6926C38.19 25.2104 37.7703 25.6301 37.2525 25.6301H26.5639C25.6284 25.6301 24.87 26.3885 24.87 27.324C24.87 28.2595 25.6284 29.0179 26.5639 29.0179C27.0816 29.0179 27.5014 29.4376 27.5014 29.9554C27.5014 30.4731 27.0816 30.8929 26.5639 30.8929C24.5929 30.8929 22.995 29.295 22.995 27.324Z" fill="black"/>
<path fill-rule="evenodd" clip-rule="evenodd" d="M19.9691 32.5928C19.9691 30.6217 21.567 29.0239 23.538 29.0239H36.162C36.6798 29.0239 37.0995 29.4436 37.0995 29.9614C37.0995 30.4791 36.6798 30.8989 36.162 30.8989H23.538C22.6025 30.8989 21.8441 31.6573 21.8441 32.5928C21.8441 33.5282 22.6025 34.2866 23.538 34.2866H36.162C36.6798 34.2866 37.0995 34.7064 37.0995 35.2241C37.0995 35.7419 36.6798 36.1616 36.162 36.1616H23.538C21.567 36.1616 19.9691 34.5638 19.9691 32.5928Z" fill="black"/>
<path fill-rule="evenodd" clip-rule="evenodd" d="M22.995 37.8533C22.995 35.8822 24.5929 34.2844 26.5639 34.2844C27.0816 34.2844 27.5014 34.7041 27.5014 35.2219C27.5014 35.7396 27.0816 36.1594 26.5639 36.1594C25.6284 36.1594 24.87 36.9178 24.87 37.8533C24.87 38.7887 25.6284 39.5471 26.5639 39.5471H40.1652C40.683 39.5471 41.1027 39.9669 41.1027 40.4846C41.1027 41.0024 40.683 41.4221 40.1652 41.4221H26.5639C24.5929 41.4221 22.995 39.8243 22.995 37.8533Z" fill="black"/>
<path fill-rule="evenodd" clip-rule="evenodd" d="M24.6473 57.9965C24.6473 56.2174 26.0895 54.775 27.8688 54.775H41.675C43.4541 54.775 44.8965 56.2172 44.8965 57.9965V60.7785C44.8965 62.5576 43.4543 64 41.675 64H34.7002C34.1824 64 33.7627 63.5803 33.7627 63.0625C33.7627 62.5447 34.1824 62.125 34.7002 62.125H41.675C42.4187 62.125 43.0215 61.5221 43.0215 60.7785V57.9965C43.0215 57.2528 42.4186 56.65 41.675 56.65H27.8688C27.1251 56.65 26.5223 57.2529 26.5223 57.9965V60.7785C26.5223 61.5222 27.1252 62.125 27.8688 62.125H30.3252C30.843 62.125 31.2627 62.5447 31.2627 63.0625C31.2627 63.5803 30.843 64 30.3252 64H27.8688C26.0897 64 24.6473 62.5578 24.6473 60.7785V57.9965Z" fill="black"/>
<path fill-rule="evenodd" clip-rule="evenodd" d="M52.701 23.2131C52.701 21.434 54.1433 19.9916 55.9225 19.9916H58.7046C60.4837 19.9916 61.9261 21.4338 61.9261 23.2131V25.1365C61.9261 25.6543 61.5064 26.074 60.9886 26.074C60.4708 26.074 60.0511 25.6543 60.0511 25.1365V23.2131C60.0511 22.4694 59.4483 21.8666 58.7046 21.8666H55.9225C55.1789 21.8666 54.576 22.4695 54.576 23.2131V37.0192C54.576 37.7629 55.1788 38.3657 55.9225 38.3657H58.7045C59.4482 38.3657 60.051 37.7629 60.051 37.0192V29.5115C60.051 28.9937 60.4707 28.574 60.9885 28.574C61.5063 28.574 61.926 28.9937 61.926 29.5115V37.0192C61.926 38.7984 60.4838 40.2407 58.7045 40.2407H55.9225C54.1434 40.2407 52.701 38.7985 52.701 37.0192V23.2131Z" fill="black"/>
<path fill-rule="evenodd" clip-rule="evenodd" d="M50.2279 36.9778C50.3779 36.6381 50.7142 36.419 51.0855 36.419H53.6661C54.1839 36.419 54.6036 36.8387 54.6036 37.3565C54.6036 37.8743 54.1839 38.294 53.6661 38.294H51.6786C50.8457 39.9422 49.6884 41.2959 48.5794 42.2995C47.3953 43.3712 46.1749 44.1247 45.3651 44.3743L38.5847 47.0408C38.5732 47.0454 38.5616 47.0496 38.55 47.0537C36.4105 47.799 34.0723 46.6668 33.3299 44.5264C32.6855 42.669 33.4549 40.6654 35.0682 39.6834C35.5104 39.4142 36.0872 39.5545 36.3564 39.9968C36.6256 40.4391 36.4853 41.0159 36.043 41.2851C35.1681 41.8176 34.7524 42.906 35.1013 43.9119L35.1013 43.9119C35.5023 45.0679 36.761 45.6817 37.9172 45.2886L44.7151 42.6152C44.7419 42.6046 44.7692 42.5953 44.7969 42.5873C45.2132 42.4665 46.208 41.9169 47.3213 40.9093C48.4092 39.9248 49.5186 38.5838 50.2279 36.9778Z" fill="black"/>
<path fill-rule="evenodd" clip-rule="evenodd" d="M27.8898 22.0625C27.8898 20.0915 29.4877 18.4936 31.4587 18.4936H45.1707C47.8508 18.4936 50.208 19.8646 51.5848 21.9385H53.666C54.1837 21.9385 54.6035 22.3582 54.6035 22.876C54.6035 23.3938 54.1837 23.8135 53.666 23.8135H51.0605C50.7221 23.8135 50.41 23.6312 50.2438 23.3364C49.244 21.563 47.3466 20.3686 45.1707 20.3686H31.4587C30.5232 20.3686 29.7648 21.127 29.7648 22.0625C29.7648 22.998 30.5232 23.7564 31.4587 23.7564C31.9765 23.7564 32.3962 24.1761 32.3962 24.6939C32.3962 25.2116 31.9765 25.6314 31.4587 25.6314C29.4877 25.6314 27.8898 24.0335 27.8898 22.0625Z" fill="black"/>
<path fill-rule="evenodd" clip-rule="evenodd" d="M36.6227 7.32249C37.1405 7.32249 37.5602 7.74223 37.5602 8.25999V10.2474C39.2084 11.0802 40.5621 12.2375 41.5658 13.3465C42.6374 14.5307 43.391 15.751 43.6406 16.5609L44.6344 19.088C44.8239 19.5698 44.587 20.1141 44.1051 20.3036C43.6233 20.4931 43.079 20.2561 42.8895 19.7742L41.8814 17.2109C41.8709 17.184 41.8615 17.1567 41.8535 17.129C41.7327 16.7127 41.1831 15.718 40.1756 14.6047C39.191 13.5168 37.8501 12.4074 36.244 11.6981C35.9044 11.5481 35.6852 11.2118 35.6852 10.8405V8.25999C35.6852 7.74223 36.105 7.32249 36.6227 7.32249Z" fill="black"/>
<path fill-rule="evenodd" clip-rule="evenodd" d="M22.1423 7.32249C22.6601 7.32249 23.0798 7.74223 23.0798 8.25999V10.8655C23.0798 11.2039 22.8975 11.516 22.6027 11.6821C20.8293 12.682 19.6349 14.5794 19.6349 16.7551V30.4671C19.6349 31.3173 20.2641 32.0223 21.0852 32.1404C21.5977 32.2141 21.9534 32.6893 21.8797 33.2018C21.8059 33.7143 21.3307 34.07 20.8182 33.9963C19.0911 33.7479 17.7599 32.2667 17.7599 30.4671V16.7551C17.7599 14.0751 19.131 11.718 21.2048 10.3412V8.25999C21.2048 7.74223 21.6246 7.32249 22.1423 7.32249Z" fill="black"/>
<path fill-rule="evenodd" clip-rule="evenodd" d="M19.5679 20.2516C19.7602 20.7324 19.5264 21.278 19.0457 21.4703C18.5013 21.6881 17.5167 22.2968 16.4814 23.2733C15.457 24.2394 14.4381 25.5143 13.7721 27.0224C13.6221 27.362 13.2858 27.5811 12.9145 27.5811H10.334C9.81622 27.5811 9.39648 27.1614 9.39648 26.6436C9.39648 26.1259 9.81622 25.7061 10.334 25.7061H12.3213C13.0983 24.1685 14.1573 22.8878 15.1949 21.9093C16.3447 20.8248 17.5239 20.0596 18.3493 19.7294C18.83 19.5371 19.3756 19.7709 19.5679 20.2516Z" fill="black"/>
<path fill-rule="evenodd" clip-rule="evenodd" d="M9.39648 41.124C9.39648 40.6062 9.81622 40.1865 10.334 40.1865H12.9395C13.2779 40.1865 13.59 40.3688 13.7561 40.6636C14.756 42.437 16.6534 43.6314 18.8292 43.6314H32.5412C32.9313 43.6314 33.2893 43.4986 33.5785 43.2736C33.9871 42.9556 34.5761 43.0291 34.8941 43.4377C35.2121 43.8464 35.1386 44.4354 34.73 44.7534C34.1276 45.2221 33.3682 45.5064 32.5412 45.5064H18.8292C16.1492 45.5064 13.792 44.1354 12.4152 42.0615H10.334C9.81622 42.0615 9.39648 41.6418 9.39648 41.124Z" fill="black"/>
<path fill-rule="evenodd" clip-rule="evenodd" d="M45.457 42.397C45.9747 42.397 46.3945 42.8167 46.3945 43.3345V47.2449C46.3945 49.9249 45.0234 52.282 42.9496 53.6588V55.74C42.9496 56.2578 42.5299 56.6775 42.0121 56.6775C41.4943 56.6775 41.0746 56.2578 41.0746 55.74V53.1345C41.0746 52.7961 41.2569 52.484 41.5517 52.3178C43.3251 51.318 44.5195 49.4206 44.5195 47.2449V43.3345C44.5195 42.8167 44.9392 42.397 45.457 42.397Z" fill="black"/>
<path fill-rule="evenodd" clip-rule="evenodd" d="M20.0493 43.6964C20.5312 43.5069 21.0754 43.7439 21.2649 44.2258L22.273 46.7891C22.2836 46.816 22.2929 46.8433 22.3009 46.871C22.4218 47.2873 22.9713 48.282 23.9789 49.3953C24.9635 50.4832 26.3044 51.5926 27.9104 52.3019C28.2501 52.4519 28.4692 52.7882 28.4692 53.1595V55.7401C28.4692 56.2579 28.0495 56.6776 27.5317 56.6776C27.0139 56.6776 26.5942 56.2579 26.5942 55.7401V53.7526C24.9461 52.9198 23.5923 51.7625 22.5887 50.6534C21.517 49.4693 20.7635 48.249 20.5139 47.4391L19.52 44.912C19.3305 44.4301 19.5675 43.8859 20.0493 43.6964Z" fill="black"/>
</svg>
