<svg width="64" height="64" viewBox="0 0 64 64" fill="none" xmlns="http://www.w3.org/2000/svg">
<g clip-path="url(#clip0_487_1551)">
<path d="M40.0749 5.81177H36.3249C39.0506 5.81177 41.2603 8.02139 41.2603 10.7471V10.9456C41.2603 13.6714 39.0506 15.881 36.3249 15.881H40.0749C42.8006 15.881 45.0103 13.6714 45.0103 10.9456V10.7471C45.0103 8.02152 42.8006 5.81177 40.0749 5.81177Z" fill="#F3C000"/>
<path d="M50.6962 40.5597C38.3662 43.1453 25.6339 43.1453 13.3039 40.5597C12.7134 40.4358 12.2905 39.915 12.2905 39.3117V20.581C12.2905 19.8768 12.8614 19.3059 13.5657 19.3059H50.4345C51.1388 19.3059 51.7097 19.8768 51.7097 20.581V39.3118C51.7095 39.915 51.2867 40.4359 50.6962 40.5597Z" fill="#F3C000"/>
<path d="M38.9179 54.7106H25.0909C24.7458 54.7106 24.4659 54.4308 24.4659 54.0856V51.8884C24.4659 51.5433 24.7458 51.2634 25.0909 51.2634H38.9179C39.263 51.2634 39.5429 51.5433 39.5429 51.8884V54.0856C39.5429 54.4308 39.263 54.7106 38.9179 54.7106Z" fill="#F3C000"/>
<path d="M40.0749 16.8187C43.3133 16.8187 45.9478 14.184 45.9478 10.9458C46.0549 7.64003 43.3869 4.86803 40.0749 4.8744H23.9251C20.6131 4.86803 17.945 7.64015 18.0523 10.9458C18.0523 14.184 20.6869 16.8187 23.9251 16.8187H40.0749ZM19.9273 10.9457C19.8238 8.67415 21.6449 6.74303 23.9251 6.74928H40.0748C42.355 6.74303 44.1761 8.67428 44.0726 10.9457C44.0726 13.1502 42.2791 14.9435 40.0748 14.9435H23.9251C21.7208 14.9437 19.9273 13.1502 19.9273 10.9457Z" fill="#0A0A0A"/>
<path d="M11.353 20.5809V39.3117C11.353 40.3527 12.0925 41.2634 13.1115 41.4772C19.3783 42.7914 25.6892 43.4485 32 43.4485C38.3109 43.4485 44.6218 42.7914 50.8885 41.4772H50.8887C51.9075 41.2634 52.647 40.3527 52.647 39.3117V20.5809C52.647 19.3608 51.6544 18.3683 50.4344 18.3683H13.5657C12.3457 18.3683 11.353 19.3609 11.353 20.5809ZM50.772 20.5809V39.3117C50.772 39.4705 50.6592 39.6095 50.5038 39.6423C38.2255 42.2169 25.7745 42.2169 13.4964 39.6423C13.3409 39.6095 13.228 39.4707 13.228 39.3117V20.5809C13.228 20.3948 13.3795 20.2433 13.5657 20.2433H50.4344C50.6205 20.2433 50.772 20.3948 50.772 20.5809Z" fill="#0A0A0A"/>
<path d="M21.8372 48.4818V46.3389C21.8372 45.1875 21.0119 44.2216 19.8747 44.0419L14.3964 43.1761C13.0315 42.9265 11.6746 44.0859 11.7079 45.4731V48.4816C11.7079 49.764 12.7511 50.8071 14.0334 50.8071H19.5117C20.794 50.8073 21.8372 49.764 21.8372 48.4818ZM13.5829 48.4818V45.4733C13.6199 45.1404 13.794 45.0149 14.1037 45.0283L19.5821 45.894C19.8025 45.9288 19.9624 46.1159 19.9624 46.339V48.4819C19.9624 48.7303 19.7602 48.9324 19.5119 48.9324H14.0335C13.7849 48.9323 13.5829 48.7301 13.5829 48.4818Z" fill="#0A0A0A"/>
<path d="M52.647 48.4818V45.4733C52.6801 44.0856 51.3236 42.9273 49.9585 43.1763L44.4803 44.042C43.343 44.2218 42.5176 45.1876 42.5176 46.339V48.4819C42.5176 49.7643 43.5609 50.8074 44.8431 50.8074H50.3215C51.6039 50.8073 52.647 49.764 52.647 48.4818ZM44.3926 48.4818V46.3389C44.3926 46.1159 44.5525 45.9288 44.7729 45.8939L50.2513 45.0281C50.561 45.0148 50.735 45.1401 50.7721 45.4731V48.4816C50.7721 48.73 50.57 48.9321 50.3216 48.9321H44.8433C44.5948 48.9323 44.3926 48.7301 44.3926 48.4818Z" fill="#0A0A0A"/>
<path d="M17.5525 53.565C16.831 52.5574 15.3371 53.5548 15.9938 54.6063C16.713 55.614 18.2061 54.617 17.5525 53.565Z" fill="#0A0A0A"/>
<path d="M48.3625 53.565C48.0187 53.0174 47.1449 53.017 46.8025 53.565C46.3841 54.1636 46.8502 55.04 47.5825 55.0225C48.3142 55.039 48.7806 54.1643 48.3625 53.565Z" fill="#0A0A0A"/>
<path d="M25.0909 50.3258C24.2293 50.3258 23.5284 51.0267 23.5284 51.8883V54.0855C23.5284 54.9472 24.2293 55.648 25.0909 55.648H38.9179C39.7795 55.648 40.4804 54.9472 40.4804 54.0855V51.8883C40.4804 51.0267 39.7795 50.3258 38.9179 50.3258H25.0909ZM38.6054 53.7732H25.4034V52.2009H38.6054V53.7732Z" fill="#0A0A0A"/>
<path d="M60.6328 22.4084H59.9571V21.8561C59.9571 19.9329 58.3925 18.3684 56.4694 18.3684H55.8908V16.1974C55.8908 7.36064 48.7015 0.171265 39.8647 0.171265H24.1354C21.6034 0.171265 19.1805 0.74514 16.9342 1.87676C16.4719 2.10976 16.2859 2.67339 16.5189 3.13576C16.7518 3.59814 17.3153 3.78426 17.7779 3.55126C19.7601 2.55264 21.8991 2.04626 24.1354 2.04626H39.8645C47.6674 2.04626 54.0155 8.39439 54.0155 16.1974V55.9168C54.0155 56.7784 53.3146 57.4793 52.453 57.4793H49.5645C49.0467 57.4793 48.627 57.8989 48.627 58.4168C48.627 58.9346 49.0467 59.3543 49.5645 59.3543H50.6861V61.0165C50.6861 61.5335 50.2656 61.954 49.7486 61.954H44.878C44.361 61.954 43.9405 61.5335 43.9405 61.0165V59.3543H45.4716C45.9894 59.3543 46.4091 58.9346 46.4091 58.4168C46.4091 57.8989 45.9894 57.4793 45.4716 57.4793C38.6686 57.4793 18.0104 57.4793 11.5469 57.4793C10.6853 57.4793 9.98438 56.7784 9.98438 55.9168V16.1973C9.98438 12.1301 11.7374 8.25564 14.794 5.56739C15.1827 5.22551 15.2207 4.63301 14.8789 4.24426C14.5369 3.85551 13.9444 3.81739 13.5557 4.15939C10.0946 7.20364 8.1095 11.5911 8.1095 16.1973V18.3683H7.53088C5.60775 18.3683 4.04313 19.9329 4.04313 21.856V22.4083H3.3675C1.5105 22.4084 0 23.919 0 25.7756V36.7511C0 38.6079 1.5105 40.1184 3.36725 40.1184H3.447C4.8095 40.1184 5.918 39.0099 5.918 37.6474V21.8561C5.918 20.9669 6.6415 20.2434 7.53075 20.2434H8.10938V55.9168C8.10938 57.7759 9.59325 59.2941 11.4388 59.3515V61.0165C11.4388 62.5673 12.7004 63.829 14.2513 63.829H19.1219C20.6728 63.829 21.9344 62.5673 21.9344 61.0165V59.3543H42.0655V61.0165C42.0655 62.5673 43.3271 63.829 44.878 63.829H49.7486C51.2995 63.829 52.5611 62.5673 52.5611 61.0165V59.3515C54.4066 59.2941 55.8905 57.7759 55.8905 55.9168V20.2433H56.4691C57.3584 20.2433 58.0819 20.9668 58.0819 21.856V37.6475C58.0819 39.0099 59.1904 40.1185 60.5529 40.1185H60.6326C62.4894 40.1185 63.9999 38.6079 63.9999 36.7513V25.7758C64 23.919 62.4895 22.4084 60.6328 22.4084ZM4.043 37.6475C4.043 37.9761 3.77562 38.2435 3.447 38.2435H3.36725C2.54437 38.2435 1.875 37.5741 1.875 36.7513V25.7758C1.875 24.9529 2.54437 24.2835 3.36725 24.2835H4.04287V37.6475H4.043ZM20.0595 61.0164C20.0595 61.5334 19.639 61.9539 19.122 61.9539H14.2514C13.7344 61.9539 13.3139 61.5334 13.3139 61.0164V59.3541H20.0595V61.0164ZM62.125 36.7511C62.125 37.574 61.4556 38.2434 60.6328 38.2434H60.553C60.2244 38.2434 59.957 37.976 59.957 37.6474V24.2834H60.6326C61.4555 24.2834 62.1249 24.9528 62.1249 25.7756V36.7511H62.125Z" fill="#0A0A0A"/>
<path d="M16.0486 29.3628C16.2885 29.3628 16.5285 29.2713 16.7115 29.0883L22.1699 23.6298C22.536 23.2635 22.536 22.67 22.1699 22.3039C21.8037 21.9379 21.2101 21.9379 20.8441 22.3039L15.3857 27.7624C15.0196 28.1287 15.0196 28.7222 15.3857 29.0883C15.5687 29.2713 15.8086 29.3628 16.0486 29.3628Z" fill="#0A0A0A"/>
<path d="M16.0486 34.93C16.2885 34.93 16.5285 34.8385 16.7115 34.6555L27.7372 23.6298C28.1034 23.2635 28.1034 22.67 27.7372 22.3039C27.3711 21.9379 26.7775 21.9379 26.4115 22.3039L15.3857 33.3297C15.0196 33.6959 15.0196 34.2894 15.3857 34.6555C15.5687 34.8385 15.8086 34.93 16.0486 34.93Z" fill="#0A0A0A"/>
</g>
<defs>
<clipPath id="clip0_487_1551">
<rect width="64" height="64" fill="white"/>
</clipPath>
</defs>
</svg>
