<svg width="64" height="56" viewBox="0 0 64 56" fill="none" xmlns="http://www.w3.org/2000/svg">
<path d="M30.4262 7.54099C32.1646 7.54099 33.5738 6.13179 33.5738 4.39345C33.5738 2.65511 32.1646 1.24591 30.4262 1.24591C28.6879 1.24591 27.2787 2.65511 27.2787 4.39345C27.2787 6.13179 28.6879 7.54099 30.4262 7.54099Z" fill="#F3C000"/>
<path d="M30.4262 1.24591C29.8721 1.24879 29.3289 1.39946 28.8524 1.68237C29.8254 2.23825 30.4259 3.27289 30.4259 4.39345C30.4259 5.51401 29.8254 6.54865 28.8524 7.10453C29.3289 7.38744 29.8721 7.53811 30.4262 7.54099C32.1646 7.54099 33.5738 6.13179 33.5738 4.39345C33.5738 2.65511 32.1646 1.24591 30.4262 1.24591Z" fill="#F3C000"/>
<path d="M29.0098 15.2315C28.7111 15.3789 28.4383 15.5738 28.2019 15.8085L25.5895 18.421L23.0924 14.3816L20.4695 18.3266L23.9528 20.0577L22.956 21.0544C22.0979 21.9113 21.8118 23.1866 22.2216 24.3279L17.1121 21.7784L10.4918 25.0938C9.77574 25.4502 8.92623 25.4105 8.24654 24.9889L2.12982 21.1593C1.42344 20.7296 1.00276 19.9531 1.02852 19.1267C1.05428 18.3002 1.5225 17.5515 2.25427 17.1666C2.98604 16.7816 3.86829 16.8199 4.56392 17.2669L9.58949 20.4144L15.5383 17.4348L20.4485 10.08L20.4275 10.0275H15.7692L12.6216 13.1856C12.0425 13.7666 11.1974 13.9945 10.4047 13.7834C9.61198 13.5724 8.99206 12.9545 8.77847 12.1625C8.56487 11.3704 8.79004 10.5246 9.36916 9.94361L13.1987 6.11411C13.6308 5.68436 14.2154 5.44298 14.8249 5.44263H21.7075C22.5037 5.44135 23.2432 5.85479 23.659 6.53378L29.0098 15.2315Z" fill="#F3C000"/>
<path d="M31.4544 31.2734L31.4229 31.3259L27.3521 33.3613L23.7115 26.059C24.9313 26.7029 26.4284 26.4775 27.4046 25.503L28.181 24.7266L31.4544 31.2734Z" fill="#F3C000"/>
<path d="M22.956 21.0544C22.0979 21.9113 21.8118 23.1866 22.2216 24.3279L17.1121 21.7784L10.4918 25.0938C9.77574 25.4502 8.92623 25.4105 8.24654 24.9888L2.12982 21.1593C1.42344 20.7296 1.00276 19.9531 1.02852 19.1267C1.05428 18.3002 1.5225 17.5515 2.25427 17.1666C2.98604 16.7816 3.86829 16.8199 4.56392 17.2669L9.58949 20.4144L15.5383 17.4348L20.4695 18.3266L23.9528 20.0577L22.956 21.0544Z" fill="#F3C000"/>
<path d="M45.1147 13.3115C45.1147 16.4984 47.6983 19.082 50.8852 19.082C54.0722 19.082 56.6557 16.4984 56.6557 13.3115C56.6557 10.1245 54.0722 7.54099 50.8852 7.54099C47.6997 7.54445 45.1182 10.126 45.1147 13.3115ZM54.5574 13.3115C54.5574 15.3395 52.9133 16.9836 50.8852 16.9836C48.8572 16.9836 47.2131 15.3395 47.2131 13.3115C47.2131 11.2834 48.8572 9.63935 50.8852 9.63935C52.9133 9.63935 54.5574 11.2834 54.5574 13.3115Z" fill="#0A0A0A"/>
<path d="M26.2295 4.39344C26.2295 6.71122 28.1084 8.59016 30.4262 8.59016C32.744 8.59016 34.6229 6.71122 34.6229 4.39344C34.6229 2.07565 32.744 0.196716 30.4262 0.196716C28.1084 0.196716 26.2295 2.07565 26.2295 4.39344ZM32.5246 4.39344C32.5246 5.55233 31.5851 6.4918 30.4262 6.4918C29.2673 6.4918 28.3279 5.55233 28.3279 4.39344C28.3279 3.23454 29.2673 2.29508 30.4262 2.29508C31.5851 2.29508 32.5246 3.23454 32.5246 4.39344Z" fill="#0A0A0A"/>
<path d="M44.6888 33.8754C45.62 35.3586 47.3657 36.1188 49.0859 35.7902L59.5777 33.6918C61.0637 33.4137 62.2853 32.3579 62.7756 30.9279C63.266 29.4978 62.9493 27.9146 61.9466 26.7832C60.9439 25.6518 59.4101 25.1471 57.9315 25.462L50.305 26.9865L43.4434 15.8295C42.6823 14.5859 41.3269 13.83 39.8688 13.8361H30.4262C30.1001 13.8396 29.7754 13.8812 29.4589 13.9599L24.5519 5.9861C23.9479 4.99389 22.8691 4.38979 21.7075 4.39345H14.8249C13.9375 4.39545 13.0867 4.74717 12.4569 5.37233L8.6274 9.20184C7.75399 10.0419 7.40327 11.2887 7.71061 12.4609C8.01795 13.6331 8.93528 14.5473 10.1085 14.8508C11.2817 15.1542 12.5273 14.7994 13.3645 13.9232L16.2046 11.0736H18.5212L14.8197 16.6185L9.65245 19.2121L5.12314 16.3793C4.36937 15.9086 3.45947 15.7567 2.5937 15.957C1.72792 16.1573 0.977197 16.6934 0.506747 17.4473C0.0369888 18.1988 -0.114514 19.1063 0.0856614 19.9695C0.285836 20.8328 0.821241 21.581 1.57376 22.0491L7.69993 25.8838C8.68867 26.4945 9.92293 26.5505 10.9629 26.0317L17.1142 22.9513L21.4159 25.098C21.7387 25.799 22.2581 26.3913 22.9109 26.8029L25.9473 32.8881L23.3117 34.2059L16.9117 30.2075C14.9462 28.9791 12.3571 29.5766 11.1286 31.542C9.90022 33.5075 10.4977 36.0967 12.4632 37.3251L20.8566 42.571C22.1006 43.3337 23.6482 43.4073 24.9589 42.7662L33.5738 38.4624L40.939 42.144L45.5554 51.3852C46.2627 52.8113 47.7196 53.7111 49.3115 53.7049H27.2787C26.6992 53.7049 26.2295 54.1747 26.2295 54.7541C26.2295 55.3335 26.6992 55.8033 27.2787 55.8033H61.9016C62.4811 55.8033 62.9508 55.3335 62.9508 54.7541C62.9508 54.1747 62.4811 53.7049 61.9016 53.7049H49.3188C49.9681 53.7027 50.6081 53.5512 51.1895 53.2622C52.185 52.7642 52.9419 51.8912 53.2937 50.8352C53.6455 49.7792 53.5634 48.6267 53.0654 47.6312L47.8195 37.1394C47.4122 36.3284 46.7544 35.6702 45.9436 35.2624L39.7031 32.1432L41.7427 29.0838L44.6888 33.8754ZM16.6421 20.8404L10.0323 24.1495C9.64002 24.3442 9.17556 24.3252 8.80052 24.0992L2.6838 20.2686C2.40343 20.095 2.2039 19.8167 2.12945 19.4955C2.055 19.1743 2.11178 18.8366 2.28721 18.5574C2.65244 17.9731 3.42173 17.7947 4.00681 18.1587L9.03239 21.3062C9.34287 21.5005 9.7322 21.5188 10.0595 21.3545L16.0084 18.3748C16.1713 18.2933 16.3101 18.1707 16.4113 18.0192L21.3214 10.6644C21.5078 10.3544 21.5381 9.97498 21.4033 9.63935C21.2435 9.24185 20.858 8.98144 20.4296 8.98151H15.7692C15.4901 8.98129 15.2224 9.0923 15.0253 9.28997L11.8841 12.4428C11.3909 12.9239 10.6041 12.9239 10.1109 12.4428C9.62646 11.9567 9.62646 11.1704 10.1109 10.6843L13.9405 6.85483C14.1761 6.62223 14.4938 6.49182 14.8249 6.49181H21.7075C22.1393 6.49042 22.5404 6.71484 22.7651 7.08355L27.6029 14.9524C27.5567 14.9944 27.5043 15.0258 27.4591 15.071L25.7805 16.7496L23.9843 13.8298C23.7963 13.5258 23.4666 13.3384 23.1092 13.3325C22.7492 13.3143 22.4078 13.4936 22.2185 13.8004L19.5955 17.7453C19.4288 17.996 19.3778 18.3062 19.4555 18.5971C19.5332 18.8879 19.7321 19.1314 20.0016 19.2656L22.1828 20.3494C21.5876 20.957 21.1932 21.7326 21.0528 22.5715L17.5801 20.8393C17.2846 20.6921 16.9372 20.6925 16.6421 20.8404ZM22.0013 17.9163L23.0599 16.3247L24.2602 18.2657L23.7429 18.7819L22.0013 17.9163ZM25.5685 27.4376C26.4195 27.3604 27.2258 27.0218 27.8767 26.4682L30.0622 30.8328L27.8232 31.9523L25.5685 27.4376ZM31.5824 29.1887L29.4557 24.9354L32.1647 22.2295H36.225L31.5824 29.1887ZM40.9012 26.5574L37.2984 31.968C37.1315 32.2184 37.0802 32.5284 37.1574 32.8192C37.2347 33.1101 37.4331 33.3537 37.7023 33.4883L45.0056 37.1394C45.4106 37.3433 45.7391 37.6722 45.9426 38.0774L51.1884 48.5692C51.4376 49.067 51.4787 49.6434 51.3028 50.1715C51.1269 50.6996 50.7484 51.1362 50.2505 51.3852C49.2128 51.8833 47.9671 51.4682 47.4355 50.4472L42.6586 40.8934C42.5573 40.6901 42.3927 40.5251 42.1896 40.4233L34.0438 36.3504C33.748 36.2035 33.4005 36.2035 33.1048 36.3504L24.0262 40.8934C23.3701 41.2172 22.5939 41.1819 21.9698 40.8L13.5764 35.5541C12.9392 35.1566 12.5624 34.4493 12.5881 33.6987C12.6137 32.9481 13.0379 32.2682 13.7007 31.9151C14.3636 31.562 15.1645 31.5894 15.8017 31.9869L22.698 36.298C23.0079 36.4915 23.3962 36.5097 23.723 36.3462L31.8888 32.2628C32.0517 32.1813 32.1905 32.0587 32.2917 31.9072L39.019 21.8203C39.2363 21.4511 39.2298 20.9915 39.0022 20.6285C38.8111 20.3195 38.4737 20.1313 38.1104 20.1312H31.7304C31.4521 20.1312 31.1853 20.2418 30.9886 20.4386L26.6639 24.7622C25.8338 25.5552 24.5269 25.5552 23.6968 24.7622C23.485 24.548 23.3218 24.2908 23.2184 24.0079L23.2121 23.9869C22.9277 23.2246 23.1175 22.3664 23.6968 21.7952L24.7134 20.7785L24.726 20.767L28.9437 16.5493C29.3357 16.1542 29.8697 15.9327 30.4262 15.9344H39.8688C40.597 15.9332 41.273 16.3118 41.6525 16.9333L48.897 28.7051C49.127 29.0793 49.5658 29.2706 49.9966 29.1845L58.3365 27.5163C59.0716 27.3688 59.8295 27.6247 60.3247 28.1875C60.82 28.7503 60.9774 29.5346 60.7376 30.245C60.4978 30.9553 59.8973 31.4837 59.1622 31.6312L48.6704 33.7296C47.8084 33.8985 46.9316 33.5173 46.4671 32.7717L42.6628 26.5899C42.4754 26.2851 42.1455 26.0969 41.7878 26.0905C41.4324 26.083 41.0984 26.2595 40.9044 26.5574H40.9012Z" fill="#0A0A0A"/>
<path d="M23.082 53.7049H20.9836C20.4042 53.7049 19.9344 54.1746 19.9344 54.7541C19.9344 55.3335 20.4042 55.8033 20.9836 55.8033H23.082C23.6614 55.8033 24.1311 55.3335 24.1311 54.7541C24.1311 54.1746 23.6614 53.7049 23.082 53.7049Z" fill="#0A0A0A"/>
</svg>
