<svg width="64" height="64" viewBox="0 0 64 64" fill="none" xmlns="http://www.w3.org/2000/svg">
<path d="M61 25L60.1925 25.5388C58.6159 26.5903 57.3457 28.0403 56.5108 29.7415C55.6758 31.4427 55.306 33.3346 55.4388 35.225L45 23L61 25Z" fill="white"/>
<path d="M47 36L46.1562 44.1613L45.1425 53.9587L31.5413 53.9912H31.5175C29.259 53.9909 27.0931 53.0934 25.4963 51.4962C24.7049 50.7048 23.7654 50.077 22.7314 49.6487C21.6974 49.2204 20.5892 49 19.47 49H18L10 61C10.6304 56.5871 10.3378 52.0914 9.14057 47.7975C7.94337 43.5036 5.86771 39.5051 3.045 36.055L3 36L16 43L47 36Z" fill="#F3C000"/>
<path d="M20 49L23 57L32 54L26 49H20Z" fill="white"/>
<path d="M57.0002 41.1063V42.1013C57.0004 44.1773 56.4556 46.217 55.4201 48.0163C54.3846 49.8157 52.8948 51.3116 51.0998 52.3544C49.3047 53.3972 47.2672 53.9504 45.1912 53.9587C43.1152 53.9669 41.0734 53.4298 39.2701 52.4013L29.8602 47.035C23.4551 43.3852 18.0405 38.2234 14.0889 32C13.6714 31.3438 13.2714 30.6771 12.8889 30C9.21063 23.4948 7.2032 16.1789 7.04641 8.7075C7.03766 8.3675 7.03516 8.02625 7.03516 7.68501L7.03641 6.66751L7.04141 3.04126L10.8689 3.04626C19.8202 3.05726 28.5668 5.72539 36.0002 10.7125C36.6689 11.1613 37.326 11.6279 37.9714 12.1125C42.9031 15.8155 47.0243 20.4889 50.0814 25.845L55.4389 35.225C56.4623 37.0162 57.0004 39.0434 57.0002 41.1063Z" fill="#F3C000"/>
<path d="M46.1562 44.1611L45.1425 53.9586L31.5413 53.9911H31.5175C29.259 53.9908 27.0931 53.0933 25.4963 51.4961C24.7049 50.7047 23.7654 50.0769 22.7314 49.6486C21.6974 49.2203 20.5892 48.9999 19.47 48.9999H18V46.7911L46.1562 44.1611Z" fill="white"/>
<path d="M45.1423 53.9587H44.9836C41.6431 53.9592 38.3354 53.2991 35.2511 52.0162L34.1648 51.5637C31.0882 50.285 28.2946 48.4107 25.9448 46.0487L44.1561 44.3474L45.1423 53.9587Z" fill="white"/>
<path d="M53.5277 50.4863C51.6897 52.3242 49.2987 53.5072 46.7225 53.8532C44.1464 54.1992 41.528 53.6891 39.2701 52.4013L29.8602 47.035C23.4551 43.3852 18.0405 38.2234 14.0889 32C13.6714 31.3438 13.2714 30.6771 12.8889 30C9.21063 23.4948 7.2032 16.1789 7.04641 8.7075C7.03766 8.3675 7.03516 8.02625 7.03516 7.68501L7.03641 6.66751L7.04141 3.04126L20.6101 12.93C22.7927 14.52 24.9127 16.1842 26.9701 17.9225C27.4876 18.3575 28.001 18.7983 28.5102 19.245C29.7302 20.3113 30.9264 21.4034 32.0989 22.5213C32.5839 22.985 33.0651 23.4521 33.5427 23.9225C41.4686 31.7512 48.2021 40.7012 53.5277 50.4863Z" fill="white"/>
<path d="M39.9998 40.9999L35.1598 41.4837C33.7262 41.6272 32.2888 41.2499 31.1104 40.4209C29.9321 39.5919 29.0915 38.3665 28.7422 36.9687L28.146 34.5861C29.2053 34.231 30.1777 33.6564 30.9998 32.8999L39.9998 40.9999Z" fill="white"/>
<path d="M32.4443 48.5L39.9998 57V50L32.4443 48.5Z" fill="white"/>
<path d="M15.0763 50.1213L10 61C10.4099 58.1335 10.431 55.2247 10.0625 52.3525C9.95749 51.5388 9.82207 50.7308 9.65625 49.9287C9.38896 48.6317 9.0412 47.3526 8.61499 46.0988C8.37125 45.3775 8.10125 44.665 7.80499 43.9612C6.60652 41.1108 5.00337 38.448 3.045 36.055L3 36L13.2987 43.3563C14.338 44.0991 15.0847 45.1822 15.4093 46.4177C15.7339 47.6533 15.6161 48.9634 15.0763 50.1213Z" fill="white"/>
<path d="M19.5 12C19.9945 12 20.4778 11.8534 20.8889 11.5787C21.3 11.304 21.6205 10.9135 21.8097 10.4567C21.9989 9.9999 22.0484 9.49723 21.952 9.01228C21.8555 8.52732 21.6174 8.08187 21.2678 7.73223C20.9181 7.3826 20.4727 7.1445 19.9877 7.04804C19.5028 6.95157 19.0001 7.00108 18.5433 7.1903C18.0865 7.37952 17.696 7.69995 17.4213 8.11108C17.1466 8.5222 17 9.00555 17 9.5C17.0008 10.1628 17.2644 10.7983 17.7331 11.2669C18.2017 11.7356 18.8372 11.9992 19.5 12ZM19.5 9C19.5989 9 19.6956 9.02933 19.7778 9.08427C19.86 9.13921 19.9241 9.2173 19.9619 9.30866C19.9998 9.40002 20.0097 9.50056 19.9904 9.59755C19.9711 9.69454 19.9235 9.78363 19.8536 9.85356C19.7836 9.92348 19.6945 9.9711 19.5975 9.99039C19.5006 10.0097 19.4 9.99978 19.3087 9.96194C19.2173 9.9241 19.1392 9.86001 19.0843 9.77779C19.0293 9.69556 19 9.59889 19 9.5C19.0002 9.36744 19.0529 9.24035 19.1466 9.14662C19.2403 9.05288 19.3674 9.00015 19.5 9Z" fill="black"/>
<path d="M20 24C22.6512 23.997 25.193 22.9425 27.0678 21.0678C28.9425 19.193 29.997 16.6512 30 14H28C27.9976 16.121 27.154 18.1544 25.6542 19.6542C24.1544 21.154 22.121 21.9976 20 22V24Z" fill="black"/>
<path d="M32.4391 32.8496C33.0658 32.1091 33.5687 31.2722 33.9285 30.3712L32.0715 29.6284C31.5592 30.9215 30.6691 32.0302 29.5174 32.8099C28.3657 33.5897 27.0057 34.0043 25.6149 33.9998H25V35.9998H25.6149C26.2224 35.9997 26.8283 35.9384 27.4235 35.817L27.7721 37.2114C28.1582 38.7235 29.0354 40.0646 30.2662 41.0241C31.4969 41.9837 33.0114 42.5075 34.572 42.5132C34.7997 42.5132 35.0294 42.5019 35.2596 42.4789L40.0995 41.9949C40.2923 41.9756 40.4754 41.9007 40.6264 41.7793C40.7775 41.658 40.89 41.4953 40.9503 41.3111C41.0106 41.127 41.0162 40.9293 40.9662 40.7421C40.9163 40.5548 40.813 40.3862 40.669 40.2565L32.4391 32.8496ZM35.0606 40.4888C33.8669 40.6025 32.6719 40.2859 31.6912 39.5959C30.7104 38.906 30.0086 37.8882 29.7124 36.7263L29.3307 35.1993C29.9133 34.935 30.4657 34.6085 30.9781 34.2254L37.6497 40.2299L35.0606 40.4888Z" fill="black"/>
<path d="M61.9731 24.7697C61.9261 24.5711 61.8195 24.3916 61.6676 24.2554C61.5156 24.1192 61.3256 24.0327 61.1231 24.0076L49.1997 22.5287C44.9794 16.234 39.276 11.0737 32.592 7.50199C25.9079 3.93032 18.4482 2.05693 10.8697 2.04681L7.04203 2.0415H7.04063C6.77564 2.04149 6.52148 2.14666 6.33398 2.33391C6.14648 2.52116 6.04097 2.77517 6.04063 3.04016L6.03453 7.68359C6.02556 13.9084 7.27438 20.0708 9.70603 25.8011C12.1377 31.5313 15.702 36.7111 20.1851 41.0297L16.1447 41.9421L3.4741 35.1194C3.27029 35.0097 3.03472 34.9741 2.80757 35.0186C2.58042 35.0632 2.37576 35.1851 2.22849 35.3637C2.08122 35.5423 2.00047 35.7665 2 35.9979C1.99954 36.2294 2.07939 36.4539 2.22594 36.6331L2.27067 36.6878C5.00162 40.0332 7.01027 43.9079 8.17015 48.0678C9.33002 52.2277 9.61599 56.5827 9.01005 60.8585C8.97793 61.083 9.02309 61.3118 9.13811 61.5072C9.25312 61.7027 9.43117 61.8533 9.64303 61.9342C9.85488 62.0152 10.088 62.0217 10.304 61.9527C10.5201 61.8837 10.7062 61.7434 10.832 61.5546L18.5351 49.9999H19.2998L21.972 57.342C22.0607 57.5864 22.2412 57.7867 22.4752 57.9001C22.7092 58.0136 22.9783 58.0313 23.2251 57.9495L32.1916 54.9898L36.8651 54.9784L39.2525 57.6643C39.3873 57.8159 39.5649 57.9229 39.7619 57.9712C39.9588 58.0195 40.1658 58.0067 40.3553 57.9347C40.5449 57.8626 40.7081 57.7346 40.8232 57.5677C40.9383 57.4007 41 57.2027 41 56.9999V54.9684L45.1455 54.9584C48.5538 54.9539 51.8211 53.5978 54.2309 51.1875C56.6407 48.7773 57.9961 45.5097 58 42.1015V41.1058C57.9985 38.9524 57.457 36.8338 56.4252 34.9438C56.3451 33.2633 56.701 31.5906 57.4583 30.0883C58.2157 28.586 59.3487 27.3052 60.7474 26.3702L61.5547 25.832C61.7245 25.7188 61.8556 25.5563 61.9304 25.3664C62.0052 25.1765 62.0201 24.9683 61.9731 24.7697ZM8.05296 8.98244C9.61148 9.50699 10.9937 10.4541 12.0455 11.7181C13.0974 12.9821 13.7775 14.5135 14.0101 16.1414L15.9899 15.8585C15.6887 13.7485 14.7742 11.7734 13.36 10.1787C11.9459 8.58392 10.0944 7.43974 8.03556 6.88825L8.03929 4.04291L10.8669 4.04682C18.6552 4.06014 26.3024 6.12724 33.0368 10.0396C34.0433 10.6248 35.0236 11.2483 35.9777 11.91C35.5011 21.9656 27.1715 29.9999 17 29.9999H14.0423C14.03 29.9788 14.0172 29.9579 14.0049 29.9367C10.3072 23.5565 8.26128 16.3538 8.05296 8.98244ZM10.9412 51.4729L14.5897 47.8244C14.5878 48.4722 14.4447 49.1117 14.1705 49.6985L11.3137 55.8202C11.2848 54.3645 11.1604 52.9123 10.9412 51.4729ZM10.4906 49.0952C10.2727 48.1373 10.013 47.1904 9.71128 46.2546L12.8787 46.707L10.4906 49.0952ZM8.94428 44.1247C8.39192 42.7401 7.74709 41.3942 7.01417 40.0961L12.7178 44.1701C12.9604 44.3437 13.1851 44.5412 13.3885 44.7596L8.94428 44.1247ZM21.5325 50.2867C22.3657 50.5229 23.1513 50.9028 23.8537 51.4094L22.0709 51.7659L21.5325 50.2867ZM22.7628 53.6672L25.7824 53.0633C26.4464 53.5627 27.1726 53.9738 27.9425 54.2862L23.5195 55.7462L22.7628 53.6672ZM31.5391 52.9913H31.5213C29.5276 52.9859 27.6165 52.1944 26.2028 50.7886C25.3208 49.9017 24.2716 49.1986 23.116 48.7199C21.9604 48.2412 20.7213 47.9965 19.4705 47.9999H18C17.8354 47.9999 17.6733 48.0406 17.5281 48.1183C17.383 48.1959 17.2593 48.3083 17.1679 48.4453L16.285 49.7696C16.6165 48.7257 16.6778 47.6148 16.4632 46.5408C16.2486 45.4668 15.7651 44.4648 15.0579 43.6284L15.5259 43.8804C15.7383 43.9948 15.9849 44.0285 16.2203 43.9754L21.9835 42.674C24.2667 44.6546 26.7388 46.4064 29.3642 47.9041L31.8233 49.3064L35.0911 52.9827L31.5391 52.9913ZM39 54.3698L34.8982 49.7553L39 50.7807V54.3698ZM56 42.1015C56.0001 43.8859 55.5604 45.6428 54.7198 47.2168C53.8791 48.7908 52.6635 50.1333 51.1803 51.1255C49.6972 52.1177 47.9924 52.729 46.2167 52.9053C44.441 53.0816 42.6493 52.8174 41 52.1363V49.9999C41 49.7769 40.9254 49.5603 40.7882 49.3845C40.6509 49.2088 40.4589 49.0839 40.2425 49.0298L32.2425 47.0298C32.1118 46.998 31.976 46.9932 31.8433 47.0154L30.3549 46.1667C24.2821 42.7007 19.1164 37.846 15.2804 31.9999H17C27.8029 31.9999 36.7254 23.8002 37.8737 13.2979C42.4735 16.8588 46.3267 21.2909 49.2133 26.3411L54.5707 35.7213C55.5065 37.3616 55.9992 39.2173 56 41.1058V42.1015ZM56.6594 27.5711L54.5547 26.1679L53.4453 27.832L55.6253 29.2853C55.2133 30.1205 54.9018 31.0017 54.6973 31.9104L50.95 25.3492C50.8287 25.1368 50.7057 24.9255 50.581 24.7153L58.3718 25.6817C57.734 26.2473 57.1598 26.8808 56.6594 27.5711Z" fill="black"/>
</svg>
