<svg width="64" height="44" viewBox="0 0 64 44" fill="none" xmlns="http://www.w3.org/2000/svg">
<path d="M22.3214 28.2789C22.57 29.5622 22.6314 30.8895 22.5035 32.2238C22.3755 33.5595 23.345 34.7499 24.6689 34.8828C24.7489 34.8908 24.8281 34.8948 24.9067 34.8949C26.131 34.8965 27.1775 33.9598 27.2977 32.7048C27.4705 30.9025 27.3865 29.1038 27.0484 27.3587C26.6637 25.3742 25.9812 23.6197 25.1595 22.0918C23.4835 22.5214 21.9169 23.0384 20.4849 23.6307C21.2909 24.938 21.9745 26.4885 22.3214 28.2789Z" fill="#0272B8" fill-opacity="0.48"/>
<path d="M39.5965 3.97194C44.5265 8.88832 37.6613 18.3723 27.5564 28.4493C17.4515 38.5263 7.93353 45.3806 3.00353 40.4642C-1.92647 35.5478 2.26865 23.3932 12.3735 13.3162C22.4784 3.23907 34.6665 -0.944434 39.5965 3.97194Z" fill="#0272B8" fill-opacity="0.48"/>
<path d="M7.23857 29.2314C8.32182 29.963 9.30369 30.8581 10.1568 31.8921C11.0108 32.9271 12.5381 33.0834 13.5682 32.2411C13.6304 32.1902 13.6893 32.137 13.7451 32.0815C14.6119 31.217 14.6894 29.8146 13.8871 28.8422C12.7348 27.4457 11.4036 26.2332 9.93045 25.2382C8.2552 24.1069 6.53195 23.3489 4.87057 22.8496C3.98932 24.3385 3.24707 25.8119 2.65332 27.2432C4.1477 27.5977 5.72732 28.2107 7.23857 29.2314Z" fill="#0272B8" fill-opacity="0.48"/>
<path d="M12.3284 13.3618C10.8992 14.7903 9.58924 16.2602 8.40674 17.7451C10.6711 17.8052 13.6135 18.3247 16.3336 20.1617C17.4169 20.8933 18.3987 21.7884 19.2519 22.8224C20.1059 23.8574 21.6331 24.0137 22.6632 23.1714C22.7255 23.1206 22.7844 23.0673 22.8401 23.0118C23.707 22.1473 23.7845 20.7449 22.9821 19.7726C21.8299 18.3761 20.4986 17.1636 19.0255 16.1686C16.7917 14.6601 14.4719 13.8123 12.3284 13.3618Z" fill="#0272B8" fill-opacity="0.48"/>
<path d="M25.344 11.2187C26.3934 11.998 27.3342 12.9363 28.1398 14.0073C28.9463 15.0793 30.4655 15.3043 31.5333 14.5098C31.5978 14.4618 31.659 14.4113 31.7173 14.3584C32.6228 13.5343 32.7639 12.1374 32.0063 11.1302C30.918 9.68366 29.6428 8.41279 28.2157 7.35279C26.7198 6.24179 25.1687 5.44591 23.6525 4.87866C21.7772 5.85691 19.8603 7.06554 17.9565 8.48366C20.15 8.69554 22.871 9.38204 25.344 11.2187Z" fill="#0272B8" fill-opacity="0.48"/>
<path d="M60.2318 26.2998C59.8366 25.9647 59.2452 26.0135 58.9104 26.4083C58.5755 26.8032 58.624 27.3949 59.019 27.7297C61.0481 29.4507 62.1222 31.3768 62.125 33.2999C62.1269 34.5909 61.664 35.6823 60.7099 36.6363C59.1145 38.2318 56.1459 39.4202 51.8865 40.1688C48.0629 40.8407 43.2743 41.1668 37.2425 41.1548C27.9301 41.1422 21.3609 40.3363 17.2506 38.6978C18.8339 37.5713 20.5278 36.2192 22.3442 34.6324C22.8941 35.2903 23.6825 35.725 24.5662 35.8143C26.4018 35.9997 28.0535 34.6408 28.2306 32.7945C28.349 31.5599 28.3516 30.3167 28.24 29.0917C29.8856 27.4499 31.37 25.9002 32.7043 24.4302C33.4557 25.7164 33.9732 27.072 34.2445 28.4744C34.4761 29.6695 34.5332 30.9068 34.4141 32.152C34.2381 33.997 35.5858 35.6488 37.4255 35.8347C39.2565 36.0197 40.8951 34.6712 41.0742 32.8123C41.2562 30.9249 41.1683 29.036 40.8128 27.1979C40.4378 25.2619 39.7631 23.3928 38.8045 21.6208C40.6048 21.677 42.3656 21.8234 44.0654 22.0564C45.6305 24.0397 46.5957 26.1993 46.9326 28.4812C47.1104 29.6855 47.1119 30.9238 46.9367 32.1617C46.6774 33.997 47.9497 35.7078 49.774 35.9755C51.584 36.2412 53.3004 34.9718 53.5616 33.1237C53.8275 31.2424 53.8241 29.3517 53.5514 27.504C53.3873 26.3925 53.1232 25.2928 52.7635 24.216C53.696 24.574 54.5849 24.9659 55.4216 25.3917C55.876 25.6229 56.4445 25.4485 56.6823 24.9813C56.9171 24.5199 56.7334 23.9554 56.2719 23.7205C51.1197 21.0985 43.9974 19.6534 36.6768 19.7217C37.1813 19.0679 37.6511 18.4308 38.0868 17.8094C40.8326 13.8924 42.1675 10.6824 42.1675 7.99616C42.1675 6.14916 41.525 4.57178 40.258 3.30828C37.607 0.664409 33.1189 0.247784 27.6208 2.13491C22.3471 3.94491 16.6969 7.68016 11.711 12.6524C4.4875 19.8564 0 28.3153 0 34.728C0 37.3874 0.809625 39.6005 2.3415 41.1282C3.61212 42.3953 5.17462 43.0287 7.01687 43.0285C8.96712 43.0285 11.2309 42.3188 13.7935 40.8997C14.3188 40.6088 14.8581 40.2873 15.4115 39.9367C19.6869 42.0028 26.8383 43.0158 37.2399 43.0298C43.1854 43.0378 48.3656 42.6913 52.211 42.0155C56.9226 41.1875 60.1362 39.8617 62.0356 37.9622C63.3416 36.6562 64.0025 35.0867 63.9999 33.2973C63.9964 30.8072 62.6934 28.3875 60.2318 26.2998ZM50.4562 23.4268C51.0592 24.8332 51.4777 26.2944 51.6968 27.7778C51.9432 29.4475 51.9461 31.1579 51.7052 32.8612C51.59 33.6764 50.8488 34.238 50.0455 34.1202C49.2396 34.002 48.678 33.241 48.7934 32.4242C48.9936 31.0083 48.9916 29.5895 48.7875 28.2073C48.4914 26.2012 47.7762 24.2858 46.6585 22.488C47.9751 22.7473 49.245 23.0607 50.4562 23.4268ZM26.3643 32.6155C26.2911 33.3807 25.6656 33.9572 24.9079 33.9572C24.4439 33.9572 24.0231 33.7444 23.7451 33.3842C24.6178 32.5919 25.5176 31.7482 26.4459 30.8523C26.447 31.4398 26.4206 32.0287 26.3643 32.6155ZM38.972 27.554C39.2933 29.2154 39.3727 30.9239 39.208 32.633C39.1292 33.4505 38.4137 34.0499 37.6068 33.9684C36.7971 33.8867 36.2024 33.1517 36.2808 32.3304C36.4169 30.9064 36.3511 29.4893 36.0855 28.118C35.7367 26.3152 35.038 24.5853 34.007 22.9653C34.3999 22.5139 34.7785 22.0699 35.1419 21.6337C35.633 21.615 36.1286 21.6014 36.6269 21.5965C37.7799 23.4688 38.5685 25.4707 38.972 27.554ZM23.706 5.90728C25.1257 6.47528 26.4538 7.21216 27.6562 8.10528C29.0111 9.11178 30.2225 10.319 31.2568 11.6938C31.719 12.3083 31.6456 13.1557 31.0861 13.6649C30.4434 14.2498 29.4158 14.1443 28.8888 13.4437C28.0291 12.3009 27.0245 11.2992 25.9029 10.4662C24.2758 9.25766 22.4167 8.40903 20.3566 7.92816C21.4707 7.18103 22.5904 6.50528 23.706 5.90728ZM5.31125 23.9782C6.77463 24.4838 8.14937 25.1667 9.40588 26.0152C10.8045 26.9599 12.069 28.1118 13.1641 29.439C13.6539 30.0327 13.6193 30.8834 13.0831 31.4179C12.4685 32.0308 11.4379 31.9713 10.8802 31.2955C9.97 30.1924 8.92138 29.2364 7.7635 28.4544C6.60475 27.6718 5.32475 27.0629 3.95012 26.6317C4.35125 25.7567 4.80575 24.87 5.31125 23.9782ZM12.8853 39.2594C8.66162 41.5984 5.64587 41.7755 3.6655 39.8005C2.47738 38.6157 1.875 36.909 1.875 34.728C1.875 32.8125 2.34863 30.6488 3.22038 28.3685C4.48637 28.748 5.6595 29.2962 6.714 30.0083C7.72288 30.6897 8.638 31.5243 9.43388 32.4889C10.691 34.0125 13.0156 34.1329 14.4071 32.7454C15.6319 31.5242 15.7193 29.5897 14.6103 28.2457C13.4008 26.7799 12.0029 25.5068 10.4552 24.4615C9.17 23.5935 7.77363 22.8844 6.29413 22.3403C7.0625 21.1235 7.9185 19.9053 8.855 18.7023C10.7701 18.8103 13.3914 19.306 15.8088 20.9388C16.8178 21.62 17.7327 22.4547 18.5285 23.4192C19.7102 24.8514 21.8319 25.062 23.2565 23.8974C24.6915 22.7244 24.8834 20.6039 23.705 19.176C22.9603 18.2734 22.1356 17.4357 21.2541 16.686C20.8599 16.3508 20.268 16.3984 19.9326 16.7929C19.5971 17.1873 19.645 17.779 20.0395 18.1144C20.8372 18.7928 21.5839 19.5514 22.2586 20.3693C22.7825 21.0043 22.6979 21.9319 22.0695 22.4457C21.4394 22.9609 20.4996 22.8622 19.9746 22.2257C19.0644 21.1225 18.0159 20.1667 16.858 19.3848C14.959 18.1022 12.7127 17.2768 10.2817 16.955C11.0254 16.0852 11.8091 15.2285 12.63 14.3913C14.02 14.722 15.348 15.2018 16.5833 15.8225C17.0384 16.0513 17.6065 15.8742 17.8419 15.4059C18.0744 14.9433 17.8879 14.3798 17.4252 14.1473C16.3972 13.6307 15.3119 13.2044 14.1851 12.8685C15.4973 11.6364 16.8474 10.4943 18.2166 9.45591C20.7249 9.75191 22.9335 10.5964 24.7847 11.9713C25.7621 12.6973 26.6388 13.5719 27.3904 14.5709C28.578 16.1495 30.8984 16.3709 32.3479 15.0518C33.6275 13.8873 33.8025 11.9592 32.755 10.5667C31.6128 9.04828 30.2734 7.71378 28.7741 6.60016C27.8722 5.93041 26.908 5.33953 25.8924 4.83253C26.6783 4.48216 27.4586 4.17316 28.2297 3.90841C30.3088 3.19478 32.2015 2.84003 33.8517 2.84003C36 2.84003 37.7368 3.44153 38.9344 4.63591C39.8485 5.54753 40.2929 6.64666 40.2929 7.99616C40.2929 10.2524 39.0342 13.1919 36.5518 16.7332C35.311 18.503 33.7526 20.5703 32.1495 22.2387C26.5635 28.0518 19.7974 35.4314 12.8853 39.2594Z" fill="black"/>
</svg>
