<svg width="60" height="60" viewBox="0 0 60 60" fill="none" xmlns="http://www.w3.org/2000/svg">
<path d="M59 23L58.1925 23.5388C56.6159 24.5903 55.3457 26.0403 54.5108 27.7415C53.6758 29.4427 53.306 31.3346 53.4388 33.225L43 21L59 23Z" fill="white"/>
<path d="M45 34L44.1562 42.1613L43.1425 51.9587L29.5413 51.9912H29.5175C27.259 51.9909 25.0931 51.0934 23.4963 49.4962C22.7049 48.7048 21.7654 48.077 20.7314 47.6487C19.6974 47.2204 18.5892 47 17.47 47H16L8 59C8.63042 54.5871 8.33776 50.0914 7.14057 45.7975C5.94337 41.5036 3.86771 37.5051 1.045 34.055L1 34L14 41L45 34Z" fill="#0272B8" fill-opacity="0.48"/>
<path d="M18 47L21 55L30 52L24 47H18Z" fill="white"/>
<path d="M55.0002 39.1063V40.1013C55.0004 42.1773 54.4556 44.217 53.4201 46.0163C52.3846 47.8157 50.8948 49.3116 49.0998 50.3544C47.3047 51.3972 45.2672 51.9504 43.1912 51.9587C41.1152 51.9669 39.0734 51.4298 37.2701 50.4013L27.8602 45.035C21.4551 41.3852 16.0405 36.2234 12.0889 30C11.6714 29.3438 11.2714 28.6771 10.8889 28C7.21063 21.4948 5.2032 14.1789 5.04641 6.7075C5.03766 6.3675 5.03516 6.02625 5.03516 5.68501L5.03641 4.66751L5.04141 1.04126L8.86891 1.04626C17.8202 1.05726 26.5668 3.72539 34.0002 8.71251C34.6689 9.16127 35.326 9.62794 35.9714 10.1125C40.9031 13.8155 45.0243 18.4889 48.0814 23.845L53.4389 33.225C54.4623 35.0162 55.0004 37.0434 55.0002 39.1063Z" fill="#0272B8" fill-opacity="0.48"/>
<path d="M44.1562 42.1611L43.1425 51.9586L29.5413 51.9911H29.5175C27.259 51.9908 25.0931 51.0933 23.4963 49.4961C22.7049 48.7047 21.7654 48.0769 20.7314 47.6486C19.6974 47.2203 18.5892 46.9999 17.47 46.9999H16V44.7911L44.1562 42.1611Z" fill="white"/>
<path d="M43.1423 51.9587H42.9836C39.6431 51.9592 36.3354 51.2991 33.2511 50.0162L32.1648 49.5637C29.0882 48.285 26.2946 46.4107 23.9448 44.0487L42.1561 42.3474L43.1423 51.9587Z" fill="white"/>
<path d="M51.5277 48.4863C49.6897 50.3242 47.2987 51.5072 44.7225 51.8532C42.1464 52.1992 39.528 51.6891 37.2701 50.4013L27.8602 45.035C21.4551 41.3852 16.0405 36.2234 12.0889 30C11.6714 29.3438 11.2714 28.6771 10.8889 28C7.21063 21.4948 5.2032 14.1789 5.04641 6.7075C5.03766 6.3675 5.03516 6.02625 5.03516 5.68501L5.03641 4.66751L5.04141 1.04126L18.6101 10.93C20.7927 12.52 22.9127 14.1842 24.9701 15.9225C25.4876 16.3575 26.001 16.7983 26.5102 17.245C27.7302 18.3113 28.9264 19.4034 30.0989 20.5213C30.5839 20.985 31.0651 21.4521 31.5427 21.9225C39.4686 29.7512 46.2021 38.7012 51.5277 48.4863Z" fill="white"/>
<path d="M37.9998 38.9999L33.1598 39.4837C31.7262 39.6272 30.2888 39.2499 29.1104 38.4209C27.9321 37.5919 27.0915 36.3665 26.7422 34.9687L26.146 32.5861C27.2053 32.231 28.1777 31.6564 28.9998 30.8999L37.9998 38.9999Z" fill="white"/>
<path d="M30.4443 46.5L37.9998 55V48L30.4443 46.5Z" fill="white"/>
<path d="M13.0763 48.1213L8 59C8.40993 56.1335 8.43095 53.2247 8.0625 50.3525C7.95749 49.5388 7.82207 48.7308 7.65625 47.9287C7.38896 46.6317 7.0412 45.3526 6.61499 44.0988C6.37125 43.3775 6.10125 42.665 5.80499 41.9612C4.60652 39.1108 3.00337 36.448 1.045 34.055L1 34L11.2987 41.3563C12.338 42.0991 13.0847 43.1822 13.4093 44.4177C13.7339 45.6533 13.6161 46.9634 13.0763 48.1213Z" fill="white"/>
<path d="M17.5 10C17.9945 10 18.4778 9.85338 18.8889 9.57868C19.3 9.30397 19.6205 8.91353 19.8097 8.45671C19.9989 7.9999 20.0484 7.49723 19.952 7.01228C19.8555 6.52732 19.6174 6.08187 19.2678 5.73223C18.9181 5.3826 18.4727 5.1445 17.9877 5.04804C17.5028 4.95157 17.0001 5.00108 16.5433 5.1903C16.0865 5.37952 15.696 5.69995 15.4213 6.11108C15.1466 6.5222 15 7.00555 15 7.5C15.0008 8.16281 15.2644 8.79825 15.7331 9.26693C16.2017 9.73561 16.8372 9.99924 17.5 10ZM17.5 7C17.5989 7 17.6956 7.02933 17.7778 7.08427C17.86 7.13921 17.9241 7.2173 17.9619 7.30866C17.9998 7.40002 18.0097 7.50056 17.9904 7.59755C17.9711 7.69454 17.9235 7.78363 17.8536 7.85356C17.7836 7.92348 17.6945 7.9711 17.5975 7.99039C17.5006 8.00969 17.4 7.99978 17.3087 7.96194C17.2173 7.9241 17.1392 7.86001 17.0843 7.77779C17.0293 7.69556 17 7.59889 17 7.5C17.0002 7.36744 17.0529 7.24035 17.1466 7.14662C17.2403 7.05288 17.3674 7.00015 17.5 7Z" fill="black"/>
<path d="M18 22C20.6512 21.997 23.193 20.9425 25.0678 19.0678C26.9425 17.193 27.997 14.6512 28 12H26C25.9976 14.121 25.154 16.1544 23.6542 17.6542C22.1544 19.154 20.121 19.9976 18 20V22Z" fill="black"/>
<path d="M30.4391 30.8496C31.0658 30.1091 31.5687 29.2722 31.9285 28.3712L30.0715 27.6284C29.5592 28.9215 28.6691 30.0302 27.5174 30.8099C26.3657 31.5897 25.0057 32.0043 23.6149 31.9998H23V33.9998H23.6149C24.2224 33.9997 24.8283 33.9384 25.4235 33.817L25.7721 35.2114C26.1582 36.7235 27.0354 38.0646 28.2662 39.0241C29.4969 39.9837 31.0114 40.5075 32.572 40.5132C32.7997 40.5132 33.0294 40.5019 33.2596 40.4789L38.0995 39.9949C38.2923 39.9756 38.4754 39.9007 38.6264 39.7793C38.7775 39.658 38.89 39.4953 38.9503 39.3111C39.0106 39.127 39.0162 38.9293 38.9662 38.7421C38.9163 38.5548 38.813 38.3862 38.669 38.2565L30.4391 30.8496ZM33.0606 38.4888C31.8669 38.6025 30.6719 38.2859 29.6912 37.5959C28.7104 36.906 28.0086 35.8882 27.7124 34.7263L27.3307 33.1993C27.9133 32.935 28.4657 32.6085 28.9781 32.2254L35.6497 38.2299L33.0606 38.4888Z" fill="black"/>
<path d="M59.9731 22.7697C59.9261 22.5711 59.8195 22.3916 59.6676 22.2554C59.5156 22.1192 59.3256 22.0327 59.1231 22.0076L47.1997 20.5287C42.9794 14.234 37.276 9.07366 30.592 5.50199C23.9079 1.93032 16.4482 0.0569325 8.86967 0.046814L5.04203 0.0415039H5.04063C4.77564 0.0414888 4.52148 0.146657 4.33398 0.333906C4.14648 0.521155 4.04097 0.775173 4.04063 1.04016L4.03453 5.68359C4.02556 11.9084 5.27438 18.0708 7.70603 23.8011C10.1377 29.5313 13.702 34.7111 18.1851 39.0297L14.1447 39.9421L1.4741 33.1194C1.27029 33.0097 1.03472 32.9741 0.807572 33.0186C0.580422 33.0632 0.375759 33.1851 0.22849 33.3637C0.0812216 33.5423 0.00046789 33.7665 2.02695e-06 33.9979C-0.000463836 34.2294 0.079387 34.4539 0.225936 34.6331L0.270675 34.6878C3.00162 38.0332 5.01027 41.9079 6.17015 46.0678C7.33002 50.2277 7.61599 54.5827 7.01005 58.8585C6.97793 59.083 7.02309 59.3118 7.13811 59.5072C7.25312 59.7027 7.43117 59.8533 7.64303 59.9342C7.85488 60.0152 8.08796 60.0217 8.30401 59.9527C8.52006 59.8837 8.70625 59.7434 8.83201 59.5546L16.5351 47.9999H17.2998L19.972 55.342C20.0607 55.5864 20.2412 55.7867 20.4752 55.9001C20.7092 56.0136 20.9783 56.0313 21.2251 55.9495L30.1916 52.9898L34.8651 52.9784L37.2525 55.6643C37.3873 55.8159 37.5649 55.9229 37.7619 55.9712C37.9588 56.0195 38.1658 56.0067 38.3553 55.9347C38.5449 55.8626 38.7081 55.7346 38.8232 55.5677C38.9383 55.4007 39 55.2027 39 54.9999V52.9684L43.1455 52.9584C46.5538 52.9539 49.8211 51.5978 52.2309 49.1875C54.6407 46.7773 55.9961 43.5097 56 40.1015V39.1058C55.9985 36.9524 55.457 34.8338 54.4252 32.9438C54.3451 31.2633 54.701 29.5906 55.4583 28.0883C56.2157 26.586 57.3487 25.3052 58.7474 24.3702L59.5547 23.832C59.7245 23.7188 59.8556 23.5563 59.9304 23.3664C60.0052 23.1765 60.0201 22.9683 59.9731 22.7697ZM6.05296 6.98244C7.61148 7.50699 8.9937 8.45407 10.0455 9.7181C11.0974 10.9821 11.7775 12.5135 12.0101 14.1414L13.9899 13.8585C13.6887 11.7485 12.7742 9.77342 11.36 8.17867C9.9459 6.58392 8.09442 5.43974 6.03556 4.88825L6.03929 2.04291L8.86686 2.04682C16.6552 2.06014 24.3024 4.12724 31.0368 8.03961C32.0433 8.6248 33.0236 9.24827 33.9777 9.91C33.5011 19.9656 25.1715 27.9999 15 27.9999H12.0423C12.03 27.9788 12.0172 27.9579 12.0049 27.9367C8.30716 21.5565 6.26128 14.3538 6.05296 6.98244ZM8.94121 49.4729L12.5897 45.8244C12.5878 46.4722 12.4447 47.1117 12.1705 47.6985L9.31365 53.8202C9.28481 52.3645 9.1604 50.9123 8.94121 49.4729ZM8.49055 47.0952C8.27272 46.1373 8.01296 45.1904 7.71128 44.2546L10.8787 44.707L8.49055 47.0952ZM6.94428 42.1247C6.39192 40.7401 5.74709 39.3942 5.01417 38.0961L10.7178 42.1701C10.9604 42.3437 11.1851 42.5412 11.3885 42.7596L6.94428 42.1247ZM19.5325 48.2867C20.3657 48.5229 21.1513 48.9028 21.8537 49.4094L20.0709 49.7659L19.5325 48.2867ZM20.7628 51.6672L23.7824 51.0633C24.4464 51.5627 25.1726 51.9738 25.9425 52.2862L21.5195 53.7462L20.7628 51.6672ZM29.5391 50.9913H29.5213C27.5276 50.9859 25.6165 50.1944 24.2028 48.7886C23.3208 47.9017 22.2716 47.1986 21.116 46.7199C19.9604 46.2412 18.7213 45.9965 17.4705 45.9999H16C15.8354 45.9999 15.6733 46.0406 15.5281 46.1183C15.383 46.1959 15.2593 46.3083 15.1679 46.4453L14.285 47.7696C14.6165 46.7257 14.6778 45.6148 14.4632 44.5408C14.2486 43.4668 13.7651 42.4648 13.0579 41.6284L13.5259 41.8804C13.7383 41.9948 13.9849 42.0285 14.2203 41.9754L19.9835 40.674C22.2667 42.6546 24.7388 44.4064 27.3642 45.9041L29.8233 47.3064L33.0911 50.9827L29.5391 50.9913ZM37 52.3698L32.8982 47.7553L37 48.7807V52.3698ZM54 40.1015C54.0001 41.8859 53.5604 43.6428 52.7198 45.2168C51.8791 46.7908 50.6635 48.1333 49.1803 49.1255C47.6972 50.1177 45.9924 50.729 44.2167 50.9053C42.441 51.0816 40.6493 50.8174 39 50.1363V47.9999C39 47.7769 38.9254 47.5603 38.7882 47.3845C38.6509 47.2088 38.4589 47.0839 38.2425 47.0298L30.2425 45.0298C30.1118 44.998 29.976 44.9932 29.8433 45.0154L28.3549 44.1667C22.2821 40.7007 17.1164 35.846 13.2804 29.9999H15C25.8029 29.9999 34.7254 21.8002 35.8737 11.2979C40.4735 14.8588 44.3267 19.2909 47.2133 24.3411L52.5707 33.7213C53.5065 35.3616 53.9992 37.2173 54 39.1058V40.1015ZM54.6594 25.5711L52.5547 24.1679L51.4453 25.832L53.6253 27.2853C53.2133 28.1205 52.9018 29.0017 52.6973 29.9104L48.95 23.3492C48.8287 23.1368 48.7057 22.9255 48.581 22.7153L56.3718 23.6817C55.734 24.2473 55.1598 24.8808 54.6594 25.5711Z" fill="black"/>
</svg>
