<svg width="64" height="64" viewBox="0 0 64 64" fill="none" xmlns="http://www.w3.org/2000/svg">
<g clip-path="url(#clip0_487_1768)">
<path d="M32.9877 1.69387L34.0224 3.89974L36.4469 4.26667C36.851 4.32854 37.1866 4.61103 37.3164 4.99861C37.4463 5.3862 37.3487 5.81385 37.0635 6.10667L35.2725 7.94134L35.6843 10.4608C35.7502 10.8718 35.5765 11.2845 35.2366 11.5247C34.8966 11.7649 34.4497 11.7908 34.0843 11.5915L32 10.4448L29.9211 11.5947C29.5557 11.794 29.1087 11.7681 28.7688 11.5279C28.4288 11.2877 28.2552 10.875 28.3211 10.464L28.7328 7.94454L26.9419 6.10987C26.655 5.81796 26.5556 5.39005 26.6844 5.00156C26.8132 4.61307 27.1486 4.32934 27.5531 4.26667L29.9733 3.89974L31.008 1.69387C31.1868 1.30848 31.573 1.06189 31.9979 1.06189C32.4227 1.06189 32.8089 1.30848 32.9877 1.69387Z" fill="#F3C000"/>
<path d="M18.4821 3.76426L19.4069 5.74933L21.5723 6.0832C21.9341 6.14162 22.2335 6.39645 22.3489 6.74435C22.4644 7.09225 22.3767 7.47549 22.1216 7.73866L20.5227 9.38666L20.8907 11.6533C20.9532 12.0227 20.7988 12.3953 20.4933 12.6121C20.1878 12.829 19.7851 12.8518 19.4571 12.6709L17.6 11.6363L15.7429 12.6709C15.4149 12.8518 15.0122 12.829 14.7067 12.6121C14.4012 12.3953 14.2468 12.0227 14.3093 11.6533L14.6773 9.38666L13.0773 7.7344C12.8228 7.47102 12.7356 7.088 12.8513 6.74044C12.9669 6.39287 13.2661 6.13837 13.6277 6.08L15.7931 5.74613L16.7179 3.76106C16.8774 3.4174 17.2221 3.1978 17.601 3.19849C17.9799 3.19918 18.3238 3.42002 18.4821 3.76426Z" fill="#F3C000"/>
<path d="M6.11734 7.96905L6.93867 9.73332L8.86401 10.0267C9.18615 10.0784 9.45268 10.3052 9.55539 10.6149C9.6581 10.9246 9.5799 11.2657 9.35254 11.4997L7.93174 12.9696L8.25814 14.9845C8.31383 15.3127 8.17672 15.6438 7.9053 15.8366C7.63389 16.0294 7.27608 16.0498 6.98454 15.8891L5.33334 14.9696L3.68214 15.8933C3.39059 16.054 3.03279 16.0336 2.76138 15.8409C2.48996 15.6481 2.35285 15.317 2.40854 14.9888L2.73494 12.9739L1.31414 11.5019C1.08554 11.2679 1.00655 10.926 1.10937 10.6155C1.21219 10.3051 1.47965 10.0779 1.80267 10.0267L3.73334 9.73332L4.55467 7.96905C4.69675 7.66598 5.00128 7.47241 5.33601 7.47241C5.67073 7.47241 5.97526 7.66598 6.11734 7.96905Z" fill="#F3C000"/>
<path d="M45.5179 3.76426L44.5931 5.74933L42.4277 6.0832C42.0659 6.14162 41.7665 6.39645 41.6511 6.74435C41.5356 7.09225 41.6233 7.47549 41.8784 7.73866L43.4773 9.38666L43.1093 11.6533C43.0468 12.0227 43.2012 12.3953 43.5067 12.6121C43.8122 12.829 44.2149 12.8518 44.5429 12.6709L46.4 11.6363L48.2571 12.6709C48.5851 12.8518 48.9878 12.829 49.2933 12.6121C49.5988 12.3953 49.7532 12.0227 49.6907 11.6533L49.3227 9.38666L50.9227 7.7344C51.1773 7.47102 51.2644 7.088 51.1487 6.74044C51.0331 6.39287 50.7339 6.13837 50.3723 6.08L48.2069 5.74613L47.2821 3.76106C47.1226 3.4174 46.7779 3.1978 46.399 3.19849C46.0201 3.19918 45.6762 3.42002 45.5179 3.76426Z" fill="#F3C000"/>
<path d="M57.8827 7.96905L57.0667 9.73332L55.1467 10.0288C54.8245 10.0806 54.558 10.3073 54.4553 10.617C54.3526 10.9267 54.4308 11.2678 54.6581 11.5019L56.0789 12.9696L55.7525 14.9845C55.6968 15.3127 55.834 15.6438 56.1054 15.8366C56.3768 16.0294 56.7346 16.0498 57.0261 15.8891L58.6667 14.9696L60.3179 15.8891C60.6094 16.0498 60.9672 16.0294 61.2386 15.8366C61.51 15.6438 61.6472 15.3127 61.5915 14.9845L61.2651 12.9696L62.6859 11.5019C62.9145 11.2679 62.9935 10.926 62.8906 10.6155C62.7878 10.3051 62.5204 10.0779 62.1973 10.0267L60.2773 9.73119L59.456 7.96692C59.3161 7.65776 59.008 7.45929 58.6686 7.45975C58.3293 7.46021 58.0217 7.65951 57.8827 7.96905Z" fill="#F3C000"/>
<path d="M61.8667 50.1333H2.13335C1.54424 50.1333 1.06668 50.6109 1.06668 51.2V61.8667C1.06668 62.4558 1.54424 62.9333 2.13335 62.9333H61.8667C62.4558 62.9333 62.9333 62.4558 62.9333 61.8667V51.2C62.9333 50.6109 62.4558 50.1333 61.8667 50.1333Z" fill="#F3C000"/>
<path d="M38.3285 4.66346C38.0729 3.89557 37.4082 3.33593 36.608 3.21493L34.7467 2.9312L33.9531 1.2416C33.5981 0.483857 32.8368 -0.000152588 32 -0.000152588C31.1632 -0.000152588 30.402 0.483857 30.0469 1.2416L29.2533 2.9312L27.392 3.216C26.5924 3.33773 25.9281 3.89664 25.6713 4.66367C25.4146 5.43071 25.6086 6.2769 26.1739 6.85546L27.5872 8.30506L27.2672 10.2923C27.1315 11.1087 27.4749 11.9307 28.151 12.408C28.8271 12.8852 29.7167 12.9335 30.4405 12.5323L32 11.664L33.5627 12.5291C34.2854 12.9312 35.1749 12.8826 35.8496 12.4043C36.5283 11.9306 36.8734 11.1084 36.736 10.2923L36.416 8.30506L37.8293 6.85546C38.3951 6.277 38.588 5.42985 38.3285 4.66346ZM34.5099 7.2C34.2736 7.44228 34.1664 7.78228 34.2208 8.11626L34.5952 10.6613L32.5163 9.51146C32.195 9.33378 31.805 9.33378 31.4837 9.51146L29.3685 10.6357L29.7792 8.11626C29.8336 7.78228 29.7264 7.44228 29.4901 7.2L27.7141 5.3248L30.1376 4.95466C30.4896 4.90112 30.7917 4.67545 30.9429 4.35306L32.0096 2.1344L32.0171 2.1472L33.0517 4.35306C33.2029 4.67545 33.505 4.90112 33.8571 4.95466L36.2944 5.36533L34.5099 7.2Z" fill="#0A0A0A"/>
<path d="M23.36 6.39998C23.1184 5.67458 22.4912 5.14538 21.7355 5.02932L20.1355 4.78292L19.4517 3.31518C19.1177 2.5953 18.3963 2.1347 17.6027 2.1347C16.8091 2.1347 16.0876 2.5953 15.7536 3.31518L15.0699 4.78292L13.4699 5.02932C12.7137 5.14862 12.0868 5.67912 11.8441 6.40519C11.6014 7.13126 11.7833 7.93206 12.3157 8.48212L13.5424 9.74932L13.2608 11.4891C13.1293 12.2628 13.454 13.0432 14.0954 13.4954C14.7369 13.9477 15.581 13.9912 16.2656 13.6075L17.6043 12.8608L18.9419 13.6075C19.6269 13.9872 20.4687 13.9418 21.1089 13.4906C21.7491 13.0394 22.075 12.2619 21.9477 11.4891L21.6661 9.74932L22.8928 8.48212C23.4268 7.93068 23.6072 7.12672 23.36 6.39998ZM19.7568 8.64852C19.5226 8.89023 19.4163 9.22828 19.4699 9.56052L19.808 11.6491L18.1184 10.7093C17.7961 10.5301 17.404 10.5301 17.0816 10.7093L15.392 11.6491L15.7301 9.56052C15.7837 9.22828 15.6774 8.89023 15.4432 8.64852L13.9552 7.11145L15.9552 6.80318C16.3075 6.74942 16.6096 6.52331 16.7605 6.20052L17.5712 4.33385L18.4395 6.20052C18.5904 6.52331 18.8925 6.74942 19.2448 6.80318L21.2448 7.11145L19.7568 8.64852Z" fill="#0A0A0A"/>
<path d="M10.56 10.272C10.3322 9.58632 9.74011 9.08562 9.02613 8.97492L7.66507 8.76159L7.0848 7.51892C6.76889 6.8368 6.08559 6.40024 5.33387 6.40024C4.58214 6.40024 3.89885 6.8368 3.58293 7.51892L3.0016 8.76692L1.64053 8.98025C0.926704 9.09454 0.335401 9.59579 0.105786 10.2813C-0.123829 10.9668 0.0462373 11.7231 0.547199 12.2443L1.6 13.3269L1.35893 14.8139C1.23578 15.5456 1.54295 16.2833 2.14912 16.7113C2.75528 17.1394 3.55315 17.1821 4.2016 16.8213L5.33333 16.1909L6.46507 16.8213C7.11374 17.181 7.91102 17.138 8.51724 16.7106C9.12347 16.2832 9.43182 15.5467 9.31093 14.8149L9.06667 13.3269L10.1163 12.2443C10.622 11.7219 10.7933 10.9606 10.56 10.272ZM7.16587 12.2272C6.93171 12.4689 6.82535 12.8069 6.87893 13.1392L7.14027 14.7552L5.8528 14.0384C5.52989 13.8583 5.13677 13.8583 4.81387 14.0384L3.5264 14.7552L3.78773 13.1392C3.84131 12.8069 3.73496 12.4689 3.5008 12.2272L2.33813 11.0261L3.89013 10.7872C4.24182 10.7325 4.54309 10.5061 4.69333 10.1835L5.33333 8.81172L5.97333 10.1835C6.12378 10.5064 6.42551 10.7329 6.7776 10.7872L8.3296 11.0261L7.16587 12.2272Z" fill="#0A0A0A"/>
<path d="M52.16 6.39999C51.9184 5.67459 51.2912 5.14539 50.5355 5.02933L48.9355 4.78293L48.2507 3.31413C47.9164 2.59486 47.1953 2.1348 46.4021 2.1348C45.609 2.1348 44.8879 2.59486 44.5536 3.31413L43.8699 4.78186L42.2699 5.02826C41.5137 5.14757 40.8868 5.67806 40.6441 6.40413C40.4014 7.1302 40.5833 7.931 41.1157 8.48106L42.3424 9.74826L42.0608 11.488C41.9293 12.2617 42.254 13.0422 42.8954 13.4944C43.5369 13.9466 44.381 13.9902 45.0656 13.6064L46.4043 12.8597L47.7419 13.6064C48.4269 13.9861 49.2687 13.9407 49.9089 13.4895C50.5491 13.0383 50.875 12.2608 50.7477 11.488L50.4661 9.74826L51.6928 8.48106C52.2264 7.92984 52.4068 7.12641 52.16 6.39999ZM48.5568 8.64853C48.3226 8.89024 48.2163 9.22829 48.2699 9.56053L48.608 11.6491L46.9184 10.7093C46.596 10.5301 46.2039 10.5301 45.8816 10.7093L44.192 11.6491L44.5301 9.56053C44.5837 9.22829 44.4774 8.89024 44.2432 8.64853L42.7499 7.11146L44.7499 6.80319C45.1021 6.74943 45.4043 6.52332 45.5552 6.20053L46.4 4.39679L47.2395 6.20053C47.3904 6.52332 47.6925 6.74943 48.0448 6.80319L50.0448 7.11146L48.5568 8.64853Z" fill="#0A0A0A"/>
<path d="M63.8933 10.272C63.6649 9.58511 63.0708 9.08415 62.3552 8.97493L60.9941 8.7616L60.4139 7.51466C60.0976 6.83268 59.4142 6.3963 58.6624 6.3963C57.9106 6.3963 57.2272 6.83268 56.9109 7.51466L56.3307 8.7616L54.9696 8.97493C54.2536 9.08786 53.66 9.59011 53.4301 10.2776C53.2002 10.965 53.3722 11.7233 53.8763 12.2443L54.9259 13.3269L54.6848 14.8139C54.5607 15.5466 54.8682 16.2855 55.4755 16.7139C56.0828 17.1423 56.882 17.1841 57.5307 16.8213L58.6667 16.1909L59.7984 16.8213C60.4471 17.181 61.2444 17.138 61.8506 16.7106C62.4568 16.2832 62.7652 15.5468 62.6443 14.8149L62.4 13.3269L63.4496 12.2443C63.9554 11.7219 64.1267 10.9606 63.8933 10.272ZM60.4949 12.2272C60.2608 12.4689 60.1544 12.807 60.208 13.1392L60.4693 14.7552L59.1819 14.0384C58.859 13.8583 58.4659 13.8583 58.1429 14.0384L56.8555 14.7552L57.1168 13.1392C57.1704 12.807 57.064 12.4689 56.8299 12.2272L55.6672 11.0261L57.2192 10.7872C57.5713 10.7329 57.873 10.5064 58.0235 10.1835L58.6667 8.81173L59.3067 10.1835C59.4571 10.5064 59.7589 10.7329 60.1109 10.7872L61.6629 11.0261L60.4949 12.2272Z" fill="#0A0A0A"/>
<path d="M61.8667 49.0667H58.6667V22.4C58.6667 20.6327 57.234 19.2 55.4667 19.2H43.7333V18.1333C43.7333 16.366 42.3006 14.9333 40.5333 14.9333H23.4667C21.6994 14.9333 20.2667 16.366 20.2667 18.1333V19.2H8.53333C6.76602 19.2 5.33333 20.6327 5.33333 22.4V49.0667H2.13333C0.955126 49.0667 0 50.0218 0 51.2V61.8667C0 63.0449 0.955126 64 2.13333 64H61.8667C63.0449 64 64 63.0449 64 61.8667V51.2C64 50.0218 63.0449 49.0667 61.8667 49.0667ZM55.4667 21.3333C56.0558 21.3333 56.5333 21.8109 56.5333 22.4V49.0667H43.7333V21.3333H55.4667ZM22.4 18.1333C22.4 17.5442 22.8776 17.0667 23.4667 17.0667H40.5333C41.1224 17.0667 41.6 17.5442 41.6 18.1333V49.0667H22.4V18.1333ZM7.46667 22.4C7.46667 21.8109 7.94423 21.3333 8.53333 21.3333H20.2667V49.0667H7.46667V22.4ZM8.53333 61.8667V56.5333H12.8V61.8667H8.53333ZM27.7333 55.4667H30.9333V61.8667H27.7333V55.4667ZM33.0667 61.8667V55.4667H36.2667V61.8667H33.0667ZM51.2 61.8667V56.5333H55.4667V61.8667H51.2ZM57.6 61.8667V56.5333C58.1891 56.5333 58.6667 56.0558 58.6667 55.4667C58.6667 54.8776 58.1891 54.4 57.6 54.4H49.0667C48.4776 54.4 48 54.8776 48 55.4667C48 56.0558 48.4776 56.5333 49.0667 56.5333V61.8667H38.4V55.4667H39.4667C40.0558 55.4667 40.5333 54.9891 40.5333 54.4C40.5333 53.8109 40.0558 53.3333 39.4667 53.3333H24.5333C23.9442 53.3333 23.4667 53.8109 23.4667 54.4C23.4667 54.9891 23.9442 55.4667 24.5333 55.4667H25.6V61.8667H14.9333V56.5333C15.5224 56.5333 16 56.0558 16 55.4667C16 54.8776 15.5224 54.4 14.9333 54.4H6.4C5.8109 54.4 5.33333 54.8776 5.33333 55.4667C5.33333 56.0558 5.8109 56.5333 6.4 56.5333V61.8667H2.13333V51.2H61.8667V61.8667H57.6Z" fill="#0A0A0A"/>
<path d="M26.6667 26.6667H28.8C29.9782 26.6667 30.9333 25.7115 30.9333 24.5333V22.4C30.9333 21.2218 29.9782 20.2667 28.8 20.2667H26.6667C25.4885 20.2667 24.5333 21.2218 24.5333 22.4V24.5333C24.5333 25.7115 25.4885 26.6667 26.6667 26.6667ZM26.6667 22.4H28.8V24.5333H26.6667V22.4Z" fill="#0A0A0A"/>
<path d="M35.2 26.6667H37.3333C38.5115 26.6667 39.4667 25.7115 39.4667 24.5333V22.4C39.4667 21.2218 38.5115 20.2667 37.3333 20.2667H35.2C34.0218 20.2667 33.0667 21.2218 33.0667 22.4V24.5333C33.0667 25.7115 34.0218 26.6667 35.2 26.6667ZM35.2 22.4H37.3333V24.5333H35.2V22.4Z" fill="#0A0A0A"/>
<path d="M26.6667 36.2667H28.8C29.9782 36.2667 30.9333 35.3115 30.9333 34.1333V32C30.9333 30.8218 29.9782 29.8667 28.8 29.8667H26.6667C25.4885 29.8667 24.5333 30.8218 24.5333 32V34.1333C24.5333 35.3115 25.4885 36.2667 26.6667 36.2667ZM26.6667 32H28.8V34.1333H26.6667V32Z" fill="#0A0A0A"/>
<path d="M35.2 36.2667H37.3333C38.5115 36.2667 39.4667 35.3115 39.4667 34.1333V32C39.4667 30.8218 38.5115 29.8667 37.3333 29.8667H35.2C34.0218 29.8667 33.0667 30.8218 33.0667 32V34.1333C33.0667 35.3115 34.0218 36.2667 35.2 36.2667ZM35.2 32H37.3333V34.1333H35.2V32Z" fill="#0A0A0A"/>
<path d="M26.6667 45.8667H28.8C29.9782 45.8667 30.9333 44.9115 30.9333 43.7333V41.6C30.9333 40.4218 29.9782 39.4667 28.8 39.4667H26.6667C25.4885 39.4667 24.5333 40.4218 24.5333 41.6V43.7333C24.5333 44.9115 25.4885 45.8667 26.6667 45.8667ZM26.6667 41.6H28.8V43.7333H26.6667V41.6Z" fill="#0A0A0A"/>
<path d="M16 23.4667H11.7333C10.5551 23.4667 9.60001 24.4218 9.60001 25.6V27.7333C9.60001 28.9115 10.5551 29.8667 11.7333 29.8667H16C17.1782 29.8667 18.1333 28.9115 18.1333 27.7333V25.6C18.1333 24.4218 17.1782 23.4667 16 23.4667ZM11.7333 27.7333V25.6H16V27.7333H11.7333Z" fill="#0A0A0A"/>
<path d="M16 32H11.7333C10.5551 32 9.60001 32.9551 9.60001 34.1333V36.2667C9.60001 37.4449 10.5551 38.4 11.7333 38.4H16C17.1782 38.4 18.1333 37.4449 18.1333 36.2667V34.1333C18.1333 32.9551 17.1782 32 16 32ZM11.7333 36.2667V34.1333H16V36.2667H11.7333Z" fill="#0A0A0A"/>
<path d="M16 40.5333H11.7333C10.5551 40.5333 9.60001 41.4885 9.60001 42.6667V44.8C9.60001 45.9782 10.5551 46.9333 11.7333 46.9333H16C17.1782 46.9333 18.1333 45.9782 18.1333 44.8V42.6667C18.1333 41.4885 17.1782 40.5333 16 40.5333ZM11.7333 44.8V42.6667H16V44.8H11.7333Z" fill="#0A0A0A"/>
<path d="M48 29.8667H52.2667C53.4449 29.8667 54.4 28.9115 54.4 27.7333V25.6C54.4 24.4218 53.4449 23.4667 52.2667 23.4667H48C46.8218 23.4667 45.8667 24.4218 45.8667 25.6V27.7333C45.8667 28.9115 46.8218 29.8667 48 29.8667ZM48 25.6H52.2667V27.7333H48V25.6Z" fill="#0A0A0A"/>
<path d="M48 38.4H52.2667C53.4449 38.4 54.4 37.4449 54.4 36.2667V34.1333C54.4 32.9551 53.4449 32 52.2667 32H48C46.8218 32 45.8667 32.9551 45.8667 34.1333V36.2667C45.8667 37.4449 46.8218 38.4 48 38.4ZM48 34.1333H52.2667V36.2667H48V34.1333Z" fill="#0A0A0A"/>
<path d="M48 46.9333H52.2667C53.4449 46.9333 54.4 45.9782 54.4 44.8V42.6667C54.4 41.4885 53.4449 40.5333 52.2667 40.5333H48C46.8218 40.5333 45.8667 41.4885 45.8667 42.6667V44.8C45.8667 45.9782 46.8218 46.9333 48 46.9333ZM48 42.6667H52.2667V44.8H48V42.6667Z" fill="#0A0A0A"/>
<path d="M35.2 45.8667H37.3333C38.5115 45.8667 39.4667 44.9115 39.4667 43.7333V41.6C39.4667 40.4218 38.5115 39.4667 37.3333 39.4667H35.2C34.0218 39.4667 33.0667 40.4218 33.0667 41.6V43.7333C33.0667 44.9115 34.0218 45.8667 35.2 45.8667ZM35.2 41.6H37.3333V43.7333H35.2V41.6Z" fill="#0A0A0A"/>
</g>
<defs>
<clipPath id="clip0_487_1768">
<rect width="64" height="64" fill="white"/>
</clipPath>
</defs>
</svg>
