<svg width="64" height="64" viewBox="0 0 64 64" fill="none" xmlns="http://www.w3.org/2000/svg">
<g clip-path="url(#clip0_487_1816)">
<path d="M47.6772 25.9883L43.4062 15.9688H18.813C19.0107 17.1567 19.5708 18.2524 20.4375 19.1191C21.5376 20.2192 23 20.8252 24.5557 20.8252C25.1025 20.8252 25.6372 20.7485 26.1494 20.604L38.7812 25.9883H4.43945V29.7456H59.5469V25.9883H47.6772Z" fill="#F3C000"/>
<path d="M26.3569 44.2739H37.6294V63.0605H26.3569V44.2739Z" fill="#F3C000"/>
<path d="M35.4927 4.06396C35.1294 3.70068 34.6641 3.50293 34.189 3.46729L24.5454 13.1108C24.0952 13.561 23.4995 13.7744 22.9101 13.7559C22.2954 14.5654 22.355 15.7236 23.0942 16.4624C23.9014 17.2695 25.21 17.2695 26.0166 16.4624L35.4927 6.98633C36.2998 6.17969 36.2998 4.87109 35.4927 4.06396Z" fill="#F3C000"/>
<path d="M55.7896 15.0293H43.0146V16.9082H55.7896C57.3433 16.9082 58.6074 18.1724 58.6074 19.7261V28.8062H19.4688V30.6851H58.6074V33.1401C57.5029 33.3271 56.8149 33.8276 56.2393 34.2461C55.6074 34.7056 55.1084 35.0684 54.0361 35.0684C52.9634 35.0684 52.4639 34.7056 51.832 34.2461C51.1079 33.7197 50.207 33.0645 48.5244 33.0645C46.8413 33.0645 45.9399 33.7197 45.2163 34.2461C44.5845 34.7056 44.0859 35.0684 43.0132 35.0684C41.9409 35.0684 41.4424 34.7056 40.8105 34.2461C40.0869 33.7197 39.1855 33.0645 37.5024 33.0645C35.8198 33.0645 34.9185 33.7197 34.1948 34.2461C33.563 34.7056 33.0645 35.0684 31.9917 35.0684C30.9194 35.0684 30.4209 34.7056 29.7891 34.2461C29.0654 33.7197 28.165 33.0645 26.4824 33.0645C24.7993 33.0645 23.8984 33.7197 23.1743 34.2461C22.543 34.7056 22.0439 35.0684 20.9717 35.0684C19.8994 35.0684 19.4004 34.7056 18.7686 34.2461C18.0449 33.7197 17.144 33.0645 15.4609 33.0645C13.7778 33.0645 12.877 33.7197 12.1528 34.2461C11.5215 34.7056 11.0225 35.0684 9.9502 35.0684C8.87793 35.0684 8.37891 34.7056 7.74707 34.2461C7.17139 33.8276 6.4834 33.3271 5.37891 33.1401V30.6851H17.5898V28.8062H5.37891V19.7261C5.37891 18.1724 6.64307 16.9082 8.19678 16.9082H19.0928V15.0293H8.19678C5.60693 15.0293 3.5 17.1362 3.5 19.7261V34.9434H4.43945C4.81201 34.9434 5.11475 34.9878 5.37891 35.0645V47.2261H7.25732V36.1904C7.89111 36.5894 8.70703 36.9473 9.9502 36.9473C11.6333 36.9473 12.5342 36.292 13.2578 35.7656C13.8896 35.3062 14.3887 34.9434 15.4609 34.9434C16.5332 34.9434 17.0322 35.3062 17.6636 35.7656C18.3877 36.292 19.2886 36.9473 20.9717 36.9473C22.6548 36.9473 23.5557 36.292 24.2793 35.7656C24.9111 35.3062 25.4102 34.9434 26.4824 34.9434C27.5537 34.9434 28.0522 35.3062 28.6841 35.7651C29.4077 36.292 30.3086 36.9473 31.9917 36.9473C33.6748 36.9473 34.5762 36.292 35.2998 35.7656C35.9316 35.3062 36.4302 34.9434 37.5024 34.9434C38.5752 34.9434 39.0737 35.3062 39.7056 35.7656C40.4292 36.292 41.3306 36.9473 43.0132 36.9473C44.6963 36.9473 45.5977 36.292 46.3213 35.7656C46.9531 35.3062 47.4517 34.9434 48.5244 34.9434C49.5962 34.9434 50.0952 35.3062 50.7271 35.7651C51.4512 36.292 52.3525 36.9473 54.0361 36.9473C55.2793 36.9473 56.0952 36.5894 56.729 36.1904V62.1211H38.5684V51.1626H36.6899V62.1211H27.2964V45.2134H36.6899V49.2837H38.5684V43.3345H25.418V62.1211H7.25732V49.1045H5.37891V64H58.6074V35.0645C58.8716 34.9878 59.1743 34.9434 59.5469 34.9434H60.4863V19.7261C60.4863 17.1362 58.3794 15.0293 55.7896 15.0293Z" fill="#0A0A0A"/>
<path d="M9.13623 39.5771V56.4854H23.5391V39.5771H9.13623ZM21.6606 54.6064H11.0146V41.4561H21.6606V54.6064Z" fill="#0A0A0A"/>
<path d="M48.9014 41.4561V39.5771H40.4473V56.4854H54.8501V39.5771H50.7798V41.4561H52.9717V54.6064H42.3257V41.4561H48.9014Z" fill="#0A0A0A"/>
<path d="M21.8027 13.8047C21.3306 14.9048 21.542 16.2388 22.4302 17.127C23.0161 17.7129 23.7856 18.0059 24.5557 18.0059C25.1128 18.0059 25.6689 17.8501 26.1562 17.543L44.3135 25.2832L39.6338 14.3047L37.9053 15.0415L40.7539 21.7236L27.6646 16.1436L35.1743 8.63379L37.1689 13.3135L38.897 12.5767L36.5737 7.12598C37.3047 5.96484 37.1675 4.40967 36.1572 3.3999C35.269 2.51172 33.936 2.2998 32.835 2.77246C32.6943 2.60693 32.5469 2.44678 32.3936 2.29297C30.9146 0.814453 28.9487 0 26.8579 0C24.7671 0 22.8013 0.814453 21.3232 2.29297C19.8447 3.771 19.0303 5.73682 19.0303 7.82764C19.0303 9.91846 19.8447 11.8843 21.3232 13.3628C21.4766 13.5166 21.6372 13.6641 21.8027 13.8047ZM22.6514 3.62109C23.7749 2.49756 25.269 1.87891 26.8579 1.87891C28.4473 1.87891 29.9409 2.49756 31.0649 3.62109C31.3486 3.90479 31.604 4.21729 31.8237 4.54932L32.4434 5.48486L33.2554 4.71045C33.6943 4.2915 34.3999 4.2998 34.8286 4.72803C35.2681 5.16748 35.2681 5.88281 34.8286 6.32227L25.3525 15.7983C24.9131 16.2378 24.1978 16.2378 23.7588 15.7983C23.3301 15.3701 23.3223 14.6641 23.7407 14.2251L24.5156 13.4131L23.5796 12.7935C23.2476 12.5737 22.9351 12.3184 22.6514 12.0342C21.5278 10.9106 20.9092 9.41699 20.9092 7.82764C20.9092 6.23877 21.5278 4.74463 22.6514 3.62109Z" fill="#0A0A0A"/>
</g>
<defs>
<clipPath id="clip0_487_1816">
<rect width="64" height="64" fill="white"/>
</clipPath>
</defs>
</svg>
