<svg width="32" height="32" viewBox="0 0 32 32" fill="none" xmlns="http://www.w3.org/2000/svg">
<path fill-rule="evenodd" clip-rule="evenodd" d="M10.8757 16.6704C12.499 16.0261 14.6007 15.8574 16.8966 15.8574C15.6779 18.6765 13.9565 25.6832 16.8203 31.1573C14.9465 31.1572 13.0637 31.1477 10.7664 30.0354C9.2738 29.3127 7.6063 28.1244 5.65273 26.1709L1.15355 21.6717C0.240484 20.7586 0.240484 19.2784 1.15355 18.3653C2.06655 17.4522 3.54698 17.4522 4.45998 18.3653L7.59192 21.4972C8.31167 22.1457 9.03242 22.6694 9.45523 22.9476C10.1745 23.4207 11.141 23.2213 11.6141 22.5022C12.0873 21.783 11.8879 20.8165 11.1687 20.3434C11.022 20.2468 10.7774 20.0658 10.3806 19.7275C9.3473 18.8467 9.61367 17.1713 10.8757 16.6704Z" fill="#0272B8" fill-opacity="0.48"/>
<path d="M6.12145 13.3145L4.25877 6.36297C3.98027 5.32359 4.59708 4.25522 5.63645 3.97672C6.67577 3.69841 7.74414 4.31503 8.0227 5.35441L9.88545 12.306C10.164 13.3453 9.54714 14.4137 8.50777 14.6922C7.4682 14.9705 6.40002 14.354 6.12145 13.3145Z" stroke="black" stroke-miterlimit="10" stroke-linecap="round" stroke-linejoin="round"/>
<path d="M6.94423 27.3902C8.35673 28.6417 9.61367 29.4774 10.7664 30.0355C13.0636 31.1479 14.9465 31.1574 16.8202 31.1575C19.3949 31.1575 21.7399 30.1209 23.4422 28.4404C25.1446 26.76 26.2044 24.4359 26.2086 21.8612C26.2129 19.2828 25.1719 17.7819 23.4864 16.9256C21.8008 16.0694 19.4707 15.8577 16.8966 15.8577C14.6007 15.8577 12.499 16.0264 10.8757 16.6706C9.61367 17.1715 9.3473 18.8469 10.3806 19.7278C10.7774 20.066 11.022 20.247 11.1687 20.3436C11.8879 20.8167 12.0873 21.7833 11.6141 22.5025C11.141 23.2215 10.1745 23.421 9.45523 22.9479C9.03242 22.6697 8.31167 22.146 7.59192 21.4975L4.45998 18.3655C3.54698 17.4524 2.06655 17.4524 1.15355 18.3655C0.240484 19.2786 0.240484 20.7589 1.15355 21.6719L5.35286 25.8712" stroke="black" stroke-miterlimit="10" stroke-linecap="round" stroke-linejoin="round"/>
<path d="M12.9025 11.6832L12.1394 2.96099C12.0456 1.88911 12.8386 0.944049 13.9105 0.850237C14.9823 0.756924 15.9275 1.54942 16.0213 2.62142L16.7844 11.3436C16.8782 12.4155 16.0852 13.3606 15.0132 13.4544C13.9409 13.5477 12.9963 12.7555 12.9025 11.6832Z" stroke="black" stroke-miterlimit="10" stroke-linecap="round" stroke-linejoin="round"/>
<path d="M23.5731 8.0942L23.244 11.8561C23.1501 12.9283 22.2055 13.7206 21.1332 13.6273C20.0612 13.5335 19.2683 12.5885 19.362 11.5166L20.0245 3.94488C20.1183 2.87288 21.0636 2.08057 22.1352 2.1737C23.2072 2.26751 24.0001 3.21257 23.9064 4.28445L23.7664 5.88482" stroke="black" stroke-miterlimit="10" stroke-linecap="round" stroke-linejoin="round"/>
<path d="M26.9876 15.529C25.9765 15.161 25.4551 14.0429 25.8231 13.0317L27.7514 7.73362C28.1195 6.72256 29.2375 6.20119 30.2487 6.56919C31.2597 6.93719 31.7812 8.05525 31.4131 9.06644L29.4848 14.3646C29.1167 15.3756 27.9986 15.8971 26.9876 15.529Z" stroke="black" stroke-miterlimit="10" stroke-linecap="round" stroke-linejoin="round"/>
<path d="M12.3472 25.7048V26.4548" stroke="black" stroke-miterlimit="10" stroke-linecap="round" stroke-linejoin="round"/>
<path d="M20.1533 25.7048V26.4548" stroke="black" stroke-miterlimit="10" stroke-linecap="round" stroke-linejoin="round"/>
<path d="M15.2212 26.4326C15.4714 26.7197 15.8394 26.9014 16.2502 26.9014C16.6609 26.9014 17.029 26.7197 17.2792 26.4326" fill="#0272B8" fill-opacity="0.48"/>
<path d="M15.2212 26.4326C15.4714 26.7197 15.8394 26.9014 16.2502 26.9014C16.6609 26.9014 17.029 26.7197 17.2792 26.4326" stroke="black" stroke-miterlimit="10" stroke-linecap="round" stroke-linejoin="round"/>
</svg>
