<svg viewBox="0 0 369 403" fill="none" xmlns="http://www.w3.org/2000/svg">
<g opacity="0.2">
<path d="M80.5176 234.335C78.2022 238.225 73.1546 239.521 69.2647 237.16C65.3748 234.844 64.0782 229.797 66.4399 225.907C68.7553 222.017 73.8029 220.72 77.6928 223.082C81.5827 225.397 82.833 230.445 80.5176 234.335Z" fill="#BE1722"/>
<path d="M77.3658 213.634C75.0967 217.385 70.2343 218.636 66.4834 216.367C62.7324 214.097 61.4821 209.235 63.7512 205.484C66.0203 201.733 70.8827 200.483 74.6336 202.752C78.3846 205.021 79.6349 209.883 77.3658 213.634Z" fill="#BE1722"/>
<path d="M77.5105 192.795C75.4266 196.268 70.981 197.38 67.5079 195.296C64.0348 193.212 62.9234 188.766 65.0072 185.293C67.0911 181.82 71.5367 180.709 75.0098 182.793C78.4829 184.876 79.5943 189.322 77.5105 192.795Z" fill="#BE1722"/>
<path d="M80.7041 172.744C78.7128 176.078 74.4062 177.143 71.1183 175.152C67.8304 173.161 66.719 168.9 68.7103 165.566C70.7015 162.278 74.9619 161.167 78.2961 163.158C81.6303 165.15 82.6954 169.41 80.7041 172.744Z" fill="#BE1722"/>
<path d="M87.0996 153.341C85.1547 156.583 80.9869 157.601 77.7917 155.703C74.5964 153.758 73.5313 149.59 75.4299 146.395C77.3286 143.199 81.5426 142.134 84.7379 144.033C87.9795 145.978 88.9983 150.146 87.0996 153.341Z" fill="#BE1722"/>
<path d="M96.2636 134.955C94.5039 137.918 90.7066 138.844 87.7429 137.085C84.8255 135.325 83.853 131.528 85.6127 128.564C87.3724 125.6 91.1697 124.674 94.1334 126.434C97.0509 128.194 98.0233 131.991 96.2636 134.955Z" fill="#BE1722"/>
<path d="M107.745 118.103C106.078 120.881 102.512 121.761 99.734 120.14C96.9555 118.473 96.0756 114.907 97.6964 112.129C99.3635 109.35 102.929 108.47 105.708 110.138C108.486 111.805 109.366 115.37 107.745 118.149" fill="#BE1722"/>
<path d="M121.409 103.235C119.927 105.736 116.686 106.523 114.185 105.041C111.685 103.559 110.897 100.318 112.379 97.8171C113.861 95.3164 117.103 94.5292 119.603 96.0111C122.104 97.4929 122.891 100.734 121.409 103.235Z" fill="#BE1722"/>
<path d="M137.618 90.7783C136.182 93.1863 133.08 93.9273 130.718 92.538C128.31 91.1025 127.569 88.0461 128.958 85.6381C130.394 83.2764 133.496 82.4891 135.858 83.9247C138.22 85.3603 139.007 88.4166 137.618 90.8246" fill="#BE1722"/>
<path d="M155.584 80.9624C154.241 83.1852 151.37 83.9261 149.147 82.5831C146.924 81.2402 146.183 78.3691 147.526 76.1463C148.869 73.9235 151.74 73.1826 153.963 74.5255C156.186 75.8685 156.927 78.7396 155.584 80.9624Z" fill="#BE1722"/>
<path d="M174.014 73.6449C172.764 75.7288 170.078 76.3771 168.04 75.1731C165.957 73.9227 165.308 71.2368 166.512 69.1993C167.763 67.1154 170.448 66.4671 172.486 67.7174C174.57 68.9678 175.218 71.6073 174.014 73.6912" fill="#BE1722"/>
<path d="M194.109 69.5702C192.998 71.4226 190.543 72.0709 188.691 70.9132C186.793 69.8018 186.191 67.3474 187.302 65.4951C188.413 63.6428 190.868 62.9945 192.72 64.1522C194.572 65.2636 195.221 67.7179 194.063 69.5702" fill="#BE1722"/>
<path d="M213.891 68.3653C212.918 69.9861 210.834 70.4955 209.26 69.523C207.639 68.5506 207.13 66.4667 208.102 64.8459C209.074 63.2251 211.158 62.7157 212.733 63.6882C214.354 64.6606 214.863 66.7445 213.891 68.319" fill="#BE1722"/>
<path d="M233.891 70.4495C233.057 71.8851 231.205 72.3018 229.816 71.4683C228.38 70.6347 227.963 68.7824 228.797 67.3931C229.63 66.0039 231.483 65.5408 232.872 66.3744C234.261 67.2079 234.724 69.0139 233.891 70.4495Z" fill="#BE1722"/>
<path d="M85.5182 253.736C83.3417 257.348 78.6646 258.505 75.0526 256.375C71.4405 254.199 70.2828 249.522 72.413 245.91C74.5895 242.297 79.2666 241.14 82.8786 243.27C86.4907 245.4 87.6484 250.077 85.5182 253.689" fill="#BE1722"/>
<path d="M93.0192 271.751C90.9816 275.132 86.6286 276.243 83.2944 274.206C79.9139 272.168 78.8489 267.815 80.8401 264.435C82.8314 261.054 87.2306 259.989 90.5648 261.98C93.9453 263.972 95.0567 268.371 93.0192 271.705" fill="#BE1722"/>
<path d="M103.859 288.932C101.821 292.313 97.4685 293.424 94.1343 291.387C90.7538 289.349 89.6887 284.996 91.6799 281.615C93.6712 278.235 98.0705 277.17 101.405 279.161C104.785 281.152 105.897 285.552 103.859 288.886" fill="#BE1722"/>
<path d="M116.775 303.984C114.923 307.041 110.987 308.06 107.93 306.207C104.874 304.401 103.855 300.419 105.708 297.362C107.514 294.306 111.496 293.287 114.553 295.14C117.609 296.946 118.628 300.928 116.775 303.984Z" fill="#BE1722"/>
<path d="M132.108 316.857C130.348 319.774 126.551 320.747 123.634 318.987C120.716 317.227 119.744 313.476 121.503 310.513C123.263 307.595 127.06 306.623 129.978 308.382C132.895 310.142 133.868 313.94 132.108 316.857Z" fill="#BE1722"/>
<path d="M149.291 327.55C147.624 330.329 144.058 331.208 141.326 329.541C138.548 327.874 137.668 324.309 139.335 321.576C141.002 318.798 144.568 317.918 147.3 319.585C150.078 321.252 150.958 324.818 149.291 327.55Z" fill="#BE1722"/>
<path d="M167.949 335.608C166.421 338.155 163.179 338.943 160.632 337.461C158.085 335.979 157.298 332.691 158.78 330.144C160.308 327.597 163.549 326.81 166.096 328.292C168.643 329.82 169.477 333.061 167.949 335.608Z" fill="#BE1722"/>
<path d="M186.794 340.241C185.358 342.603 182.302 343.39 179.94 341.954C177.578 340.519 176.791 337.462 178.227 335.101C179.662 332.739 182.719 331.952 185.08 333.387C187.442 334.777 188.229 337.879 186.794 340.241Z" fill="#BE1722"/>
<path d="M206.939 342.185C205.642 344.362 202.771 345.102 200.595 343.759C198.418 342.463 197.677 339.638 199.02 337.415C200.317 335.239 203.188 334.498 205.364 335.841C207.541 337.137 208.282 339.962 206.939 342.185Z" fill="#BE1722"/>
<path d="M227.592 341.165C226.388 343.203 223.748 343.851 221.711 342.647C219.673 341.443 219.025 338.804 220.229 336.766C221.433 334.728 224.072 334.08 226.11 335.284C228.148 336.488 228.796 339.128 227.592 341.165Z" fill="#BE1722"/>
<path d="M246.761 336.816C245.65 338.668 243.288 339.27 241.436 338.159C239.63 337.048 239.028 334.686 240.093 332.834C241.204 330.981 243.566 330.426 245.418 331.491C247.271 332.602 247.826 334.964 246.761 336.816Z" fill="#BE1722"/>
<path d="M53.9801 232.574C53.3318 238.223 48.2379 242.345 42.5883 241.696C36.9387 241.094 32.8173 235.954 33.4656 230.305C34.1139 224.655 39.2078 220.534 44.8574 221.182C50.507 221.784 54.6284 226.924 53.9801 232.574Z" fill="#BE1722"/>
<path d="M51.5293 208.308C50.9273 213.726 46.0649 217.616 40.6932 217.014C35.2751 216.412 31.3852 211.55 31.9872 206.178C32.5892 200.806 37.4516 196.916 42.8233 197.472C48.2414 198.074 52.1313 202.936 51.5293 208.308Z" fill="#BE1722"/>
<path d="M60.6544 255.683C60.0061 261.379 54.9122 265.454 49.2163 264.852C43.5204 264.204 39.4452 259.11 40.0472 253.414C40.6956 247.718 45.7895 243.643 51.4854 244.245C57.1813 244.847 61.2564 249.987 60.6544 255.637" fill="#BE1722"/>
<path d="M70.5607 279.113C69.9123 284.809 64.8184 288.884 59.1225 288.282C53.4266 287.634 49.3515 282.54 49.9535 276.844C50.6018 271.148 55.6957 267.073 61.3916 267.675C67.0875 268.277 71.1627 273.417 70.5607 279.067" fill="#BE1722"/>
<path d="M82.5568 299.582C81.9548 304.907 77.185 308.751 71.8596 308.149C66.5341 307.547 62.6906 302.777 63.2926 297.452C63.8946 292.126 68.6643 288.283 73.9898 288.885C79.3152 289.487 83.1588 294.256 82.5568 299.582Z" fill="#BE1722"/>
<path d="M97.8367 318.383C97.281 323.57 92.5575 327.367 87.371 326.765C82.1382 326.209 78.3872 321.486 78.9892 316.299C79.5449 311.113 84.2683 307.316 89.4549 307.918C94.6414 308.473 98.4387 313.197 97.8367 318.383Z" fill="#BE1722"/>
<path d="M116.079 334.451C115.523 339.313 111.17 342.786 106.354 342.231C101.491 341.675 98.0183 337.322 98.574 332.506C99.0834 327.69 103.436 324.171 108.299 324.726C113.161 325.282 116.634 329.589 116.079 334.451Z" fill="#BE1722"/>
<path d="M136.14 347.559C135.631 352.236 131.417 355.616 126.74 355.107C122.063 354.597 118.682 350.383 119.191 345.706C119.701 341.029 123.915 337.649 128.592 338.158C133.269 338.667 136.65 342.881 136.14 347.559Z" fill="#BE1722"/>
<path d="M158.313 357.793C157.804 362.285 153.775 365.573 149.237 365.063C144.745 364.554 141.457 360.525 141.966 355.987C142.476 351.495 146.504 348.207 151.043 348.717C155.534 349.226 158.822 353.255 158.313 357.793Z" fill="#BE1722"/>
<path d="M181.743 364.089C181.28 368.349 177.436 371.452 173.129 370.989C168.869 370.526 165.766 366.682 166.229 362.375C166.692 358.115 170.536 355.012 174.796 355.475C179.057 355.939 182.159 359.782 181.696 364.043" fill="#BE1722"/>
<path d="M204.999 367.238C204.582 371.174 201.017 374.045 197.08 373.582C193.144 373.165 190.319 369.6 190.736 365.663C191.153 361.727 194.719 358.902 198.655 359.319C202.591 359.736 205.416 363.302 204.999 367.238Z" fill="#BE1722"/>
<path d="M229.029 366.359C228.659 369.878 225.464 372.379 221.991 372.009C218.471 371.638 215.971 368.489 216.341 364.97C216.712 361.45 219.86 358.95 223.38 359.32C226.899 359.691 229.4 362.84 229.029 366.359Z" fill="#BE1722"/>
<path d="M253.016 362.146C252.646 365.433 249.682 367.841 246.394 367.471C243.106 367.1 240.698 364.137 241.069 360.849C241.439 357.561 244.403 355.153 247.691 355.523C250.979 355.894 253.387 358.858 253.016 362.146Z" fill="#BE1722"/>
<path d="M275.985 354.644C275.614 357.793 272.79 360.108 269.641 359.738C266.492 359.413 264.176 356.542 264.547 353.393C264.917 350.244 267.742 347.929 270.891 348.299C274.04 348.624 276.309 351.495 275.985 354.644Z" fill="#BE1722"/>
<path d="M297.099 342.743C296.775 345.614 294.228 347.651 291.357 347.327C288.486 347.003 286.448 344.456 286.772 341.585C287.096 338.714 289.643 336.676 292.514 337C295.385 337.325 297.423 339.871 297.099 342.743Z" fill="#BE1722"/>
<path d="M317.198 328.805C316.921 331.398 314.559 333.297 311.966 332.973C309.372 332.695 307.474 330.333 307.798 327.74C308.076 325.147 310.437 323.248 313.031 323.572C315.624 323.85 317.476 326.212 317.198 328.805Z" fill="#BE1722"/>
<path d="M52.2262 183.765C51.6705 188.952 46.9471 192.703 41.7606 192.147C36.5741 191.591 32.8231 186.914 33.3788 181.681C33.9345 176.495 38.6116 172.744 43.8444 173.3C49.031 173.855 52.7819 178.532 52.2262 183.765Z" fill="#BE1722"/>
<path d="M56.3436 159.731C55.7879 164.779 51.2497 168.437 46.2021 167.881C41.1545 167.326 37.4962 162.787 38.0519 157.74C38.6076 152.692 43.1458 149.034 48.1934 149.59C53.241 150.145 56.8993 154.684 56.3436 159.731Z" fill="#BE1722"/>
<path d="M63.9414 136.157C63.432 140.973 59.079 144.446 54.263 143.937C49.4469 143.428 45.9738 139.075 46.4832 134.259C46.9926 129.443 51.3455 125.969 56.1616 126.479C60.9776 127.034 64.4508 131.341 63.9414 136.157Z" fill="#BE1722"/>
<path d="M75.4747 114.305C75.0116 118.658 71.0754 121.76 66.7688 121.297C62.4158 120.834 59.3131 116.898 59.7762 112.591C60.2393 108.238 64.1755 105.136 68.4822 105.599C72.8351 106.062 75.9378 109.998 75.4747 114.305Z" fill="#BE1722"/>
<path d="M88.8495 94.8527C88.3864 98.9742 84.6818 101.938 80.5604 101.475C76.4389 101.012 73.4752 97.3071 73.9383 93.1856C74.4014 89.0642 78.106 86.1004 82.1812 86.5635C86.3026 87.0266 89.2663 90.7313 88.8032 94.8064" fill="#BE1722"/>
<path d="M105.89 77.0266C105.474 80.8701 102 83.6486 98.1568 83.2318C94.3133 82.8151 91.5348 79.342 91.9515 75.4984C92.3683 71.6548 95.8414 68.8763 99.685 69.2931C103.529 69.7099 106.307 73.183 105.89 77.0266Z" fill="#BE1722"/>
<path d="M125.806 62.852C125.389 66.5567 122.101 69.1963 118.397 68.7795C114.692 68.3627 112.052 65.0748 112.469 61.3701C112.886 57.6655 116.174 55.0259 119.878 55.4427C123.583 55.8595 126.223 59.1474 125.806 62.852Z" fill="#BE1722"/>
<path d="M146.878 50.8591C146.508 54.1933 143.497 56.6013 140.163 56.2308C136.829 55.8603 134.421 52.8503 134.792 49.5625C135.162 46.2283 138.172 43.8202 141.506 44.1907C144.84 44.5612 147.248 47.5712 146.878 50.8591Z" fill="#BE1722"/>
<path d="M169.569 42.9867C169.245 46.043 166.466 48.2196 163.456 47.8954C160.4 47.5712 158.223 44.839 158.548 41.7827C158.872 38.7263 161.604 36.5499 164.66 36.874C167.717 37.1982 169.893 39.9303 169.569 42.9867Z" fill="#BE1722"/>
<path d="M193.138 38.6348C192.814 41.5059 190.267 43.5434 187.396 43.2192C184.525 42.8951 182.487 40.3482 182.811 37.4771C183.135 34.606 185.682 32.5684 188.553 32.8925C191.425 33.2167 193.462 35.7637 193.138 38.6348Z" fill="#BE1722"/>
<path d="M217.683 37.8452C217.405 40.4847 214.997 42.3834 212.358 42.1055C209.718 41.8277 207.819 39.4196 208.097 36.78C208.375 34.1404 210.783 32.2418 213.376 32.5197C216.016 32.7975 217.915 35.1592 217.637 37.7988" fill="#BE1722"/>
<path d="M241.023 40.5797C240.421 42.6636 238.244 43.8676 236.16 43.3119C234.077 42.7099 232.873 40.5334 233.428 38.4495C234.03 36.3656 236.207 35.1616 238.291 35.7173C240.374 36.3193 241.579 38.4958 241.023 40.5797Z" fill="#BE1722"/>
<path d="M264.689 47.3421C264.134 49.2871 262.096 50.4448 260.151 49.8891C258.206 49.3334 257.049 47.2959 257.604 45.3509C258.16 43.406 260.198 42.2483 262.142 42.804C264.087 43.3597 265.245 45.3972 264.689 47.3421Z" fill="#BE1722"/>
<path d="M287.099 57.0217C286.636 58.5962 284.969 59.5224 283.394 59.1056C281.774 58.6425 280.848 56.9754 281.311 55.4009C281.774 53.8264 283.394 52.9003 285.015 53.3171C286.59 53.7801 287.516 55.4009 287.099 57.0217Z" fill="#BE1722"/>
<path d="M307.11 69.9875C306.739 71.3305 305.304 72.1177 303.961 71.7473C302.618 71.3768 301.83 69.9413 302.201 68.5983C302.571 67.2554 304.007 66.4681 305.35 66.8386C306.693 67.2091 307.48 68.6446 307.11 69.9875Z" fill="#BE1722"/>
<path d="M28.6083 179.921C27.7747 187.562 20.9211 193.073 13.2803 192.239C5.63941 191.406 0.128732 184.506 0.96228 176.911C1.79583 169.27 8.64945 163.76 16.2903 164.639C23.9312 165.473 29.4418 172.327 28.6083 179.967" fill="#BE1722"/>
<path d="M33.7413 151.534C32.954 158.851 26.332 164.13 19.0153 163.343C11.6986 162.509 6.41942 155.933 7.20666 148.617C8.04021 141.3 14.616 136.021 21.9327 136.808C29.2494 137.595 34.5285 144.218 33.7413 151.534Z" fill="#BE1722"/>
<path d="M43.9366 124.259C43.1494 131.575 36.5273 136.854 29.2106 136.067C21.8939 135.234 16.6147 128.658 17.402 121.341C18.2355 114.025 24.8113 108.745 32.128 109.533C39.4447 110.32 44.7238 116.942 43.9366 124.259Z" fill="#BE1722"/>
<path d="M56.5315 98.8361C55.7906 105.551 49.7705 110.367 43.0558 109.626C36.3875 108.885 31.5251 102.865 32.266 96.1965C33.007 89.5281 39.027 84.6657 45.6954 85.4066C52.3638 86.1476 57.2262 92.1677 56.4852 98.8361" fill="#BE1722"/>
<path d="M368.604 308.66C368.373 310.882 366.381 312.457 364.159 312.225C361.936 311.994 360.361 310.002 360.593 307.78C360.824 305.557 362.816 303.982 365.038 304.214C367.261 304.446 368.836 306.437 368.604 308.66Z" fill="#BE1722"/>
<path d="M73.5233 75.5894C72.8287 81.9799 67.0402 86.6107 60.6496 85.9161C54.2591 85.2215 49.6283 79.433 50.3229 73.0424C51.0175 66.6519 56.806 62.0211 63.1966 62.7157C69.6334 63.4103 74.2179 69.1988 73.5233 75.5894Z" fill="#BE1722"/>
<path d="M93.1591 55.4899C92.4644 61.6026 87.0001 66.0018 80.8411 65.3535C74.7284 64.6589 70.3291 59.1945 70.9774 53.0818C71.6721 46.9691 77.1364 42.5698 83.2491 43.2181C89.3618 43.9128 93.7611 49.3772 93.1128 55.4899" fill="#BE1722"/>
<path d="M116.077 38.6802C115.429 44.4224 110.289 48.5901 104.5 47.9418C98.7578 47.2935 94.59 42.1533 95.2384 36.3647C95.8867 30.6225 101.027 26.4548 106.815 27.1031C112.558 27.7514 116.725 32.8917 116.077 38.6339" fill="#BE1722"/>
<path d="M141.048 25.3436C140.446 30.8543 135.491 34.7905 130.027 34.1885C124.516 33.5865 120.58 28.6315 121.182 23.1671C121.784 17.6564 126.739 13.7203 132.25 14.3223C137.76 14.9243 141.696 19.8792 141.094 25.3436" fill="#BE1722"/>
<path d="M167.486 15.8971C166.93 21.1763 162.16 24.9273 156.927 24.3716C151.648 23.7696 147.897 19.0461 148.453 13.8133C149.055 8.53415 153.778 4.73687 159.011 5.33888C164.29 5.94088 168.088 10.6643 167.486 15.8971Z" fill="#BE1722"/>
<path d="M195.455 10.8476C194.9 15.8026 190.454 19.3683 185.545 18.8126C180.59 18.2569 177.071 13.8113 177.58 8.90267C178.136 3.94769 182.582 0.428262 187.49 0.937652C192.445 1.49335 195.965 5.93894 195.455 10.8476Z" fill="#BE1722"/>
<path d="M223.607 9.92366C223.097 14.6008 218.883 17.935 214.253 17.4256C209.575 16.9163 206.241 12.7022 206.751 8.07136C207.26 3.39423 211.474 0.0600605 216.105 0.569451C220.782 1.07884 224.116 5.29284 223.607 9.92366Z" fill="#BE1722"/>
<path d="M251.953 13.6767C251.49 17.9833 247.6 21.086 243.293 20.6229C238.987 20.1598 235.838 16.2699 236.347 11.9632C236.81 7.65653 240.7 4.55388 245.007 5.01697C249.313 5.48005 252.416 9.36999 251.953 13.6767Z" fill="#BE1722"/>
<path d="M279.229 20.7598C278.813 24.696 275.247 27.5208 271.311 27.104C267.375 26.6872 264.55 23.1215 264.967 19.1853C265.383 15.2491 268.949 12.4243 272.885 12.8411C276.821 13.2578 279.646 16.8236 279.229 20.7598Z" fill="#BE1722"/>
<path d="M304.975 32.9841C304.558 36.6424 301.317 39.2356 297.659 38.8651C294 38.4484 291.407 35.2069 291.777 31.5485C292.194 27.8902 295.436 25.2969 299.094 25.7136C302.752 26.1304 305.346 29.372 304.975 33.0303" fill="#BE1722"/>
<path d="M329.005 48.4517C328.635 51.8322 325.578 54.2865 322.198 53.9161C318.817 53.5456 316.409 50.4893 316.78 47.1088C317.15 43.7283 320.207 41.2739 323.541 41.6444C326.921 42.0149 329.376 45.0712 329.005 48.4517Z" fill="#BE1722"/>
<path d="M349.61 67.3469C349.286 70.2643 346.646 72.3945 343.729 72.0703C340.811 71.7462 338.681 69.1066 339.005 66.1892C339.329 63.2718 341.969 61.1416 344.886 61.4657C347.804 61.7899 349.934 64.4295 349.61 67.3469Z" fill="#BE1722"/>
<path d="M367.817 89.3893C367.539 92.0752 365.085 94.0201 362.399 93.7423C359.713 93.4644 357.768 91.0101 358.046 88.3242C358.324 85.6384 360.778 83.6934 363.464 83.9712C366.15 84.2491 368.095 86.7034 367.817 89.3893Z" fill="#BE1722"/>
<path d="M355.588 327.783C356.468 330.33 355.125 333.063 352.624 333.942C350.124 334.822 347.345 333.479 346.465 330.979C345.586 328.478 346.929 325.7 349.429 324.82C351.93 323.94 354.708 325.283 355.588 327.783Z" fill="#BE1722"/>
<path d="M335.446 347.371C336.419 350.15 334.937 353.16 332.205 354.132C329.426 355.105 326.416 353.623 325.444 350.891C324.471 348.112 325.953 345.102 328.685 344.13C331.464 343.157 334.474 344.639 335.446 347.371Z" fill="#BE1722"/>
<path d="M312.384 364.043C313.449 367.053 311.828 370.341 308.864 371.36C305.854 372.425 302.613 370.804 301.548 367.84C300.483 364.83 302.057 361.589 305.067 360.523C308.077 359.458 311.365 361.079 312.384 364.043Z" fill="#BE1722"/>
<path d="M287.837 377.797C289.041 381.178 287.235 384.928 283.854 386.086C280.474 387.29 276.723 385.484 275.565 382.104C274.361 378.723 276.167 375.019 279.548 373.815C282.928 372.61 286.679 374.417 287.837 377.797Z" fill="#BE1722"/>
<path d="M260.703 386.782C261.999 390.486 260.054 394.515 256.35 395.812C252.645 397.108 248.616 395.163 247.32 391.459C246.023 387.754 247.968 383.725 251.673 382.429C255.377 381.132 259.406 383.077 260.703 386.782Z" fill="#BE1722"/>
<path d="M233.246 391.133C234.635 395.115 232.552 399.468 228.569 400.858C224.587 402.247 220.234 400.163 218.844 396.18C217.455 392.198 219.539 387.845 223.522 386.456C227.504 385.066 231.857 387.15 233.246 391.133Z" fill="#BE1722"/>
<path d="M204.946 392.105C206.428 396.366 204.206 400.996 199.945 402.478C195.685 403.96 191.054 401.737 189.572 397.477C188.09 393.217 190.313 388.586 194.573 387.104C198.834 385.622 203.465 387.845 204.946 392.105Z" fill="#BE1722"/>
<path d="M176.972 388.494C178.593 393.125 176.138 398.126 171.554 399.747C166.923 401.367 161.922 398.913 160.301 394.329C158.68 389.744 161.134 384.696 165.719 383.076C170.35 381.455 175.351 383.909 176.972 388.494Z" fill="#BE1722"/>
<path d="M149.416 380.435C151.129 385.344 148.536 390.715 143.627 392.429C138.719 394.142 133.347 391.549 131.634 386.64C129.92 381.732 132.513 376.36 137.422 374.693C142.331 372.979 147.703 375.573 149.416 380.481" fill="#BE1722"/>
<path d="M123.532 368.165C125.338 373.352 122.606 379.002 117.465 380.808C112.279 382.614 106.676 379.882 104.87 374.741C103.064 369.555 105.796 363.905 110.936 362.099C116.076 360.293 121.726 363.025 123.578 368.165" fill="#BE1722"/>
<path d="M100.245 352.374C102.144 357.838 99.2726 363.812 93.8082 365.757C88.3438 367.656 82.3701 364.785 80.4251 359.32C78.5265 353.856 81.3976 347.882 86.862 345.937C92.3263 344.039 98.3001 346.91 100.245 352.374Z" fill="#BE1722"/>
<path d="M79.0334 332.971C81.0246 338.667 78.0146 344.918 72.3187 346.91C66.6228 348.901 60.3712 345.891 58.3799 340.195C56.3886 334.499 59.3987 328.247 65.0946 326.256C70.7905 324.265 76.9958 327.275 79.0334 332.971Z" fill="#BE1722"/>
<path d="M61.204 310.789C63.3342 316.855 60.1389 323.477 54.0726 325.608C48.0062 327.738 41.3841 324.543 39.2539 318.476C37.1238 312.41 40.319 305.788 46.3854 303.657C52.4518 301.527 59.0739 304.723 61.204 310.789Z" fill="#BE1722"/>
<path d="M46.5738 286.43C48.8429 292.914 45.4161 299.999 38.9329 302.221C32.4498 304.491 25.3646 301.064 23.1418 294.581C20.8727 288.098 24.2995 281.012 30.7827 278.79C37.2658 276.52 44.351 279.947 46.5738 286.43Z" fill="#BE1722"/>
<path d="M35.9727 259.294C38.3344 266.055 34.7687 273.418 28.0077 275.78C21.2467 278.142 13.8837 274.576 11.522 267.861C9.16024 261.1 12.726 253.737 19.487 251.376C26.248 249.014 33.611 252.58 35.9727 259.294Z" fill="#BE1722"/>
<path d="M29.2098 230.861C31.7104 237.993 27.9595 245.726 20.828 248.227C13.7428 250.727 5.96305 246.976 3.46241 239.845C0.961763 232.713 4.71273 224.98 11.8442 222.479C18.9294 219.979 26.7091 223.73 29.2098 230.861Z" fill="#BE1722"/>
<path d="M26.5223 202.336C29.0229 209.467 25.272 217.201 18.1405 219.701C11.0553 222.202 3.27555 218.451 0.774907 211.32C-1.72574 204.188 2.02523 196.455 9.1567 193.954C16.2419 191.453 24.0216 195.204 26.5223 202.336Z" fill="#BE1722"/>
</g>
</svg>
