<svg width="32" height="32" viewBox="0 0 32 32" fill="none" xmlns="http://www.w3.org/2000/svg">
<path d="M16.4939 0.846753L17.0112 1.94969L18.2235 2.13315C18.4255 2.16409 18.5933 2.30533 18.6582 2.49912C18.7232 2.69291 18.6743 2.90674 18.5317 3.05315L17.6363 3.97049L17.8421 5.23022C17.8751 5.43571 17.7882 5.64205 17.6183 5.76216C17.4483 5.88226 17.2248 5.89522 17.0421 5.79555L16 5.22222L14.9605 5.79715C14.7778 5.89682 14.5543 5.88386 14.3844 5.76376C14.2144 5.64365 14.1276 5.43731 14.1605 5.23182L14.3664 3.97209L13.4709 3.05475C13.3275 2.9088 13.2778 2.69484 13.3422 2.5006C13.4066 2.30635 13.5743 2.16448 13.7765 2.13315L14.9867 1.94969L15.504 0.846753C15.5934 0.654055 15.7865 0.530762 15.9989 0.530762C16.2114 0.530762 16.4045 0.654055 16.4939 0.846753Z" fill="#0272B8" fill-opacity="0.48"/>
<path d="M9.24097 1.88201L9.70337 2.87454L10.786 3.04148C10.967 3.07069 11.1166 3.1981 11.1744 3.37205C11.2321 3.546 11.1883 3.73762 11.0607 3.86921L10.2612 4.69321L10.4452 5.82654C10.4765 6.01123 10.3993 6.19752 10.2466 6.30595C10.0938 6.41437 9.89247 6.4258 9.72844 6.33534L8.79991 5.81801L7.87137 6.33534C7.70734 6.4258 7.50601 6.41437 7.35326 6.30595C7.20051 6.19752 7.1233 6.01123 7.15457 5.82654L7.33857 4.69321L6.53857 3.86708C6.41129 3.73539 6.36773 3.54388 6.42555 3.3701C6.48336 3.19631 6.63297 3.06906 6.81377 3.03988L7.89644 2.87294L8.35884 1.88041C8.43861 1.70858 8.61097 1.59878 8.80042 1.59912C8.98986 1.59947 9.16183 1.70989 9.24097 1.88201Z" fill="#0272B8" fill-opacity="0.48"/>
<path d="M3.05888 3.9844L3.46955 4.86654L4.43222 5.0132C4.59329 5.03909 4.72656 5.15248 4.77791 5.30733C4.82926 5.46217 4.79016 5.63273 4.67648 5.74974L3.96608 6.48467L4.12928 7.49214C4.15713 7.65624 4.08857 7.8218 3.95286 7.91818C3.81716 8.01456 3.63826 8.02475 3.49248 7.9444L2.66688 7.48467L1.84128 7.94654C1.69551 8.02689 1.51661 8.0167 1.3809 7.92032C1.2452 7.82393 1.17664 7.65837 1.20448 7.49427L1.36768 6.4868L0.657283 5.7508C0.542985 5.63385 0.503488 5.46289 0.554899 5.30765C0.606309 5.15241 0.740036 5.03882 0.90155 5.0132L1.86688 4.86654L2.27755 3.9844C2.34859 3.83287 2.50086 3.73608 2.66822 3.73608C2.83558 3.73608 2.98784 3.83287 3.05888 3.9844Z" fill="#0272B8" fill-opacity="0.48"/>
<path d="M22.7587 1.88201L22.2963 2.87454L21.2137 3.04148C21.0327 3.07069 20.8831 3.1981 20.8253 3.37205C20.7676 3.546 20.8114 3.73762 20.939 3.86921L21.7385 4.69321L21.5545 5.82654C21.5232 6.01123 21.6004 6.19752 21.7531 6.30595C21.9059 6.41437 22.1072 6.4258 22.2713 6.33534L23.1998 5.81801L24.1283 6.33534C24.2924 6.4258 24.4937 6.41437 24.6464 6.30595C24.7992 6.19752 24.8764 6.01123 24.8451 5.82654L24.6611 4.69321L25.4611 3.86708C25.5884 3.73539 25.632 3.54388 25.5742 3.3701C25.5163 3.19631 25.3667 3.06906 25.1859 3.03988L24.1033 2.87294L23.6409 1.88041C23.5611 1.70858 23.3887 1.59878 23.1993 1.59912C23.0098 1.59947 22.8379 1.70989 22.7587 1.88201Z" fill="#0272B8" fill-opacity="0.48"/>
<path d="M28.9415 3.98439L28.5335 4.86652L27.5735 5.01426C27.4124 5.04015 27.2792 5.15354 27.2278 5.30838C27.1765 5.46322 27.2156 5.63378 27.3292 5.75079L28.0396 6.48466L27.8764 7.49212C27.8486 7.65623 27.9171 7.82179 28.0529 7.91817C28.1886 8.01455 28.3675 8.02474 28.5132 7.94439L29.3335 7.48466L30.1591 7.94439C30.3049 8.02474 30.4838 8.01455 30.6195 7.91817C30.7552 7.82179 30.8237 7.65623 30.7959 7.49212L30.6327 6.48466L31.3431 5.75079C31.4574 5.63383 31.4969 5.46288 31.4455 5.30764C31.3941 5.1524 31.2603 5.03881 31.0988 5.01319L30.1388 4.86546L29.7282 3.98332C29.6582 3.82874 29.5042 3.72951 29.3345 3.72974C29.1648 3.72997 29.011 3.82962 28.9415 3.98439Z" fill="#0272B8" fill-opacity="0.48"/>
<path d="M30.9332 25.0667H1.06654C0.771985 25.0667 0.533203 25.3054 0.533203 25.6V30.9333C0.533203 31.2279 0.771985 31.4667 1.06654 31.4667H30.9332C31.2278 31.4667 31.4665 31.2279 31.4665 30.9333V25.6C31.4665 25.3054 31.2278 25.0667 30.9332 25.0667Z" fill="#0272B8" fill-opacity="0.48"/>
<path d="M19.1642 2.33156C19.0364 1.94762 18.704 1.6678 18.3039 1.6073L17.3732 1.46543L16.9764 0.620631C16.7989 0.24176 16.4183 -0.000244141 15.9999 -0.000244141C15.5815 -0.000244141 15.2009 0.24176 15.0234 0.620631L14.6266 1.46543L13.6959 1.60783C13.2961 1.6687 12.9639 1.94815 12.8356 2.33167C12.7072 2.71518 12.8042 3.13828 13.0868 3.42756L13.7935 4.15236L13.6335 5.14596C13.5657 5.55416 13.7374 5.96519 14.0754 6.20382C14.4135 6.44245 14.8583 6.46659 15.2202 6.26596L15.9999 5.83183L16.7812 6.26436C17.1426 6.46542 17.5873 6.44115 17.9247 6.20196C18.2641 5.96515 18.4366 5.55403 18.3679 5.14596L18.2079 4.15236L18.9146 3.42756C19.1974 3.13833 19.2939 2.71476 19.1642 2.33156ZM17.2548 3.59983C17.1367 3.72097 17.0831 3.89097 17.1103 4.05796L17.2975 5.3305L16.258 4.75556C16.0974 4.66672 15.9024 4.66672 15.7418 4.75556L14.6842 5.3177L14.8895 4.05796C14.9167 3.89097 14.8631 3.72097 14.745 3.59983L13.857 2.66223L15.0687 2.47716C15.2447 2.45039 15.3958 2.33756 15.4714 2.17636L16.0047 1.06703L16.0084 1.07343L16.5258 2.17636C16.6014 2.33756 16.7524 2.45039 16.9284 2.47716L18.1471 2.6825L17.2548 3.59983Z" fill="#0A0A0A"/>
<path d="M11.68 3.20002C11.5592 2.83732 11.2456 2.57272 10.8677 2.51469L10.0677 2.39149L9.72587 1.65762C9.55887 1.29768 9.19814 1.06738 8.80134 1.06738C8.40454 1.06738 8.04381 1.29768 7.8768 1.65762L7.53494 2.39149L6.73494 2.51469C6.35683 2.57434 6.04342 2.83959 5.92207 3.20262C5.80072 3.56566 5.89164 3.96606 6.15787 4.24109L6.7712 4.87469L6.6304 5.74456C6.56467 6.13142 6.727 6.52164 7.04772 6.74775C7.36843 6.97386 7.79051 6.99564 8.1328 6.80376L8.80214 6.43042L9.47094 6.80376C9.81345 6.99362 10.2344 6.97092 10.5545 6.74533C10.8746 6.51973 11.0375 6.13097 10.9739 5.74456L10.8331 4.87469L11.4464 4.24109C11.7134 3.96537 11.8036 3.56339 11.68 3.20002ZM9.8784 4.32429C9.76132 4.44515 9.70815 4.61417 9.73494 4.78029L9.904 5.82456L9.0592 5.35469C8.89803 5.26506 8.70198 5.26506 8.5408 5.35469L7.696 5.82456L7.86507 4.78029C7.89186 4.61417 7.83868 4.44515 7.7216 4.32429L6.9776 3.55576L7.9776 3.40162C8.15373 3.37474 8.30481 3.26169 8.38027 3.10029L8.7856 2.16696L9.21974 3.10029C9.2952 3.26169 9.44627 3.37474 9.6224 3.40162L10.6224 3.55576L9.8784 4.32429Z" fill="#0A0A0A"/>
<path d="M5.27986 5.13583C5.16597 4.79299 4.86992 4.54264 4.51293 4.48729L3.8324 4.38063L3.54226 3.75929C3.38431 3.41823 3.04266 3.19995 2.6668 3.19995C2.29093 3.19995 1.94929 3.41823 1.79133 3.75929L1.50066 4.38329L0.820129 4.48996C0.463215 4.5471 0.167563 4.79773 0.0527556 5.14047C-0.0620519 5.48321 0.0229813 5.86136 0.273462 6.12196L0.799862 6.66329L0.679329 7.40676C0.617753 7.77265 0.771339 8.14146 1.07442 8.35549C1.37751 8.56953 1.77644 8.59091 2.10066 8.41049L2.66653 8.09529L3.2324 8.41049C3.55674 8.59035 3.95537 8.56885 4.25848 8.35515C4.5616 8.14145 4.71577 7.7732 4.65533 7.40729L4.5332 6.66329L5.058 6.12196C5.31088 5.86078 5.39652 5.48014 5.27986 5.13583ZM3.5828 6.11343C3.46572 6.23428 3.41254 6.4033 3.43933 6.56943L3.57 7.37743L2.92626 7.01903C2.76481 6.929 2.56825 6.929 2.4068 7.01903L1.76306 7.37743L1.89373 6.56943C1.92052 6.4033 1.86734 6.23428 1.75026 6.11343L1.16893 5.51289L1.94493 5.39343C2.12077 5.3661 2.27141 5.25288 2.34653 5.09156L2.66653 4.40569L2.98653 5.09156C3.06175 5.25302 3.21262 5.36627 3.38866 5.39343L4.16466 5.51289L3.5828 6.11343Z" fill="#0A0A0A"/>
<path d="M26.0799 3.19998C25.9591 2.83728 25.6455 2.57268 25.2676 2.51465L24.4676 2.39145L24.1252 1.65705C23.9581 1.29742 23.5975 1.06738 23.201 1.06738C22.8044 1.06738 22.4438 1.29742 22.2767 1.65705L21.9348 2.39091L21.1348 2.51412C20.7567 2.57377 20.4433 2.83901 20.322 3.20205C20.2006 3.56509 20.2915 3.96549 20.5578 4.24051L21.1711 4.87411L21.0303 5.74398C20.9646 6.13085 21.1269 6.52107 21.4476 6.74718C21.7683 6.97328 22.1904 6.99507 22.5327 6.80318L23.202 6.42985L23.8708 6.80318C24.2133 6.99305 24.6343 6.97035 24.9544 6.74475C25.2745 6.51916 25.4374 6.13039 25.3738 5.74398L25.233 4.87411L25.8463 4.24051C26.1131 3.96491 26.2033 3.56319 26.0799 3.19998ZM24.2783 4.32425C24.1612 4.44511 24.108 4.61413 24.1348 4.78025L24.3039 5.82451L23.4591 5.35465C23.2979 5.26502 23.1019 5.26502 22.9407 5.35465L22.0959 5.82451L22.265 4.78025C22.2918 4.61413 22.2386 4.44511 22.1215 4.32425L21.3748 3.55571L22.3748 3.40158C22.551 3.3747 22.702 3.26165 22.7775 3.10025L23.1999 2.19838L23.6196 3.10025C23.6951 3.26165 23.8462 3.3747 24.0223 3.40158L25.0223 3.55571L24.2783 4.32425Z" fill="#0A0A0A"/>
<path d="M31.9468 5.13585C31.8326 4.7924 31.5356 4.54192 31.1778 4.48731L30.4972 4.38065L30.2071 3.75718C30.0489 3.41619 29.7072 3.198 29.3314 3.198C28.9555 3.198 28.6138 3.41619 28.4556 3.75718L28.1655 4.38065L27.485 4.48731C27.1269 4.54378 26.8302 4.7949 26.7152 5.13863C26.6003 5.48236 26.6863 5.8615 26.9383 6.12198L27.4631 6.66331L27.3426 7.40678C27.2805 7.77315 27.4343 8.14261 27.7379 8.35679C28.0415 8.57098 28.4412 8.59187 28.7655 8.41051L29.3335 8.09531L29.8994 8.41051C30.2237 8.59037 30.6223 8.56887 30.9254 8.35517C31.2286 8.14147 31.3827 7.77323 31.3223 7.40731L31.2002 6.66331L31.725 6.12198C31.9778 5.8608 32.0635 5.48016 31.9468 5.13585ZM30.2476 6.11345C30.1305 6.2343 30.0774 6.40333 30.1042 6.56945L30.2348 7.37745L29.5911 7.01905C29.4296 6.92902 29.2331 6.92902 29.0716 7.01905L28.4279 7.37745L28.5586 6.56945C28.5853 6.40333 28.5322 6.2343 28.4151 6.11345L27.8338 5.51291L28.6098 5.39345C28.7858 5.36629 28.9367 5.25304 29.0119 5.09158L29.3335 4.40571L29.6535 5.09158C29.7287 5.25304 29.8796 5.36629 30.0556 5.39345L30.8316 5.51291L30.2476 6.11345Z" fill="#0A0A0A"/>
<path d="M30.9333 24.5332H29.3333V11.1999C29.3333 10.3162 28.617 9.59989 27.7333 9.59989H21.8667V9.06655C21.8667 8.1829 21.1503 7.46655 20.2667 7.46655H11.7333C10.8497 7.46655 10.1333 8.1829 10.1333 9.06655V9.59989H4.26667C3.38301 9.59989 2.66667 10.3162 2.66667 11.1999V24.5332H1.06667C0.477563 24.5332 0 25.0108 0 25.5999V30.9332C0 31.5223 0.477563 31.9999 1.06667 31.9999H30.9333C31.5224 31.9999 32 31.5223 32 30.9332V25.5999C32 25.0108 31.5224 24.5332 30.9333 24.5332ZM27.7333 10.6666C28.0279 10.6666 28.2667 10.9053 28.2667 11.1999V24.5332H21.8667V10.6666H27.7333ZM11.2 9.06655C11.2 8.772 11.4388 8.53322 11.7333 8.53322H20.2667C20.5612 8.53322 20.8 8.772 20.8 9.06655V24.5332H11.2V9.06655ZM3.73333 11.1999C3.73333 10.9053 3.97212 10.6666 4.26667 10.6666H10.1333V24.5332H3.73333V11.1999ZM4.26667 30.9332V28.2666H6.4V30.9332H4.26667ZM13.8667 27.7332H15.4667V30.9332H13.8667V27.7332ZM16.5333 30.9332V27.7332H18.1333V30.9332H16.5333ZM25.6 30.9332V28.2666H27.7333V30.9332H25.6ZM28.8 30.9332V28.2666C29.0946 28.2666 29.3333 28.0278 29.3333 27.7332C29.3333 27.4387 29.0946 27.1999 28.8 27.1999H24.5333C24.2388 27.1999 24 27.4387 24 27.7332C24 28.0278 24.2388 28.2666 24.5333 28.2666V30.9332H19.2V27.7332H19.7333C20.0279 27.7332 20.2667 27.4944 20.2667 27.1999C20.2667 26.9053 20.0279 26.6666 19.7333 26.6666H12.2667C11.9721 26.6666 11.7333 26.9053 11.7333 27.1999C11.7333 27.4944 11.9721 27.7332 12.2667 27.7332H12.8V30.9332H7.46667V28.2666C7.76122 28.2666 8 28.0278 8 27.7332C8 27.4387 7.76122 27.1999 7.46667 27.1999H3.2C2.90545 27.1999 2.66667 27.4387 2.66667 27.7332C2.66667 28.0278 2.90545 28.2666 3.2 28.2666V30.9332H1.06667V25.5999H30.9333V30.9332H28.8Z" fill="#0A0A0A"/>
<path d="M13.3333 13.3333H14.3999C14.989 13.3333 15.4666 12.8557 15.4666 12.2666V11.2C15.4666 10.6109 14.989 10.1333 14.3999 10.1333H13.3333C12.7442 10.1333 12.2666 10.6109 12.2666 11.2V12.2666C12.2666 12.8557 12.7442 13.3333 13.3333 13.3333ZM13.3333 11.2H14.3999V12.2666H13.3333V11.2Z" fill="#0A0A0A"/>
<path d="M17.5999 13.3333H18.6665C19.2556 13.3333 19.7332 12.8557 19.7332 12.2666V11.2C19.7332 10.6109 19.2556 10.1333 18.6665 10.1333H17.5999C17.0108 10.1333 16.5332 10.6109 16.5332 11.2V12.2666C16.5332 12.8557 17.0108 13.3333 17.5999 13.3333ZM17.5999 11.2H18.6665V12.2666H17.5999V11.2Z" fill="#0A0A0A"/>
<path d="M13.3333 18.1333H14.3999C14.989 18.1333 15.4666 17.6558 15.4666 17.0667V16C15.4666 15.4109 14.989 14.9333 14.3999 14.9333H13.3333C12.7442 14.9333 12.2666 15.4109 12.2666 16V17.0667C12.2666 17.6558 12.7442 18.1333 13.3333 18.1333ZM13.3333 16H14.3999V17.0667H13.3333V16Z" fill="#0A0A0A"/>
<path d="M17.5999 18.1333H18.6665C19.2556 18.1333 19.7332 17.6558 19.7332 17.0667V16C19.7332 15.4109 19.2556 14.9333 18.6665 14.9333H17.5999C17.0108 14.9333 16.5332 15.4109 16.5332 16V17.0667C16.5332 17.6558 17.0108 18.1333 17.5999 18.1333ZM17.5999 16H18.6665V17.0667H17.5999V16Z" fill="#0A0A0A"/>
<path d="M13.3333 22.9332H14.3999C14.989 22.9332 15.4666 22.4556 15.4666 21.8665V20.7998C15.4666 20.2107 14.989 19.7332 14.3999 19.7332H13.3333C12.7442 19.7332 12.2666 20.2107 12.2666 20.7998V21.8665C12.2666 22.4556 12.7442 22.9332 13.3333 22.9332ZM13.3333 20.7998H14.3999V21.8665H13.3333V20.7998Z" fill="#0A0A0A"/>
<path d="M7.99981 11.7332H5.86647C5.27737 11.7332 4.7998 12.2107 4.7998 12.7998V13.8665C4.7998 14.4556 5.27737 14.9332 5.86647 14.9332H7.99981C8.58891 14.9332 9.06647 14.4556 9.06647 13.8665V12.7998C9.06647 12.2107 8.58891 11.7332 7.99981 11.7332ZM5.86647 13.8665V12.7998H7.99981V13.8665H5.86647Z" fill="#0A0A0A"/>
<path d="M7.99981 16H5.86647C5.27737 16 4.7998 16.4776 4.7998 17.0667V18.1333C4.7998 18.7224 5.27737 19.2 5.86647 19.2H7.99981C8.58891 19.2 9.06647 18.7224 9.06647 18.1333V17.0667C9.06647 16.4776 8.58891 16 7.99981 16ZM5.86647 18.1333V17.0667H7.99981V18.1333H5.86647Z" fill="#0A0A0A"/>
<path d="M7.99981 20.2666H5.86647C5.27737 20.2666 4.7998 20.7442 4.7998 21.3333V22.3999C4.7998 22.989 5.27737 23.4666 5.86647 23.4666H7.99981C8.58891 23.4666 9.06647 22.989 9.06647 22.3999V21.3333C9.06647 20.7442 8.58891 20.2666 7.99981 20.2666ZM5.86647 22.3999V21.3333H7.99981V22.3999H5.86647Z" fill="#0A0A0A"/>
<path d="M23.9998 14.9332H26.1331C26.7222 14.9332 27.1998 14.4556 27.1998 13.8665V12.7998C27.1998 12.2107 26.7222 11.7332 26.1331 11.7332H23.9998C23.4107 11.7332 22.9331 12.2107 22.9331 12.7998V13.8665C22.9331 14.4556 23.4107 14.9332 23.9998 14.9332ZM23.9998 12.7998H26.1331V13.8665H23.9998V12.7998Z" fill="#0A0A0A"/>
<path d="M23.9998 19.2H26.1331C26.7222 19.2 27.1998 18.7224 27.1998 18.1333V17.0667C27.1998 16.4776 26.7222 16 26.1331 16H23.9998C23.4107 16 22.9331 16.4776 22.9331 17.0667V18.1333C22.9331 18.7224 23.4107 19.2 23.9998 19.2ZM23.9998 17.0667H26.1331V18.1333H23.9998V17.0667Z" fill="#0A0A0A"/>
<path d="M23.9998 23.4666H26.1331C26.7222 23.4666 27.1998 22.989 27.1998 22.3999V21.3333C27.1998 20.7442 26.7222 20.2666 26.1331 20.2666H23.9998C23.4107 20.2666 22.9331 20.7442 22.9331 21.3333V22.3999C22.9331 22.989 23.4107 23.4666 23.9998 23.4666ZM23.9998 21.3333H26.1331V22.3999H23.9998V21.3333Z" fill="#0A0A0A"/>
<path d="M17.5999 22.9332H18.6665C19.2556 22.9332 19.7332 22.4556 19.7332 21.8665V20.7998C19.7332 20.2107 19.2556 19.7332 18.6665 19.7332H17.5999C17.0108 19.7332 16.5332 20.2107 16.5332 20.7998V21.8665C16.5332 22.4556 17.0108 22.9332 17.5999 22.9332ZM17.5999 20.7998H18.6665V21.8665H17.5999V20.7998Z" fill="#0A0A0A"/>
</svg>
