<svg width="32" height="32" viewBox="0 0 32 32" fill="none" xmlns="http://www.w3.org/2000/svg">
<g clip-path="url(#clip0_700_50934)">
<path d="M23.8386 12.9941L21.7031 7.98438H9.40649C9.50537 8.57837 9.7854 9.12622 10.2188 9.55957C10.7688 10.1096 11.5 10.4126 12.2778 10.4126C12.5513 10.4126 12.8186 10.3743 13.0747 10.302L19.3906 12.9941H2.21973V14.8728H29.7734V12.9941H23.8386Z" fill="#0272B8" fill-opacity="0.48"/>
<path d="M13.1787 22.137H18.8149V31.5303H13.1787V22.137Z" fill="#0272B8" fill-opacity="0.48"/>
<path d="M17.7463 2.03198C17.5646 1.85034 17.332 1.75146 17.0944 1.73364L12.2727 6.55542C12.0476 6.78052 11.7497 6.88721 11.455 6.87793C11.1477 7.28272 11.1774 7.86182 11.5471 8.2312C11.9506 8.63477 12.6049 8.63477 13.0083 8.2312L17.7463 3.49316C18.1499 3.08984 18.1499 2.43555 17.7463 2.03198Z" fill="#0272B8" fill-opacity="0.48"/>
<path d="M27.8948 7.51465H21.5073V8.4541H27.8948C28.6716 8.4541 29.3037 9.08618 29.3037 9.86304V14.4031H9.73438V15.3425H29.3037V16.5701C28.7515 16.6636 28.4075 16.9138 28.1196 17.123C27.8037 17.3528 27.5542 17.5342 27.0181 17.5342C26.4817 17.5342 26.2319 17.3528 25.916 17.123C25.554 16.8599 25.1035 16.5322 24.2622 16.5322C23.4207 16.5322 22.97 16.8599 22.6082 17.123C22.2922 17.3528 22.043 17.5342 21.5066 17.5342C20.9705 17.5342 20.7212 17.3528 20.4053 17.123C20.0435 16.8599 19.5928 16.5322 18.7512 16.5322C17.9099 16.5322 17.4592 16.8599 17.0974 17.123C16.7815 17.3528 16.5322 17.5342 15.9958 17.5342C15.4597 17.5342 15.2104 17.3528 14.8945 17.123C14.5327 16.8599 14.0825 16.5322 13.2412 16.5322C12.3997 16.5322 11.9492 16.8599 11.5872 17.123C11.2715 17.3528 11.022 17.5342 10.4858 17.5342C9.94971 17.5342 9.7002 17.3528 9.38428 17.123C9.02246 16.8599 8.57202 16.5322 7.73047 16.5322C6.88892 16.5322 6.43848 16.8599 6.07642 17.123C5.76074 17.3528 5.51123 17.5342 4.9751 17.5342C4.43896 17.5342 4.18945 17.3528 3.87354 17.123C3.58569 16.9138 3.2417 16.6636 2.68945 16.5701V15.3425H8.79492V14.4031H2.68945V9.86304C2.68945 9.08618 3.32153 8.4541 4.09839 8.4541H9.54639V7.51465H4.09839C2.80347 7.51465 1.75 8.56812 1.75 9.86304V17.4717H2.21973C2.40601 17.4717 2.55737 17.4939 2.68945 17.5322V23.613H3.62866V18.0952C3.94556 18.2947 4.35352 18.4736 4.9751 18.4736C5.81665 18.4736 6.26709 18.146 6.62891 17.8828C6.94482 17.6531 7.19434 17.4717 7.73047 17.4717C8.2666 17.4717 8.51611 17.6531 8.83179 17.8828C9.19385 18.146 9.64429 18.4736 10.4858 18.4736C11.3274 18.4736 11.7778 18.146 12.1396 17.8828C12.4556 17.6531 12.7051 17.4717 13.2412 17.4717C13.7769 17.4717 14.0261 17.6531 14.342 17.8826C14.7039 18.146 15.1543 18.4736 15.9958 18.4736C16.8374 18.4736 17.2881 18.146 17.6499 17.8828C17.9658 17.6531 18.2151 17.4717 18.7512 17.4717C19.2876 17.4717 19.5369 17.6531 19.8528 17.8828C20.2146 18.146 20.6653 18.4736 21.5066 18.4736C22.3481 18.4736 22.7988 18.146 23.1606 17.8828C23.4766 17.6531 23.7258 17.4717 24.2622 17.4717C24.7981 17.4717 25.0476 17.6531 25.3635 17.8826C25.7256 18.146 26.1763 18.4736 27.0181 18.4736C27.6396 18.4736 28.0476 18.2947 28.3645 18.0952V31.0605H19.2842V25.5813H18.345V31.0605H13.6482V22.6067H18.345V24.6418H19.2842V21.6672H12.709V31.0605H3.62866V24.5522H2.68945V32H29.3037V17.5322C29.4358 17.4939 29.5872 17.4717 29.7734 17.4717H30.2432V9.86304C30.2432 8.56812 29.1897 7.51465 27.8948 7.51465Z" fill="#0A0A0A"/>
<path d="M4.56787 19.7886V28.2427H11.7693V19.7886H4.56787ZM10.8301 27.3032H5.50708V20.728H10.8301V27.3032Z" fill="#0A0A0A"/>
<path d="M24.4507 20.728V19.7886H20.2236V28.2427H27.425V19.7886H25.3899V20.728H26.4858V27.3032H21.1628V20.728H24.4507Z" fill="#0A0A0A"/>
<path d="M10.9014 6.90234C10.6653 7.45239 10.771 8.11938 11.2151 8.56348C11.5081 8.85645 11.8928 9.00293 12.2778 9.00293C12.5564 9.00293 12.8345 8.92505 13.0781 8.77148L22.1567 12.6416L19.8169 7.15234L18.9526 7.52075L20.377 10.8618L13.8323 8.07178L17.5872 4.31689L18.5845 6.65674L19.4485 6.28833L18.2869 3.56299C18.6523 2.98242 18.5837 2.20483 18.0786 1.69995C17.6345 1.25586 16.968 1.1499 16.4175 1.38623C16.3472 1.30347 16.2734 1.22339 16.1968 1.14648C15.4573 0.407227 14.4744 0 13.429 0C12.3835 0 11.4006 0.407227 10.6616 1.14648C9.92236 1.8855 9.51514 2.86841 9.51514 3.91382C9.51514 4.95923 9.92236 5.94214 10.6616 6.6814C10.7383 6.7583 10.8186 6.83203 10.9014 6.90234ZM11.3257 1.81055C11.8875 1.24878 12.6345 0.939453 13.429 0.939453C14.2236 0.939453 14.9705 1.24878 15.5325 1.81055C15.6743 1.95239 15.802 2.10864 15.9119 2.27466L16.2217 2.74243L16.6277 2.35522C16.8472 2.14575 17.2 2.1499 17.4143 2.36401C17.634 2.58374 17.634 2.94141 17.4143 3.16113L12.6763 7.89917C12.4565 8.1189 12.0989 8.1189 11.8794 7.89917C11.665 7.68506 11.6611 7.33203 11.8704 7.11255L12.2578 6.70654L11.7898 6.39673C11.6238 6.28687 11.4675 6.15918 11.3257 6.01709C10.7639 5.45532 10.4546 4.7085 10.4546 3.91382C10.4546 3.11938 10.7639 2.37231 11.3257 1.81055Z" fill="#0A0A0A"/>
</g>
<defs>
<clipPath id="clip0_700_50934">
<rect width="32" height="32" fill="white"/>
</clipPath>
</defs>
</svg>
