<svg width="32" height="32" viewBox="0 0 32 32" fill="none" xmlns="http://www.w3.org/2000/svg">
<path d="M17.25 12.25H19.75V14.75H17.25V12.25Z" fill="#0272B8" fill-opacity="0.48"/>
<path d="M13.125 31.375H0.625V19.75H13.125V31.375Z" fill="#0272B8" fill-opacity="0.48"/>
<path d="M11.875 14.75V17.25L9.375 19.75H4.375L1.875 17.25V14.75H11.875Z" fill="#0272B8" fill-opacity="0.48"/>
<path d="M10.625 12.875C10.625 13.5788 10.2313 14.2275 9.67125 14.75H4.07875C3.51875 14.2275 3.125 13.5788 3.125 12.875C3.125 11.2755 4.14944 9.75 5.625 9.75C6.08063 9.75 6.5075 9.90188 6.875 10.1681C7.2425 9.90188 7.66937 9.75 8.125 9.75C9.57375 9.75 10.625 11.2368 10.625 12.875Z" fill="#0272B8" fill-opacity="0.48"/>
<path d="M9.375 0.625V3.125C9.375 4.50169 8.25881 5.625 6.875 5.625C5.49275 5.625 4.375 4.50319 4.375 3.125V0.625H9.375Z" fill="#0272B8" fill-opacity="0.48"/>
<path d="M24.75 29.5C25.0952 29.5 25.375 29.2202 25.375 28.875C25.375 28.5298 25.0952 28.25 24.75 28.25C24.4048 28.25 24.125 28.5298 24.125 28.875C24.125 29.2202 24.4048 29.5 24.75 29.5Z" fill="#0A0A0A"/>
<path d="M6.875 3.75C7.22018 3.75 7.5 3.47018 7.5 3.125C7.5 2.77982 7.22018 2.5 6.875 2.5C6.52982 2.5 6.25 2.77982 6.25 3.125C6.25 3.47018 6.52982 3.75 6.875 3.75Z" fill="#0A0A0A"/>
<path d="M29.0163 25.7536C29.0864 25.5569 29.125 25.3454 29.125 25.125V19.9469C29.125 19.0045 28.8163 18.0909 28.2325 17.305C27.9853 16.9718 27.875 16.6355 27.875 16.2144V12.25C27.875 11.9048 27.5952 11.625 27.25 11.625H24.75C24.4048 11.625 24.125 11.9048 24.125 12.25V16.2144C24.125 16.6488 24.0169 16.9772 23.7634 17.3124C23.1905 18.0699 22.875 19.006 22.875 19.9481V25.125C22.875 25.3441 22.9131 25.5544 22.9825 25.75H21.5175C21.5869 25.5544 21.625 25.3441 21.625 25.125V19.9469C21.625 19.0045 21.3163 18.0909 20.7325 17.305C20.4853 16.9718 20.375 16.6355 20.375 16.2144V12.25C20.375 11.9048 20.0952 11.625 19.75 11.625H17.25C16.9048 11.625 16.625 11.9048 16.625 12.25V16.2144C16.625 16.6488 16.5169 16.9772 16.2634 17.3124C15.6905 18.0699 15.375 19.006 15.375 19.9481V25.125C15.375 25.3441 15.4131 25.5544 15.4825 25.75H13.75V19.75C13.75 19.4048 13.4702 19.125 13.125 19.125H10.8839L12.317 17.6919C12.4342 17.5748 12.5001 17.4158 12.5001 17.25V14.75C12.5001 14.4048 12.2203 14.125 11.8751 14.125H10.9358C11.1218 13.7614 11.2269 13.3848 11.2462 13.0037L13.4718 11.52C13.6456 11.4041 13.7501 11.2089 13.7501 11V8.125C13.7501 7.93512 13.6637 7.75556 13.5155 7.63694L9.65563 4.549C9.87975 4.11094 10 3.62169 10 3.125V1.25H11.875C12.2202 1.25 12.5 0.970187 12.5 0.625C12.5 0.279813 12.2202 0 11.875 0C11.0068 0 4.13794 0 1.875 0C1.52981 0 1.25 0.279813 1.25 0.625C1.25 0.970187 1.52981 1.25 1.875 1.25H3.75V3.125C3.75 3.62169 3.87025 4.11094 4.09438 4.549L0.234563 7.63694C0.0863125 7.75556 0 7.93512 0 8.125V11C0 11.209 0.104438 11.4041 0.278313 11.52L2.50388 13.0037C2.52319 13.3849 2.62819 13.7614 2.81425 14.125H1.875C1.52981 14.125 1.25 14.4048 1.25 14.75V17.25C1.25 17.4158 1.31588 17.5748 1.43306 17.6919L2.86606 19.125H0.625C0.279813 19.125 0 19.4048 0 19.75V31.375C0 31.7202 0.279813 32 0.625 32H4.0625C4.40769 32 4.6875 31.7202 4.6875 31.375C4.6875 31.0298 4.40769 30.75 4.0625 30.75H1.25V20.375H12.5V30.75H9.6875C9.34231 30.75 9.0625 31.0298 9.0625 31.375C9.0625 31.7202 9.34231 32 9.6875 32H28.875C30.5981 32 32 30.5981 32 28.875C32 27.1992 30.6741 25.8278 29.0163 25.7536ZM5 1.25H8.75V3.125C8.75 4.15031 7.92069 5 6.875 5C5.829 5 5 4.14919 5 3.125V1.25ZM2.68019 11.619L1.25 10.6655V8.42537L4.875 5.52525C5.43106 5.99056 6.13294 6.25 6.875 6.25C7.61731 6.25 8.31938 5.99044 8.87512 5.52537L12.5 8.42537V10.6655L11.0696 11.6191C10.6373 10.1613 9.47437 9.125 8.125 9.125C7.91375 9.125 7.7045 9.15069 7.5 9.20019V8.125C7.5 7.77981 7.22019 7.5 6.875 7.5C6.52981 7.5 6.25 7.77981 6.25 8.125V9.20019C6.0455 9.15069 5.83625 9.125 5.625 9.125C4.27525 9.125 3.11219 10.1619 2.68019 11.619ZM10 12.875C10 13.3706 9.70988 13.8073 9.41281 14.125H4.33719C4.04012 13.8073 3.75 13.3706 3.75 12.875C3.75 11.632 4.50069 10.375 5.625 10.375C5.93706 10.375 6.23425 10.4757 6.50831 10.6742C6.72794 10.8336 7.02644 10.8304 7.24162 10.6742C7.51575 10.4757 7.81294 10.375 8.125 10.375C9.25088 10.375 10 11.63 10 12.875ZM4.63394 19.125L2.5 16.9911V15.375H11.25V16.9911L9.11606 19.125H4.63394ZM25.375 12.875H26.625V14.125H25.375V12.875ZM24.125 19.9481C24.125 19.2764 24.3506 18.6082 24.7604 18.0664C25.1797 17.5119 25.375 16.9234 25.375 16.2144V15.375H26.625V16.2144C26.625 16.9021 26.8225 17.5025 27.2289 18.0502C27.6516 18.6192 27.875 19.275 27.875 19.9469V25.125C27.875 25.4696 27.5946 25.75 27.25 25.75H24.75C24.4054 25.75 24.125 25.4696 24.125 25.125V19.9481ZM17.875 12.875H19.125V14.125H17.875V12.875ZM16.625 19.9481C16.625 19.2764 16.8506 18.6082 17.2604 18.0664C17.6797 17.5119 17.875 16.9234 17.875 16.2144V15.375H19.125V16.2144C19.125 16.9021 19.3225 17.5025 19.7289 18.0502C20.1516 18.6192 20.375 19.275 20.375 19.9469V25.125C20.375 25.4696 20.0946 25.75 19.75 25.75H17.25C16.9054 25.75 16.625 25.4696 16.625 25.125V19.9481ZM22.2517 30.75H13.75V26.9994H22.2517C21.8584 27.5221 21.625 28.1721 21.625 28.875C21.625 29.5779 21.8584 30.2273 22.2517 30.75ZM24.75 30.75C23.7161 30.75 22.875 29.9089 22.875 28.875C22.875 27.8394 23.7161 27 24.75 27C25.7839 27 26.625 27.8411 26.625 28.875C26.625 29.9089 25.7839 30.75 24.75 30.75ZM28.875 30.75H27.2483C27.6416 30.2273 27.875 29.5779 27.875 28.875C27.875 28.1721 27.6416 27.5227 27.2483 27H28.875C29.9089 27 30.75 27.8411 30.75 28.875C30.75 29.9089 29.9089 30.75 28.875 30.75Z" fill="#0A0A0A"/>
<path d="M3.125 22.875H5.625C5.97019 22.875 6.25 22.5952 6.25 22.25C6.25 21.9048 5.97019 21.625 5.625 21.625H3.125C2.77981 21.625 2.5 21.9048 2.5 22.25C2.5 22.5952 2.77981 22.875 3.125 22.875Z" fill="#0A0A0A"/>
<path d="M3.125 25.375H5.625C5.97019 25.375 6.25 25.0952 6.25 24.75C6.25 24.4048 5.97019 24.125 5.625 24.125H3.125C2.77981 24.125 2.5 24.4048 2.5 24.75C2.5 25.0952 2.77981 25.375 3.125 25.375Z" fill="#0A0A0A"/>
<path d="M6.875 32C7.22018 32 7.5 31.7202 7.5 31.375C7.5 31.0298 7.22018 30.75 6.875 30.75C6.52982 30.75 6.25 31.0298 6.25 31.375C6.25 31.7202 6.52982 32 6.875 32Z" fill="#0A0A0A"/>
</svg>
