<svg width="36" height="39" viewBox="0 0 36 39" fill="none" xmlns="http://www.w3.org/2000/svg">
<path d="M7.85132 22.6338C7.6288 23.0076 7.14369 23.1322 6.76985 22.9053C6.39601 22.6827 6.2714 22.1976 6.49837 21.8238C6.7209 21.45 7.206 21.3254 7.57984 21.5523C7.95369 21.7749 8.07385 22.26 7.85132 22.6338Z" fill="#0169B4"/>
<path d="M7.54829 20.6444C7.33022 21.0048 6.86291 21.125 6.50242 20.9069C6.14193 20.6889 6.02177 20.2216 6.23984 19.8611C6.45792 19.5006 6.92522 19.3804 7.28571 19.5985C7.6462 19.8166 7.76636 20.2839 7.54829 20.6444Z" fill="#0169B4"/>
<path d="M7.56233 18.6416C7.36206 18.9754 6.93481 19.0822 6.60102 18.8819C6.26724 18.6816 6.16042 18.2544 6.3607 17.9206C6.56097 17.5868 6.98822 17.48 7.322 17.6803C7.65579 17.8805 7.7626 18.3078 7.56233 18.6416Z" fill="#0169B4"/>
<path d="M7.86906 16.7145C7.67769 17.035 7.2638 17.1373 6.94781 16.946C6.63183 16.7546 6.52501 16.3451 6.71638 16.0247C6.90776 15.7087 7.3172 15.6019 7.63764 15.7933C7.95807 15.9847 8.06044 16.3941 7.86906 16.7145Z" fill="#0169B4"/>
<path d="M8.48351 14.8498C8.29659 15.1613 7.89604 15.2592 7.58896 15.0768C7.28188 14.8898 7.17951 14.4893 7.36198 14.1822C7.54445 13.8751 7.94945 13.7728 8.25653 13.9552C8.56807 14.1422 8.66598 14.5427 8.48351 14.8498Z" fill="#0169B4"/>
<path d="M9.36389 13.0828C9.19477 13.3676 8.82983 13.4566 8.545 13.2875C8.26461 13.1184 8.17115 12.7535 8.34027 12.4686C8.50939 12.1838 8.87433 12.0948 9.15916 12.2639C9.43955 12.433 9.53301 12.798 9.36389 13.0828Z" fill="#0169B4"/>
<path d="M10.4694 11.4632C10.3091 11.7302 9.96645 11.8148 9.69942 11.659C9.43239 11.4988 9.34783 11.1561 9.5036 10.8891C9.66381 10.622 10.0065 10.5375 10.2735 10.6977C10.5406 10.8579 10.6251 11.2006 10.4694 11.4676" fill="#0169B4"/>
<path d="M11.7814 10.0343C11.639 10.2746 11.3274 10.3503 11.0871 10.2079C10.8468 10.0655 10.7711 9.75394 10.9135 9.51362C11.0559 9.27329 11.3675 9.19763 11.6078 9.34005C11.8481 9.48246 11.9238 9.794 11.7814 10.0343Z" fill="#0169B4"/>
<path d="M13.3386 8.83714C13.2007 9.06856 12.9025 9.13977 12.6755 9.00626C12.4441 8.86829 12.3729 8.57456 12.5064 8.34313C12.6444 8.11616 12.9425 8.0405 13.1695 8.17846C13.3965 8.31643 13.4721 8.61016 13.3386 8.84158" fill="#0169B4"/>
<path d="M15.0654 7.89378C14.9363 8.1074 14.6604 8.17861 14.4468 8.04954C14.2332 7.92048 14.162 7.64455 14.291 7.43092C14.4201 7.2173 14.696 7.1461 14.9096 7.27516C15.1233 7.40422 15.1945 7.68016 15.0654 7.89378Z" fill="#0169B4"/>
<path d="M16.8374 7.19052C16.7173 7.39079 16.4591 7.4531 16.2633 7.33739C16.0631 7.21722 16.0007 6.95909 16.1165 6.76327C16.2366 6.563 16.4948 6.50069 16.6906 6.62086C16.8908 6.74102 16.9532 6.9947 16.8374 7.19497" fill="#0169B4"/>
<path d="M18.7682 6.79893C18.6614 6.97695 18.4255 7.03926 18.2475 6.928C18.065 6.82119 18.0072 6.58531 18.114 6.40729C18.2208 6.22927 18.4567 6.16696 18.6347 6.27822C18.8127 6.38504 18.875 6.62091 18.7637 6.79893" fill="#0169B4"/>
<path d="M20.6681 6.68313C20.5746 6.83889 20.3744 6.88785 20.2231 6.79439C20.0673 6.70093 20.0183 6.50065 20.1118 6.34488C20.2053 6.18912 20.4055 6.14016 20.5568 6.23362C20.7126 6.32708 20.7616 6.52735 20.6681 6.67867" fill="#0169B4"/>
<path d="M22.591 6.88345C22.5109 7.02141 22.3329 7.06147 22.1994 6.98136C22.0614 6.90125 22.0214 6.72323 22.1015 6.58971C22.1816 6.4562 22.3596 6.41169 22.4931 6.4918C22.6266 6.57191 22.6711 6.74548 22.591 6.88345Z" fill="#0169B4"/>
<path d="M8.33258 24.4983C8.1234 24.8455 7.6739 24.9567 7.32677 24.752C6.97963 24.5428 6.86836 24.0933 7.07309 23.7462C7.28226 23.3991 7.73176 23.2878 8.0789 23.4925C8.42604 23.6972 8.5373 24.1467 8.33258 24.4939" fill="#0169B4"/>
<path d="M9.05372 26.2298C8.8579 26.5546 8.43955 26.6615 8.11912 26.4656C7.79423 26.2698 7.69187 25.8515 7.88324 25.5266C8.07461 25.2017 8.49741 25.0993 8.81784 25.2907C9.14273 25.4821 9.24954 25.9049 9.05372 26.2253" fill="#0169B4"/>
<path d="M10.0947 27.8809C9.89892 28.2058 9.48057 28.3126 9.16013 28.1168C8.83525 27.921 8.73288 27.5026 8.92426 27.1777C9.11563 26.8528 9.53842 26.7505 9.85886 26.9418C10.1837 27.1332 10.2906 27.556 10.0947 27.8764" fill="#0169B4"/>
<path d="M11.3363 29.3275C11.1583 29.6212 10.78 29.7191 10.4863 29.5411C10.1925 29.3676 10.0946 28.9848 10.2726 28.6911C10.4462 28.3973 10.8289 28.2994 11.1227 28.4775C11.4164 28.651 11.5143 29.0338 11.3363 29.3275Z" fill="#0169B4"/>
<path d="M12.8087 30.5646C12.6395 30.845 12.2746 30.9385 11.9942 30.7694C11.7138 30.6002 11.6204 30.2397 11.7895 29.9549C11.9586 29.6745 12.3236 29.5811 12.6039 29.7502C12.8843 29.9193 12.9778 30.2843 12.8087 30.5646Z" fill="#0169B4"/>
<path d="M14.4597 31.5923C14.2995 31.8594 13.9568 31.9439 13.6942 31.7837C13.4272 31.6235 13.3426 31.2808 13.5029 31.0182C13.6631 30.7512 14.0058 30.6666 14.2683 30.8268C14.5354 30.9871 14.6199 31.3297 14.4597 31.5923Z" fill="#0169B4"/>
<path d="M16.2535 32.3668C16.1067 32.6116 15.7951 32.6872 15.5504 32.5448C15.3056 32.4024 15.2299 32.0864 15.3723 31.8416C15.5192 31.5968 15.8307 31.5212 16.0755 31.6636C16.3203 31.8105 16.4004 32.122 16.2535 32.3668Z" fill="#0169B4"/>
<path d="M18.0663 32.812C17.9283 33.039 17.6346 33.1146 17.4076 32.9766C17.1806 32.8387 17.105 32.545 17.2429 32.318C17.3809 32.091 17.6746 32.0154 17.9016 32.1533C18.1286 32.2868 18.2042 32.585 18.0663 32.812Z" fill="#0169B4"/>
<path d="M20.0015 32.9988C19.8768 33.208 19.6009 33.2792 19.3917 33.1501C19.1826 33.0255 19.1114 32.754 19.2404 32.5404C19.365 32.3312 19.641 32.26 19.8501 32.3891C20.0593 32.5137 20.1305 32.7852 20.0015 32.9988Z" fill="#0169B4"/>
<path d="M21.9864 32.9008C21.8707 33.0967 21.617 33.159 21.4212 33.0433C21.2253 32.9276 21.163 32.6739 21.2787 32.478C21.3945 32.2822 21.6481 32.2199 21.844 32.3356C22.0398 32.4513 22.1021 32.705 21.9864 32.9008Z" fill="#0169B4"/>
<path d="M23.8282 32.4829C23.7214 32.6609 23.4944 32.7187 23.3164 32.6119C23.1428 32.5051 23.085 32.2781 23.1873 32.1001C23.2941 31.9221 23.5211 31.8687 23.6991 31.971C23.8772 32.0779 23.9306 32.3048 23.8282 32.4829Z" fill="#0169B4"/>
<path d="M5.30224 22.4646C5.23994 23.0075 4.75038 23.4036 4.20742 23.3413C3.66446 23.2834 3.26836 22.7894 3.33067 22.2465C3.39298 21.7035 3.88253 21.3074 4.42549 21.3697C4.96846 21.4276 5.36455 21.9216 5.30224 22.4646Z" fill="#0169B4"/>
<path d="M5.06565 20.1324C5.0078 20.6531 4.5405 21.027 4.02424 20.9691C3.50353 20.9113 3.12969 20.444 3.18754 19.9277C3.2454 19.4115 3.7127 19.0376 4.22896 19.091C4.74967 19.1489 5.12351 19.6162 5.06565 20.1324Z" fill="#0169B4"/>
<path d="M5.94317 24.6855C5.88086 25.2329 5.39131 25.6246 4.8439 25.5667C4.29648 25.5044 3.90484 25.0148 3.9627 24.4674C4.025 23.92 4.51456 23.5284 5.06197 23.5862C5.60938 23.6441 6.00102 24.1381 5.94317 24.6811" fill="#0169B4"/>
<path d="M6.89434 26.9372C6.83203 27.4846 6.34248 27.8763 5.79507 27.8184C5.24766 27.7561 4.85601 27.2665 4.91387 26.7191C4.97618 26.1717 5.46573 25.7801 6.01314 25.8379C6.56055 25.8958 6.9522 26.3898 6.89434 26.9328" fill="#0169B4"/>
<path d="M8.04683 28.9044C7.98897 29.4162 7.53057 29.7856 7.01876 29.7277C6.50696 29.6699 6.13756 29.2115 6.19542 28.6997C6.25328 28.1879 6.71168 27.8185 7.22349 27.8763C7.73529 27.9342 8.10468 28.3926 8.04683 28.9044Z" fill="#0169B4"/>
<path d="M9.51667 30.7113C9.46326 31.2098 9.00931 31.5747 8.51085 31.5168C8.00795 31.4634 7.64746 31.0095 7.70531 30.511C7.75872 30.0126 8.21267 29.6476 8.71113 29.7055C9.20958 29.7589 9.57452 30.2128 9.51667 30.7113Z" fill="#0169B4"/>
<path d="M11.2699 32.2556C11.2165 32.7229 10.7982 33.0567 10.3353 33.0033C9.86802 32.9499 9.53424 32.5315 9.58764 32.0687C9.6366 31.6058 10.0549 31.2676 10.5222 31.321C10.9895 31.3744 11.3233 31.7883 11.2699 32.2556Z" fill="#0169B4"/>
<path d="M13.1963 33.5153C13.1473 33.9648 12.7423 34.2896 12.2928 34.2407C11.8433 34.1917 11.5184 33.7867 11.5674 33.3372C11.6163 32.8877 12.0213 32.5629 12.4708 32.6118C12.9203 32.6608 13.2452 33.0658 13.1963 33.5153Z" fill="#0169B4"/>
<path d="M15.328 34.4989C15.279 34.9306 14.8918 35.2466 14.4557 35.1976C14.024 35.1487 13.708 34.7615 13.757 34.3253C13.8059 33.8936 14.1931 33.5776 14.6293 33.6266C15.061 33.6755 15.3769 34.0627 15.328 34.4989Z" fill="#0169B4"/>
<path d="M17.5813 35.1039C17.5368 35.5134 17.1674 35.8116 16.7535 35.767C16.344 35.7225 16.0458 35.3531 16.0903 34.9392C16.1348 34.5298 16.5042 34.2316 16.9137 34.2761C17.3231 34.3206 17.6213 34.69 17.5768 35.0995" fill="#0169B4"/>
<path d="M19.8141 35.4066C19.7741 35.7849 19.4314 36.0608 19.0531 36.0163C18.6748 35.9762 18.4033 35.6335 18.4434 35.2552C18.4834 34.8769 18.8261 34.6055 19.2044 34.6455C19.5827 34.6856 19.8542 35.0283 19.8141 35.4066Z" fill="#0169B4"/>
<path d="M22.1233 35.3221C22.0877 35.6603 21.7806 35.9006 21.4468 35.865C21.1086 35.8294 20.8683 35.5268 20.9039 35.1885C20.9395 34.8503 21.2421 34.61 21.5804 34.6456C21.9186 34.6812 22.1589 34.9838 22.1233 35.3221Z" fill="#0169B4"/>
<path d="M24.4292 34.9171C24.3936 35.2331 24.1088 35.4645 23.7928 35.4289C23.4768 35.3933 23.2454 35.1085 23.281 34.7925C23.3166 34.4765 23.6014 34.2451 23.9174 34.2807C24.2334 34.3163 24.4648 34.6011 24.4292 34.9171Z" fill="#0169B4"/>
<path d="M26.6362 34.1962C26.6006 34.4989 26.3291 34.7214 26.0265 34.6858C25.7239 34.6546 25.5013 34.3787 25.5369 34.0761C25.5726 33.7734 25.844 33.5509 26.1467 33.5865C26.4493 33.6177 26.6674 33.8936 26.6362 34.1962Z" fill="#0169B4"/>
<path d="M28.6656 33.0524C28.6345 33.3284 28.3897 33.5242 28.1138 33.493C27.8378 33.4619 27.642 33.2171 27.6732 32.9412C27.7043 32.6652 27.9491 32.4694 28.225 32.5006C28.501 32.5317 28.6968 32.7765 28.6656 33.0524Z" fill="#0169B4"/>
<path d="M30.5983 31.7129C30.5716 31.9621 30.3446 32.1446 30.0954 32.1135C29.8462 32.0868 29.6637 31.8598 29.6949 31.6106C29.7216 31.3613 29.9485 31.1789 30.1978 31.21C30.447 31.2367 30.625 31.4637 30.5983 31.7129Z" fill="#0169B4"/>
<path d="M5.133 17.7737C5.0796 18.2722 4.62565 18.6327 4.12719 18.5793C3.62874 18.5259 3.26825 18.0764 3.32165 17.5735C3.37506 17.075 3.82456 16.7145 4.32746 16.7679C4.82592 16.8213 5.18641 17.2708 5.133 17.7737Z" fill="#0169B4"/>
<path d="M5.52893 15.4639C5.47553 15.949 5.03938 16.3006 4.55428 16.2472C4.06917 16.1938 3.71758 15.7576 3.77099 15.2725C3.82439 14.7874 4.26054 14.4358 4.74565 14.4892C5.23075 14.5427 5.58234 14.9788 5.52893 15.4639Z" fill="#0169B4"/>
<path d="M6.25877 13.1983C6.20982 13.6612 5.79147 13.995 5.32862 13.946C4.86577 13.8971 4.53198 13.4787 4.58094 13.0159C4.62989 12.553 5.04824 12.2192 5.51109 12.2682C5.97394 12.3216 6.30773 12.7355 6.25877 13.1983Z" fill="#0169B4"/>
<path d="M7.36663 11.0982C7.32213 11.5165 6.94383 11.8147 6.52994 11.7702C6.11159 11.7257 5.81341 11.3474 5.85791 10.9335C5.90242 10.5152 6.28071 10.217 6.69461 10.2615C7.11295 10.306 7.41114 10.6843 7.36663 11.0982Z" fill="#0169B4"/>
<path d="M8.65248 9.22871C8.60798 9.62481 8.25194 9.90964 7.85585 9.86513C7.45975 9.82063 7.17492 9.46459 7.21942 9.0685C7.26393 8.6724 7.61997 8.38757 8.01161 8.43207C8.40771 8.47658 8.69254 8.83261 8.64803 9.22426" fill="#0169B4"/>
<path d="M10.2908 7.51552C10.2508 7.88491 9.917 8.15194 9.54761 8.11188C9.17822 8.07183 8.91119 7.73804 8.95124 7.36865C8.9913 6.99926 9.32508 6.73223 9.69448 6.77229C10.0639 6.81234 10.3309 7.14613 10.2908 7.51552Z" fill="#0169B4"/>
<path d="M12.2039 6.15325C12.1638 6.50929 11.8478 6.76297 11.4918 6.72292C11.1358 6.68286 10.8821 6.36687 10.9221 6.01083C10.9622 5.65479 11.2782 5.40112 11.6342 5.44117C11.9902 5.48123 12.2439 5.79721 12.2039 6.15325Z" fill="#0169B4"/>
<path d="M14.2296 5.00069C14.194 5.32112 13.9048 5.55255 13.5843 5.51694C13.2639 5.48134 13.0325 5.19206 13.0681 4.87608C13.1037 4.55564 13.393 4.32421 13.7134 4.35982C14.0338 4.39542 14.2653 4.6847 14.2296 5.00069Z" fill="#0169B4"/>
<path d="M16.4099 4.2441C16.3788 4.53783 16.1118 4.74701 15.8225 4.71586C15.5287 4.6847 15.3196 4.42212 15.3507 4.12839C15.3819 3.83466 15.6445 3.62548 15.9382 3.65664C16.2319 3.68779 16.4411 3.95037 16.4099 4.2441Z" fill="#0169B4"/>
<path d="M18.6754 3.82587C18.6443 4.1018 18.3995 4.29762 18.1235 4.26647C17.8476 4.23531 17.6518 3.99054 17.6829 3.71461C17.7141 3.43868 17.9589 3.24285 18.2348 3.27401C18.5107 3.30516 18.7066 3.54994 18.6754 3.82587Z" fill="#0169B4"/>
<path d="M21.0332 3.75C21.0065 4.00368 20.7751 4.18615 20.5214 4.15945C20.2677 4.13274 20.0853 3.90131 20.112 3.64763C20.1387 3.39396 20.3701 3.21149 20.6193 3.23819C20.873 3.26489 21.0555 3.49187 21.0288 3.74555" fill="#0169B4"/>
<path d="M23.2761 4.01278C23.2182 4.21305 23.0091 4.32876 22.8088 4.27536C22.6085 4.2175 22.4928 4.00832 22.5462 3.80805C22.6041 3.60778 22.8132 3.49207 23.0135 3.54547C23.2138 3.60333 23.3295 3.81251 23.2761 4.01278Z" fill="#0169B4"/>
<path d="M25.5517 4.66268C25.4983 4.8496 25.3025 4.96086 25.1156 4.90746C24.9287 4.85405 24.8174 4.65823 24.8708 4.47131C24.9242 4.28439 25.12 4.17313 25.307 4.22653C25.4939 4.27994 25.6052 4.47576 25.5517 4.66268Z" fill="#0169B4"/>
<path d="M27.7045 5.59293C27.66 5.74424 27.4998 5.83325 27.3484 5.7932C27.1927 5.74869 27.1037 5.58847 27.1482 5.43715C27.1927 5.28584 27.3484 5.19683 27.5042 5.23688C27.6555 5.28139 27.7445 5.43716 27.7045 5.59293Z" fill="#0169B4"/>
<path d="M29.627 6.83902C29.5914 6.96808 29.4535 7.04374 29.3244 7.00814C29.1953 6.97253 29.1197 6.83457 29.1553 6.70551C29.1909 6.57644 29.3289 6.50078 29.4579 6.53639C29.587 6.57199 29.6626 6.70995 29.627 6.83902Z" fill="#0169B4"/>
<path d="M2.86223 17.4043C2.78212 18.1386 2.12344 18.6682 1.38911 18.5881C0.654779 18.508 0.125169 17.8449 0.205278 17.115C0.285387 16.3807 0.944061 15.8511 1.67839 15.9356C2.41273 16.0157 2.94233 16.6744 2.86223 17.4087" fill="#0169B4"/>
<path d="M3.35644 14.6761C3.28078 15.3793 2.64436 15.8867 1.94118 15.811C1.238 15.7309 0.730643 15.0989 0.806301 14.3958C0.88641 13.6926 1.51838 13.1852 2.22156 13.2609C2.92474 13.3365 3.43209 13.973 3.35644 14.6761Z" fill="#0169B4"/>
<path d="M4.33495 12.0548C4.25929 12.758 3.62287 13.2653 2.91969 13.1897C2.21652 13.1096 1.70916 12.4776 1.78482 11.7744C1.86493 11.0713 2.4969 10.5639 3.20008 10.6396C3.90325 10.7152 4.41061 11.3516 4.33495 12.0548Z" fill="#0169B4"/>
<path d="M5.54626 9.61154C5.47506 10.2569 4.89649 10.7197 4.25117 10.6485C3.6103 10.5773 3.14299 9.99873 3.2142 9.35786C3.28541 8.71699 3.86397 8.24968 4.50485 8.32089C5.14572 8.3921 5.61302 8.97067 5.54181 9.61154" fill="#0169B4"/>
<path d="M35.5377 29.7768C35.5155 29.9904 35.3241 30.1418 35.1105 30.1195C34.8969 30.0973 34.7455 29.9059 34.7678 29.6923C34.79 29.4786 34.9814 29.3273 35.195 29.3496C35.4087 29.3718 35.56 29.5632 35.5377 29.7768Z" fill="#0169B4"/>
<path d="M7.17969 7.37741C7.11293 7.99158 6.55662 8.43663 5.94245 8.36987C5.32828 8.30311 4.88323 7.7468 4.94999 7.13263C5.01675 6.51846 5.57306 6.07342 6.18723 6.14017C6.80585 6.20693 7.24645 6.76324 7.17969 7.37741Z" fill="#0169B4"/>
<path d="M9.06561 5.44573C8.99886 6.0332 8.4737 6.45599 7.88178 6.39368C7.29431 6.32692 6.87152 5.80177 6.93382 5.2143C7.00058 4.62684 7.52574 4.20404 8.11321 4.26634C8.70067 4.3331 9.12347 4.85826 9.06116 5.44573" fill="#0169B4"/>
<path d="M11.2689 3.8302C11.2066 4.38206 10.7126 4.7826 10.1563 4.72029C9.60439 4.65799 9.20385 4.16398 9.26615 3.60767C9.32846 3.05581 9.82247 2.65526 10.3788 2.71757C10.9306 2.77988 11.3312 3.27389 11.2689 3.82575" fill="#0169B4"/>
<path d="M13.669 2.54845C13.6112 3.07806 13.135 3.45636 12.6098 3.3985C12.0802 3.34064 11.7019 2.86444 11.7597 2.33928C11.8176 1.80967 12.2938 1.43138 12.8234 1.48924C13.353 1.5471 13.7313 2.0233 13.6735 2.54845" fill="#0169B4"/>
<path d="M16.2094 1.64062C16.156 2.14797 15.6976 2.50846 15.1947 2.45506C14.6873 2.3972 14.3268 1.94325 14.3802 1.44035C14.4381 0.932989 14.8921 0.568047 15.395 0.625904C15.9023 0.68376 16.2673 1.13771 16.2094 1.64062Z" fill="#0169B4"/>
<path d="M18.8984 1.15536C18.845 1.63156 18.4177 1.97425 17.946 1.92084C17.4698 1.86744 17.1315 1.44019 17.1805 0.968436C17.2339 0.492232 17.6611 0.153994 18.1329 0.202949C18.6091 0.256355 18.9473 0.683603 18.8984 1.15536Z" fill="#0169B4"/>
<path d="M21.6034 1.06653C21.5545 1.51603 21.1495 1.83647 20.7044 1.78752C20.2549 1.73856 19.9345 1.33356 19.9835 0.888514C20.0324 0.439014 20.4374 0.118581 20.8825 0.167536C21.332 0.216492 21.6524 0.621482 21.6034 1.06653Z" fill="#0169B4"/>
<path d="M24.3273 1.42722C24.2828 1.84112 23.9089 2.1393 23.495 2.0948C23.0811 2.05029 22.7785 1.67645 22.8275 1.26255C22.872 0.848654 23.2458 0.55047 23.6597 0.594975C24.0736 0.63948 24.3718 1.01333 24.3273 1.42722Z" fill="#0169B4"/>
<path d="M26.9489 2.10797C26.9088 2.48627 26.5661 2.75774 26.1879 2.71769C25.8096 2.67764 25.5381 2.33494 25.5781 1.95665C25.6182 1.57836 25.9609 1.30688 26.3392 1.34694C26.7175 1.38699 26.9889 1.72968 26.9489 2.10797Z" fill="#0169B4"/>
<path d="M29.4222 3.28279C29.3821 3.63438 29.0706 3.8836 28.719 3.848C28.3674 3.80794 28.1182 3.49641 28.1538 3.14482C28.1938 2.79324 28.5054 2.544 28.857 2.58406C29.2085 2.62411 29.4578 2.93565 29.4222 3.28724" fill="#0169B4"/>
<path d="M31.7332 4.76935C31.6976 5.09424 31.4039 5.33011 31.079 5.29451C30.7541 5.2589 30.5227 4.96518 30.5583 4.64029C30.5939 4.3154 30.8876 4.07952 31.2081 4.11513C31.533 4.15073 31.7688 4.44446 31.7332 4.76935Z" fill="#0169B4"/>
<path d="M33.7137 6.58519C33.6826 6.86558 33.4289 7.0703 33.1485 7.03915C32.8681 7.00799 32.6634 6.75431 32.6945 6.47393C32.7257 6.19355 32.9794 5.98883 33.2598 6.01998C33.5401 6.05113 33.7449 6.30481 33.7137 6.58519Z" fill="#0169B4"/>
<path d="M35.4631 8.70367C35.4364 8.9618 35.2005 9.14872 34.9424 9.12201C34.6842 9.09531 34.4973 8.85944 34.524 8.60131C34.5507 8.34318 34.7866 8.15626 35.0447 8.18296C35.3029 8.20966 35.4898 8.44554 35.4631 8.70367Z" fill="#0169B4"/>
<path d="M34.2875 31.6147C34.372 31.8595 34.243 32.1221 34.0026 32.2067C33.7623 32.2912 33.4953 32.1622 33.4107 31.9218C33.3262 31.6815 33.4552 31.4145 33.6956 31.3299C33.9359 31.2454 34.2029 31.3744 34.2875 31.6147Z" fill="#0169B4"/>
<path d="M32.3514 33.4973C32.4448 33.7643 32.3024 34.0536 32.0398 34.147C31.7728 34.2405 31.4835 34.0981 31.3901 33.8355C31.2966 33.5685 31.439 33.2792 31.7016 33.1857C31.9686 33.0923 32.2579 33.2347 32.3514 33.4973Z" fill="#0169B4"/>
<path d="M30.1359 35.0995C30.2383 35.3888 30.0825 35.7048 29.7977 35.8027C29.5084 35.905 29.1969 35.7493 29.0945 35.4644C28.9921 35.1752 29.1435 34.8636 29.4327 34.7613C29.722 34.6589 30.038 34.8147 30.1359 35.0995Z" fill="#0169B4"/>
<path d="M27.7758 36.4213C27.8915 36.7462 27.718 37.1067 27.3931 37.218C27.0682 37.3337 26.7077 37.1601 26.5965 36.8352C26.4807 36.5103 26.6543 36.1543 26.9792 36.0386C27.3041 35.9229 27.6646 36.0965 27.7758 36.4213Z" fill="#0169B4"/>
<path d="M25.1686 37.2848C25.2932 37.6409 25.1062 38.0281 24.7502 38.1527C24.3942 38.2773 24.007 38.0904 23.8824 37.7343C23.7577 37.3783 23.9447 36.9911 24.3007 36.8665C24.6567 36.7419 25.0439 36.9288 25.1686 37.2848Z" fill="#0169B4"/>
<path d="M22.529 37.703C22.6625 38.0857 22.4622 38.5041 22.0795 38.6376C21.6967 38.7711 21.2784 38.5709 21.1449 38.1881C21.0114 37.8054 21.2116 37.387 21.5944 37.2535C21.9771 37.12 22.3955 37.3203 22.529 37.703Z" fill="#0169B4"/>
<path d="M19.8107 37.7965C19.9531 38.2059 19.7395 38.651 19.3301 38.7934C18.9206 38.9358 18.4756 38.7222 18.3332 38.3128C18.1907 37.9033 18.4044 37.4582 18.8138 37.3158C19.2233 37.1734 19.6683 37.387 19.8107 37.7965Z" fill="#0169B4"/>
<path d="M17.1229 37.4494C17.2787 37.8944 17.0428 38.3751 16.6022 38.5308C16.1571 38.6866 15.6765 38.4507 15.5207 38.0101C15.3649 37.5695 15.6008 37.0844 16.0414 36.9287C16.4865 36.7729 16.9671 37.0088 17.1229 37.4494Z" fill="#0169B4"/>
<path d="M14.4746 36.6749C14.6393 37.1466 14.39 37.6629 13.9183 37.8276C13.4465 37.9922 12.9303 37.743 12.7656 37.2713C12.6009 36.7995 12.8502 36.2832 13.3219 36.123C13.7937 35.9584 14.3099 36.2076 14.4746 36.6793" fill="#0169B4"/>
<path d="M11.9858 35.4957C12.1593 35.9941 11.8968 36.5371 11.4027 36.7107C10.9043 36.8842 10.3658 36.6217 10.1922 36.1277C10.0186 35.6292 10.2812 35.0862 10.7752 34.9127C11.2692 34.7391 11.8122 35.0017 11.9902 35.4957" fill="#0169B4"/>
<path d="M9.74817 33.9781C9.93064 34.5032 9.65471 35.0774 9.12955 35.2643C8.60439 35.4468 8.03028 35.1708 7.84336 34.6457C7.66089 34.1205 7.93682 33.5464 8.46198 33.3595C8.98714 33.177 9.56125 33.4529 9.74817 33.9781Z" fill="#0169B4"/>
<path d="M7.70997 32.1133C7.90134 32.6607 7.61206 33.2615 7.06465 33.4529C6.51724 33.6443 5.91642 33.355 5.72505 32.8076C5.53368 32.2602 5.82296 31.6593 6.37037 31.468C6.91778 31.2766 7.51415 31.5659 7.70997 32.1133Z" fill="#0169B4"/>
<path d="M5.99525 29.9815C6.19997 30.5645 5.89289 31.2009 5.30987 31.4056C4.72686 31.6104 4.09044 31.3033 3.88571 30.7203C3.68099 30.1373 3.98807 29.5008 4.57109 29.2961C5.15411 29.0914 5.79053 29.3985 5.99525 29.9815Z" fill="#0169B4"/>
<path d="M4.5888 27.6405C4.80687 28.2636 4.47754 28.9445 3.85447 29.1581C3.2314 29.3762 2.55047 29.0469 2.33685 28.4238C2.11877 27.8007 2.44811 27.1198 3.07118 26.9062C3.69425 26.6881 4.37517 27.0174 4.5888 27.6405Z" fill="#0169B4"/>
<path d="M3.57031 25.0326C3.79729 25.6823 3.4546 26.39 2.80483 26.6169C2.15506 26.8439 1.44743 26.5012 1.22045 25.8559C0.993476 25.2061 1.33616 24.4985 1.98594 24.2715C2.63571 24.0445 3.34334 24.3872 3.57031 25.0326Z" fill="#0169B4"/>
<path d="M2.92004 22.2999C3.16037 22.9853 2.79988 23.7285 2.1145 23.9689C1.43358 24.2092 0.685894 23.8487 0.445567 23.1633C0.20524 22.478 0.565731 21.7347 1.25111 21.4944C1.93203 21.2541 2.67972 21.6146 2.92004 22.2999Z" fill="#0169B4"/>
<path d="M2.66223 19.5585C2.90256 20.2439 2.54207 20.9871 1.85669 21.2274C1.17577 21.4677 0.428081 21.1073 0.187755 20.4219C-0.0525724 19.7365 0.307918 18.9933 0.993295 18.7529C1.67422 18.5126 2.4219 18.8731 2.66223 19.5585Z" fill="#0169B4"/>
<path d="M14.6673 25V15.3239H16.5057V19.5175L18.7301 15.3239H20.804L18.3572 19.5175L20.8891 25H18.8348L17.2319 21.14L16.5057 22.0952V25H14.6673ZM21.576 22.0625V21.598H23.4144V22.2653C23.4144 22.7712 23.4951 23.1463 23.6565 23.3906C23.8179 23.6348 24.1079 23.757 24.5266 23.757C24.8756 23.757 25.1438 23.6217 25.3314 23.3513C25.5189 23.0765 25.6127 22.6971 25.6127 22.213V20.525H24.0687V19.053H25.6127V18.2614C25.6127 17.7118 25.5342 17.3018 25.3772 17.0314C25.2245 16.761 24.941 16.6258 24.5266 16.6258C24.1167 16.6258 23.8288 16.7654 23.6631 17.0445C23.4973 17.3193 23.4144 17.7249 23.4144 18.2614H21.576V17.8558C21.576 17.0358 21.8312 16.3815 22.3415 15.893C22.8518 15.4002 23.5802 15.1538 24.5266 15.1538C25.4993 15.1538 26.2342 15.398 26.7314 15.8865C27.233 16.375 27.4838 17.0314 27.4838 17.8558V21.984C27.4838 23.0918 27.2374 23.9096 26.7445 24.4374C26.256 24.9651 25.5254 25.229 24.5528 25.229C23.5366 25.229 22.7864 24.9804 22.3022 24.4832C21.8181 23.9816 21.576 23.1747 21.576 22.0625ZM28.7595 25V15.3239H34.857V25H33.0252V16.8024H30.5979V25H28.7595Z" fill="#0169B4"/>
</svg>
