<svg width="72" height="72" viewBox="0 0 72 72" fill="none" xmlns="http://www.w3.org/2000/svg">
<path d="M16.7969 41.2837C16.4332 41.8948 15.6403 42.0984 15.0293 41.7275C14.4183 41.3637 14.2146 40.5709 14.5856 39.9598C14.9493 39.3488 15.7422 39.1452 16.3532 39.5161C16.9642 39.8798 17.1606 40.6727 16.7969 41.2837Z" fill="white"/>
<path d="M16.3021 38.0321C15.9456 38.6213 15.1819 38.8177 14.5927 38.4613C14.0035 38.1048 13.807 37.341 14.1635 36.7518C14.5199 36.1626 15.2837 35.9662 15.8729 36.3227C16.4621 36.6791 16.6585 37.4429 16.3021 38.0321Z" fill="white"/>
<path d="M16.3238 34.7586C15.9965 35.3042 15.2982 35.4788 14.7526 35.1515C14.207 34.8241 14.0325 34.1258 14.3598 33.5802C14.6871 33.0347 15.3854 32.8601 15.931 33.1874C16.4766 33.5148 16.6511 34.2131 16.3238 34.7586Z" fill="white"/>
<path d="M16.8259 31.6089C16.5131 32.1326 15.8366 32.2999 15.3201 31.9871C14.8037 31.6744 14.6291 31.0051 14.9419 30.4814C15.2547 29.9649 15.9239 29.7904 16.4476 30.1031C16.9714 30.4159 17.1387 31.0852 16.8259 31.6089Z" fill="white"/>
<path d="M17.8296 28.5611C17.5241 29.0703 16.8694 29.2303 16.3675 28.932C15.8656 28.6265 15.6983 27.9719 15.9966 27.47C16.2948 26.968 16.9567 26.8007 17.4587 27.099C17.9678 27.4045 18.1279 28.0592 17.8296 28.5611Z" fill="white"/>
<path d="M19.27 25.6729C18.9936 26.1385 18.3971 26.2839 17.9316 26.0075C17.4733 25.7311 17.3205 25.1346 17.597 24.6691C17.8734 24.2035 18.4699 24.058 18.9354 24.3345C19.3937 24.6109 19.5464 25.2074 19.27 25.6729Z" fill="white"/>
<path d="M21.0738 23.0257C20.812 23.4622 20.2519 23.6004 19.8154 23.3458C19.379 23.0839 19.2408 22.5238 19.4953 22.0874C19.7572 21.6509 20.3173 21.5127 20.7538 21.7746C21.1902 22.0364 21.3284 22.5966 21.0738 23.033" fill="white"/>
<path d="M23.2198 20.6904C22.987 21.0832 22.4778 21.2068 22.085 20.9741C21.6922 20.7413 21.5686 20.2321 21.8013 19.8393C22.0341 19.4465 22.5433 19.3228 22.9361 19.5556C23.3289 19.7884 23.4526 20.2976 23.2198 20.6904Z" fill="white"/>
<path d="M25.7656 18.7337C25.5401 19.1119 25.0527 19.2283 24.6817 19.0101C24.3035 18.7846 24.1871 18.3045 24.4053 17.9263C24.6308 17.5553 25.1182 17.4316 25.4892 17.6571C25.8601 17.8826 25.9838 18.3627 25.7656 18.741" fill="white"/>
<path d="M28.5884 17.1918C28.3774 17.541 27.9264 17.6573 27.5772 17.4464C27.2281 17.2354 27.1117 16.7844 27.3227 16.4353C27.5336 16.0861 27.9846 15.9697 28.3338 16.1807C28.6829 16.3916 28.7993 16.8426 28.5884 17.1918Z" fill="white"/>
<path d="M31.4834 16.0423C31.287 16.3697 30.8651 16.4715 30.5451 16.2824C30.2177 16.086 30.1159 15.6641 30.305 15.344C30.5014 15.0167 30.9233 14.9148 31.2434 15.1112C31.5707 15.3076 31.6726 15.7223 31.4834 16.0496" fill="white"/>
<path d="M34.6405 15.4023C34.4659 15.6933 34.0804 15.7952 33.7894 15.6133C33.4912 15.4387 33.3966 15.0532 33.5712 14.7622C33.7458 14.4713 34.1313 14.3694 34.4223 14.5513C34.7132 14.7259 34.8151 15.1114 34.6332 15.4023" fill="white"/>
<path d="M37.7464 15.213C37.5937 15.4675 37.2663 15.5476 37.019 15.3948C36.7644 15.242 36.6844 14.9147 36.8371 14.6601C36.9899 14.4055 37.3172 14.3255 37.5646 14.4783C37.8192 14.631 37.8992 14.9584 37.7464 15.2057" fill="white"/>
<path d="M40.889 15.5404C40.7581 15.7659 40.4671 15.8314 40.2489 15.7005C40.0234 15.5695 39.9579 15.2785 40.0889 15.0603C40.2198 14.8421 40.5108 14.7694 40.729 14.9003C40.9472 15.0312 41.0199 15.3149 40.889 15.5404Z" fill="white"/>
<path d="M17.5824 44.3312C17.2405 44.8986 16.5058 45.0804 15.9384 44.7458C15.371 44.4039 15.1892 43.6693 15.5238 43.1019C15.8657 42.5345 16.6004 42.3526 17.1677 42.6872C17.7351 43.0218 17.917 43.7565 17.5824 44.3239" fill="white"/>
<path d="M18.7607 47.1611C18.4406 47.6921 17.7568 47.8667 17.2331 47.5466C16.7021 47.2265 16.5348 46.5428 16.8476 46.0118C17.1603 45.4808 17.8514 45.3135 18.3751 45.6262C18.9061 45.939 19.0807 46.6301 18.7607 47.1538" fill="white"/>
<path d="M20.4628 49.8598C20.1427 50.3908 19.459 50.5654 18.9352 50.2454C18.4042 49.9253 18.2369 49.2415 18.5497 48.7105C18.8625 48.1795 19.5535 48.0122 20.0773 48.325C20.6083 48.6378 20.7829 49.3288 20.4628 49.8525" fill="white"/>
<path d="M22.4924 52.2243C22.2015 52.7044 21.5832 52.8645 21.1031 52.5735C20.623 52.2898 20.463 51.6642 20.7539 51.1841C21.0376 50.704 21.6632 50.544 22.1433 50.835C22.6234 51.1187 22.7834 51.7443 22.4924 52.2243Z" fill="white"/>
<path d="M24.9004 54.2462C24.624 54.7045 24.0275 54.8573 23.5693 54.5809C23.111 54.3044 22.9582 53.7152 23.2347 53.2497C23.5111 52.7914 24.1075 52.6386 24.5658 52.9151C25.0241 53.1915 25.1768 53.788 24.9004 54.2462Z" fill="white"/>
<path d="M27.5987 55.926C27.3368 56.3625 26.7767 56.5007 26.3475 56.2388C25.911 55.9769 25.7728 55.4168 26.0347 54.9876C26.2966 54.5512 26.8567 54.413 27.2859 54.6748C27.7223 54.9367 27.8605 55.4968 27.5987 55.926Z" fill="white"/>
<path d="M30.5304 57.1918C30.2903 57.5919 29.7811 57.7155 29.3811 57.4828C28.981 57.25 28.8573 56.7335 29.0901 56.3335C29.3302 55.9334 29.8393 55.8097 30.2394 56.0425C30.6395 56.2825 30.7704 56.7917 30.5304 57.1918Z" fill="white"/>
<path d="M33.4909 57.9195C33.2654 58.2904 32.7853 58.4141 32.4143 58.1886C32.0433 57.9631 31.9197 57.483 32.1451 57.112C32.3706 56.7411 32.8507 56.6174 33.2217 56.8429C33.5927 57.0611 33.7164 57.5485 33.4909 57.9195Z" fill="white"/>
<path d="M36.6552 58.2249C36.4515 58.5668 36.0005 58.6832 35.6586 58.4722C35.3168 58.2685 35.2004 57.8248 35.4113 57.4757C35.615 57.1338 36.066 57.0174 36.4079 57.2283C36.7498 57.432 36.8661 57.8757 36.6552 58.2249Z" fill="white"/>
<path d="M39.8994 58.0647C39.7103 58.3848 39.2956 58.4866 38.9756 58.2975C38.6555 58.1084 38.5537 57.6937 38.7428 57.3737C38.9319 57.0536 39.3466 56.9518 39.6666 57.1409C39.9867 57.33 40.0885 57.7447 39.8994 58.0647Z" fill="white"/>
<path d="M42.911 57.3816C42.7364 57.6725 42.3654 57.7671 42.0744 57.5925C41.7907 57.418 41.6962 57.047 41.8635 56.756C42.0381 56.465 42.409 56.3778 42.7 56.5451C42.991 56.7196 43.0783 57.0906 42.911 57.3816Z" fill="white"/>
<path d="M12.6285 41.0071C12.5267 41.8946 11.7265 42.542 10.8391 42.4401C9.95162 42.3456 9.30422 41.5382 9.40605 40.6507C9.50789 39.7633 10.308 39.1159 11.1955 39.2177C12.0829 39.3123 12.7303 40.1197 12.6285 41.0071Z" fill="white"/>
<path d="M12.2434 37.1953C12.1488 38.0464 11.3851 38.6574 10.5413 38.5629C9.69018 38.4683 9.07915 37.7045 9.17371 36.8607C9.26828 36.0169 10.0321 35.4059 10.8759 35.4932C11.7269 35.5877 12.338 36.3515 12.2434 37.1953Z" fill="white"/>
<path d="M13.6764 44.6371C13.5746 45.5319 12.7744 46.172 11.8797 46.0774C10.985 45.9756 10.3449 45.1754 10.4394 44.2807C10.5413 43.386 11.3414 42.7459 12.2361 42.8404C13.1309 42.935 13.771 43.7424 13.6764 44.6299" fill="white"/>
<path d="M15.2326 48.3175C15.1307 49.2122 14.3306 49.8523 13.4359 49.7577C12.5412 49.6559 11.901 48.8557 11.9956 47.961C12.0974 47.0663 12.8976 46.4262 13.7923 46.5207C14.687 46.6153 15.3271 47.4227 15.2326 48.3102" fill="white"/>
<path d="M17.1169 51.5327C17.0223 52.3693 16.2731 52.973 15.4365 52.8785C14.6 52.7839 13.9962 52.0347 14.0908 51.1981C14.1854 50.3616 14.9346 49.7578 15.7711 49.8524C16.6077 49.947 17.2114 50.6962 17.1169 51.5327Z" fill="white"/>
<path d="M19.5174 54.4861C19.4301 55.3008 18.6882 55.8973 17.8735 55.8027C17.0515 55.7154 16.4623 54.9735 16.5568 54.1588C16.6441 53.3441 17.3861 52.7476 18.2008 52.8421C19.0155 52.9294 19.612 53.6714 19.5174 54.4861Z" fill="white"/>
<path d="M22.3833 57.01C22.296 57.7738 21.6122 58.3194 20.8557 58.2321C20.092 58.1448 19.5464 57.461 19.6337 56.7045C19.7137 55.948 20.3975 55.3952 21.1613 55.4825C21.925 55.5697 22.4706 56.2462 22.3833 57.01Z" fill="white"/>
<path d="M25.5331 59.069C25.4531 59.8037 24.7911 60.3347 24.0565 60.2546C23.3218 60.1746 22.7908 59.5127 22.8708 58.778C22.9508 58.0433 23.6127 57.5123 24.3474 57.5923C25.0821 57.6723 25.6131 58.3343 25.5331 59.069Z" fill="white"/>
<path d="M29.0174 60.6767C28.9373 61.3823 28.3045 61.8988 27.5916 61.8187C26.886 61.7387 26.3696 61.1059 26.4496 60.393C26.5296 59.6874 27.1624 59.171 27.8753 59.251C28.5809 59.331 29.0974 59.9638 29.0174 60.6767Z" fill="white"/>
<path d="M32.6979 61.6656C32.6252 62.3348 32.0214 62.8222 31.3449 62.7495C30.6757 62.6767 30.1884 62.0729 30.2611 61.3965C30.3338 60.7272 30.9376 60.2399 31.6068 60.3126C32.276 60.3854 32.7634 60.9891 32.6907 61.6583" fill="white"/>
<path d="M36.3499 62.1602C36.2844 62.7785 35.7243 63.2295 35.106 63.1568C34.4877 63.0913 34.044 62.5312 34.1094 61.9129C34.1749 61.2946 34.735 60.8508 35.3533 60.9163C35.9716 60.9818 36.4153 61.5419 36.3499 62.1602Z" fill="white"/>
<path d="M40.1248 62.0222C40.0666 62.575 39.5647 62.9678 39.0191 62.9096C38.4663 62.8514 38.0735 62.3568 38.1317 61.8039C38.1899 61.2511 38.6845 60.8583 39.2374 60.9165C39.7902 60.9747 40.183 61.4693 40.1248 62.0222Z" fill="white"/>
<path d="M43.8929 61.3603C43.8347 61.8768 43.3692 62.255 42.8527 62.1968C42.3362 62.1386 41.958 61.6731 42.0162 61.1566C42.0744 60.6402 42.5399 60.2619 43.0564 60.3201C43.5728 60.3783 43.9511 60.8439 43.8929 61.3603Z" fill="white"/>
<path d="M47.5011 60.182C47.4429 60.6767 46.9992 61.0403 46.5045 60.9822C46.0099 60.9312 45.6462 60.4802 45.7044 59.9856C45.7626 59.491 46.2063 59.1272 46.7009 59.1854C47.1956 59.2364 47.552 59.6874 47.5011 60.182Z" fill="white"/>
<path d="M50.8179 58.3126C50.767 58.7636 50.3669 59.0836 49.9159 59.0327C49.4649 58.9818 49.1448 58.5817 49.1958 58.1307C49.2467 57.6797 49.6467 57.3597 50.0977 57.4106C50.5487 57.4615 50.8688 57.8616 50.8179 58.3126Z" fill="white"/>
<path d="M53.975 56.1232C53.9313 56.5305 53.5604 56.8288 53.153 56.7778C52.7457 56.7342 52.4474 56.3632 52.4983 55.9559C52.542 55.5485 52.913 55.2503 53.3203 55.3012C53.7277 55.3448 54.0186 55.7158 53.975 56.1232Z" fill="white"/>
<path d="M12.3525 33.3401C12.2652 34.1548 11.5232 34.7441 10.7085 34.6568C9.89379 34.5695 9.30458 33.8348 9.39187 33.0128C9.47916 32.1981 10.2139 31.6089 11.0358 31.6962C11.8505 31.7835 12.4397 32.5182 12.3525 33.3401Z" fill="white"/>
<path d="M12.9997 29.5648C12.9124 30.3577 12.1996 30.9323 11.4067 30.8451C10.6138 30.7578 10.0392 30.0449 10.1264 29.252C10.2137 28.4591 10.9266 27.8845 11.7195 27.9718C12.5124 28.0591 13.087 28.7719 12.9997 29.5648Z" fill="white"/>
<path d="M14.1925 25.8618C14.1125 26.6183 13.4287 27.1639 12.6722 27.0839C11.9157 27.0039 11.3702 26.3201 11.4502 25.5636C11.5302 24.8071 12.214 24.2615 12.9705 24.3415C13.727 24.4288 14.2725 25.1053 14.1925 25.8618Z" fill="white"/>
<path d="M16.0039 22.4292C15.9311 23.1129 15.3128 23.6003 14.6363 23.5276C13.9526 23.4548 13.4652 22.8365 13.5379 22.16C13.6107 21.4763 14.229 20.9889 14.9055 21.0616C15.5893 21.1344 16.0766 21.7527 16.0039 22.4292Z" fill="white"/>
<path d="M18.1061 19.3737C18.0334 20.0211 17.4514 20.4866 16.804 20.4138C16.1566 20.3411 15.6911 19.7592 15.7638 19.1118C15.8366 18.4644 16.4185 17.9988 17.0586 18.0716C17.706 18.1443 18.1716 18.7262 18.0988 19.3664" fill="white"/>
<path d="M20.7829 16.5736C20.7175 17.1773 20.1719 17.6138 19.5681 17.5483C18.9644 17.4828 18.5279 16.9373 18.5934 16.3335C18.6589 15.7298 19.2044 15.2933 19.8082 15.3588C20.412 15.4243 20.8484 15.9698 20.7829 16.5736Z" fill="white"/>
<path d="M23.9108 14.3471C23.8454 14.929 23.3289 15.3436 22.747 15.2781C22.165 15.2127 21.7504 14.6962 21.8159 14.1143C21.8813 13.5323 22.3978 13.1177 22.9797 13.1832C23.5617 13.2487 23.9763 13.7651 23.9108 14.3471Z" fill="white"/>
<path d="M27.2209 12.4632C27.1627 12.9869 26.6899 13.3652 26.1661 13.307C25.6424 13.2488 25.2641 12.776 25.3223 12.2595C25.3805 11.7358 25.8533 11.3575 26.3771 11.4157C26.9008 11.4739 27.2791 11.9467 27.2209 12.4632Z" fill="white"/>
<path d="M30.7851 11.2266C30.7342 11.7066 30.2977 12.0485 29.8249 11.9976C29.3448 11.9467 29.0029 11.5175 29.0539 11.0374C29.1048 10.5573 29.5339 10.2155 30.014 10.2664C30.4941 10.3173 30.836 10.7465 30.7851 11.2266Z" fill="white"/>
<path d="M34.4873 10.5429C34.4364 10.9939 34.0363 11.314 33.5853 11.2631C33.1343 11.2122 32.8143 10.8121 32.8652 10.3611C32.9161 9.91009 33.3162 9.59002 33.7672 9.64094C34.2182 9.69186 34.5382 10.0919 34.4873 10.5429Z" fill="white"/>
<path d="M38.343 10.419C38.2993 10.8336 37.9211 11.1319 37.5065 11.0882C37.0918 11.0446 36.7936 10.6663 36.8372 10.2517C36.8809 9.83708 37.2591 9.53884 37.6665 9.58249C38.0811 9.62613 38.3794 9.99711 38.3357 10.4117" fill="white"/>
<path d="M42.0086 10.8485C41.9141 11.1759 41.5722 11.365 41.2449 11.2777C40.9175 11.1831 40.7284 10.8412 40.8157 10.5139C40.9103 10.1866 41.2521 9.99744 41.5795 10.0847C41.9068 10.1793 42.0959 10.5212 42.0086 10.8485Z" fill="white"/>
<path d="M45.7261 11.9107C45.6389 12.2162 45.3188 12.398 45.0133 12.3107C44.7078 12.2235 44.5259 11.9034 44.6132 11.5979C44.7005 11.2924 45.0206 11.1105 45.3261 11.1978C45.6316 11.2851 45.8134 11.6051 45.7261 11.9107Z" fill="white"/>
<path d="M49.2468 13.4311C49.1741 13.6784 48.9122 13.8239 48.6649 13.7584C48.4103 13.6857 48.2648 13.4238 48.3376 13.1765C48.4103 12.9292 48.6649 12.7837 48.9195 12.8492C49.1668 12.9219 49.3123 13.1765 49.2468 13.4311Z" fill="white"/>
<path d="M52.3894 15.4678C52.3312 15.6787 52.1057 15.8024 51.8948 15.7442C51.6838 15.686 51.5602 15.4605 51.6184 15.2495C51.6766 15.0386 51.9021 14.9149 52.113 14.9731C52.324 15.0313 52.4476 15.2568 52.3894 15.4678Z" fill="white"/>
<path d="M8.64238 32.7362C8.51145 33.9365 7.43487 34.8021 6.23464 34.6712C5.03441 34.5402 4.16878 33.4564 4.29972 32.2634C4.43065 31.0632 5.50723 30.1976 6.70746 30.3358C7.90769 30.4667 8.77332 31.5433 8.64238 32.7435" fill="white"/>
<path d="M9.44983 28.2773C9.32617 29.4266 8.28597 30.2559 7.13665 30.1322C5.98734 30.0013 5.15809 28.9683 5.28175 27.819C5.41268 26.6697 6.44561 25.8405 7.59492 25.9641C8.74424 26.0878 9.57349 27.128 9.44983 28.2773Z" fill="white"/>
<path d="M11.0499 23.9927C10.9263 25.1421 9.88607 25.9713 8.73675 25.8477C7.58744 25.7167 6.75818 24.6838 6.88184 23.5345C7.01278 22.3852 8.04571 21.5559 9.19502 21.6796C10.3443 21.8032 11.1736 22.8434 11.0499 23.9927Z" fill="white"/>
<path d="M13.0289 19.9994C12.9126 21.0542 11.9669 21.8107 10.9122 21.6943C9.86469 21.5779 9.1009 20.6322 9.21729 19.5848C9.33367 18.5373 10.2793 17.7735 11.3268 17.8899C12.3743 18.0063 13.1381 18.9519 13.0217 19.9994" fill="white"/>
<path d="M62.0496 52.9587C62.0132 53.3079 61.7004 53.5552 61.3513 53.5188C61.0021 53.4824 60.7548 53.1696 60.7911 52.8205C60.8275 52.4713 61.1403 52.224 61.4895 52.2604C61.8386 52.2968 62.0859 52.6095 62.0496 52.9587Z" fill="white"/>
<path d="M15.6986 16.3479C15.5895 17.3517 14.6803 18.0791 13.6764 17.97C12.6726 17.8609 11.9452 16.9516 12.0543 15.9478C12.1634 14.944 13.0727 14.2165 14.0765 14.3257C15.0876 14.4348 15.8078 15.344 15.6986 16.3479Z" fill="white"/>
<path d="M18.7828 13.1905C18.6737 14.1507 17.8154 14.8418 16.8479 14.7399C15.8877 14.6308 15.1967 13.7725 15.2985 12.8123C15.4076 11.8521 16.266 11.161 17.2262 11.2629C18.1864 11.372 18.8774 12.2304 18.7756 13.1905" fill="white"/>
<path d="M22.3834 10.55C22.2816 11.452 21.4741 12.1067 20.5649 12.0049C19.6629 11.903 19.0082 11.0956 19.1101 10.1863C19.2119 9.28435 20.0193 8.62967 20.9286 8.73151C21.8306 8.83335 22.4853 9.64078 22.3834 10.5428" fill="white"/>
<path d="M26.304 8.45502C26.2094 9.32064 25.4311 9.93895 24.5727 9.84439C23.7071 9.74982 23.0888 8.97148 23.1834 8.11314C23.2779 7.24751 24.0563 6.62922 24.9219 6.72378C25.7875 6.81835 26.4058 7.59667 26.3113 8.45502" fill="white"/>
<path d="M30.4577 6.97122C30.3704 7.80047 29.6212 8.38968 28.7992 8.30239C27.97 8.20782 27.3808 7.46586 27.468 6.64388C27.5626 5.81463 28.3046 5.21815 29.1265 5.31271C29.9558 5.40728 30.5523 6.14924 30.4577 6.97122Z" fill="white"/>
<path d="M34.8512 6.17813C34.7639 6.95646 34.0656 7.51657 33.2945 7.42928C32.5162 7.34199 31.9633 6.64368 32.0433 5.87262C32.1306 5.09428 32.8289 4.54145 33.6 4.62146C34.3783 4.70875 34.9312 5.40707 34.8512 6.17813Z" fill="white"/>
<path d="M39.274 6.03286C39.194 6.76755 38.5321 7.2913 37.8046 7.21128C37.07 7.13126 36.5462 6.46931 36.6262 5.7419C36.7063 5.00721 37.3682 4.48348 38.0956 4.56349C38.8303 4.64351 39.354 5.30545 39.274 6.03286Z" fill="white"/>
<path d="M43.7255 6.62247C43.6528 7.29896 43.0417 7.78633 42.3652 7.71359C41.6887 7.64085 41.1941 7.02981 41.2741 6.35332C41.3469 5.67682 41.9579 5.18945 42.6344 5.2622C43.3109 5.33494 43.7982 5.94597 43.7255 6.62247Z" fill="white"/>
<path d="M48.01 7.73515C47.9446 8.35345 47.3844 8.79717 46.7661 8.73171C46.1478 8.66624 45.7041 8.10612 45.7696 7.48782C45.8351 6.86952 46.3952 6.4258 47.0135 6.49127C47.6318 6.55674 48.0755 7.11685 48.01 7.73515Z" fill="white"/>
<path d="M52.0547 9.6553C51.9893 10.23 51.4801 10.6373 50.9054 10.5791C50.3308 10.5136 49.9234 10.0045 49.9816 9.4298C50.0471 8.85514 50.5563 8.44778 51.1309 8.51325C51.7056 8.57872 52.1129 9.08791 52.0547 9.66257" fill="white"/>
<path d="M55.8296 12.085C55.7714 12.616 55.2913 13.0015 54.7603 12.9433C54.2293 12.8851 53.851 12.4051 53.9092 11.8741C53.9674 11.343 54.4475 10.9575 54.9713 11.0157C55.5023 11.0739 55.8878 11.554 55.8296 12.085Z" fill="white"/>
<path d="M59.0669 15.0528C59.016 15.5111 58.6013 15.8457 58.1431 15.7948C57.6848 15.7439 57.3502 15.3293 57.4011 14.871C57.452 14.4127 57.8667 14.0781 58.3249 14.129C58.7832 14.1799 59.1178 14.5946 59.0669 15.0528Z" fill="white"/>
<path d="M61.9257 18.5155C61.8821 18.9374 61.4965 19.2429 61.0746 19.1993C60.6527 19.1556 60.3472 18.7701 60.3909 18.3482C60.4345 17.9263 60.82 17.6208 61.2419 17.6644C61.6638 17.7081 61.9694 18.0936 61.9257 18.5155Z" fill="white"/>
<path d="M60.0052 55.9627C60.1434 56.3628 59.9325 56.7919 59.5397 56.9302C59.1469 57.0684 58.7104 56.8574 58.5722 56.4646C58.434 56.0718 58.645 55.6354 59.0378 55.4971C59.4306 55.3589 59.867 55.5699 60.0052 55.9627Z" fill="white"/>
<path d="M56.8409 59.0396C56.9936 59.476 56.7608 59.9488 56.3317 60.1016C55.8952 60.2544 55.4224 60.0216 55.2696 59.5924C55.1169 59.156 55.3497 58.6831 55.7788 58.5304C56.2153 58.3776 56.6881 58.6104 56.8409 59.0396Z" fill="white"/>
<path d="M53.2183 61.6583C53.3856 62.1312 53.131 62.6476 52.6655 62.8076C52.1927 62.9749 51.6835 62.7203 51.5162 62.2548C51.3489 61.782 51.5962 61.2728 52.069 61.1055C52.5418 60.9382 53.0583 61.1928 53.2183 61.6583Z" fill="white"/>
<path d="M49.3633 63.8188C49.5524 64.3498 49.2687 64.939 48.7377 65.1208C48.2067 65.31 47.6175 65.0263 47.4356 64.4953C47.2465 63.9643 47.5302 63.3823 48.0612 63.1932C48.5922 63.0041 49.1814 63.2878 49.3633 63.8188Z" fill="white"/>
<path d="M45.1004 65.2302C45.3041 65.8121 44.9986 66.4449 44.4166 66.6486C43.8347 66.8523 43.2018 66.5468 42.9982 65.9648C42.7945 65.3829 43.1 64.7501 43.6819 64.5464C44.2639 64.3427 44.8967 64.6482 45.1004 65.2302Z" fill="white"/>
<path d="M40.7869 65.9136C41.0051 66.5392 40.6778 67.2229 40.0522 67.4412C39.4266 67.6594 38.7428 67.3321 38.5246 66.7065C38.3064 66.0809 38.6337 65.3971 39.2593 65.1789C39.8849 64.9607 40.5687 65.288 40.7869 65.9136Z" fill="white"/>
<path d="M36.3426 66.0664C36.5753 66.7357 36.2262 67.4631 35.557 67.6958C34.8877 67.9286 34.1603 67.5795 33.9276 66.9102C33.6948 66.241 34.0439 65.5136 34.7132 65.2808C35.3824 65.048 36.1098 65.3972 36.3426 66.0664Z" fill="white"/>
<path d="M31.9487 65.4992C32.2033 66.2266 31.8178 67.0122 31.0976 67.2668C30.3702 67.5214 29.5846 67.1359 29.33 66.4157C29.0754 65.6956 29.4609 64.9027 30.1811 64.6481C30.9085 64.3935 31.6941 64.7791 31.9487 65.4992Z" fill="white"/>
<path d="M27.6204 64.2332C27.8895 65.0043 27.4822 65.8481 26.7111 66.1173C25.94 66.3864 25.0962 65.9791 24.8271 65.208C24.558 64.4369 24.9653 63.5931 25.7364 63.3312C26.5074 63.0621 27.3512 63.4695 27.6204 64.2405" fill="white"/>
<path d="M23.5546 62.3059C23.8383 63.1206 23.4092 64.0081 22.6017 64.2918C21.787 64.5755 20.9068 64.1463 20.6232 63.3389C20.3395 62.5242 20.7686 61.6367 21.5761 61.353C22.3835 61.0693 23.2709 61.4985 23.5619 62.3059" fill="white"/>
<path d="M19.8957 59.8254C20.1939 60.6838 19.7429 61.6222 18.8846 61.9277C18.0262 62.2259 17.0879 61.7749 16.7824 60.9166C16.4841 60.0582 16.9351 59.1199 17.7935 58.8143C18.6518 58.5161 19.5902 58.9671 19.8957 59.8254Z" fill="white"/>
<path d="M16.5639 56.7775C16.8767 57.6722 16.4039 58.6542 15.5092 58.967C14.6144 59.2798 13.6324 58.8069 13.3196 57.9122C13.0068 57.0175 13.4797 56.0355 14.3744 55.7227C15.2691 55.4099 16.2438 55.8827 16.5639 56.7775Z" fill="white"/>
<path d="M13.7636 53.2931C14.0982 54.2461 13.5963 55.2862 12.6433 55.6209C11.6904 55.9555 10.6502 55.4536 10.3156 54.5007C9.98101 53.5477 10.4829 52.5075 11.4358 52.1729C12.3887 51.8383 13.429 52.3402 13.7636 53.2931Z" fill="white"/>
<path d="M11.4651 49.467C11.8215 50.4854 11.2832 51.5983 10.2648 51.9475C9.24644 52.3039 8.1335 51.7656 7.78434 50.7472C7.42791 49.7289 7.96619 48.6159 8.98457 48.2668C10.003 47.9103 11.1159 48.4486 11.4651 49.467Z" fill="white"/>
<path d="M9.79901 45.2044C10.17 46.2664 9.60988 47.423 8.54786 47.794C7.48583 48.165 6.32924 47.6049 5.95826 46.5501C5.58728 45.4881 6.14739 44.3315 7.20941 43.9605C8.27144 43.5895 9.42803 44.1497 9.79901 45.2044Z" fill="white"/>
<path d="M8.73695 40.738C9.12975 41.8582 8.54055 43.073 7.42033 43.4658C6.30738 43.8586 5.08533 43.2694 4.69252 42.1492C4.29972 41.029 4.88893 39.8142 6.00914 39.4214C7.12209 39.0286 8.34415 39.6178 8.73695 40.738Z" fill="white"/>
<path d="M8.31507 36.2573C8.70788 37.3775 8.11867 38.5923 6.99845 38.9851C5.88551 39.3779 4.66345 38.7887 4.27065 37.6685C3.87785 36.5483 4.46705 35.3335 5.58727 34.9407C6.70021 34.5479 7.92227 35.1371 8.31507 36.2573Z" fill="white"/>
<path d="M27.9365 45.1512V29.336H30.9413V36.1903L34.577 29.336H37.9667L33.9675 36.1903L38.1057 45.1512H34.7481L32.1283 38.8423L30.9413 40.4035V45.1512H27.9365Z" fill="white"/>
<path d="M39.2285 40.35V39.5908H42.2333V40.6815C42.2333 41.5084 42.3652 42.1215 42.629 42.5207C42.8927 42.9199 43.3668 43.1195 44.0512 43.1195C44.6215 43.1195 45.0599 42.8985 45.3664 42.4566C45.673 42.0074 45.8262 41.3872 45.8262 40.5959V37.8371H43.3026V35.4311H45.8262V34.1372C45.8262 33.239 45.6979 32.5689 45.4413 32.1269C45.1918 31.6849 44.7284 31.464 44.0512 31.464C43.3811 31.464 42.9106 31.6921 42.6397 32.1483C42.3688 32.5974 42.2333 33.2604 42.2333 34.1372H39.2285V33.4743C39.2285 32.1341 39.6456 31.0647 40.4796 30.2663C41.3137 29.4608 42.5042 29.058 44.0512 29.058C45.6409 29.058 46.8421 29.4572 47.6548 30.2556C48.4746 31.054 48.8845 32.1269 48.8845 33.4743V40.2217C48.8845 42.0324 48.4817 43.369 47.6762 44.2316C46.8777 45.0942 45.6837 45.5255 44.0939 45.5255C42.4329 45.5255 41.2068 45.1192 40.4155 44.3065C39.6242 43.4867 39.2285 42.1678 39.2285 40.35Z" fill="white"/>
<path d="M50.9697 45.1512V29.336H60.9357V45.1512H57.9416V31.7527H53.9744V45.1512H50.9697Z" fill="white"/>
</svg>
