<svg width="161" height="39" viewBox="0 0 161 39" fill="none" xmlns="http://www.w3.org/2000/svg">
<path d="M17.7297 24.6942C17.0087 24.6942 16.439 24.5785 16.0118 24.3426C15.5845 24.1067 15.2596 23.7729 15.0327 23.3457C14.8057 22.914 14.6588 22.4022 14.5921 21.8014C14.5253 21.2005 14.4941 20.533 14.4941 19.7986C14.4941 19.0643 14.5297 18.4145 14.5921 17.8093C14.6544 17.204 14.8057 16.6788 15.0327 16.2471C15.2596 15.811 15.5845 15.4727 16.0118 15.228C16.439 14.9832 17.0087 14.863 17.7297 14.863C18.4506 14.863 18.9535 14.9743 19.3452 15.1968C19.7413 15.4193 20.035 15.6997 20.2308 16.0424C20.4267 16.3851 20.5468 16.7545 20.5958 17.1461C20.6447 17.5422 20.667 17.9116 20.667 18.2588H18.7488C18.7488 17.5689 18.6687 17.066 18.504 16.75C18.3394 16.4341 18.0412 16.2783 17.605 16.2783C17.3647 16.2783 17.1689 16.345 17.0131 16.4697C16.8574 16.5987 16.7372 16.8079 16.6482 17.0972C16.5592 17.3865 16.4969 17.7648 16.4613 18.2276C16.4257 18.6949 16.4079 19.2646 16.4079 19.9366C16.4079 20.6531 16.4301 21.2361 16.4791 21.6812C16.528 22.1262 16.6037 22.4689 16.706 22.7137C16.8084 22.9585 16.9375 23.1232 17.0932 23.2077C17.249 23.2923 17.427 23.3323 17.6317 23.3323C17.8009 23.3323 17.9566 23.3056 18.1035 23.2433C18.2504 23.1855 18.375 23.0697 18.4818 22.8962C18.5886 22.7226 18.6732 22.4778 18.7355 22.1663C18.7978 21.8503 18.8289 21.4364 18.8289 20.9202H20.7471C20.7471 21.4453 20.707 21.9349 20.6269 22.3888C20.5468 22.8472 20.3955 23.2433 20.1819 23.586C19.9638 23.9287 19.6567 24.2002 19.2651 24.396C18.869 24.5963 18.3572 24.6942 17.7297 24.6942Z" fill="#931004"/>
<path d="M23.3817 15.0457H25.7494L28.2639 24.5475H26.2656L25.825 22.5358H23.2971L22.8566 24.5475H20.8583L23.3728 15.0457H23.3817ZM25.4957 20.9693L24.5789 16.6968H24.5522L23.6354 20.9693H25.5001H25.4957Z" fill="#931004"/>
<path d="M28.798 15.0457H30.7117V18.6772H32.9503V15.0457H34.864V24.5475H32.9503V20.3284H30.7117V24.5475H28.798V15.0457Z" fill="#931004"/>
<path d="M35.9456 15.0457H37.7792V21.1428L40.1112 15.0457H42.1718V24.5475H40.3337V18.4681L38.0061 24.5475H35.9456V15.0457Z" fill="#931004"/>
<path d="M44.8464 16.6167H42.7725V15.0457H48.8385V16.6167H46.7601V24.5475H44.8464V16.6167Z" fill="#931004"/>
<path d="M50.6144 15.0457H52.982L55.4966 24.5475H53.4983L53.0577 22.5358H50.5298L50.0892 24.5475H48.0909L50.6055 15.0457H50.6144ZM52.7284 20.9693L51.8116 16.6968H51.7849L50.8681 20.9693H52.7328H52.7284Z" fill="#931004"/>
<path d="M56.0305 15.0457H59.3862C59.8757 15.0457 60.2852 15.1258 60.619 15.2904C60.9528 15.4551 61.2198 15.6687 61.4245 15.9358C61.6292 16.2028 61.7761 16.5054 61.8651 16.8481C61.9541 17.1908 61.9986 17.5379 61.9986 17.894C61.9986 18.3924 61.9274 18.8197 61.7806 19.1802C61.6337 19.5406 61.429 19.8344 61.1664 20.0658C60.9038 20.2972 60.5878 20.4708 60.214 20.5821C59.8401 20.6978 59.4307 20.7556 58.9767 20.7556H57.9531V24.5475H56.035V15.0457H56.0305ZM58.7987 19.3448C59.1815 19.3448 59.4886 19.2291 59.7244 18.9977C59.9603 18.7663 60.076 18.4058 60.076 17.9207C60.076 17.4356 59.9737 17.0795 59.7689 16.8303C59.5642 16.5811 59.2215 16.4565 58.7453 16.4565H57.9487V19.3448H58.7987Z" fill="#931004"/>
<path d="M62.6619 15.0457H64.58V18.6772H66.8142V15.0457H68.7323V24.5475H66.8142V20.3284H64.58V24.5475H62.6619V15.0457Z" fill="#931004"/>
<path d="M69.8137 15.0457H71.7319V18.6417H72.7421C73.2317 18.6417 73.6634 18.6951 74.0417 18.793C74.42 18.8953 74.736 19.06 74.9941 19.2914C75.2522 19.5228 75.4481 19.8255 75.586 20.1949C75.724 20.5687 75.7907 21.0182 75.7907 21.5523C75.7907 22.0863 75.7195 22.5536 75.586 22.9364C75.4481 23.3191 75.2478 23.6262 74.9852 23.8665C74.7226 24.1069 74.4066 24.2804 74.0283 24.3872C73.6501 24.4941 73.2228 24.5475 72.7421 24.5475H69.8137V15.0457ZM72.2615 23.0966C72.8401 23.0966 73.2451 22.9898 73.4809 22.7717C73.7168 22.5536 73.8325 22.1531 73.8325 21.5656C73.8325 21.2719 73.8014 21.0316 73.7346 20.8402C73.6679 20.6488 73.5744 20.4975 73.4498 20.3863C73.3252 20.275 73.1694 20.1993 72.978 20.1548C72.7867 20.1103 72.5686 20.0881 72.3194 20.0881H71.7363V23.0966H72.2704H72.2615ZM76.574 15.0457H78.4877V24.5475H76.574V15.0457Z" fill="#931004"/>
<path d="M79.5603 15.0454H81.385V21.1425L83.7126 15.0454H85.7776V24.5472H83.9529V18.4633L81.6253 24.5472H79.5603V15.0454ZM81.4162 13.955C81.0913 13.6256 80.9222 13.1717 80.9043 12.5842H81.7811C81.8167 12.8513 81.9235 13.056 82.1015 13.2073C82.2796 13.3586 82.5021 13.4343 82.7647 13.4343C83.0272 13.4343 83.2542 13.3586 83.4322 13.2073C83.6103 13.056 83.7171 12.8468 83.7527 12.5842H84.6294C84.6116 13.1672 84.4425 13.6256 84.1176 13.955C83.7927 14.2843 83.3432 14.449 82.7647 14.449C82.1861 14.449 81.7366 14.2843 81.4162 13.955Z" fill="#931004"/>
<path d="M99.4229 24.5429H90.562V15.0366H92.4757V22.9719H94.474V15.0366H96.3922V22.9719H98.386V15.0366H100.304V22.9719H101.194V26.4165H99.4229V24.5429Z" fill="#931004"/>
<path d="M101.75 15.0366H103.589V21.1338L105.916 15.0366H107.981V24.5429H106.143V18.4591L103.816 24.5429H101.75V15.0366Z" fill="#931004"/>
<path d="M110.612 16.6076H108.538V15.0366H114.608V16.6076H112.53V24.5429H110.612V16.6076Z" fill="#931004"/>
<path d="M119.237 15.0591H122.592C123.082 15.0591 123.491 15.1392 123.825 15.3039C124.159 15.4685 124.426 15.6822 124.631 15.9492C124.835 16.2162 124.982 16.5188 125.071 16.8615C125.16 17.2042 125.205 17.5514 125.205 17.9074C125.205 18.4059 125.133 18.8331 124.987 19.1891C124.84 19.5496 124.635 19.8434 124.372 20.0748C124.11 20.3062 123.794 20.4798 123.42 20.5955C123.046 20.7112 122.637 20.7691 122.183 20.7691H121.159V24.5609H119.241V15.0591H119.237ZM122.005 19.3583C122.388 19.3583 122.695 19.2425 122.93 19.0111C123.166 18.7797 123.282 18.4192 123.282 17.9341C123.282 17.449 123.18 17.093 122.975 16.8437C122.77 16.5945 122.428 16.4699 121.951 16.4699H121.155V19.3583H122.009H122.005Z" fill="#931004"/>
<path d="M128.939 24.7076C128.218 24.7076 127.648 24.5919 127.221 24.356C126.793 24.1201 126.469 23.7864 126.242 23.3591C126.015 22.9274 125.868 22.4156 125.801 21.8148C125.734 21.214 125.703 20.5464 125.703 19.8121C125.703 19.0777 125.734 18.428 125.801 17.8227C125.868 17.213 126.015 16.6923 126.242 16.2606C126.469 15.8244 126.793 15.4862 127.221 15.2414C127.648 14.9966 128.218 14.8765 128.939 14.8765C129.66 14.8765 130.229 14.9966 130.657 15.2414C131.084 15.4862 131.409 15.8244 131.636 16.2606C131.863 16.6923 132.009 17.2174 132.076 17.8227C132.143 18.428 132.174 19.0911 132.174 19.8121C132.174 20.533 132.139 21.214 132.076 21.8148C132.009 22.4156 131.863 22.9274 131.636 23.3591C131.409 23.7908 131.084 24.1201 130.657 24.356C130.229 24.5919 129.66 24.7076 128.939 24.7076ZM128.939 23.3369C129.223 23.3369 129.45 23.2745 129.624 23.1455C129.798 23.0164 129.931 22.8117 130.025 22.5313C130.118 22.2509 130.18 21.886 130.211 21.4409C130.243 20.9914 130.26 20.4485 130.26 19.8121C130.26 19.1756 130.243 18.6327 130.211 18.1876C130.18 17.7426 130.118 17.3776 130.025 17.0973C129.931 16.8124 129.798 16.6077 129.624 16.4786C129.45 16.3496 129.223 16.2873 128.939 16.2873C128.654 16.2873 128.427 16.354 128.253 16.4786C128.08 16.6077 127.946 16.8124 127.853 17.0973C127.759 17.3821 127.697 17.747 127.666 18.1876C127.635 18.6327 127.617 19.1712 127.617 19.8121C127.617 20.4529 127.635 20.9959 127.666 21.4409C127.697 21.8904 127.759 22.2509 127.853 22.5313C127.946 22.8117 128.08 23.0164 128.253 23.1455C128.427 23.2745 128.654 23.3369 128.939 23.3369Z" fill="#931004"/>
<path d="M136.024 24.7076C135.303 24.7076 134.733 24.5919 134.306 24.356C133.879 24.1201 133.554 23.7864 133.327 23.3591C133.1 22.9274 132.953 22.4156 132.886 21.8148C132.819 21.214 132.788 20.5464 132.788 19.8121C132.788 19.0777 132.819 18.4324 132.886 17.8227C132.953 17.213 133.1 16.6923 133.327 16.2606C133.554 15.8244 133.879 15.4862 134.306 15.2414C134.733 14.9966 135.303 14.8765 136.024 14.8765C136.745 14.8765 137.248 14.9877 137.639 15.2103C138.035 15.4328 138.329 15.7132 138.525 16.0558C138.721 16.3985 138.841 16.7679 138.89 17.1596C138.939 17.5557 138.961 17.9251 138.961 18.2722H137.043C137.043 17.5824 136.963 17.075 136.798 16.7635C136.634 16.4475 136.335 16.2917 135.899 16.2917C135.659 16.2917 135.463 16.3585 135.307 16.4875C135.152 16.6166 135.031 16.8258 134.942 17.1106C134.853 17.3999 134.791 17.7782 134.755 18.241C134.72 18.7083 134.702 19.278 134.702 19.95C134.702 20.671 134.729 21.2496 134.778 21.6946C134.827 22.1397 134.902 22.4824 135.005 22.7271C135.107 22.9719 135.236 23.1366 135.392 23.2211C135.548 23.3057 135.726 23.3458 135.93 23.3458C136.099 23.3458 136.255 23.3191 136.402 23.2567C136.549 23.1989 136.674 23.0832 136.78 22.9096C136.887 22.736 136.972 22.4913 137.034 22.1753C137.096 21.8593 137.128 21.4454 137.128 20.9291H139.046C139.046 21.4543 139.006 21.9439 138.926 22.3978C138.845 22.8562 138.699 23.2523 138.481 23.595C138.262 23.9377 137.955 24.2092 137.564 24.405C137.168 24.6053 136.656 24.7032 136.028 24.7032" fill="#931004"/>
<path d="M142.869 24.7076C142.148 24.7076 141.578 24.5919 141.151 24.356C140.724 24.1201 140.399 23.7864 140.172 23.3591C139.945 22.9274 139.798 22.4156 139.731 21.8148C139.664 21.214 139.633 20.5464 139.633 19.8121C139.633 19.0777 139.664 18.4324 139.731 17.8227C139.798 17.213 139.945 16.6923 140.172 16.2606C140.399 15.8244 140.724 15.4862 141.151 15.2414C141.578 14.9966 142.148 14.8765 142.869 14.8765C143.59 14.8765 144.093 14.9877 144.484 15.2103C144.88 15.4328 145.174 15.7132 145.37 16.0558C145.566 16.3985 145.686 16.7679 145.735 17.1596C145.784 17.5557 145.806 17.9251 145.806 18.2722H143.888C143.888 17.5824 143.808 17.075 143.643 16.7635C143.478 16.4475 143.18 16.2917 142.744 16.2917C142.504 16.2917 142.308 16.3585 142.152 16.4875C141.996 16.6166 141.876 16.8258 141.787 17.1106C141.698 17.3999 141.636 17.7782 141.6 18.241C141.565 18.7083 141.547 19.278 141.547 19.95C141.547 20.671 141.574 21.2496 141.623 21.6946C141.672 22.1397 141.747 22.4824 141.85 22.7271C141.952 22.9719 142.081 23.1366 142.237 23.2211C142.392 23.3057 142.571 23.3458 142.775 23.3458C142.944 23.3458 143.1 23.3191 143.247 23.2567C143.394 23.1989 143.518 23.0832 143.625 22.9096C143.732 22.736 143.817 22.4913 143.879 22.1753C143.941 21.8593 143.972 21.4454 143.972 20.9291H145.891C145.891 21.4543 145.851 21.9439 145.77 22.3978C145.69 22.8562 145.543 23.2523 145.325 23.595C145.107 23.9377 144.8 24.2092 144.409 24.405C144.012 24.6053 143.501 24.7032 142.873 24.7032" fill="#931004"/>
<path d="M146.629 15.0591H148.467V21.1518L150.795 15.0591H152.856V24.5609H151.022V18.4771L148.69 24.5609H146.629V15.0591Z" fill="#931004"/>
<path d="M153.879 15.0591H155.717V21.1518L158.045 15.0591H160.11V24.5609H158.272V18.4771L155.944 24.5609H153.879V15.0591Z" fill="#931004"/>
<path d="M7.73829 22.6338C7.51576 23.0076 7.03066 23.1322 6.65682 22.9053C6.28297 22.6827 6.15836 22.1976 6.38534 21.8238C6.60786 21.45 7.09296 21.3254 7.46681 21.5523C7.84065 21.7749 7.96081 22.26 7.73829 22.6338Z" fill="#931004"/>
<path d="M7.43562 20.6444C7.21754 21.0048 6.75024 21.125 6.38975 20.9069C6.02926 20.6889 5.9091 20.2216 6.12717 19.8611C6.34525 19.5006 6.81255 19.3804 7.17304 19.5985C7.53353 19.8166 7.65369 20.2839 7.43562 20.6444Z" fill="#931004"/>
<path d="M7.44893 18.6416C7.24866 18.9754 6.82141 19.0822 6.48762 18.8819C6.15383 18.6816 6.04702 18.2544 6.24729 17.9206C6.44757 17.5868 6.87481 17.48 7.2086 17.6803C7.54239 17.8805 7.6492 18.3078 7.44893 18.6416Z" fill="#931004"/>
<path d="M7.75603 16.7145C7.56466 17.035 7.15076 17.1373 6.83477 16.946C6.51879 16.7546 6.41198 16.3451 6.60335 16.0247C6.79472 15.7087 7.20416 15.6019 7.5246 15.7933C7.84504 15.9847 7.9474 16.3941 7.75603 16.7145Z" fill="#931004"/>
<path d="M8.37023 14.8498C8.18331 15.1613 7.78276 15.2592 7.47568 15.0768C7.16859 14.8898 7.06623 14.4893 7.2487 14.1822C7.43117 13.8751 7.83617 13.7728 8.14325 13.9552C8.45479 14.1422 8.5527 14.5427 8.37023 14.8498Z" fill="#931004"/>
<path d="M9.25134 13.0828C9.08222 13.3676 8.71728 13.4566 8.43245 13.2875C8.15207 13.1184 8.05861 12.7535 8.22772 12.4686C8.39684 12.1838 8.76178 12.0948 9.04662 12.2639C9.327 12.433 9.42046 12.798 9.25134 13.0828Z" fill="#931004"/>
<path d="M10.3551 11.4632C10.1949 11.7302 9.85219 11.8148 9.58516 11.659C9.31813 11.4988 9.23357 11.1561 9.38934 10.8891C9.54956 10.622 9.89224 10.5375 10.1593 10.6977C10.4263 10.8579 10.5109 11.2006 10.3551 11.4676" fill="#931004"/>
<path d="M11.6681 10.0343C11.5257 10.2746 11.2141 10.3503 10.9738 10.2079C10.7335 10.0655 10.6578 9.75394 10.8003 9.51362C10.9427 9.27329 11.2542 9.19763 11.4945 9.34005C11.7349 9.48246 11.8105 9.794 11.6681 10.0343Z" fill="#931004"/>
<path d="M13.2256 8.83714C13.0876 9.06856 12.7894 9.13977 12.5625 9.00626C12.331 8.86829 12.2598 8.57456 12.3934 8.34313C12.5313 8.11616 12.8295 8.0405 13.0565 8.17846C13.2835 8.31643 13.3591 8.61016 13.2256 8.84158" fill="#931004"/>
<path d="M14.9525 7.89378C14.8234 8.1074 14.5475 8.17861 14.3339 8.04954C14.1203 7.92048 14.049 7.64455 14.1781 7.43092C14.3072 7.2173 14.5831 7.1461 14.7967 7.27516C15.0104 7.40422 15.0816 7.68016 14.9525 7.89378Z" fill="#931004"/>
<path d="M16.7238 7.19052C16.6036 7.39079 16.3455 7.4531 16.1497 7.33739C15.9494 7.21722 15.8871 6.95909 16.0028 6.76327C16.123 6.563 16.3811 6.50069 16.5769 6.62086C16.7772 6.74102 16.8395 6.9947 16.7238 7.19497" fill="#931004"/>
<path d="M18.6553 6.79893C18.5485 6.97695 18.3126 7.03926 18.1346 6.928C17.9521 6.82119 17.8942 6.58531 18.001 6.40729C18.1079 6.22927 18.3437 6.16696 18.5218 6.27822C18.6998 6.38504 18.7621 6.62091 18.6508 6.79893" fill="#931004"/>
<path d="M20.5557 6.68313C20.4622 6.83889 20.2619 6.88785 20.1106 6.79439C19.9549 6.70093 19.9059 6.50065 19.9994 6.34488C20.0928 6.18912 20.2931 6.14016 20.4444 6.23362C20.6002 6.32708 20.6491 6.52735 20.5557 6.67867" fill="#931004"/>
<path d="M22.4783 6.88345C22.3982 7.02141 22.2202 7.06147 22.0867 6.98136C21.9487 6.90125 21.9087 6.72323 21.9888 6.58971C22.0689 6.4562 22.2469 6.41169 22.3804 6.4918C22.514 6.57191 22.5585 6.74548 22.4783 6.88345Z" fill="#931004"/>
<path d="M8.21881 24.4983C8.00964 24.8455 7.56013 24.9567 7.213 24.752C6.86586 24.5428 6.7546 24.0933 6.95932 23.7462C7.16849 23.3991 7.61799 23.2878 7.96513 23.4925C8.31227 23.6972 8.42353 24.1467 8.21881 24.4939" fill="#931004"/>
<path d="M8.93983 26.2298C8.74401 26.5546 8.32566 26.6615 8.00523 26.4656C7.68034 26.2698 7.57798 25.8515 7.76935 25.5266C7.96072 25.2017 8.38352 25.0993 8.70395 25.2907C9.02884 25.4821 9.13565 25.9049 8.93983 26.2253" fill="#931004"/>
<path d="M9.98121 27.8809C9.78539 28.2058 9.36704 28.3126 9.04661 28.1168C8.72172 27.921 8.61936 27.5026 8.81073 27.1777C9.0021 26.8528 9.4249 26.7505 9.74534 26.9418C10.0702 27.1332 10.177 27.556 9.98121 27.8764" fill="#931004"/>
<path d="M11.223 29.3275C11.045 29.6212 10.6667 29.7191 10.373 29.5411C10.0792 29.3676 9.98133 28.9848 10.1593 28.6911C10.3329 28.3973 10.7157 28.2994 11.0094 28.4775C11.3031 28.651 11.401 29.0338 11.223 29.3275Z" fill="#931004"/>
<path d="M12.6961 30.5646C12.527 30.845 12.162 30.9385 11.8817 30.7694C11.6013 30.6002 11.5078 30.2397 11.6769 29.9549C11.8461 29.6745 12.211 29.5811 12.4914 29.7502C12.7718 29.9193 12.8652 30.2843 12.6961 30.5646Z" fill="#931004"/>
<path d="M14.3472 31.5923C14.187 31.8594 13.8443 31.9439 13.5817 31.7837C13.3147 31.6235 13.2301 31.2808 13.3903 31.0182C13.5505 30.7512 13.8932 30.6666 14.1558 30.8268C14.4228 30.9871 14.5074 31.3297 14.3472 31.5923Z" fill="#931004"/>
<path d="M16.1407 32.3668C15.9939 32.6116 15.6823 32.6872 15.4376 32.5448C15.1928 32.4024 15.1171 32.0864 15.2595 31.8416C15.4064 31.5968 15.7179 31.5212 15.9627 31.6636C16.2075 31.8105 16.2876 32.122 16.1407 32.3668Z" fill="#931004"/>
<path d="M17.9521 32.812C17.8142 33.039 17.5204 33.1146 17.2935 32.9766C17.0665 32.8387 16.9908 32.545 17.1288 32.318C17.2667 32.091 17.5605 32.0154 17.7875 32.1533C18.0144 32.2868 18.0901 32.585 17.9521 32.812Z" fill="#931004"/>
<path d="M19.8881 32.9988C19.7634 33.208 19.4875 33.2792 19.2783 33.1501C19.0692 33.0255 18.998 32.754 19.127 32.5404C19.2516 32.3312 19.5276 32.26 19.7367 32.3891C19.9459 32.5137 20.0171 32.7852 19.8881 32.9988Z" fill="#931004"/>
<path d="M21.873 32.9008C21.7573 33.0967 21.5036 33.159 21.3078 33.0433C21.1119 32.9276 21.0496 32.6739 21.1653 32.478C21.2811 32.2822 21.5347 32.2199 21.7306 32.3356C21.9264 32.4513 21.9887 32.705 21.873 32.9008Z" fill="#931004"/>
<path d="M23.7155 32.4829C23.6087 32.6609 23.3817 32.7187 23.2037 32.6119C23.0301 32.5051 22.9723 32.2781 23.0747 32.1001C23.1815 31.9221 23.4084 31.8687 23.5865 31.971C23.7645 32.0779 23.8179 32.3048 23.7155 32.4829Z" fill="#931004"/>
<path d="M5.18798 22.4646C5.12568 23.0075 4.63612 23.4036 4.09316 23.3413C3.5502 23.2834 3.15411 22.7894 3.21641 22.2465C3.27872 21.7035 3.76828 21.3074 4.31124 21.3697C4.8542 21.4276 5.25029 21.9216 5.18798 22.4646Z" fill="#931004"/>
<path d="M4.95225 20.1324C4.89439 20.6531 4.42709 21.027 3.91083 20.9691C3.39013 20.9113 3.01628 20.444 3.07414 19.9277C3.132 19.4115 3.5993 19.0376 4.11556 19.091C4.63627 19.1489 5.01011 19.6162 4.95225 20.1324Z" fill="#931004"/>
<path d="M5.82891 24.6855C5.7666 25.2329 5.27705 25.6246 4.72964 25.5667C4.18223 25.5044 3.79058 25.0148 3.84844 24.4674C3.91075 23.92 4.4003 23.5284 4.94771 23.5862C5.49512 23.6441 5.88677 24.1381 5.82891 24.6811" fill="#931004"/>
<path d="M6.7813 26.9372C6.719 27.4846 6.22944 27.8763 5.68203 27.8184C5.13462 27.7561 4.74298 27.2665 4.80083 26.7191C4.86314 26.1717 5.35269 25.7801 5.90011 25.8379C6.44752 25.8958 6.83916 26.3898 6.7813 26.9328" fill="#931004"/>
<path d="M7.93404 28.9044C7.87618 29.4162 7.41778 29.7856 6.90597 29.7277C6.39416 29.6699 6.02477 29.2115 6.08263 28.6997C6.14048 28.1879 6.59889 27.8185 7.11069 27.8763C7.6225 27.9342 7.99189 28.3926 7.93404 28.9044Z" fill="#931004"/>
<path d="M9.40265 30.7113C9.34925 31.2098 8.8953 31.5747 8.39684 31.5168C7.89393 31.4634 7.53344 31.0095 7.5913 30.511C7.64471 30.0126 8.09866 29.6476 8.59711 29.7055C9.09557 29.7589 9.46051 30.2128 9.40265 30.7113Z" fill="#931004"/>
<path d="M11.1563 32.2556C11.1029 32.7229 10.6845 33.0567 10.2217 33.0033C9.75438 32.9499 9.42059 32.5315 9.47399 32.0687C9.52295 31.6058 9.9413 31.2676 10.4086 31.321C10.8759 31.3744 11.2097 31.7883 11.1563 32.2556Z" fill="#931004"/>
<path d="M13.0832 33.5153C13.0343 33.9648 12.6293 34.2896 12.1798 34.2407C11.7303 34.1917 11.4054 33.7867 11.4543 33.3372C11.5033 32.8877 11.9083 32.5629 12.3578 32.6118C12.8073 32.6608 13.1322 33.0658 13.0832 33.5153Z" fill="#931004"/>
<path d="M15.2151 34.4989C15.1661 34.9306 14.7789 35.2466 14.3428 35.1976C13.9111 35.1487 13.5951 34.7615 13.644 34.3253C13.693 33.8936 14.0802 33.5776 14.5163 33.6266C14.948 33.6755 15.264 34.0627 15.2151 34.4989Z" fill="#931004"/>
<path d="M17.467 35.1039C17.4225 35.5134 17.0531 35.8116 16.6392 35.767C16.2298 35.7225 15.9316 35.3531 15.9761 34.9392C16.0206 34.5298 16.39 34.2316 16.7994 34.2761C17.2089 34.3206 17.5071 34.69 17.4625 35.0995" fill="#931004"/>
<path d="M19.7011 35.4066C19.661 35.7849 19.3183 36.0608 18.9401 36.0163C18.5618 35.9762 18.2903 35.6335 18.3303 35.2552C18.3704 34.8769 18.7131 34.6055 19.0914 34.6455C19.4697 34.6856 19.7411 35.0283 19.7011 35.4066Z" fill="#931004"/>
<path d="M22.011 35.3221C21.9754 35.6603 21.6683 35.9006 21.3345 35.865C20.9963 35.8294 20.756 35.5268 20.7916 35.1885C20.8272 34.8503 21.1298 34.61 21.4681 34.6456C21.8063 34.6812 22.0466 34.9838 22.011 35.3221Z" fill="#931004"/>
<path d="M24.3163 34.9171C24.2807 35.2331 23.9958 35.4645 23.6799 35.4289C23.3639 35.3933 23.1324 35.1085 23.168 34.7925C23.2036 34.4765 23.4885 34.2451 23.8045 34.2807C24.1205 34.3163 24.3519 34.6011 24.3163 34.9171Z" fill="#931004"/>
<path d="M26.5238 34.1962C26.4882 34.4989 26.2167 34.7214 25.9141 34.6858C25.6114 34.6546 25.3889 34.3787 25.4245 34.0761C25.4601 33.7734 25.7316 33.5509 26.0342 33.5865C26.3369 33.6177 26.5549 33.8936 26.5238 34.1962Z" fill="#931004"/>
<path d="M28.5532 33.0524C28.5221 33.3284 28.2773 33.5242 28.0013 33.493C27.7254 33.4619 27.5296 33.2171 27.5608 32.9412C27.5919 32.6652 27.8367 32.4694 28.1126 32.5006C28.3885 32.5317 28.5844 32.7765 28.5532 33.0524Z" fill="#931004"/>
<path d="M30.4848 31.7129C30.4581 31.9621 30.2311 32.1446 29.9819 32.1135C29.7327 32.0868 29.5502 31.8598 29.5813 31.6106C29.6081 31.3613 29.835 31.1789 30.0843 31.21C30.3335 31.2367 30.5115 31.4637 30.4848 31.7129Z" fill="#931004"/>
<path d="M5.01899 17.7737C4.96558 18.2722 4.51163 18.6327 4.01318 18.5793C3.51472 18.5259 3.15423 18.0764 3.20764 17.5735C3.26104 17.075 3.71054 16.7145 4.21345 16.7679C4.71191 16.8213 5.0724 17.2708 5.01899 17.7737Z" fill="#931004"/>
<path d="M5.41516 15.4639C5.36176 15.949 4.92561 16.3006 4.44051 16.2472C3.9554 16.1938 3.60381 15.7576 3.65722 15.2725C3.71062 14.7874 4.14677 14.4358 4.63188 14.4892C5.11698 14.5427 5.46857 14.9788 5.41516 15.4639Z" fill="#931004"/>
<path d="M6.14488 13.1983C6.09593 13.6612 5.67758 13.995 5.21473 13.946C4.75188 13.8971 4.41809 13.4787 4.46705 13.0159C4.516 12.553 4.93435 12.2192 5.3972 12.2682C5.86005 12.3216 6.19384 12.7355 6.14488 13.1983Z" fill="#931004"/>
<path d="M7.25311 11.0982C7.2086 11.5165 6.83031 11.8147 6.41641 11.7702C5.99807 11.7257 5.69988 11.3474 5.74439 10.9335C5.78889 10.5152 6.16719 10.217 6.58108 10.2615C6.99943 10.306 7.29761 10.6843 7.25311 11.0982Z" fill="#931004"/>
<path d="M8.53932 9.22871C8.49482 9.62481 8.13878 9.90964 7.74269 9.86513C7.34659 9.82063 7.06176 9.46459 7.10626 9.0685C7.15077 8.6724 7.50681 8.38757 7.89845 8.43207C8.29455 8.47658 8.57938 8.83261 8.53487 9.22426" fill="#931004"/>
<path d="M10.1771 7.51552C10.137 7.88491 9.80323 8.15194 9.43384 8.11188C9.06445 8.07183 8.79742 7.73804 8.83747 7.36865C8.87753 6.99926 9.21132 6.73223 9.58071 6.77229C9.9501 6.81234 10.2171 7.14613 10.1771 7.51552Z" fill="#931004"/>
<path d="M12.0908 6.15325C12.0508 6.50929 11.7348 6.76297 11.3788 6.72292C11.0227 6.68286 10.769 6.36687 10.8091 6.01083C10.8491 5.65479 11.1651 5.40112 11.5212 5.44117C11.8772 5.48123 12.1309 5.79721 12.0908 6.15325Z" fill="#931004"/>
<path d="M14.1158 5.00069C14.0802 5.32112 13.7909 5.55255 13.4704 5.51694C13.15 5.48134 12.9186 5.19206 12.9542 4.87608C12.9898 4.55564 13.2791 4.32421 13.5995 4.35982C13.9199 4.39542 14.1514 4.6847 14.1158 5.00069Z" fill="#931004"/>
<path d="M16.2965 4.2441C16.2654 4.53783 15.9984 4.74701 15.7091 4.71586C15.4153 4.6847 15.2062 4.42212 15.2373 4.12839C15.2685 3.83466 15.5311 3.62548 15.8248 3.65664C16.1185 3.68779 16.3277 3.95037 16.2965 4.2441Z" fill="#931004"/>
<path d="M18.5618 3.82587C18.5306 4.1018 18.2858 4.29762 18.0099 4.26647C17.734 4.23531 17.5381 3.99054 17.5693 3.71461C17.6004 3.43868 17.8452 3.24285 18.1212 3.27401C18.3971 3.30516 18.5929 3.54994 18.5618 3.82587Z" fill="#931004"/>
<path d="M20.9206 3.75C20.8938 4.00368 20.6624 4.18615 20.4087 4.15945C20.1551 4.13274 19.9726 3.90131 19.9993 3.64763C20.026 3.39396 20.2574 3.21149 20.5067 3.23819C20.7603 3.26489 20.9428 3.49187 20.9161 3.74555" fill="#931004"/>
<path d="M23.1635 4.01278C23.1057 4.21305 22.8965 4.32876 22.6962 4.27536C22.496 4.2175 22.3803 4.00832 22.4337 3.80805C22.4915 3.60778 22.7007 3.49207 22.901 3.54547C23.1012 3.60333 23.2169 3.81251 23.1635 4.01278Z" fill="#931004"/>
<path d="M25.4379 4.66268C25.3844 4.8496 25.1886 4.96086 25.0017 4.90746C24.8148 4.85405 24.7035 4.65823 24.7569 4.47131C24.8103 4.28439 25.0062 4.17313 25.1931 4.22653C25.38 4.27994 25.4913 4.47576 25.4379 4.66268Z" fill="#931004"/>
<path d="M27.5919 5.59293C27.5474 5.74424 27.3872 5.83325 27.2359 5.7932C27.0801 5.74869 26.9911 5.58847 27.0356 5.43715C27.0801 5.28584 27.2359 5.19683 27.3917 5.23688C27.543 5.28139 27.632 5.43716 27.5919 5.59293Z" fill="#931004"/>
<path d="M29.5145 6.83902C29.4789 6.96808 29.3409 7.04374 29.2119 7.00814C29.0828 6.97253 29.0071 6.83457 29.0427 6.70551C29.0783 6.57644 29.2163 6.50078 29.3454 6.53639C29.4744 6.57199 29.5501 6.70995 29.5145 6.83902Z" fill="#931004"/>
<path d="M2.74919 17.4043C2.66908 18.1386 2.01041 18.6682 1.27607 18.5881C0.541741 18.508 0.0121323 17.8449 0.0922412 17.115C0.17235 16.3807 0.831024 15.8511 1.56536 15.9356C2.29969 16.0157 2.8293 16.6744 2.74919 17.4087" fill="#931004"/>
<path d="M3.24316 14.6761C3.1675 15.3793 2.53108 15.8867 1.8279 15.811C1.12472 15.7309 0.617361 15.0989 0.69302 14.3958C0.773129 13.6926 1.4051 13.1852 2.10828 13.2609C2.81146 13.3365 3.31881 13.973 3.24316 14.6761Z" fill="#931004"/>
<path d="M4.22228 12.0548C4.14662 12.758 3.5102 13.2653 2.80702 13.1897C2.10384 13.1096 1.59649 12.4776 1.67215 11.7744C1.75225 11.0713 2.38423 10.5639 3.0874 10.6396C3.79058 10.7152 4.29794 11.3516 4.22228 12.0548Z" fill="#931004"/>
<path d="M5.43286 9.61154C5.36165 10.2569 4.78309 10.7197 4.13777 10.6485C3.49689 10.5773 3.02959 9.99873 3.1008 9.35786C3.17201 8.71699 3.75057 8.24968 4.39144 8.32089C5.03232 8.3921 5.49962 8.97067 5.42841 9.61154" fill="#931004"/>
<path d="M35.4248 29.7768C35.4026 29.9904 35.2112 30.1418 34.9976 30.1195C34.7839 30.0973 34.6326 29.9059 34.6549 29.6923C34.6771 29.4786 34.8685 29.3273 35.0821 29.3496C35.2958 29.3718 35.4471 29.5632 35.4248 29.7768Z" fill="#931004"/>
<path d="M7.06616 7.37741C6.9994 7.99158 6.44309 8.43663 5.82892 8.36987C5.21476 8.30311 4.76971 7.7468 4.83646 7.13263C4.90322 6.51846 5.45953 6.07342 6.0737 6.14017C6.69232 6.20693 7.13292 6.76324 7.06616 7.37741Z" fill="#931004"/>
<path d="M8.95319 5.44573C8.88643 6.0332 8.36127 6.45599 7.76935 6.39368C7.18189 6.32692 6.75909 5.80177 6.8214 5.2143C6.88815 4.62684 7.41331 4.20404 8.00078 4.26634C8.58825 4.3331 9.01104 4.85826 8.94874 5.44573" fill="#931004"/>
<path d="M11.1562 3.8302C11.0939 4.38206 10.5999 4.7826 10.0436 4.72029C9.49172 4.65799 9.09118 4.16398 9.15348 3.60767C9.21579 3.05581 9.7098 2.65526 10.2661 2.71757C10.818 2.77988 11.2185 3.27389 11.1562 3.82575" fill="#931004"/>
<path d="M13.555 2.54845C13.4971 3.07806 13.0209 3.45636 12.4958 3.3985C11.9662 3.34064 11.5879 2.86444 11.6457 2.33928C11.7036 1.80967 12.1798 1.43138 12.7094 1.48924C13.239 1.5471 13.6173 2.0233 13.5594 2.54845" fill="#931004"/>
<path d="M16.0962 1.64062C16.0428 2.14797 15.5844 2.50846 15.0815 2.45506C14.5742 2.3972 14.2137 1.94325 14.2671 1.44035C14.3249 0.932989 14.7789 0.568047 15.2818 0.625904C15.7892 0.68376 16.1541 1.13771 16.0962 1.64062Z" fill="#931004"/>
<path d="M18.7844 1.15536C18.731 1.63156 18.3037 1.97425 17.832 1.92084C17.3558 1.86744 17.0175 1.44019 17.0665 0.968436C17.1199 0.492232 17.5471 0.153994 18.0189 0.202949C18.4951 0.256355 18.8333 0.683603 18.7844 1.15536Z" fill="#931004"/>
<path d="M21.4903 1.06653C21.4413 1.51603 21.0363 1.83647 20.5913 1.78752C20.1418 1.73856 19.8213 1.33356 19.8703 0.888514C19.9193 0.439014 20.3242 0.118581 20.7693 0.167536C21.2188 0.216492 21.5392 0.621482 21.4903 1.06653Z" fill="#931004"/>
<path d="M24.214 1.42722C24.1695 1.84112 23.7957 2.1393 23.3818 2.0948C22.9679 2.05029 22.6652 1.67645 22.7142 1.26255C22.7587 0.848654 23.1325 0.55047 23.5464 0.594975C23.9603 0.63948 24.2585 1.01333 24.214 1.42722Z" fill="#931004"/>
<path d="M26.8354 2.10797C26.7953 2.48627 26.4526 2.75774 26.0743 2.71769C25.696 2.67764 25.4246 2.33494 25.4646 1.95665C25.5047 1.57836 25.8474 1.30688 26.2256 1.34694C26.6039 1.38699 26.8754 1.72968 26.8354 2.10797Z" fill="#931004"/>
<path d="M29.3099 3.28279C29.2698 3.63438 28.9583 3.8836 28.6067 3.848C28.2551 3.80794 28.0059 3.49641 28.0415 3.14482C28.0815 2.79324 28.3931 2.544 28.7446 2.58406C29.0962 2.62411 29.3455 2.93565 29.3099 3.28724" fill="#931004"/>
<path d="M31.6196 4.76935C31.584 5.09424 31.2903 5.33011 30.9654 5.29451C30.6405 5.2589 30.409 4.96518 30.4447 4.64029C30.4803 4.3154 30.774 4.07952 31.0944 4.11513C31.4193 4.15073 31.6552 4.44446 31.6196 4.76935Z" fill="#931004"/>
<path d="M33.6001 6.58519C33.5689 6.86558 33.3152 7.0703 33.0348 7.03915C32.7545 7.00799 32.5497 6.75431 32.5809 6.47393C32.612 6.19355 32.8657 5.98883 33.1461 6.01998C33.4265 6.05113 33.6312 6.30481 33.6001 6.58519Z" fill="#931004"/>
<path d="M35.3491 8.70367C35.3224 8.9618 35.0865 9.14872 34.8284 9.12201C34.5702 9.09531 34.3833 8.85944 34.41 8.60131C34.4367 8.34318 34.6726 8.15626 34.9307 8.18296C35.1888 8.20966 35.3758 8.44554 35.3491 8.70367Z" fill="#931004"/>
<path d="M34.1742 31.6147C34.2588 31.8595 34.1297 32.1221 33.8894 32.2067C33.649 32.2912 33.382 32.1622 33.2974 31.9218C33.2129 31.6815 33.3419 31.4145 33.5823 31.3299C33.8226 31.2454 34.0896 31.3744 34.1742 31.6147Z" fill="#931004"/>
<path d="M32.2382 33.4973C32.3317 33.7643 32.1893 34.0536 31.9267 34.147C31.6597 34.2405 31.3704 34.0981 31.2769 33.8355C31.1835 33.5685 31.3259 33.2792 31.5884 33.1857C31.8555 33.0923 32.1448 33.2347 32.2382 33.4973Z" fill="#931004"/>
<path d="M30.0219 35.0995C30.1243 35.3888 29.9685 35.7048 29.6837 35.8027C29.3944 35.905 29.0828 35.7493 28.9805 35.4644C28.8781 35.1752 29.0294 34.8636 29.3187 34.7613C29.608 34.6589 29.924 34.8147 30.0219 35.0995Z" fill="#931004"/>
<path d="M27.663 36.4213C27.7788 36.7462 27.6052 37.1067 27.2803 37.218C26.9554 37.3337 26.5949 37.1601 26.4837 36.8352C26.3679 36.5103 26.5415 36.1543 26.8664 36.0386C27.1913 35.9229 27.5518 36.0965 27.663 36.4213Z" fill="#931004"/>
<path d="M25.0552 37.2848C25.1798 37.6409 24.9928 38.0281 24.6368 38.1527C24.2808 38.2773 23.8936 38.0904 23.769 37.7343C23.6443 37.3783 23.8313 36.9911 24.1873 36.8665C24.5433 36.7419 24.9305 36.9288 25.0552 37.2848Z" fill="#931004"/>
<path d="M22.4159 37.703C22.5495 38.0857 22.3492 38.5041 21.9664 38.6376C21.5837 38.7711 21.1653 38.5709 21.0318 38.1881C20.8983 37.8054 21.0986 37.387 21.4813 37.2535C21.8641 37.12 22.2824 37.3203 22.4159 37.703Z" fill="#931004"/>
<path d="M19.6967 37.7965C19.8391 38.2059 19.6255 38.651 19.2161 38.7934C18.8066 38.9358 18.3616 38.7222 18.2192 38.3128C18.0767 37.9033 18.2904 37.4582 18.6998 37.3158C19.1093 37.1734 19.5543 37.387 19.6967 37.7965Z" fill="#931004"/>
<path d="M17.0086 37.4494C17.1644 37.8944 16.9285 38.3751 16.4879 38.5308C16.0429 38.6866 15.5622 38.4507 15.4064 38.0101C15.2507 37.5695 15.4866 37.0844 15.9272 36.9287C16.3722 36.7729 16.8529 37.0088 17.0086 37.4494Z" fill="#931004"/>
<path d="M14.3606 36.6749C14.5252 37.1466 14.276 37.6629 13.8043 37.8276C13.3325 37.9922 12.8163 37.743 12.6516 37.2713C12.4869 36.7995 12.7361 36.2832 13.2079 36.123C13.6797 35.9584 14.1959 36.2076 14.3606 36.6793" fill="#931004"/>
<path d="M11.8727 35.4957C12.0463 35.9941 11.7837 36.5371 11.2897 36.7107C10.7913 36.8842 10.2527 36.6217 10.0792 36.1277C9.90561 35.6292 10.1682 35.0862 10.6622 34.9127C11.1562 34.7391 11.6992 35.0017 11.8772 35.4957" fill="#931004"/>
<path d="M9.63416 33.9781C9.81663 34.5032 9.5407 35.0774 9.01554 35.2643C8.49038 35.4468 7.91626 35.1708 7.72934 34.6457C7.54687 34.1205 7.8228 33.5464 8.34796 33.3595C8.87312 33.177 9.44724 33.4529 9.63416 33.9781Z" fill="#931004"/>
<path d="M7.59584 32.1133C7.78721 32.6607 7.49793 33.2615 6.95051 33.4529C6.4031 33.6443 5.80229 33.355 5.61092 32.8076C5.41954 32.2602 5.70883 31.6593 6.25624 31.468C6.80365 31.2766 7.40002 31.5659 7.59584 32.1133Z" fill="#931004"/>
<path d="M5.88233 29.9815C6.08706 30.5645 5.77997 31.2009 5.19696 31.4056C4.61394 31.6104 3.97752 31.3033 3.7728 30.7203C3.56808 30.1373 3.87516 29.5008 4.45818 29.2961C5.04119 29.0914 5.67761 29.3985 5.88233 29.9815Z" fill="#931004"/>
<path d="M4.476 27.6405C4.69408 28.2636 4.36474 28.9445 3.74167 29.1581C3.1186 29.3762 2.43768 29.0469 2.22405 28.4238C2.00598 27.8007 2.33532 27.1198 2.95838 26.9062C3.58145 26.6881 4.26238 27.0174 4.476 27.6405Z" fill="#931004"/>
<path d="M3.45679 25.0326C3.68376 25.6823 3.34108 26.39 2.6913 26.6169C2.04153 26.8439 1.3339 26.5012 1.10693 25.8559C0.87995 25.2061 1.22264 24.4985 1.87241 24.2715C2.52218 24.0445 3.22981 24.3872 3.45679 25.0326Z" fill="#931004"/>
<path d="M2.80701 22.2999C3.04733 22.9853 2.68684 23.7285 2.00147 23.9689C1.32054 24.2092 0.572857 23.8487 0.33253 23.1633C0.092203 22.478 0.452693 21.7347 1.13807 21.4944C1.819 21.2541 2.56668 21.6146 2.80701 22.2999Z" fill="#931004"/>
<path d="M2.54895 19.5585C2.78928 20.2439 2.42879 20.9871 1.74341 21.2274C1.06248 21.4677 0.3148 21.1073 0.0744733 20.4219C-0.165854 19.7365 0.194637 18.9933 0.880013 18.7529C1.56094 18.5126 2.30862 18.8731 2.54895 19.5585Z" fill="#931004"/>
</svg>
