<svg width="32" height="32" viewBox="0 0 32 32" fill="none" xmlns="http://www.w3.org/2000/svg">
<g clip-path="url(#clip0_700_50922)">
<path d="M8.74413 19.5054V16.4617C8.74413 16.2524 8.57469 16.083 8.36547 16.083H6.92089C6.71191 16.083 6.54223 16.2524 6.54223 16.4617V19.5054C6.54223 20.0708 6.24145 20.5845 5.76635 20.8913C5.33618 21.1694 5.05127 21.6531 5.05127 22.2036V27.2934C5.05127 27.5178 5.23315 27.6994 5.45727 27.6994H9.82908C10.0532 27.6994 10.2351 27.5178 10.2351 27.2934V22.2036C10.2351 21.6531 9.95018 21.1694 9.52 20.8913C9.04515 20.5845 8.74413 20.0708 8.74413 19.5054Z" fill="#0272B8" fill-opacity="0.48"/>
<path d="M9.52001 20.8913C9.04516 20.5845 8.74414 20.0708 8.74414 19.5054V16.4617C8.74414 16.2524 8.5747 16.083 8.36547 16.083H7.33496C7.54419 16.083 7.71387 16.2524 7.71387 16.4617V19.5054C7.71387 20.0708 8.01465 20.5845 8.48974 20.8913C8.91992 21.1694 9.20458 21.6531 9.20458 22.2036V27.2937C9.20458 27.5178 9.02294 27.6994 8.79882 27.6994H9.82909C10.0535 27.6994 10.2351 27.5178 10.2351 27.2937V22.2036C10.2351 21.6531 9.95019 21.1694 9.52001 20.8913Z" fill="#0272B8" fill-opacity="0.48"/>
<path d="M16.0508 19.5054V16.4617C16.0508 16.2524 15.8813 16.083 15.6721 16.083H14.2275C14.0183 16.083 13.8489 16.2524 13.8489 16.4617V19.5054C13.8489 20.0708 13.5478 20.5845 13.073 20.8913C12.6428 21.1694 12.3579 21.6531 12.3579 22.2036V27.2934C12.3579 27.5178 12.5398 27.6994 12.7639 27.6994H17.1357C17.3598 27.6994 17.5417 27.5178 17.5417 27.2934V22.2036C17.5417 21.6531 17.2568 21.1694 16.8266 20.8913C16.3518 20.5845 16.0508 20.0708 16.0508 19.5054Z" fill="#0272B8" fill-opacity="0.48"/>
<path d="M16.8267 20.8913C16.3518 20.5845 16.0508 20.0708 16.0508 19.5054V16.4617C16.0508 16.2524 15.8813 16.083 15.6721 16.083H14.6416C14.8508 16.083 15.0203 16.2524 15.0203 16.4617V19.5054C15.0203 20.0708 15.3213 20.5845 15.7961 20.8913C16.2266 21.1694 16.5112 21.6531 16.5112 22.2036V27.2937C16.5112 27.5178 16.3296 27.6994 16.1052 27.6994H17.1357C17.3599 27.6994 17.5417 27.5178 17.5417 27.2937V22.2036C17.5417 21.6531 17.2568 21.1694 16.8267 20.8913Z" fill="#0272B8" fill-opacity="0.48"/>
<path d="M23.3891 19.5054V16.4617C23.3891 16.2524 23.2195 16.083 23.0102 16.083H21.5659C21.3567 16.083 21.187 16.2524 21.187 16.4617V19.5054C21.187 20.0708 20.8862 20.5845 20.4114 20.8913C19.981 21.1694 19.6963 21.6531 19.6963 22.2036V27.2934C19.6963 27.5178 19.8779 27.6994 20.1023 27.6994H24.4741C24.6982 27.6994 24.8799 27.5178 24.8799 27.2934V22.2036C24.8799 21.6531 24.5952 21.1694 24.1648 20.8913C23.6899 20.5845 23.3891 20.0708 23.3891 19.5054Z" fill="#0272B8" fill-opacity="0.48"/>
<path d="M24.165 20.8913C23.6899 20.5845 23.3892 20.0708 23.3892 19.5054V16.4617C23.3892 16.2524 23.2197 16.083 23.0105 16.083H21.98C22.1892 16.083 22.3586 16.2524 22.3586 16.4617V19.5054C22.3586 20.0708 22.6597 20.5845 23.1345 20.8913C23.5647 21.1694 23.8496 21.6531 23.8496 22.2036V27.2937C23.8496 27.5178 23.668 27.6994 23.4436 27.6994H24.4741C24.6982 27.6994 24.8801 27.5178 24.8801 27.2937V22.2036C24.8801 21.6531 24.5952 21.1694 24.165 20.8913Z" fill="#0272B8" fill-opacity="0.48"/>
<path d="M31.2191 27.1999H25.3483V22.2036C25.3483 21.5115 25.0009 20.8738 24.4191 20.498C24.0673 20.2707 23.8573 19.8996 23.8573 19.5054V16.4617C23.8573 15.9946 23.4774 15.6145 23.0102 15.6145H21.5658C21.0988 15.6145 20.7187 15.9946 20.7187 16.4617V19.5054C20.7187 19.8996 20.5087 20.2707 20.1571 20.498C19.5751 20.8738 19.2277 21.5115 19.2277 22.2036V27.1999H18.0102V22.2036C18.0102 21.5115 17.6628 20.8738 17.081 20.498C16.7294 20.2707 16.5195 19.8996 16.5195 19.5054V16.4617C16.5195 15.9946 16.1393 15.6145 15.6723 15.6145H14.2277C13.7607 15.6145 13.3806 15.9946 13.3806 16.4617V19.5054C13.3806 19.8996 13.1706 20.2707 12.819 20.498C12.237 20.8738 11.8896 21.5115 11.8896 22.2036V27.1999H10.7033V22.2036C10.7033 21.5115 10.3559 20.8738 9.77413 20.498C9.42257 20.2707 9.21261 19.8996 9.21261 19.5054V16.4617C9.21261 15.9946 8.83249 15.6145 8.36545 15.6145H6.92087C6.45383 15.6145 6.07371 15.9946 6.07371 16.4617V19.5054C6.07371 19.8996 5.86375 20.2707 5.51219 20.498C4.93016 20.8738 4.58275 21.5115 4.58275 22.2036V23.0988C4.58275 23.3576 4.79246 23.5671 5.05125 23.5671C5.31004 23.5671 5.51975 23.3576 5.51975 23.0988V22.2036C5.51975 21.831 5.70701 21.4875 6.02048 21.2849C6.6406 20.8843 7.01072 20.219 7.01072 19.5054V16.5513H8.2756V19.5054C8.2756 20.219 8.64572 20.8843 9.26583 21.2849C9.57931 21.4875 9.76656 21.8308 9.76656 22.2036V27.1999H5.51975V25.1599C5.51975 24.9011 5.31004 24.6914 5.05125 24.6914C4.79271 24.6914 4.58299 24.9011 4.58299 25.1599V27.1999H0.866208C0.470214 27.1999 0.147949 27.5222 0.147949 27.9182V30.0414C0.147949 30.4377 0.470214 30.7597 0.866208 30.7597H31.2191C31.6151 30.7597 31.9374 30.4377 31.9374 30.0414V27.9182C31.9374 27.5222 31.6151 27.1999 31.2191 27.1999ZM20.1647 22.2036C20.1647 21.831 20.352 21.4875 20.6654 21.2849C21.2856 20.8843 21.6554 20.219 21.6554 19.5054V16.5513H22.9206V19.5054C22.9206 20.219 23.2907 20.8843 23.9108 21.2849C24.2243 21.4875 24.4115 21.831 24.4115 22.2036V27.1999H20.1647V22.2036ZM12.8266 22.2036C12.8266 21.831 13.0139 21.4875 13.3273 21.2849C13.9475 20.8843 14.3176 20.219 14.3176 19.5054V16.5513H15.5827V19.5054C15.5827 20.219 15.9526 20.8843 16.5727 21.2849C16.8862 21.4875 17.0734 21.8308 17.0734 22.2036V27.1999H12.8266V22.2036ZM31.0006 29.8229H1.08496V28.1367H31.0006V29.8229Z" fill="#0A0A0A"/>
<path d="M31.2816 17.4882H29.5807C29.537 17.4882 29.5016 17.4528 29.5016 17.4091V8.77585C29.5016 8.51706 29.2919 8.30735 29.0331 8.30735C28.7745 8.30735 28.5648 8.51706 28.5648 8.77585V17.4094C28.5648 17.9694 29.0204 18.425 29.5805 18.425H31.0629V19.6117H29.5805C28.3661 19.6117 27.3781 18.6237 27.3781 17.4094V4.38939C27.3781 3.82909 26.9225 3.37353 26.3624 3.37353H17.4645C16.9045 3.37353 16.4487 3.82909 16.4487 4.38939V5.30955H15.2621V4.38939C15.2621 3.1748 16.2502 2.18676 17.4645 2.18676H26.3624C27.5768 2.18676 28.5648 3.1748 28.5648 4.38939V6.81883C28.5648 7.07761 28.7745 7.28733 29.0333 7.28733C29.2921 7.28733 29.5018 7.07761 29.5018 6.81883V4.38939C29.5018 2.6582 28.0934 1.25 26.3624 1.25H17.4645C15.7336 1.25 14.3251 2.6582 14.3251 4.38939V5.30955H7.85202C7.35788 5.30955 6.95554 5.71165 6.95554 6.20604V8.6196H5.47312C5.42967 8.6196 5.39427 8.5842 5.39427 8.54074V7.63694C5.39427 5.90599 3.98607 4.49779 2.25487 4.49779H0.718259C0.322264 4.49779 0 4.81981 0 5.2158V6.83982C0 7.23582 0.322264 7.55808 0.718259 7.55808H2.25487C2.29857 7.55808 2.33398 7.59348 2.33398 7.63694V8.54074C2.33398 10.2717 3.74217 11.6799 5.47312 11.6799H6.95554V13.8437C6.95554 14.3381 7.35764 14.7402 7.85202 14.7402H18.1037C18.3625 14.7402 18.5722 14.5305 18.5722 14.2717C18.5722 14.0131 18.3625 13.8034 18.1037 13.8034H7.89255V6.24632H23.9433V13.8034H20.1025C19.8437 13.8034 19.634 14.0131 19.634 14.2719C19.634 14.5305 19.8437 14.7402 20.1025 14.7402H23.9835C24.4779 14.7402 24.88 14.3381 24.88 13.8439V6.20604C24.88 5.71165 24.4779 5.30955 23.9835 5.30955H17.3857V4.38939C17.3857 4.34569 17.4211 4.31029 17.4645 4.31029H26.3624C26.4061 4.31029 26.4415 4.34569 26.4415 4.38939V17.4094C26.4415 19.1403 27.8497 20.5485 29.5807 20.5485H31.2819C31.6779 20.5485 32.0001 20.2262 32.0001 19.8302V18.2065C31.9999 17.8105 31.6776 17.4882 31.2816 17.4882ZM5.47312 10.7431C4.25877 10.7431 3.27074 9.75509 3.27074 8.54074V7.63694C3.27074 7.07688 2.81517 6.62107 2.25487 6.62107H0.936764V5.43455H2.25487C3.46947 5.43455 4.4575 6.42259 4.4575 7.63694V8.54074C4.4575 9.1008 4.91307 9.55636 5.47312 9.55636H6.95554V10.7431H5.47312Z" fill="#0A0A0A"/>
</g>
<defs>
<clipPath id="clip0_700_50922">
<rect width="32" height="32" fill="#0A0A0A"/>
</clipPath>
</defs>
</svg>
