<svg width="32" height="32" viewBox="0 0 32 32" fill="none" xmlns="http://www.w3.org/2000/svg">
<path d="M30.5668 6.19119H29.7357C29.3922 6.19119 29.0488 6.18426 28.7059 6.17163L28.4357 6.44188C27.9625 6.91501 27.3208 7.18082 26.6517 7.18082H26.0487C25.3795 7.18082 24.7378 7.44663 24.2647 7.91976C23.7915 8.39288 23.1498 8.65869 22.4807 8.65869H21.2537C20.5845 8.65869 19.9428 8.92451 19.4697 9.39763L19.1248 9.74251C18.6517 10.2156 18.01 10.4814 17.3408 10.4814H16.8945V11.8564H19.2158C19.885 11.8564 20.5267 11.5906 20.9998 11.1175L21.3447 10.7726C21.8178 10.2995 22.4595 10.0337 23.1287 10.0337H24.3557C25.0248 10.0337 25.6665 9.76788 26.1397 9.29476C26.6128 8.82163 27.2545 8.55582 27.9237 8.55582H28.5267C29.1958 8.55582 29.8375 8.29001 30.3107 7.81688L30.968 7.15951C31.3253 6.80219 31.0722 6.19119 30.5668 6.19119Z" fill="#0272B8" fill-opacity="0.48"/>
<path d="M18.8897 25.1139C18.4474 24.659 17.928 24.2926 17.3871 23.9575H17.1499C16.8081 24.082 16.4721 24.223 16.1417 24.3746C15.9889 24.4447 15.8372 24.5173 15.6866 24.5923C15.6369 24.617 15.5876 24.6424 15.5382 24.6676C15.5142 24.6804 15.4189 24.7302 15.3906 24.7456C15.8368 24.9566 16.2842 25.1661 16.7151 25.4053C17.4218 25.7974 18.1167 26.3096 18.4278 27.0555C18.7682 27.8716 18.5851 28.8077 18.3106 29.6483C19.2429 29.5112 19.9251 28.5788 19.9743 27.6377C20.0235 26.6968 19.5466 25.7895 18.8897 25.1139Z" fill="#0272B8" fill-opacity="0.48"/>
<path d="M24.9036 12.7841C24.7966 12.2405 24.5133 11.7391 24.1196 11.35C23.7763 11.0108 23.3489 10.7569 22.8814 10.635C22.6613 10.5775 22.4333 10.547 22.2206 10.4662C21.9931 10.3798 21.7907 10.239 21.5706 10.1352C21.1888 9.95515 20.7536 9.89028 20.3358 9.95128C19.6453 10.0522 18.9716 10.5966 18.9573 11.2943C18.9466 11.8112 19.3076 12.2918 19.7763 12.51C20.2449 12.7282 20.7978 12.7117 21.2913 12.5575C21.6264 12.4528 21.9576 12.2857 22.3076 12.3127C22.7081 12.3437 23.0673 12.6542 23.1706 13.0424C23.2738 13.4306 23.1234 13.8702 22.8137 14.126C22.6037 14.2995 22.3385 14.3886 22.0799 14.4741C19.7708 15.2381 17.4616 16.002 15.1525 16.766C14.3829 17.0207 13.5953 17.2848 12.9624 17.7913C12.0017 18.56 11.6274 19.7252 11.7085 20.9177C11.7935 22.1664 12.5983 23.1149 13.6126 23.7925C14.0964 24.1156 14.6157 24.3769 15.1413 24.6279V23.6853H16.9339C16.8195 23.6182 16.7049 23.5517 16.5904 23.4855C16.0071 23.1477 15.4237 22.8099 14.8403 22.4721C14.4723 22.259 14.0961 22.0391 13.8248 21.7116C13.2693 21.041 13.3053 19.9558 13.904 19.3236C14.3122 18.8925 14.9006 18.6916 15.4644 18.5058L22.2106 16.2827C22.782 16.0943 23.3648 15.9002 23.8461 15.5391C24.6758 14.9167 25.1038 13.8017 24.9036 12.7841Z" fill="#0272B8" fill-opacity="0.48"/>
<path d="M31.5242 6.36188C31.3632 5.97337 30.9875 5.72231 30.567 5.72231H29.7359C28.4509 5.72231 27.154 5.63112 25.8815 5.45138C25.6256 5.41512 25.388 5.59363 25.3518 5.85C25.3155 6.10631 25.494 6.3435 25.7504 6.37969C27.0662 6.56556 28.4071 6.65981 29.7358 6.65981H30.567C30.5833 6.65981 30.6329 6.65981 30.658 6.72062C30.6832 6.78144 30.6482 6.81644 30.6366 6.82794L29.9792 7.48531C29.5913 7.87325 29.0754 8.087 28.5267 8.087H27.9237C27.1246 8.087 26.3733 8.39819 25.8082 8.96325C25.4203 9.35125 24.9044 9.56487 24.3557 9.56487H23.1287C22.7267 9.56487 22.324 9.64775 21.9539 9.80544C21.895 9.77337 21.8347 9.7415 21.7704 9.71119C21.3078 9.49294 20.7739 9.4135 20.268 9.48738C19.826 9.55194 19.4025 9.75313 19.0755 10.0539C18.7063 10.3934 18.4979 10.8305 18.4885 11.2846C18.4878 11.319 18.489 11.3533 18.4906 11.3876H17.3638V6.728C17.3674 6.72513 17.371 6.72262 17.3745 6.71962C18.7041 5.58244 20.5053 5.18 22.193 5.64331C22.7442 5.79462 23.3073 5.93106 23.8667 6.04881C24.1193 6.10194 24.3686 5.94006 24.4219 5.68669C24.4753 5.43337 24.3132 5.18475 24.0598 5.13144C23.5189 5.01756 22.9742 4.88563 22.4412 4.73931C20.6965 4.26038 18.8487 4.56706 17.3639 5.55494V4.62931C18.0807 4.16913 18.5149 3.38356 18.5149 2.51525C18.5149 1.12837 17.3868 0 16.0002 0C14.6137 0 13.4855 1.12837 13.4855 2.51531C13.4855 3.38 13.9173 4.16394 14.63 4.62488V5.55119C13.1464 4.56894 11.2919 4.26375 9.55923 4.73931C7.18304 5.39163 4.72873 5.72237 2.2646 5.72237H1.43348C1.01291 5.72237 0.637289 5.97344 0.476352 6.36194C0.315414 6.75044 0.403602 7.19363 0.700914 7.49094L1.35829 8.14825C1.92335 8.71331 2.67466 9.0245 3.47379 9.0245H4.07679C4.62548 9.0245 5.14135 9.23819 5.52929 9.62613C6.09435 10.1912 6.84566 10.5024 7.64479 10.5024H8.11754C7.83966 10.675 7.6031 10.8723 7.4001 11.1007C6.81198 11.7625 6.50404 12.5359 6.50966 13.3375C6.51616 14.2358 6.92304 15.1259 7.5981 15.7186C8.17848 16.2282 8.89398 16.4894 9.57716 16.7132C9.6256 16.7291 9.67485 16.7366 9.72316 16.7366C9.92035 16.7366 10.1039 16.6112 10.1685 16.4137C10.2492 16.1677 10.1151 15.9029 9.86904 15.8223C9.27823 15.6287 8.66391 15.4069 8.21666 15.0142C7.73941 14.5951 7.45179 13.9659 7.44716 13.3308C7.44323 12.765 7.66923 12.2092 8.10085 11.7235C8.29129 11.5093 8.5296 11.3302 8.82941 11.1759C9.04279 11.0662 9.26723 10.9842 9.50485 10.8974C9.63435 10.8501 9.76835 10.8011 9.90485 10.746C10.4272 10.5351 11.0371 10.3331 11.5984 10.4331C12.0306 10.5101 12.5007 10.8639 12.5067 11.3009C12.5102 11.5652 12.3353 11.8474 12.0714 12.0033C11.808 12.1587 11.4492 12.2064 11.0865 12.1342C10.9534 12.1077 10.8134 12.0661 10.665 12.0219C10.2509 11.8987 9.78148 11.7589 9.2811 11.9075C8.82498 12.0429 8.47079 12.4243 8.3336 12.9274C8.19648 13.4306 8.30816 13.9389 8.63248 14.2871C8.93116 14.6078 9.33941 14.7515 9.63754 14.8564C11.2479 15.4234 12.8886 15.9703 14.5198 16.4848C14.1385 16.6178 13.7463 16.7699 13.3719 16.9689C12.8282 16.7889 12.2845 16.6096 11.7402 16.4314C11.494 16.3509 11.2294 16.4851 11.1488 16.731C11.0682 16.977 11.2024 17.2418 11.4484 17.3224C11.7729 17.4286 12.0969 17.5359 12.4212 17.6428C11.5678 18.456 11.1503 19.6169 11.241 20.9495C11.3258 22.1954 12.0525 23.3107 13.3426 24.1755C13.0664 24.3923 12.8034 24.6308 12.564 24.8991C11.81 25.7439 11.4267 26.7774 11.5122 27.7344C11.6173 28.9088 12.4634 29.9039 13.524 30.1005C13.5525 30.1058 13.581 30.1083 13.6094 30.1083C13.7389 30.1083 13.8642 30.0546 13.9538 29.9576C14.063 29.8393 14.1039 29.6733 14.062 29.5177C13.8358 28.6766 13.6556 27.8665 13.9319 27.1996C14.0734 26.8582 14.3275 26.576 14.6301 26.3355V30.633C14.6301 31.3867 15.2433 31.9999 15.997 31.9999C16.7508 31.9999 17.364 31.3867 17.364 30.633V26.4101C17.665 26.6718 17.8737 26.9448 17.9952 27.2361C18.3019 27.9714 18.0678 28.8819 17.865 29.5029C17.8147 29.6571 17.8477 29.8265 17.9523 29.9506C18.0421 30.0571 18.1736 30.1171 18.3105 30.1171C18.3332 30.1171 18.356 30.1155 18.3788 30.1121C19.4908 29.9487 20.3779 28.8955 20.4424 27.6623C20.4935 26.6829 20.05 25.6349 19.2256 24.7871C19.0147 24.5702 18.7807 24.3639 18.5113 24.1576C19.1532 23.7137 19.7219 23.1824 20.1344 22.4834C20.2922 22.2159 20.4195 21.9268 20.5129 21.6241C20.8494 20.5328 20.7152 19.3419 20.154 18.4384C19.9788 18.1562 19.7673 17.8999 19.5163 17.6639L22.3574 16.7276C22.9304 16.5387 23.5799 16.3247 24.1275 15.9139C25.1019 15.1829 25.5986 13.8887 25.3634 12.6934C25.2416 12.0744 24.9169 11.4788 24.4489 11.0164C24.2448 10.8147 24.0185 10.6422 23.7767 10.5022H24.3558C25.1549 10.5022 25.9062 10.1911 26.4713 9.626C26.8592 9.23806 27.3751 9.02437 27.9238 9.02437H28.5268C29.3259 9.02437 30.0772 8.71319 30.6423 8.14812L31.2997 7.49081C31.5969 7.19356 31.6851 6.75038 31.5242 6.36188ZM18.8339 12.3252C19.0213 12.58 19.2759 12.7941 19.5784 12.9349C20.1162 13.1852 20.774 13.2101 21.4309 13.005C21.5211 12.9768 21.6079 12.9458 21.6917 12.9157C21.9047 12.8394 22.1069 12.7675 22.2715 12.7801C22.4685 12.7953 22.6645 12.9634 22.7175 13.1629C22.7725 13.3693 22.6874 13.6224 22.5152 13.7646C22.3702 13.8843 22.1477 13.9579 21.9327 14.0291L17.3639 15.5406V12.3251H18.8339V12.3252ZM14.423 2.51531C14.423 1.64531 15.1305 0.9375 16.0002 0.9375C16.8699 0.9375 17.5774 1.64531 17.5774 2.51531C17.5774 3.12394 17.2373 3.66775 16.6898 3.93456C16.5286 4.01312 16.4264 4.17669 16.4264 4.35594V15.8508L15.5454 16.1423C15.5597 16.0974 15.5675 16.0496 15.5675 16V4.35256C15.5675 4.17394 15.4659 4.01081 15.3057 3.93194C14.7612 3.66412 14.423 3.12131 14.423 2.51531ZM11.7628 9.51013C11.1034 9.39262 10.4634 9.54269 9.89579 9.746C9.5671 9.626 9.22329 9.56487 8.87166 9.56487H7.64466C7.09598 9.56487 6.5801 9.35119 6.19216 8.96325C5.6271 8.39819 4.87585 8.087 4.07666 8.087H3.47366C2.92498 8.087 2.4091 7.87331 2.02116 7.48531L1.36379 6.82794C1.35223 6.81644 1.31723 6.78137 1.34241 6.72062C1.36754 6.65981 1.4171 6.65981 1.43341 6.65981H2.2646C4.8126 6.65981 7.35029 6.31781 9.80735 5.64331C11.4393 5.19544 13.199 5.563 14.5145 6.62706C14.5504 6.65606 14.5894 6.67869 14.63 6.6955V11.3876H13.4416C13.4434 11.3545 13.4444 11.3214 13.444 11.2882C13.431 10.3257 12.5681 9.65369 11.7628 9.51013ZM9.31835 13.6481C9.19879 13.5197 9.19848 13.3191 9.23798 13.1741C9.27754 13.029 9.37973 12.8562 9.54785 12.8063C9.78098 12.7371 10.0667 12.8221 10.3977 12.9206C10.5599 12.9689 10.7276 13.0188 10.9034 13.0538C11.4977 13.1722 12.0818 13.0858 12.5479 12.8106C12.7618 12.6844 12.9451 12.5171 13.0896 12.3252H14.63V15.5366C13.0654 15.0411 11.493 14.5158 9.94879 13.9722C9.7196 13.8915 9.45991 13.8001 9.31835 13.6481ZM15.9969 31.0625C15.7601 31.0625 15.5675 30.8699 15.5675 30.6331V25.7492C15.5738 25.7459 15.5802 25.7424 15.5865 25.7391C15.8499 25.6018 16.1274 25.4648 16.3958 25.3323C16.406 25.3272 16.4162 25.3223 16.4264 25.3172V30.6331C16.4264 30.8699 16.2337 31.0625 15.9969 31.0625ZM18.5535 25.4408C19.1965 26.102 19.5437 26.8939 19.5061 27.6134C19.4837 28.0442 19.2962 28.4546 19.0205 28.7495C19.1174 28.1557 19.119 27.4954 18.8603 26.8752C18.604 26.2607 18.1137 25.7276 17.3639 25.2468V24.8428C17.4592 24.7922 17.5539 24.7409 17.648 24.6886C18.0119 24.9417 18.3041 25.1844 18.5535 25.4408ZM19.3576 18.9332C19.7777 19.6096 19.8746 20.5123 19.617 21.3481C19.5452 21.5809 19.4475 21.8027 19.3269 22.0072C18.6335 23.1822 17.285 23.8479 15.9809 24.4917C15.7079 24.6264 15.4256 24.7658 15.153 24.9079C14.3416 25.3311 13.459 25.8916 13.0657 26.8409C12.8137 27.4493 12.8178 28.0919 12.9225 28.7311C12.6617 28.4487 12.4828 28.0641 12.4459 27.651C12.3833 26.9511 12.6812 26.1756 13.2633 25.5233C13.8315 24.8866 14.5913 24.4219 15.3277 24.0147C15.4862 23.9271 15.6457 23.8408 15.8053 23.7546C16.4505 23.4058 17.1178 23.0452 17.7255 22.5845C18.0727 22.3213 18.503 21.9509 18.7511 21.4193C19.1547 20.5544 18.9241 19.4639 18.2027 18.8266C17.9672 18.6186 17.6967 18.4693 17.428 18.3522L18.4597 18.0122C18.8466 18.283 19.141 18.5844 19.3576 18.9332ZM17.3639 19.3704C17.4417 19.4183 17.5154 19.4702 17.5819 19.5291C17.9855 19.8857 18.1259 20.5419 17.9014 21.0229C17.7997 21.2408 17.6303 21.4469 17.3638 21.6734V19.3704H17.3639ZM15.9972 18.8237C16.0265 18.8416 16.0581 18.8569 16.0922 18.8684C16.2036 18.9059 16.315 18.9434 16.4264 18.9811V22.3298C16.1496 22.4977 15.8629 22.6569 15.5675 22.8172V18.9653C15.5821 18.9605 15.5967 18.9557 15.6112 18.9509L15.9972 18.8237ZM14.63 21.7946C14.461 21.681 14.3057 21.5573 14.1858 21.4125C13.7845 20.9281 13.8119 20.1026 14.2444 19.6459C14.3538 19.5304 14.4856 19.4336 14.63 19.3498L14.63 21.7946ZM24.4435 12.8746C24.6082 13.711 24.2469 14.6525 23.5649 15.1641C23.1402 15.4826 22.593 15.6629 22.0638 15.8373L15.3176 18.0604C14.7586 18.2447 14.0629 18.4739 13.5636 19.0011C12.8009 19.8064 12.7562 21.1564 13.4637 22.0104C13.7918 22.4066 14.224 22.6568 14.6054 22.8776C14.6134 22.8822 14.6217 22.8861 14.6299 22.8902V23.3311C14.48 23.4164 14.3299 23.5047 14.1805 23.5968C14.0726 23.5322 13.9711 23.4681 13.8729 23.4025C12.8124 22.6942 12.2415 21.8474 12.176 20.8857C12.0985 19.745 12.4817 18.776 13.2552 18.1571C13.83 17.6971 14.5771 17.4499 15.2996 17.2109L22.227 14.919C22.4964 14.8299 22.8315 14.7189 23.1121 14.4873C23.567 14.1115 23.7725 13.4824 23.6235 12.9218C23.4672 12.3341 22.9409 11.8914 22.3436 11.8452C21.9783 11.8169 21.6579 11.9317 21.3754 12.0329C21.297 12.061 21.2231 12.0875 21.1514 12.1099C20.7178 12.2452 20.2997 12.2363 19.974 12.0848C19.6501 11.9341 19.4196 11.6056 19.4258 11.3038C19.4332 10.9439 19.8091 10.5018 20.4035 10.4149C20.729 10.3674 21.0727 10.4185 21.3705 10.559C21.4455 10.5944 21.5228 10.6375 21.6046 10.6832C21.7369 10.7571 21.887 10.8408 22.054 10.9043C22.2257 10.9695 22.3984 11.0068 22.5506 11.0396C22.6254 11.0557 22.696 11.0709 22.763 11.0884C23.1406 11.1869 23.4957 11.3926 23.7899 11.6833C24.1255 12.0151 24.3577 12.4381 24.4435 12.8746Z" fill="#0A0A0A"/>
</svg>
