<svg width="624" height="619" viewBox="0 0 624 619" fill="none" xmlns="http://www.w3.org/2000/svg">
<g opacity="0.2">
<path d="M177.83 381.13C172.735 389.689 161.628 392.542 153.068 387.345C144.509 382.25 141.656 371.144 146.853 362.584C151.948 354.025 163.054 351.172 171.614 356.369C180.173 361.463 182.925 372.57 177.83 381.13Z" fill="white"/>
<path d="M170.903 335.58C165.91 343.833 155.21 346.585 146.956 341.592C138.703 336.599 135.952 325.899 140.945 317.646C145.938 309.392 156.637 306.641 164.891 311.634C173.144 316.627 175.896 327.326 170.903 335.58Z" fill="white"/>
<path d="M171.213 289.724C166.628 297.367 156.845 299.812 149.203 295.227C141.561 290.642 139.115 280.859 143.701 273.217C148.286 265.575 158.068 263.129 165.711 267.714C173.353 272.3 175.798 282.082 171.213 289.724Z" fill="white"/>
<path d="M178.236 245.603C173.855 252.94 164.378 255.283 157.144 250.902C149.909 246.52 147.463 237.146 151.845 229.809C156.226 222.574 165.601 220.129 172.938 224.51C180.274 228.892 182.618 238.267 178.236 245.603Z" fill="white"/>
<path d="M192.305 202.908C188.025 210.041 178.854 212.283 171.823 208.105C164.792 203.825 162.448 194.655 166.626 187.624C170.804 180.593 180.077 178.249 187.108 182.427C194.241 186.706 196.482 195.877 192.305 202.908Z" fill="white"/>
<path d="M212.484 162.451C208.612 168.973 200.256 171.01 193.735 167.138C187.315 163.266 185.175 154.911 189.047 148.389C192.92 141.868 201.275 139.83 207.797 143.702C214.216 147.574 216.356 155.93 212.484 162.451Z" fill="white"/>
<path d="M237.749 125.368C234.081 131.482 226.235 133.418 220.121 129.852C214.007 126.184 212.071 118.337 215.638 112.224C219.306 106.11 227.152 104.174 233.266 107.842C239.38 111.51 241.316 119.356 237.749 125.47" fill="white"/>
<path d="M267.812 92.6536C264.551 98.1561 257.418 99.8884 251.916 96.6276C246.413 93.3669 244.681 86.2341 247.942 80.7316C251.202 75.2291 258.335 73.4968 263.838 76.7576C269.34 80.0183 271.073 87.1511 267.812 92.6536Z" fill="white"/>
<path d="M303.478 65.2431C300.319 70.5418 293.492 72.1722 288.295 69.1152C282.996 65.9564 281.366 59.2311 284.423 53.9324C287.582 48.7356 294.409 47.0033 299.606 50.1622C304.802 53.321 306.535 60.0462 303.478 65.3449" fill="white"/>
<path d="M343.014 43.644C340.059 48.5351 333.741 50.1654 328.85 47.2103C323.959 44.2553 322.329 37.9376 325.284 33.0465C328.239 28.1554 334.556 26.5251 339.447 29.4802C344.339 32.4352 345.969 38.7529 343.014 43.644Z" fill="white"/>
<path d="M383.564 27.5423C380.813 32.1277 374.903 33.5543 370.419 30.9049C365.834 28.1537 364.407 22.2435 367.056 17.76C369.808 13.1746 375.718 11.7481 380.201 14.4993C384.787 17.2506 386.213 23.0587 383.564 27.6441" fill="white"/>
<path d="M427.792 18.5765C425.347 22.6525 419.946 24.0791 415.87 21.5317C411.692 19.0861 410.368 13.6854 412.813 9.60947C415.259 5.53355 420.659 4.10704 424.735 6.65449C428.811 9.10005 430.238 14.5006 427.69 18.5765" fill="white"/>
<path d="M471.304 15.9251C469.164 19.4915 464.578 20.6124 461.114 18.4725C457.547 16.3327 456.427 11.7471 458.566 8.18071C460.706 4.61428 465.292 3.4934 468.756 5.63326C472.323 7.77312 473.443 12.3585 471.304 15.8231" fill="white"/>
<path d="M515.319 20.5115C513.485 23.6704 509.409 24.5874 506.352 22.7533C503.193 20.9191 502.276 16.8431 504.11 13.7862C505.944 10.7293 510.02 9.71027 513.077 11.5444C516.134 13.3786 517.153 17.3527 515.319 20.5115Z" fill="white"/>
<path d="M188.838 423.82C184.048 431.768 173.757 434.316 165.809 429.628C157.861 424.839 155.313 414.547 160 406.599C164.79 398.651 175.081 396.104 183.029 400.791C190.977 405.478 193.525 415.77 188.838 423.718" fill="white"/>
<path d="M205.349 463.462C200.865 470.901 191.287 473.346 183.95 468.863C176.512 464.379 174.168 454.801 178.55 447.363C182.931 439.924 192.612 437.58 199.948 441.962C207.387 446.344 209.832 456.024 205.349 463.361" fill="white"/>
<path d="M229.195 501.267C224.712 508.705 215.133 511.151 207.796 506.667C200.358 502.184 198.014 492.605 202.396 485.167C206.777 477.728 216.458 475.384 223.794 479.766C231.233 484.148 233.679 493.828 229.195 501.165" fill="white"/>
<path d="M257.621 534.388C253.545 541.113 244.884 543.355 238.159 539.279C231.433 535.305 229.192 526.542 233.268 519.816C237.242 513.091 246.005 510.85 252.73 514.926C259.455 518.9 261.697 527.663 257.621 534.388Z" fill="white"/>
<path d="M291.344 562.713C287.471 569.133 279.116 571.272 272.696 567.4C266.277 563.528 264.137 555.274 268.009 548.753C271.881 542.333 280.237 540.193 286.656 544.065C293.076 547.938 295.216 556.293 291.344 562.713Z" fill="white"/>
<path d="M329.157 586.243C325.489 592.357 317.643 594.293 311.631 590.624C305.517 586.956 303.581 579.11 307.249 573.098C310.918 566.984 318.764 565.048 324.776 568.716C330.89 572.385 332.826 580.231 329.157 586.243Z" fill="white"/>
<path d="M370.217 603.975C366.854 609.579 359.722 611.311 354.117 608.051C348.513 604.79 346.781 597.555 350.041 591.951C353.404 586.346 360.537 584.614 366.141 587.875C371.746 591.238 373.58 598.37 370.217 603.975Z" fill="white"/>
<path d="M411.687 614.168C408.529 619.365 401.803 621.097 396.606 617.938C391.41 614.78 389.677 608.054 392.836 602.858C395.995 597.661 402.72 595.929 407.917 599.087C413.114 602.144 414.846 608.971 411.687 614.168Z" fill="white"/>
<path d="M456.018 618.446C453.165 623.235 446.847 624.865 442.058 621.91C437.269 619.057 435.638 612.842 438.593 607.95C441.446 603.161 447.764 601.531 452.553 604.486C457.343 607.339 458.973 613.555 456.018 618.446Z" fill="white"/>
<path d="M501.464 616.203C498.815 620.686 493.007 622.113 488.523 619.464C484.04 616.814 482.613 611.006 485.262 606.522C487.912 602.039 493.72 600.612 498.204 603.262C502.687 605.911 504.114 611.719 501.464 616.203Z" fill="white"/>
<path d="M543.645 606.632C541.2 610.708 536.003 612.033 531.927 609.588C527.953 607.142 526.628 601.945 528.972 597.869C531.418 593.793 536.614 592.571 540.69 594.914C544.766 597.36 545.989 602.556 543.645 606.632Z" fill="white"/>
<path d="M119.444 377.255C118.018 389.686 106.809 398.755 94.3774 397.329C81.9459 396.004 72.8769 384.693 74.3035 372.262C75.7301 359.83 86.9389 350.761 99.3704 352.188C111.802 353.512 120.871 364.823 119.444 377.255Z" fill="white"/>
<path d="M114.05 323.859C112.725 335.781 102.026 344.34 90.2056 343.016C78.2835 341.691 69.7241 330.992 71.0488 319.171C72.3734 307.351 83.0727 298.792 94.8929 300.015C106.815 301.339 115.374 312.039 114.05 323.859Z" fill="white"/>
<path d="M134.119 428.105C132.692 440.638 121.484 449.606 108.95 448.281C96.4166 446.854 87.4496 435.646 88.7743 423.112C90.2008 410.579 101.41 401.612 113.943 402.936C126.477 404.261 135.444 415.572 134.119 428.003" fill="white"/>
<path d="M155.93 479.66C154.503 492.194 143.295 501.16 130.761 499.836C118.228 498.409 109.261 487.2 110.585 474.667C112.012 462.133 123.221 453.167 135.754 454.491C148.288 455.816 157.255 467.127 155.93 479.558" fill="white"/>
<path d="M182.317 524.7C180.993 536.419 170.497 544.876 158.779 543.552C147.061 542.227 138.603 531.731 139.928 520.013C141.252 508.295 151.748 499.837 163.466 501.162C175.184 502.487 183.642 512.982 182.317 524.7Z" fill="white"/>
<path d="M215.948 566.071C214.726 577.484 204.332 585.839 192.92 584.515C181.405 583.292 173.151 572.898 174.476 561.486C175.699 550.073 186.092 541.718 197.505 543.042C208.918 544.265 217.273 554.659 215.948 566.071Z" fill="white"/>
<path d="M256.091 601.429C254.868 612.128 245.29 619.771 234.692 618.548C223.993 617.325 216.351 607.747 217.573 597.149C218.694 586.552 228.273 578.808 238.972 580.03C249.671 581.253 257.314 590.73 256.091 601.429Z" fill="white"/>
<path d="M300.218 630.27C299.098 640.562 289.825 648 279.533 646.879C269.241 645.759 261.803 636.486 262.924 626.194C264.045 615.902 273.317 608.464 283.609 609.585C293.901 610.706 301.339 619.979 300.218 630.27Z" fill="white"/>
<path d="M115.569 269.855C114.346 281.267 103.953 289.521 92.5402 288.298C81.1276 287.076 72.8739 276.784 74.0966 265.269C75.3194 253.857 85.6111 245.603 97.1256 246.826C108.538 248.049 116.792 258.34 115.569 269.855Z" fill="white"/>
<path d="M124.645 216.969C123.423 228.076 113.437 236.125 102.33 234.903C91.2229 233.68 83.173 223.694 84.3957 212.587C85.6185 201.48 95.6045 193.43 106.711 194.653C117.818 195.876 125.868 205.862 124.645 216.969Z" fill="white"/>
<path d="M141.356 165.097C140.235 175.694 130.656 183.336 120.059 182.216C109.462 181.095 101.819 171.516 102.94 160.919C104.061 150.322 113.639 142.679 124.237 143.8C134.834 145.023 142.477 154.499 141.356 165.097Z" fill="white"/>
<path d="M166.733 117.011C165.714 126.59 157.052 133.417 147.576 132.398C137.997 131.379 131.17 122.718 132.189 113.241C133.208 103.663 141.869 96.8356 151.346 97.8546C160.924 98.8736 167.751 107.535 166.733 117.011Z" fill="white"/>
<path d="M196.173 74.2085C195.154 83.2774 187.003 89.7988 177.934 88.7798C168.865 87.7608 162.343 79.6091 163.362 70.5401C164.381 61.4712 172.533 54.9497 181.5 55.9686C190.569 56.9876 197.09 65.1394 196.071 74.1065" fill="white"/>
<path d="M233.674 34.9835C232.756 43.441 225.114 49.5549 216.657 48.6378C208.199 47.7207 202.085 40.0784 203.002 31.6208C203.919 23.1633 211.562 17.0495 220.019 17.9665C228.477 18.8836 234.591 26.526 233.674 34.9835Z" fill="white"/>
<path d="M277.485 3.79314C276.568 11.945 269.333 17.7532 261.182 16.8361C253.03 15.919 247.222 8.68417 248.139 0.532331C249.056 -7.61951 256.291 -13.4277 264.442 -12.5106C272.594 -11.5935 278.402 -4.3587 277.485 3.79314Z" fill="white"/>
<path d="M63.6113 261.395C61.7772 278.209 46.6962 290.335 29.8831 288.5C13.0699 286.666 0.94402 271.483 2.77818 254.772C4.61235 237.959 19.6933 225.833 36.5064 227.769C53.3196 229.603 65.4455 244.684 63.6113 261.497" fill="white"/>
<path d="M74.9156 198.932C73.1833 215.032 58.6119 226.649 42.512 224.916C26.4121 223.082 14.7958 208.613 16.528 192.513C18.3622 176.413 32.8317 164.797 48.9316 166.529C65.0315 168.261 76.6479 182.832 74.9156 198.932Z" fill="white"/>
<path d="M97.3307 138.914C95.5984 155.014 81.027 166.631 64.9271 164.898C48.8272 163.064 37.2108 148.595 38.9431 132.495C40.7772 116.395 55.2468 104.779 71.3467 106.511C87.4465 108.243 99.0629 122.815 97.3307 138.914Z" fill="white"/>
<path d="M125.053 82.9737C123.423 97.749 110.176 108.346 95.4011 106.716C80.7277 105.086 70.0284 91.8388 71.6588 77.1655C73.2892 62.4922 86.5359 51.7929 101.209 53.4232C115.883 55.0536 126.582 68.3004 124.951 82.9737" fill="white"/>
<path d="M162.452 31.8213C160.924 45.8833 148.186 56.073 134.125 54.5446C120.063 53.0161 109.873 40.2788 111.401 26.2169C112.93 12.155 125.667 1.96522 139.729 3.49369C153.893 5.02217 163.981 17.7594 162.452 31.8213Z" fill="white"/>
<path d="M205.654 -12.4062C204.126 1.04435 192.102 10.7246 178.549 9.29798C165.099 7.76951 155.418 -4.2544 156.845 -17.7049C158.373 -31.1555 170.397 -40.8358 183.848 -39.4093C197.299 -37.8808 206.979 -25.8567 205.552 -12.4062" fill="white"/>
<path d="M174.571 598.171C178.953 610.704 172.329 624.461 159.796 628.842C147.262 633.224 133.506 626.6 129.125 614.067C124.743 601.533 131.366 587.777 143.9 583.396C156.433 579.014 170.088 585.637 174.571 598.171Z" fill="white"/>
<path d="M135.344 549.362C140.031 562.71 133.001 577.281 119.652 581.969C106.303 586.656 91.7318 579.625 87.0445 566.277C82.3572 552.928 89.3881 538.356 102.737 533.669C116.085 528.982 130.657 536.013 135.344 549.362Z" fill="white"/>
<path d="M103.143 495.763C108.136 510.029 100.595 525.619 86.3295 530.51C72.0637 535.503 56.4733 527.963 51.5822 513.697C46.5892 499.431 54.1297 483.841 68.3954 478.95C82.6611 473.957 98.2515 481.497 103.143 495.763Z" fill="white"/>
<path d="M79.8125 436.052C85.0093 450.929 77.1632 467.13 62.286 472.327C47.4089 477.524 31.2071 469.678 26.0103 454.902C20.8135 440.025 28.6597 423.824 43.5368 418.627C58.4139 413.43 74.6157 421.276 79.8125 436.052Z" fill="white"/>
<path d="M64.9352 373.486C70.4376 389.178 62.1839 406.195 46.4916 411.697C30.9012 417.2 13.7823 408.946 8.27984 393.254C2.77734 377.562 11.0311 360.545 26.7234 355.042C42.3138 349.54 59.4327 357.793 64.9352 373.486Z" fill="white"/>
<path d="M59.0211 310.718C64.5236 326.41 56.2698 343.427 40.5775 348.929C24.9871 354.432 7.86827 346.178 2.36577 330.486C-3.13672 314.793 5.11702 297.776 20.8093 292.274C36.3997 286.771 53.5186 295.025 59.0211 310.718Z" fill="white"/>
</g>
</svg>
