<svg width="28" height="32" viewBox="0 0 28 32" fill="none" xmlns="http://www.w3.org/2000/svg">
<path fill-rule="evenodd" clip-rule="evenodd" d="M20.2865 25.1871C19.7666 24.2783 18.8903 23.5918 17.8255 23.3288H17.8254L15.3563 22.7186C15.2488 22.692 15.1688 22.6042 15.1504 22.4975C15.1478 22.4823 15.1465 22.4666 15.1465 22.4508V21.5269L15.1465 21.5269V20.0898C17.1217 19.0238 18.9582 16.8833 19.5445 13.8773C19.5059 13.865 19.4677 13.8522 19.4298 13.8391C19.3728 13.8194 19.3166 13.7988 19.2612 13.7773C18.6351 13.5347 18.1112 13.1842 17.6725 12.768L17.6725 12.7689C15.4193 10.6321 15.4193 6.75319 15.4193 6.75319C14.3857 9.38938 10.2555 13.9321 5.35596 14.6298C6.07979 17.2418 7.7699 19.1149 9.57596 20.0897V21.2392L9.57596 21.5268L9.57596 22.4438C9.57596 22.5709 9.48965 22.6813 9.36609 22.7117L6.86871 23.3288C6.36418 23.4534 5.90198 23.6731 5.49997 23.9664V20.3438L4.87497 18.9688L2.3457 17.9688V10.4845C2.3457 4.95294 6.82989 0.46875 12.3614 0.46875C17.893 0.46875 22.3771 4.95294 22.3771 10.4845V16.5625L20.0937 17.3438L19.25 18.4062L22.1701 21.5938C21.8552 22.9561 21.1949 24.1863 20.2865 25.1871Z" fill="#0272B8" fill-opacity="0.48"/>
<path d="M24.0936 15.9214L23.0723 16.2932C23.7133 16.0599 24.4358 16.7577 24.4015 17.5771L24.2228 21.8534L25.0512 21.5519L25.6135 17.1359C25.7213 16.2898 24.8952 15.6297 24.0936 15.9214Z" fill="#FDCA67"/>
<path d="M5.46816 20.2766C5.46816 20.3546 5.45072 20.4258 5.41441 20.4878C5.15859 20.9314 4.05041 20.771 2.94003 20.1298C1.98547 19.5788 1.33984 18.8513 1.33984 18.376C1.33984 18.2988 1.35728 18.2276 1.39284 18.1656C1.64941 17.722 2.75684 17.8825 3.86722 18.5236C4.82172 19.0746 5.46816 19.8013 5.46816 20.2766Z" fill="#FF9794"/>
<path d="M21.6466 23.1606C21.4185 23.0385 21.1343 23.1242 21.0121 23.3524C20.8135 23.723 20.5838 24.0757 20.3274 24.4075C19.7396 23.6643 18.9111 23.1141 17.9377 22.8737L15.6153 22.2998V20.3662C16.3411 19.9399 17.0314 19.3826 17.6427 18.7156C17.8177 18.5247 17.8047 18.2282 17.6139 18.0533C17.4231 17.8784 17.1266 17.8913 16.9516 18.0821C15.6466 19.506 13.8877 20.3906 12.3614 20.3906C11.5003 20.3906 10.6712 20.1568 9.90612 19.7568C9.84499 19.6961 9.76718 19.6525 9.68024 19.6328C7.96974 18.6496 6.60593 16.8415 5.96343 15.0019C8.6063 14.4789 10.7663 12.9786 12.1461 11.7713C13.3303 10.7351 14.3797 9.51877 15.1066 8.36777C15.5213 10.8525 16.6794 13.226 18.9999 14.1776C18.794 15.0398 18.4714 15.8529 18.0388 16.5996C17.909 16.8236 17.9854 17.1105 18.2094 17.2402C18.4334 17.37 18.7202 17.2936 18.8499 17.0696C19.3181 16.2615 19.6689 15.3843 19.8966 14.4561C20.1207 14.5065 20.351 14.5451 20.5881 14.5706C20.8459 14.5988 21.0766 14.412 21.1042 14.1546C21.1319 13.8973 20.9457 13.6661 20.6883 13.6385C20.2586 13.5923 19.8557 13.4989 19.4802 13.3587C19.4799 13.3586 19.4796 13.3585 19.4793 13.3584C19.426 13.3385 19.3733 13.3176 19.3211 13.2958C19.3207 13.2957 19.3204 13.2955 19.3201 13.2954C17.8226 12.6696 16.9289 11.3285 16.4158 9.78202C16.4132 9.77415 16.4106 9.76627 16.4079 9.75834C15.8973 8.20527 15.8884 6.76865 15.8884 6.75377C15.8884 6.52852 15.728 6.33477 15.5065 6.2929C15.2846 6.25096 15.0652 6.37259 14.983 6.5824C13.8921 9.36427 9.7728 13.5276 5.28993 14.1661C5.28643 14.1666 5.28305 14.1675 5.27962 14.1681C4.89043 14.2226 4.49199 14.2531 4.0848 14.2531C3.82593 14.2531 3.61605 14.463 3.61605 14.7219C3.61605 14.9808 3.82593 15.1906 4.0848 15.1906C4.39918 15.1906 4.71118 15.1741 5.02043 15.1429C5.7318 17.3688 7.02224 18.7857 8.00662 19.5946C8.35893 19.8841 8.7283 20.1408 9.1073 20.3625V22.2933L6.75587 22.8741C6.47149 22.9445 6.19806 23.0416 5.93712 23.1645V20.2769C5.93712 19.4654 4.94843 18.6067 4.10187 18.118C3.51443 17.7788 2.90193 17.5501 2.37724 17.4741C1.47374 17.3435 1.11855 17.7043 0.986555 17.9326C0.910117 18.0657 0.871367 18.215 0.871367 18.3763V24.3953C0.506367 24.5697 0.25293 24.9415 0.25293 25.3722V27.566C0.25293 27.8249 0.462805 28.0347 0.72168 28.0347C0.980555 28.0347 1.19043 27.8249 1.19043 27.566V27.08H5.61793V30.9172C5.61793 30.9975 5.55262 31.0628 5.4723 31.0628H1.33605C1.25574 31.0628 1.19043 30.9975 1.19043 30.9172V29.441C1.19043 29.182 0.980555 28.9722 0.72168 28.9722C0.462805 28.9722 0.25293 29.182 0.25293 29.441V30.9172C0.25293 31.5145 0.738805 32.0003 1.33605 32.0003H5.4723C6.06955 32.0003 6.55543 31.5145 6.55543 30.9172V29.6526H20.9398C21.0692 29.6526 21.1929 29.5991 21.2816 29.5047C21.3702 29.4103 21.4157 29.2835 21.4077 29.1544L21.2627 26.855C21.2268 26.2851 21.0831 25.744 20.851 25.2519C21.2288 24.8025 21.5606 24.3141 21.8387 23.7952C21.9607 23.567 21.8748 23.2828 21.6466 23.1606ZM4.99949 24.2888H1.80868L1.80874 19.9003C2.09249 20.1458 2.4078 20.3638 2.70568 20.5357C3.34799 20.9066 4.26943 21.2763 4.99949 21.196V24.2888ZM4.99593 20.2471C4.80937 20.3152 4.1063 20.2619 3.17449 19.7238C2.26962 19.2015 1.85212 18.6267 1.81205 18.4065C2.61755 18.1126 4.88437 19.5921 4.99593 20.2471ZM1.19024 26.1421V25.372C1.19024 25.2916 1.25555 25.2263 1.33587 25.2263C5.79724 25.2265 5.4493 25.2265 5.46824 25.2265C5.46905 25.2265 5.46987 25.2263 5.47068 25.2263H5.47218C5.55249 25.2263 5.6178 25.2916 5.6178 25.372V26.1421H1.19024ZM6.55524 28.7151V26.6133C6.55524 26.6125 6.55537 26.6118 6.55537 26.6109C6.55537 26.61 6.55524 26.6093 6.55524 26.6085V25.372C6.55524 24.9412 6.30193 24.5696 5.93693 24.3951V24.2355C6.25662 24.0286 6.60655 23.8765 6.98074 23.7838L9.4783 23.167C9.81174 23.0846 10.0446 22.7871 10.0446 22.4438V20.8305C10.8219 21.1542 11.6137 21.328 12.3614 21.328C13.1199 21.328 13.9078 21.1554 14.6777 20.8349V22.4506C14.6777 22.7935 14.9102 23.0908 15.2441 23.1738L17.7128 23.7838C18.6398 24.0128 19.3999 24.5988 19.8585 25.3793C19.8706 25.4061 19.8852 25.4318 19.9025 25.4563C20.1445 25.8936 20.2936 26.3885 20.3267 26.9139L20.4403 28.715H6.55524V28.7151Z" fill="#0A0A0A"/>
<path d="M2.3457 16.5969C2.60458 16.5969 2.81445 16.3871 2.81445 16.1281V10.4844C2.81445 5.22019 7.0972 0.9375 12.3613 0.9375C14.9111 0.9375 17.3084 1.93069 19.1117 3.734C19.1752 3.79744 19.2375 3.86219 19.2992 3.92744C19.0932 4.04081 18.8338 4.13762 18.4954 4.2295C18.1718 4.31737 17.9545 4.60181 17.9545 4.93719C17.9545 5.27256 18.1719 5.557 18.4955 5.64488C19.5933 5.94275 19.9342 6.28356 20.2322 7.38194C20.3201 7.705 20.6045 7.92206 20.9398 7.92206C21.1576 7.92206 21.3535 7.83006 21.4885 7.67712C21.7669 8.58094 21.9082 9.52087 21.9082 10.4844V14.6594C21.9082 14.9183 22.118 15.1281 22.377 15.1281C22.6359 15.1281 22.8457 14.9183 22.8457 14.6594V10.4844C22.8457 9.07963 22.573 7.71975 22.0354 6.438C22.2935 6.05613 22.6744 5.83756 23.3842 5.64488L23.3845 5.64475C23.7076 5.55681 23.9246 5.27244 23.9246 4.93719C23.9246 4.60194 23.7076 4.31756 23.3841 4.2295C22.2863 3.93156 21.9455 3.59075 21.6476 2.49275C21.5597 2.16919 21.2753 1.95187 20.9399 1.95187C20.6045 1.95187 20.3201 2.16925 20.2322 2.49288C20.1468 2.80763 20.0568 3.0545 19.9528 3.25394C19.8941 3.19231 19.8349 3.13119 19.7748 3.07106C17.7943 1.09063 15.1615 0 12.3613 0C6.5802 0 1.87695 4.70325 1.87695 10.4844V16.1281C1.87695 16.387 2.08683 16.5969 2.3457 16.5969ZM20.94 3.34113C21.2601 4.14694 21.7283 4.6155 22.5331 4.93594C21.9223 5.17556 21.4378 5.52975 21.0948 6.18888C21.0938 6.19088 21.0928 6.19294 21.0917 6.19494C21.0912 6.19588 21.0907 6.19681 21.0903 6.19781C21.0371 6.30088 20.9868 6.412 20.9392 6.53263C20.6187 5.72638 20.15 5.25787 19.3438 4.9375C19.7571 4.77406 20.0696 4.57737 20.3208 4.32713C20.3225 4.3255 20.324 4.32369 20.3256 4.322C20.3278 4.31969 20.33 4.31744 20.3321 4.31512C20.5813 4.06362 20.7775 3.752 20.94 3.34113Z" fill="#0A0A0A"/>
<path d="M27.6347 26.5101L25.8203 21.525C25.7681 21.3817 25.6835 21.2565 25.574 21.1566L26.0784 17.1949C26.1499 16.6341 25.9288 16.0885 25.4871 15.7356C25.0455 15.3826 24.4646 15.2873 23.9333 15.4807L22.7692 15.9044C22.768 15.9048 22.7668 15.905 22.7656 15.9055L21.071 16.5223C21.0698 16.5226 21.0688 16.5233 21.0677 16.5236L19.9035 16.9474C19.3722 17.1408 18.9885 17.5871 18.877 18.1414C18.7655 18.6957 18.9468 19.2557 19.3621 19.6395L22.295 22.35C22.2753 22.4968 22.291 22.6472 22.3431 22.7905L22.8947 24.306C22.8948 24.3062 22.8948 24.3064 22.8949 24.3066C22.895 24.3068 22.895 24.3069 22.8951 24.307L24.1575 27.7755C24.7164 29.3115 26.8749 29.4219 27.573 27.9247C27.7818 27.477 27.8038 26.9745 27.6347 26.5101ZM23.303 22.6869L25.0183 22.0626L25.3308 22.9213L23.6155 23.5456L23.303 22.6869ZM19.796 18.3265C19.8432 18.0918 19.9992 17.9104 20.2241 17.8285L20.5713 17.7021C20.6163 18.1029 20.7671 18.5458 21.0028 18.9194L21.5315 19.7577C21.6206 19.8991 21.7728 19.9765 21.9285 19.9765C22.0139 19.9765 22.1005 19.9531 22.1781 19.9041C22.397 19.766 22.4626 19.4766 22.3245 19.2576L21.7958 18.4192C21.5367 18.0085 21.4754 17.5471 21.4978 17.3649L22.9803 16.8253C23.1146 16.9505 23.3642 17.3433 23.4297 17.8246L23.5636 18.8066C23.5986 19.0631 23.836 19.2428 24.0913 19.2078C24.3478 19.1728 24.5275 18.9364 24.4925 18.68L24.3586 17.698C24.299 17.2603 24.1298 16.8241 23.9068 16.4881C24.0845 16.4641 24.4861 16.1356 24.9019 16.468C25.0888 16.6174 25.1787 16.8391 25.1484 17.0765L24.6539 20.9604C24.645 20.9634 24.6361 20.9655 24.6273 20.9687L22.8993 21.5976C22.8905 21.6008 22.8823 21.605 22.8736 21.6085L19.9983 18.9511C19.8225 18.7887 19.7488 18.5611 19.796 18.3265ZM25.5103 27.9701C25.2894 27.8671 25.1218 27.6841 25.0384 27.455L23.9361 24.4266L25.6515 23.8023L26.7538 26.8308C27.0334 27.599 26.2395 28.31 25.5103 27.9701Z" fill="#0A0A0A"/>
</svg>
