<svg width="30" height="32" viewBox="0 0 30 32" fill="none" xmlns="http://www.w3.org/2000/svg">
<path fill-rule="evenodd" clip-rule="evenodd" d="M18.2852 1.61063V3.00187C18.2852 3.6325 17.774 4.14375 17.1427 4.14375H12.5384H10.2402C9.609 4.14375 9.09775 3.6325 9.09775 3.00187V1.61063C9.09775 0.98 9.609 0.46875 10.2402 0.46875H12.5765H17.1427C17.774 0.46875 18.2852 0.98 18.2852 1.61063ZM4.18087 13.4906V20.3937C4.18087 20.8381 3.92712 21.2237 3.55587 21.4119C3.40086 21.4913 3.22461 21.5356 3.03898 21.5356H1.64773C1.01711 21.5356 0.505859 21.0244 0.505859 20.3938V13.4906C0.505859 12.8594 1.01711 12.3481 1.64773 12.3481H3.03898C3.22086 12.3481 3.39336 12.3913 3.54648 12.4669L3.54649 12.4669C3.92274 12.6537 4.18087 13.0419 4.18087 13.4906ZM29.4946 18.5094V11.6062C29.4946 11.0775 29.1352 10.6325 28.6471 10.5031C28.5534 10.4775 28.4546 10.4644 28.3527 10.4644H26.9615C26.3309 10.4644 25.8196 10.9756 25.8196 11.6062V18.5094C25.8196 19.1406 26.3309 19.6519 26.9615 19.6519H28.3527C28.4577 19.6519 28.5596 19.6375 28.6565 19.6106C29.1396 19.4775 29.4946 19.035 29.4946 18.5094ZM12.9346 31.5312H15.0434C14.2015 30.4662 14.0946 28.9944 14.8271 27.8562H12.9346C12.304 27.8562 11.7927 28.3675 11.7927 28.9981V30.3894C11.7927 31.02 12.304 31.5312 12.9346 31.5312Z" fill="#0272B8" fill-opacity="0.48"/>
<path fill-rule="evenodd" clip-rule="evenodd" d="M1.64786 12.8171C1.27604 12.8171 0.974609 13.1185 0.974609 13.4904V20.3935C0.974609 20.7653 1.27605 21.0667 1.64788 21.0667H3.03892C3.41074 21.0667 3.71217 20.7653 3.71217 20.3935V13.4904C3.71217 13.1186 3.41077 12.8171 3.03892 12.8171H1.64786ZM0.0371094 13.4904C0.0371094 12.6007 0.758305 11.8796 1.64786 11.8796H3.03892C3.92857 11.8796 4.64967 12.6008 4.64967 13.4904V20.3935C4.64967 21.2831 3.92848 22.0042 3.03892 22.0042H1.64797C1.64795 22.0042 1.64798 22.0042 1.64797 22.0042C0.758312 22.0043 0.0371094 21.2831 0.0371094 20.3935V13.4904Z" fill="black"/>
<path fill-rule="evenodd" clip-rule="evenodd" d="M10.9795 10.873C11.2384 10.873 11.4482 11.0829 11.4482 11.3418V13.4854C11.4482 13.7443 11.2384 13.9542 10.9795 13.9542C10.7206 13.9542 10.5107 13.7443 10.5107 13.4854V11.3418C10.5107 11.0829 10.7206 10.873 10.9795 10.873Z" fill="black"/>
<path fill-rule="evenodd" clip-rule="evenodd" d="M10.2401 0.9375C9.86825 0.9375 9.56686 1.23896 9.56689 1.6107V3.00175C9.56689 3.37357 9.86829 3.675 10.2401 3.675H17.1432C17.515 3.675 17.8165 3.3736 17.8165 3.00175V1.61075C17.8165 1.23893 17.5151 0.9375 17.1432 0.9375H10.2401ZM8.62939 1.61075C8.62933 0.721138 9.35055 0 10.2401 0H17.1432C18.0329 0 18.754 0.721196 18.754 1.61075V3.00175C18.754 3.8914 18.0328 4.6125 17.1432 4.6125H10.2401C9.35049 4.6125 8.62939 3.8913 8.62939 3.00175V1.61075C8.62939 1.61077 8.62939 1.61073 8.62939 1.61075Z" fill="black"/>
<path fill-rule="evenodd" clip-rule="evenodd" d="M10.4976 13.6619C10.4976 12.6764 11.2965 11.8774 12.282 11.8774H17.6263C17.8852 11.8774 18.0951 12.0873 18.0951 12.3462C18.0951 12.6051 17.8852 12.8149 17.6263 12.8149H12.282C11.8143 12.8149 11.4351 13.1941 11.4351 13.6619C11.4351 14.1296 11.8143 14.5088 12.282 14.5088C12.5409 14.5088 12.7507 14.7187 12.7507 14.9776C12.7507 15.2365 12.5409 15.4463 12.282 15.4463C11.2965 15.4463 10.4976 14.6474 10.4976 13.6619Z" fill="black"/>
<path fill-rule="evenodd" clip-rule="evenodd" d="M8.98486 16.2964C8.98486 15.3109 9.78379 14.512 10.7693 14.512H17.0813C17.3402 14.512 17.55 14.7218 17.55 14.9807C17.55 15.2396 17.3402 15.4495 17.0813 15.4495H10.7693C10.3016 15.4495 9.92236 15.8287 9.92236 16.2964C9.92236 16.7641 10.3016 17.1433 10.7693 17.1433H17.0813C17.3402 17.1433 17.55 17.3532 17.55 17.6121C17.55 17.871 17.3402 18.0808 17.0813 18.0808H10.7693C9.78379 18.0808 8.98486 17.2819 8.98486 16.2964Z" fill="black"/>
<path fill-rule="evenodd" clip-rule="evenodd" d="M10.4976 18.9265C10.4976 17.941 11.2965 17.1421 12.282 17.1421C12.5409 17.1421 12.7507 17.352 12.7507 17.6108C12.7507 17.8697 12.5409 18.0796 12.282 18.0796C11.8143 18.0796 11.4351 18.4588 11.4351 18.9265C11.4351 19.3943 11.8143 19.7735 12.282 19.7735H19.0827C19.3416 19.7735 19.5514 19.9833 19.5514 20.2422C19.5514 20.5011 19.3416 20.711 19.0827 20.711H12.282C11.2965 20.711 10.4976 19.912 10.4976 18.9265Z" fill="black"/>
<path fill-rule="evenodd" clip-rule="evenodd" d="M11.3237 28.9982C11.3237 28.1086 12.0448 27.3875 12.9345 27.3875H19.8375C20.7271 27.3875 21.4483 28.1085 21.4483 28.9982V30.3892C21.4483 31.2788 20.7272 32 19.8375 32H16.3502C16.0913 32 15.8814 31.7901 15.8814 31.5312C15.8814 31.2723 16.0913 31.0625 16.3502 31.0625H19.8375C20.2094 31.0625 20.5108 30.761 20.5108 30.3892V28.9982C20.5108 28.6264 20.2094 28.325 19.8375 28.325H12.9345C12.5626 28.325 12.2612 28.6264 12.2612 28.9982V30.3892C12.2612 30.761 12.5627 31.0625 12.9345 31.0625H14.1627C14.4216 31.0625 14.6314 31.2723 14.6314 31.5312C14.6314 31.7901 14.4216 32 14.1627 32H12.9345C12.0449 32 11.3237 31.2789 11.3237 30.3892V28.9982Z" fill="black"/>
<path fill-rule="evenodd" clip-rule="evenodd" d="M25.3506 11.6066C25.3506 10.717 26.0718 9.99585 26.9613 9.99585H28.3524C29.242 9.99585 29.9631 10.7169 29.9631 11.6066V12.5683C29.9631 12.8272 29.7533 13.037 29.4944 13.037C29.2355 13.037 29.0256 12.8272 29.0256 12.5683V11.6066C29.0256 11.2348 28.7242 10.9333 28.3524 10.9333H26.9613C26.5895 10.9333 26.2881 11.2348 26.2881 11.6066V18.5097C26.2881 18.8815 26.5895 19.1829 26.9613 19.1829H28.3523C28.7242 19.1829 29.0256 18.8815 29.0256 18.5097V14.7558C29.0256 14.4969 29.2355 14.287 29.4943 14.287C29.7532 14.287 29.9631 14.4969 29.9631 14.7558V18.5097C29.9631 19.3992 29.242 20.1204 28.3523 20.1204H26.9613C26.0718 20.1204 25.3506 19.3993 25.3506 18.5097V11.6066Z" fill="black"/>
<path fill-rule="evenodd" clip-rule="evenodd" d="M24.114 18.4889C24.189 18.319 24.3572 18.2095 24.5428 18.2095H25.8331C26.092 18.2095 26.3019 18.4193 26.3019 18.6782C26.3019 18.9371 26.092 19.147 25.8331 19.147H24.8394C24.4229 19.9711 23.8443 20.6479 23.2898 21.1497C22.6977 21.6856 22.0876 22.0623 21.6826 22.1871L18.2924 23.5204C18.2867 23.5226 18.2809 23.5248 18.2751 23.5268C17.2053 23.8994 16.0362 23.3334 15.665 22.2632C15.3429 21.3345 15.7275 20.3327 16.5342 19.8417C16.7553 19.7071 17.0437 19.7772 17.1783 19.9984C17.3129 20.2195 17.2427 20.5079 17.0216 20.6425C16.5841 20.9088 16.3763 21.453 16.5507 21.9559L16.5508 21.9559C16.7512 22.5339 17.3806 22.8408 17.9587 22.6442L21.3576 21.3076C21.3711 21.3023 21.3847 21.2976 21.3986 21.2936C21.6067 21.2332 22.1041 20.9584 22.6607 20.4546C23.2047 19.9623 23.7594 19.2919 24.114 18.4889Z" fill="black"/>
<path fill-rule="evenodd" clip-rule="evenodd" d="M12.9453 11.0313C12.9453 10.0458 13.7442 9.24683 14.7297 9.24683H21.5857C22.9258 9.24683 24.1044 9.93233 24.7928 10.9693H25.8334C26.0923 10.9693 26.3021 11.1791 26.3021 11.438C26.3021 11.6969 26.0923 11.9068 25.8334 11.9068H24.5306C24.3614 11.9068 24.2054 11.8156 24.1223 11.6682C23.6224 10.7815 22.6737 10.1843 21.5857 10.1843H14.7297C14.262 10.1843 13.8828 10.5635 13.8828 11.0313C13.8828 11.499 14.262 11.8782 14.7297 11.8782C14.9886 11.8782 15.1985 12.0881 15.1985 12.347C15.1985 12.6058 14.9886 12.8157 14.7297 12.8157C13.7442 12.8157 12.9453 12.0168 12.9453 11.0313Z" fill="black"/>
<path fill-rule="evenodd" clip-rule="evenodd" d="M17.3115 3.66113C17.5704 3.66113 17.7803 3.871 17.7803 4.12988V5.12357C18.6044 5.54 19.2812 6.11864 19.783 6.67316C20.3189 7.26523 20.6956 7.87539 20.8204 8.28033L21.3174 9.54389C21.4121 9.78481 21.2936 10.0569 21.0527 10.1517C20.8118 10.2464 20.5397 10.1279 20.4449 9.88701L19.9409 8.60532C19.9356 8.5919 19.9309 8.57824 19.9269 8.56439C19.8665 8.35624 19.5917 7.85888 19.0879 7.30223C18.5956 6.75827 17.9252 6.20357 17.1222 5.84893C16.9523 5.77393 16.8428 5.60578 16.8428 5.42013V4.12988C16.8428 3.871 17.0526 3.66113 17.3115 3.66113Z" fill="black"/>
<path fill-rule="evenodd" clip-rule="evenodd" d="M10.0716 3.66113C10.3304 3.66113 10.5403 3.871 10.5403 4.12988V5.43263C10.5403 5.60182 10.4491 5.75787 10.3018 5.84096C9.41506 6.34087 8.81787 7.28958 8.81787 8.37745V15.2334C8.81787 15.6585 9.13243 16.0111 9.54298 16.0701C9.79922 16.107 9.97708 16.3446 9.94022 16.6008C9.90337 16.857 9.66576 17.0349 9.40951 16.998C8.54593 16.8738 7.88037 16.1332 7.88037 15.2334V8.37745C7.88037 7.03746 8.56588 5.85887 9.60281 5.17047V4.12988C9.60281 3.871 9.81268 3.66113 10.0716 3.66113Z" fill="black"/>
<path fill-rule="evenodd" clip-rule="evenodd" d="M8.78396 10.1258C8.88012 10.3662 8.76322 10.639 8.52286 10.7351C8.25066 10.844 7.75837 11.1484 7.24069 11.6367C6.7285 12.1197 6.21903 12.7571 5.88604 13.5112C5.81104 13.681 5.64289 13.7906 5.45724 13.7906H4.16699C3.90811 13.7906 3.69824 13.5807 3.69824 13.3218C3.69824 13.0629 3.90811 12.8531 4.16699 12.8531H5.16067C5.54916 12.0843 6.07867 11.4439 6.59745 10.9546C7.17237 10.4124 7.76196 10.0298 8.17463 9.86472C8.41499 9.76855 8.68779 9.88545 8.78396 10.1258Z" fill="black"/>
<path fill-rule="evenodd" clip-rule="evenodd" d="M3.69824 20.562C3.69824 20.3031 3.90811 20.0933 4.16699 20.0933H5.46974C5.63893 20.0933 5.79498 20.1844 5.87807 20.3318C6.37798 21.2185 7.32668 21.8157 8.41462 21.8157H15.2706C15.4656 21.8157 15.6447 21.7493 15.7892 21.6368C15.9936 21.4778 16.2881 21.5146 16.4471 21.7189C16.606 21.9232 16.5693 22.2177 16.365 22.3767C16.0638 22.6111 15.6841 22.7532 15.2706 22.7532H8.41462C7.07458 22.7532 5.89599 22.0677 5.20758 21.0308H4.16699C3.90811 21.0308 3.69824 20.8209 3.69824 20.562Z" fill="black"/>
<path fill-rule="evenodd" clip-rule="evenodd" d="M21.7288 21.1985C21.9877 21.1985 22.1975 21.4084 22.1975 21.6672V23.6224C22.1975 24.9624 21.512 26.141 20.4751 26.8294V27.87C20.4751 28.1289 20.2652 28.3387 20.0063 28.3387C19.7475 28.3387 19.5376 28.1289 19.5376 27.87V26.5672C19.5376 26.3981 19.6288 26.242 19.7761 26.1589C20.6629 25.659 21.26 24.7103 21.26 23.6224V21.6672C21.26 21.4084 21.4699 21.1985 21.7288 21.1985Z" fill="black"/>
<path fill-rule="evenodd" clip-rule="evenodd" d="M9.02486 21.8483C9.26578 21.7536 9.53789 21.8721 9.63264 22.113L10.1367 23.3947C10.142 23.4081 10.1466 23.4218 10.1507 23.4356C10.2111 23.6438 10.4859 24.1411 10.9896 24.6978C11.4819 25.2417 12.1524 25.7964 12.9554 26.1511C13.1252 26.2261 13.2348 26.3942 13.2348 26.5799V27.8702C13.2348 28.1291 13.0249 28.3389 12.766 28.3389C12.5072 28.3389 12.2973 28.1291 12.2973 27.8702V26.8764C11.4732 26.46 10.7964 25.8814 10.2945 25.3268C9.75869 24.7348 9.38193 24.1246 9.25712 23.7197L8.76019 22.4561C8.66544 22.2152 8.78393 21.9431 9.02486 21.8483Z" fill="black"/>
</svg>
