<svg width="40" height="40" viewBox="0 0 40 40" fill="none" xmlns="http://www.w3.org/2000/svg">
<path d="M36.5365 40H10.3627L16.9334 6.37952H29.9658L36.5365 40Z" fill="#F9EBB2"/>
<path d="M32.8122 20.9449L29.9658 6.37952H16.9334L14.0869 20.9449H32.8122Z" fill="#FFF3C2"/>
<path d="M6.74877 40H3.46338V4.65861L8.12141 0H16.4406V3.2854H9.48286L6.74877 6.0194V40Z" fill="#797C7F"/>
<path d="M9.48286 3.2854H8.12141L3.46338 7.94402V40H6.74877V9.3048V6.01941L9.48286 3.2854Z" fill="#585B5E"/>
<path d="M32.1559 5.36699C32.1559 6.45509 31.2734 7.33823 30.1846 7.33823H16.7146C15.6259 7.33823 14.7434 6.45509 14.7434 5.36699V1.97124C14.7434 0.883141 15.6259 0 16.7146 0H30.1846C31.2734 0 32.1559 0.883141 32.1559 1.97124V5.36699Z" fill="#797C7F"/>
<path d="M14.7434 5.06537V5.36701C14.7434 6.4551 15.6259 7.33824 16.7146 7.33824H30.1846C31.2734 7.33824 32.1559 6.4551 32.1559 5.36701V5.06537H14.7434Z" fill="#EFBA35"/>
<path d="M16.7146 7.33814H30.1846C30.9179 7.33814 31.5499 6.93273 31.8897 6.33871H15.0095C15.3485 6.93273 15.9807 7.33814 16.7146 7.33814Z" fill="#EDCE37"/>
</svg>
