<svg width="41" height="40" viewBox="0 0 41 40" fill="none" xmlns="http://www.w3.org/2000/svg">
<path d="M35.7064 31.4032C35.2555 31.6636 34.7236 31.6536 34.2959 31.425C34.198 31.3727 34.0803 31.3853 33.9951 31.4482V38.4055L35.4164 39.5036C35.7341 39.749 36.195 39.5226 36.195 39.1212V30.9404C36.0746 31.1251 35.9106 31.2854 35.7064 31.4032Z" fill="#60B9FE"/>
<path d="M31.3845 31.4482C31.2993 31.3852 31.1815 31.3727 31.0837 31.425C30.656 31.6537 30.1242 31.6636 29.6732 31.4032C29.4689 31.2854 29.305 31.1252 29.1846 30.9404V39.1213C29.1846 39.5227 29.6456 39.749 29.9632 39.5037L31.3845 38.4056V31.4482Z" fill="#0094FD"/>
<path d="M34.0844 31.4048C34.0201 31.4237 33.9622 31.4646 33.9248 31.5248C33.6686 31.9372 33.2114 32.2118 32.6902 32.2118C32.1689 32.2118 31.7118 31.9372 31.4555 31.5248C31.4181 31.4646 31.3602 31.4237 31.2959 31.4048V38.4744L32.3947 37.6254C32.5687 37.491 32.8115 37.491 32.9855 37.6254L34.0843 38.4744L34.0844 31.4048Z" fill="#1CA8FF"/>
<path d="M38.63 0.394531H2.37008C1.34156 0.394531 0.5 1.23609 0.5 2.26461V28.1685C0.5 29.197 1.34156 30.0385 2.37008 30.0385H38.63C39.6585 30.0385 40.5 29.197 40.5 28.1685V2.26461C40.5 1.23609 39.6585 0.394531 38.63 0.394531Z" fill="#FFC365"/>
<path d="M4.41898 28.1685V2.26461C4.41898 1.23609 5.26047 0.394531 6.28906 0.394531H2.37008C1.34156 0.394531 0.5 1.23609 0.5 2.26461V28.1685C0.5 29.197 1.34156 30.0385 2.37008 30.0385H6.28906C5.26047 30.0386 4.41898 29.197 4.41898 28.1685Z" fill="#FFA90F"/>
<path d="M37.5048 5.46193C36.4493 5.27771 35.6168 4.44529 35.4325 3.38967C35.3917 3.15561 35.1904 2.98389 34.9529 2.98389H6.0466C5.80902 2.98389 5.6077 3.15561 5.56691 3.38967C5.38262 4.44529 4.5502 5.27771 3.49465 5.46193C3.26066 5.50279 3.08887 5.70412 3.08887 5.9417V24.492C3.08887 24.7296 3.26059 24.9308 3.49465 24.9718C4.5502 25.156 5.3827 25.9885 5.56691 27.044C5.60777 27.2781 5.8091 27.4498 6.0466 27.4498H27.1732L37.9106 23.3157V5.94162C37.9106 5.70412 37.7389 5.50271 37.5048 5.46193Z" fill="#DBEDFF"/>
<path d="M9.4859 27.0435C9.30168 25.9879 8.46918 25.1555 7.41363 24.9712C7.17965 24.9303 7.00785 24.7291 7.00785 24.4914V5.94121C7.00785 5.70363 7.17957 5.5023 7.41363 5.46144C8.46918 5.27723 9.30168 4.4448 9.4859 3.38918C9.52676 3.15512 9.72809 2.9834 9.96559 2.9834H6.0466C5.80902 2.9834 5.6077 3.15512 5.56691 3.38918C5.38262 4.44488 4.5502 5.2773 3.49465 5.46152C3.26066 5.50238 3.08887 5.70371 3.08887 5.94129V24.4916C3.08887 24.7292 3.26059 24.9304 3.49465 24.9714C4.5502 25.1556 5.3827 25.9881 5.56691 27.0436C5.60777 27.2777 5.8091 27.4494 6.0466 27.4494H9.96559C9.72801 27.4493 9.52668 27.2775 9.4859 27.0435Z" fill="#B5DCFF"/>
<path d="M25.7427 6.86719H15.2574C14.7528 6.86719 14.3438 7.27625 14.3438 7.78086V8.54258C14.3438 9.04719 14.7528 9.45625 15.2574 9.45625H25.7427C26.2473 9.45625 26.6564 9.04719 26.6564 8.54258V7.78086C26.6565 7.27625 26.2473 6.86719 25.7427 6.86719Z" fill="#FF636E"/>
<path d="M18.8084 8.54258V7.78086C18.8084 7.27625 19.2175 6.86719 19.7221 6.86719H15.2574C14.7528 6.86719 14.3438 7.27625 14.3438 7.78086V8.54258C14.3438 9.04719 14.7528 9.45625 15.2574 9.45625H19.7221C19.2175 9.45625 18.8084 9.04719 18.8084 8.54258Z" fill="#FD2A39"/>
<path d="M23.5783 13.2253H17.422C17.0886 13.2253 16.8184 12.955 16.8184 12.6217C16.8184 12.2883 17.0886 12.0181 17.422 12.0181H23.5783C23.9116 12.0181 24.1819 12.2883 24.1819 12.6217C24.1819 12.955 23.9116 13.2253 23.5783 13.2253Z" fill="#8BCAFF"/>
<path d="M30.3841 16.6178H10.6163C10.2829 16.6178 10.0127 16.3476 10.0127 16.0142C10.0127 15.6809 10.2829 15.4106 10.6163 15.4106H30.3842C30.7175 15.4106 30.9878 15.6809 30.9878 16.0142C30.9878 16.3476 30.7175 16.6178 30.3841 16.6178Z" fill="#8BCAFF"/>
<path d="M30.3841 19.1745H10.6163C10.2829 19.1745 10.0127 18.9042 10.0127 18.5709C10.0127 18.2375 10.2829 17.9673 10.6163 17.9673H30.3842C30.7175 17.9673 30.9878 18.2375 30.9878 18.5709C30.9878 18.9042 30.7175 19.1745 30.3841 19.1745Z" fill="#8BCAFF"/>
<path d="M25.4416 21.6256H15.5577C15.2243 21.6256 14.9541 21.3554 14.9541 21.022C14.9541 20.6887 15.2243 20.4185 15.5577 20.4185H25.4417C25.775 20.4185 26.0453 20.6887 26.0453 21.022C26.0453 21.3554 25.775 21.6256 25.4416 21.6256Z" fill="#8BCAFF"/>
<path d="M38.0367 27.5736C38.4491 27.3174 38.7237 26.8603 38.7237 26.3389C38.7237 25.8177 38.4491 25.3606 38.0367 25.1042C37.912 25.0267 37.868 24.8621 37.9372 24.7326C38.1659 24.3049 38.1758 23.7731 37.9154 23.3221C37.6547 22.8705 37.1883 22.6131 36.7028 22.5978C36.5562 22.5932 36.4357 22.4728 36.4311 22.3261C36.4159 21.8407 36.1584 21.3742 35.7069 21.1135C35.2559 20.8531 34.7241 20.8631 34.2963 21.0917C34.1668 21.161 34.0023 21.117 33.9247 20.9922C33.6684 20.5798 33.2113 20.3052 32.69 20.3052C32.1687 20.3052 31.7116 20.5798 31.4553 20.9922C31.3778 21.117 31.2132 21.161 31.0837 21.0917C30.6559 20.8631 30.1241 20.8531 29.6731 21.1135C29.2216 21.3742 28.9641 21.8406 28.9489 22.326C28.9443 22.4727 28.8239 22.5931 28.6772 22.5978C28.1918 22.613 27.7253 22.8704 27.4646 23.322C27.2042 23.7729 27.2141 24.3048 27.4428 24.7325C27.512 24.8621 27.468 25.0267 27.3433 25.1042C26.9309 25.3604 26.6562 25.8175 26.6562 26.3388C26.6562 26.8602 26.9309 27.3172 27.3433 27.5735C27.468 27.651 27.512 27.8156 27.4428 27.9452C27.2141 28.3729 27.2042 28.9047 27.4646 29.3557C27.7253 29.8073 28.1918 30.0647 28.6772 30.0799C28.8238 30.0846 28.9443 30.2049 28.9489 30.3517C28.9641 30.8371 29.2216 31.3035 29.6731 31.5642C30.1241 31.8246 30.6559 31.8147 31.0837 31.586C31.2132 31.5168 31.3777 31.5608 31.4553 31.6856C31.7116 32.098 32.1687 32.3726 32.69 32.3726C33.2112 32.3726 33.6684 32.098 33.9247 31.6856C34.0022 31.5608 34.1668 31.5168 34.2963 31.586C34.7241 31.8147 35.2559 31.8246 35.7069 31.5642C36.1584 31.3035 36.4159 30.8371 36.4311 30.3517C36.4357 30.205 36.5562 30.0846 36.7028 30.0799C37.1882 30.0647 37.6547 29.8073 37.9154 29.3557C38.1758 28.9048 38.1659 28.3729 37.9372 27.9452C37.8679 27.8157 37.912 27.6511 38.0367 27.5736Z" fill="#FF636E"/>
<path d="M33.3013 31.5642C32.8498 31.3035 32.5923 30.8371 32.5771 30.3517C32.5725 30.2049 32.452 30.0846 32.3054 30.0799C31.82 30.0647 31.3535 29.8073 31.0928 29.3557C30.8324 28.9048 30.8423 28.3729 31.071 27.9452C31.1402 27.8156 31.0962 27.651 30.9715 27.5735C30.5591 27.3173 30.2845 26.8602 30.2845 26.3388C30.2845 25.8176 30.5591 25.3605 30.9715 25.1042C31.0962 25.0267 31.1402 24.8621 31.071 24.7325C30.8423 24.3048 30.8324 23.773 31.0928 23.322C31.3535 22.8704 31.8199 22.613 32.3054 22.5978C32.452 22.5931 32.5725 22.4727 32.5771 22.326C32.5923 21.8406 32.8498 21.3742 33.3013 21.1135C33.4853 21.0073 33.6828 20.9468 33.8813 20.9271C33.6187 20.5513 33.1832 20.3052 32.69 20.3052C32.1688 20.3052 31.7116 20.5798 31.4553 20.9922C31.3778 21.117 31.2132 21.161 31.0837 21.0917C30.6559 20.8631 30.1241 20.8531 29.6731 21.1135C29.2216 21.3742 28.9641 21.8406 28.9489 22.326C28.9443 22.4727 28.8239 22.5931 28.6772 22.5978C28.1918 22.613 27.7254 22.8704 27.4646 23.322C27.2042 23.7729 27.2141 24.3048 27.4428 24.7325C27.512 24.8621 27.468 25.0267 27.3433 25.1042C26.9309 25.3604 26.6562 25.8175 26.6562 26.3388C26.6562 26.8602 26.9309 27.3172 27.3433 27.5735C27.468 27.651 27.512 27.8156 27.4428 27.9452C27.2141 28.3729 27.2042 28.9047 27.4646 29.3557C27.7253 29.8073 28.1918 30.0647 28.6772 30.0799C28.8238 30.0846 28.9443 30.2049 28.9489 30.3517C28.9641 30.8371 29.2216 31.3035 29.6731 31.5642C30.1241 31.8246 30.6559 31.8146 31.0837 31.586C31.2132 31.5167 31.3777 31.5607 31.4553 31.6855C31.7116 32.0979 32.1687 32.3725 32.69 32.3725C33.1832 32.3725 33.6188 32.1265 33.8813 31.7506C33.6829 31.731 33.4854 31.6704 33.3013 31.5642Z" fill="#FD2A39"/>
<path d="M32.6902 29.5899C34.4856 29.5899 35.941 28.1345 35.941 26.3392C35.941 24.5438 34.4856 23.0884 32.6902 23.0884C30.8949 23.0884 29.4395 24.5438 29.4395 26.3392C29.4395 28.1345 30.8949 29.5899 32.6902 29.5899Z" fill="#FD2A39"/>
<path d="M32.2223 26.3392C32.2223 25.0417 32.9825 23.9222 34.0816 23.4008C33.6598 23.2006 33.1882 23.0884 32.6902 23.0884C30.8948 23.0884 29.4395 24.5438 29.4395 26.3392C29.4395 28.1345 30.8949 29.5899 32.6902 29.5899C33.1882 29.5899 33.6598 29.4776 34.0816 29.2775C32.9826 28.7561 32.2223 27.6366 32.2223 26.3392Z" fill="#C32430"/>
</svg>
