<svg width="40" height="40" viewBox="0 0 40 40" fill="none" xmlns="http://www.w3.org/2000/svg">
<g clip-path="url(#clip0_453_342)">
<path d="M38.9868 20.2411C39.6667 20.375 40.1094 21.0339 39.9764 21.713L39.4804 24.2389C39.3433 24.9382 38.6497 25.3866 37.9496 25.2148C37.294 25.0543 36.8964 24.3841 37.0262 23.722L37.0399 23.6542L33.7704 23.8034C33.672 23.8075 33.5865 23.8728 33.5559 23.9671C33.2365 24.9317 32.8163 25.8511 32.3074 26.7108C32.2558 26.7979 32.2639 26.9084 32.3292 26.9859L33.7752 28.7037C34.0623 28.4303 34.4374 28.2883 34.8164 28.2883C35.1358 28.2883 35.4584 28.3892 35.7318 28.5988C36.3939 29.1053 36.5197 30.0529 36.0132 30.7159L35.5939 31.2635C35.1019 31.9071 34.1849 32.0797 33.5171 31.6192C32.9421 31.2232 32.734 30.511 32.9421 29.8925L30.8589 28.9771C30.7646 28.936 30.6557 28.9602 30.5872 29.036C29.6226 30.0949 28.4999 31.0062 27.2563 31.7337C27.1708 31.7837 27.1249 31.8805 27.141 31.9781L27.6741 35.2298L28.1354 35.0451C28.7975 34.7806 29.5508 35.1193 29.7871 35.8008C30.0081 36.4388 29.6613 37.1364 29.0346 37.3864L26.6773 38.33C26.0159 38.5945 25.2627 38.2558 25.0264 37.5743C24.8054 36.9364 25.1522 36.2388 25.7788 35.9879L25.8425 35.9629L23.9408 33.2983C23.8836 33.2176 23.7828 33.1821 23.6868 33.2071C22.5504 33.5015 21.3584 33.6596 20.1293 33.6596C19.1567 33.6596 18.2083 33.5604 17.2913 33.3733C17.1945 33.3539 17.0953 33.3951 17.0421 33.4781L15.1396 36.463L15.2065 36.4872C15.8259 36.713 16.2098 37.2977 16.2098 37.9203C16.2098 38.0945 16.1799 38.2711 16.117 38.4437C16.117 39.3365 15.4307 39.8172 14.592 39.5107L12.2539 38.6582C11.4716 38.3736 11.0635 37.5146 11.3337 36.7299C11.6112 35.921 12.533 35.5129 13.3362 35.8057L13.3903 35.825L13.7774 32.3273C13.7887 32.2289 13.7371 32.1353 13.6492 32.0893C12.1684 31.3248 10.8401 30.3062 9.72154 29.0908C9.6538 29.0174 9.54815 28.9932 9.45621 29.0311L6.60283 30.2013C6.92543 30.8046 6.74397 31.5692 6.15523 31.9563C5.54068 32.3603 4.71079 32.1724 4.29142 31.5692L3.56073 30.5167C3.15184 29.9287 3.24701 29.1094 3.80994 28.6658C4.40997 28.1932 5.26566 28.3158 5.71488 28.9102L7.72466 26.6391C7.7916 26.5633 7.80289 26.4536 7.7537 26.3657C6.92865 24.8785 6.36411 23.2268 6.12135 21.4727C6.10764 21.3743 6.03587 21.2944 5.93989 21.2727L2.72843 20.5307L2.72521 20.9073C2.72198 21.2839 2.56713 21.6251 2.31793 21.8711C2.06953 22.1179 1.72757 22.2695 1.35014 22.2695C0.600096 22.2695 -0.00719405 21.6573 6.43948e-05 20.9073L0.0210332 18.5741C0.0274852 17.8112 0.658163 17.1684 1.4203 17.1886C2.15986 17.2079 2.75021 17.816 2.74618 18.558L5.93425 17.8104C6.03103 17.7878 6.1028 17.7079 6.11571 17.6096C6.36572 15.7546 6.97624 14.0134 7.87386 12.4585C7.92387 12.3714 7.915 12.2625 7.84967 12.1851L6.32943 10.3995L6.19716 10.5737C5.78747 11.1157 5.00517 11.21 4.47691 10.7705C3.98172 10.3576 3.92124 9.6172 4.30997 9.10346L5.32292 7.76468C5.55842 7.45418 5.9157 7.29047 6.27781 7.29047C6.52863 7.29047 6.78187 7.3695 6.99801 7.53241C7.49885 7.91066 7.61659 8.60586 7.28593 9.12685L9.41185 10.0463C9.5054 10.0866 9.61347 10.0624 9.68283 9.98738C10.6861 8.88732 11.8612 7.94695 13.1661 7.2074C13.2516 7.1582 13.2991 7.06223 13.2846 6.96464L12.7951 3.7056L12.3306 3.88464C11.666 4.1403 10.9168 3.79109 10.6901 3.10718C10.4772 2.46602 10.8337 1.77324 11.4636 1.53129L13.833 0.619955C14.4984 0.364296 15.2468 0.712702 15.4735 1.39741C15.6864 2.03777 15.3307 2.73055 14.7 2.9733L14.6363 2.9975L16.5009 5.68635C16.5574 5.76781 16.6574 5.8049 16.7534 5.78152C17.8357 5.51618 18.9656 5.37585 20.1293 5.37585H20.131C20.2326 5.37585 20.3237 5.31375 20.3576 5.21778L20.9754 3.49027C20.26 3.26606 19.7834 2.56038 19.8745 1.79098C19.9785 0.919164 20.8133 0.299777 21.6851 0.40946L22.5335 0.515917C23.3981 0.624794 24.0465 1.39903 23.9521 2.26601C23.8779 2.94104 23.3924 3.46688 22.7763 3.62818L22.9908 5.50086C23.0021 5.60167 23.0771 5.68393 23.1771 5.70571C24.611 6.02104 25.9635 6.55414 27.1975 7.26788C27.2838 7.31708 27.3902 7.30982 27.4668 7.24692L30.0258 5.17019L29.6371 4.86131C29.0782 4.41773 28.9992 3.59592 29.4734 3.05315C29.917 2.54425 30.6952 2.49909 31.2235 2.91927L33.2115 4.49758C33.7704 4.94034 33.8494 5.76297 33.3752 6.30574C32.9316 6.81383 32.1534 6.85899 31.6251 6.43961L31.5711 6.39687L30.2008 9.37203C30.1589 9.46155 30.1783 9.5672 30.2476 9.63817C31.2122 10.6261 32.0332 11.7552 32.6768 12.9908C32.7236 13.0803 32.8211 13.1311 32.9211 13.1174L34.864 12.8456C34.5785 12.0488 35.0019 11.1657 35.8165 10.8987C36.5931 10.6439 37.4303 11.0753 37.7158 11.8415L38.1634 13.0416C38.4456 13.8005 38.1069 14.6691 37.3649 14.9917C36.6536 15.3006 35.8511 15.0215 35.4689 14.3908L33.8567 15.4844C33.772 15.5417 33.7341 15.6466 33.7615 15.7449C34.093 16.9466 34.2704 18.2112 34.2704 19.5177C34.2704 19.7363 34.2656 19.9532 34.2551 20.1686C34.2511 20.2678 34.3067 20.3589 34.397 20.3984L37.4198 21.7186L37.5149 21.2307C37.6488 20.5508 38.3077 20.1081 38.9868 20.2411Z" fill="#F79595"/>
<path d="M26.27 14.2246C27.3727 14.2246 28.2665 13.4772 28.2665 12.5553C28.2665 11.6333 27.3727 10.8859 26.27 10.8859C25.1673 10.8859 24.2734 11.6333 24.2734 12.5553C24.2734 13.4772 25.1673 14.2246 26.27 14.2246Z" fill="#EE6161"/>
<path d="M19.065 25.1333C20.2702 25.1333 21.2473 24.1563 21.2473 22.951C21.2473 21.7458 20.2702 20.7688 19.065 20.7688C17.8597 20.7688 16.8827 21.7458 16.8827 22.951C16.8827 24.1563 17.8597 25.1333 19.065 25.1333Z" fill="#EE6161"/>
<path d="M27.5701 23.3766C28.433 23.3766 29.1326 22.6771 29.1326 21.8141C29.1326 20.9512 28.433 20.2516 27.5701 20.2516C26.7071 20.2516 26.0076 20.9512 26.0076 21.8141C26.0076 22.6771 26.7071 23.3766 27.5701 23.3766Z" fill="#F9B1B1"/>
<path d="M21.7994 30.9585C22.6384 30.9585 23.3185 30.2784 23.3185 29.4394C23.3185 28.6004 22.6384 27.9203 21.7994 27.9203C20.9604 27.9203 20.2803 28.6004 20.2803 29.4394C20.2803 30.2784 20.9604 30.9585 21.7994 30.9585Z" fill="#F9B1B1"/>
<path d="M11.5292 18.8404C11.5292 13.404 14.1227 8.57223 18.1381 5.51489C17.6693 5.58102 17.2065 5.67038 16.7534 5.78152C16.6574 5.80491 16.5574 5.76781 16.5009 5.68635L14.6363 2.9975L14.7 2.97331C15.3307 2.73055 15.6864 2.03777 15.4735 1.39742C15.2468 0.712705 14.4984 0.3643 13.833 0.619958L11.4636 1.5313C10.8337 1.77324 10.4772 2.46602 10.6901 3.10719C10.9168 3.79109 11.666 4.1403 12.3306 3.88465L12.7951 3.7056L13.2846 6.96465C13.2991 7.06223 13.2516 7.1582 13.1661 7.2074C11.8612 7.94695 10.6861 8.88733 9.68283 9.98738C9.61347 10.0624 9.5054 10.0866 9.41185 10.0463L7.28593 9.12686C7.61659 8.60586 7.49885 7.91066 6.99801 7.53242C6.78187 7.36951 6.52863 7.29047 6.27781 7.29047C5.9157 7.29047 5.55842 7.45419 5.32292 7.76469L4.30997 9.10347C3.92124 9.6172 3.98172 10.3576 4.47691 10.7705C5.00517 11.21 5.78747 11.1157 6.19716 10.5737L6.32943 10.3995L7.84967 12.1851C7.915 12.2625 7.92387 12.3714 7.87386 12.4585C6.97624 14.0134 6.36572 15.7546 6.11571 17.6096C6.1028 17.7079 6.03103 17.7878 5.93425 17.8104L2.74618 18.558C2.75021 17.816 2.15986 17.2079 1.4203 17.1886C0.658163 17.1684 0.0274852 17.8112 0.0210332 18.5741L6.43948e-05 20.9073C-0.00719405 21.6573 0.600096 22.2695 1.35014 22.2695C1.72757 22.2695 2.06953 22.1179 2.31793 21.8711C2.56713 21.6251 2.72198 21.2839 2.72521 20.9073L2.72843 20.5307L5.93989 21.2727C6.03587 21.2944 6.10764 21.3743 6.12135 21.4727C6.36411 23.2268 6.92865 24.8785 7.7537 26.3657C7.80289 26.4536 7.7916 26.5633 7.72466 26.6391L5.71488 28.9102C5.26566 28.3158 4.40997 28.1932 3.80994 28.6658C3.24701 29.1094 3.15184 29.9288 3.56073 30.5167L4.29142 31.5692C4.71079 32.1724 5.54068 32.3603 6.15523 31.9563C6.74397 31.5692 6.92543 30.8046 6.60283 30.2013L9.45621 29.0311C9.54815 28.9932 9.6538 29.0174 9.72154 29.0908C10.8401 30.3062 12.1684 31.3248 13.6492 32.0893C13.7371 32.1353 13.7887 32.2289 13.7774 32.3273L13.3903 35.825L13.3362 35.8057C12.533 35.5129 11.6112 35.921 11.3337 36.7299C11.0635 37.5146 11.4716 38.3736 12.2539 38.6582L14.592 39.5107C15.4307 39.8172 16.117 39.3365 16.117 38.4437C16.1799 38.2711 16.2098 38.0945 16.2098 37.9203C16.2098 37.2977 15.8259 36.713 15.2065 36.4872L15.1396 36.463L17.0421 33.4781C17.0953 33.3951 17.1945 33.3539 17.2913 33.3733C18.2083 33.5604 19.1567 33.6596 20.1293 33.6596C20.2438 33.6596 20.3601 33.6581 20.4739 33.6555C15.1569 30.8517 11.5292 25.2692 11.5292 18.8404Z" fill="#F37C7C"/>
<path d="M12.2941 27.3881C13.168 27.3881 13.8766 26.6795 13.8766 25.8056C13.8766 24.9316 13.168 24.2231 12.2941 24.2231C11.4201 24.2231 10.7115 24.9316 10.7115 25.8056C10.7115 26.6795 11.4201 27.3881 12.2941 27.3881Z" fill="#EE6161"/>
<path d="M24.006 18.8404H23.4713C23.1372 18.8404 22.8665 18.5696 22.8665 18.2356C22.8665 17.9015 23.1372 17.6307 23.4713 17.6307H24.006C24.3402 17.6307 24.6109 17.9015 24.6109 18.2356C24.6109 18.5696 24.3402 18.8404 24.006 18.8404Z" fill="#F9B1B1"/>
<path d="M16.8826 29.4136H16.3333C15.9991 29.4136 15.7284 29.1427 15.7284 28.8087C15.7284 28.4746 15.9991 28.2038 16.3333 28.2038H16.8826C17.2168 28.2038 17.4875 28.4746 17.4875 28.8087C17.4875 29.1427 17.2168 29.4136 16.8826 29.4136Z" fill="#F9B1B1"/>
<path d="M11.2407 20.6049H10.7114C10.3773 20.6049 10.1066 20.334 10.1066 20C10.1066 19.6659 10.3773 19.3951 10.7114 19.3951H11.2407C11.5748 19.3951 11.8455 19.6659 11.8455 20C11.8455 20.334 11.5748 20.6049 11.2407 20.6049Z" fill="#EE6161"/>
<path d="M21.9837 10.0223H21.2472C20.9131 10.0223 20.6423 9.75148 20.6423 9.41743C20.6423 9.08338 20.9131 8.81256 21.2472 8.81256H21.9837C22.3178 8.81256 22.5886 9.08338 22.5886 9.41743C22.5886 9.75148 22.3178 10.0223 21.9837 10.0223Z" fill="#F9B1B1"/>
<path d="M26.8209 27.4445H26.0076C25.6734 27.4445 25.4027 27.1737 25.4027 26.8396C25.4027 26.5056 25.6734 26.2348 26.0076 26.2348H26.8209C27.155 26.2348 27.4257 26.5056 27.4257 26.8396C27.4257 27.1737 27.1549 27.4445 26.8209 27.4445Z" fill="#EE6161"/>
<path d="M17.5951 16.952C19.4012 15.5278 19.9011 13.1505 18.7117 11.6422C17.5223 10.1338 15.094 10.0656 13.2879 11.4897C11.4818 12.9139 10.9819 15.2912 12.1713 16.7995C13.3607 18.3079 15.789 18.3761 17.5951 16.952Z" fill="#EE6161"/>
</g>
<defs>
<clipPath id="clip0_453_342">
<rect width="40" height="40" fill="white"/>
</clipPath>
</defs>
</svg>
