<svg width="40" height="40" viewBox="0 0 40 40" fill="none" xmlns="http://www.w3.org/2000/svg">
<path d="M36.7586 34.337H36.681V10.1874C36.681 9.4369 36.2341 8.75887 35.5467 8.46584L20.7278 2.14847C20.2622 1.95051 19.7378 1.95051 19.2722 2.14847L4.45328 8.46584C3.76586 8.75887 3.31897 9.43698 3.31897 10.1875V34.3371H3.24138C2.55552 34.3371 2 34.8951 2 35.584V36.753C2 37.442 2.55552 38 3.24138 38H36.7586C37.4445 38 38 37.442 38 36.753V35.584C38 34.895 37.4445 34.337 36.7586 34.337Z" fill="#80AAFF"/>
<path d="M22.6229 3.1047C23.1266 3.31787 23.1254 4.03025 22.6209 4.24141C21.005 4.91762 17.2809 6.52053 8.0467 10.4137C7.33214 10.7149 6.86841 11.4147 6.86841 12.189V34H3V10.1021C3 9.3594 3.44563 8.68844 4.1311 8.39846L18.9081 2.14692C19.3723 1.95103 19.8953 1.95103 20.3595 2.14692L22.6229 3.1047Z" fill="#719EFA"/>
<path d="M38 35.3617V36.6383C38 37.3906 37.4445 38 36.7586 38H3.24138C2.55552 38 2 37.3906 2 36.6383V35.3617C2 34.6094 2.55552 34 3.24138 34H36.7586C37.4445 34 38 34.6094 38 35.3617Z" fill="#585966"/>
<path d="M36.3855 35.3617H5.22186C4.54397 35.3617 3.99448 35.9713 3.99448 36.7234V37.1489C3.99448 37.619 3.65105 38 3.22738 38C2.54948 38 2 37.3904 2 36.6383V35.3617C2 34.6096 2.54948 34 3.22738 34C3.22738 34 36.4148 34.0008 36.4386 34.0023C37.221 34.0526 37.1692 35.3617 36.3855 35.3617Z" fill="#6E6F80"/>
<path d="M20 32C27.1797 32 33 26.4036 33 19.5C33 12.5964 27.1797 7 20 7C12.8203 7 7 12.5964 7 19.5C7 26.4036 12.8203 32 20 32Z" fill="#FF6D7A"/>
<path d="M8.7876 20.5703C8.7876 22.6192 9.29559 24.5541 10.1973 26.2654C10.4918 26.8242 9.67342 27.2935 9.30412 26.7773C7.84507 24.7377 6.99354 22.2663 7.00004 19.6039C7.01743 12.5556 13.1218 6.83114 20.4906 7.00381C21.1438 7.01909 21.1809 7.93236 20.5316 8.00201C14.2163 8.67959 8.7876 13.7544 8.7876 20.5703Z" fill="#FF8C95"/>
<path d="M20 29C25.5228 29 30 24.5228 30 19C30 13.4772 25.5228 9 20 9C14.4772 9 10 13.4772 10 19C10 24.5228 14.4772 29 20 29Z" fill="#CBE3FA"/>
<path d="M11.9363 20.5255C11.9363 21.7934 12.1593 23.0083 12.5675 24.1315C12.8337 24.8638 11.8228 25.3525 11.4305 24.682C10.5156 23.118 9.99266 21.2876 10.0001 19.3318C10.0219 13.5714 14.7142 8.88207 20.381 9.00226C21.1528 9.01864 21.2274 10.1551 20.4659 10.2848C15.8247 11.0753 11.9363 15.1336 11.9363 20.5255Z" fill="#EEF7FF"/>
<path d="M20.3778 12C20.0342 12 19.7556 12.2699 19.7556 12.6027V19.0822H14.6222C14.2786 19.0822 14 19.3521 14 19.6849C14 20.0178 14.2786 20.2877 14.6222 20.2877H19.7556V22.3973C19.7556 22.7301 20.0342 23 20.3778 23C20.7214 23 21 22.7301 21 22.3973V12.6027C21 12.2698 20.7214 12 20.3778 12Z" fill="#9EC7F0"/>
<path d="M20 21C21.1046 21 22 20.3284 22 19.5C22 18.6716 21.1046 18 20 18C18.8954 18 18 18.6716 18 19.5C18 20.3284 18.8954 21 20 21Z" fill="#585966"/>
<path d="M20.6001 18.0447C21.1003 18.1369 21.141 18.7171 20.6672 18.8798C19.8983 19.1439 19.3385 19.7758 19.3385 20.535C19.3385 20.9894 18.6828 21.1622 18.3935 20.8191C17.2816 19.5006 18.6869 17.692 20.6001 18.0447Z" fill="#6E6F80"/>
<path d="M32.837 27.1465C33.3002 27.9705 32.7212 29 31.7947 29H22.2053C21.2788 29 20.6998 27.9705 21.163 27.1465L25.9577 18.6174C26.421 17.7942 27.579 17.7942 28.0423 18.6174L32.837 27.1465Z" fill="#FFF0A6"/>
<path d="M27.8634 18.6175C28.0462 18.951 28.0455 19.3618 27.8617 19.6947C27.4542 20.433 26.3825 22.3973 23.3575 27.9188C23.302 28.0203 23.2619 28.1249 23.2358 28.2303C23.1218 28.6912 22.709 29 22.257 29H22.1747C21.2718 29 20.7074 27.9706 21.1589 27.1465L25.8317 18.6175C26.2833 17.7942 27.4121 17.7941 27.8634 18.6175Z" fill="#FFF8D6"/>
<path d="M27.0921 25.4525C26.7478 25.4525 26.4686 25.1733 26.4686 24.829V21.5557C26.4686 21.2114 26.7478 20.9323 27.0921 20.9323C27.4364 20.9323 27.7156 21.2114 27.7156 21.5557V24.829C27.7156 25.1734 27.4364 25.4525 27.0921 25.4525Z" fill="#FACF5F"/>
<path d="M27.0921 27.8684C26.7478 27.8684 26.4686 27.5893 26.4686 27.245V27.0891C26.4686 26.7448 26.7478 26.4656 27.0921 26.4656C27.4364 26.4656 27.7156 26.7448 27.7156 27.0891V27.245C27.7156 27.5894 27.4364 27.8684 27.0921 27.8684Z" fill="#FACF5F"/>
</svg>
