<svg width="41" height="40" viewBox="0 0 41 40" fill="none" xmlns="http://www.w3.org/2000/svg">
<path d="M20.5 40C31.0711 40 39.6406 31.4305 39.6406 20.8594C39.6406 10.2883 31.0711 1.71875 20.5 1.71875C9.92892 1.71875 1.35938 10.2883 1.35938 20.8594C1.35938 31.4305 9.92892 40 20.5 40Z" fill="#FFCA45"/>
<path d="M36.8267 30.8542C30.5106 41.1532 15.8129 43.015 7.14627 34.5722C4.94635 25.8805 2.74651 17.1888 0.546273 8.49718C0.323617 7.61593 0.925961 6.70421 1.89159 6.45968C10.3183 4.32655 18.7453 2.19405 27.1721 0.0612389C28.1385 -0.183292 29.1017 0.332333 29.3252 1.21358C31.8253 11.0939 34.3262 20.974 36.8267 30.8542Z" fill="#EAF2FF"/>
<path d="M25.0603 7.49789L7.28746 11.9962C6.97378 12.0755 6.65503 11.8856 6.57566 11.5719C6.49628 11.2581 6.68621 10.9394 6.99996 10.8601L24.7728 6.36179C25.0865 6.28242 25.4053 6.47234 25.4846 6.78609C25.564 7.09984 25.374 7.41851 25.0603 7.49789Z" fill="#76BEFF"/>
<path d="M26.1531 11.8148L8.38023 16.3131C8.06656 16.3924 7.74781 16.2025 7.66843 15.8888C7.58906 15.575 7.77898 15.2563 8.09273 15.177L25.8656 10.6787C26.1793 10.5993 26.498 10.7892 26.5774 11.103C26.6568 11.4167 26.4668 11.7354 26.1531 11.8148Z" fill="#76BEFF"/>
<path d="M27.2986 16.3402L9.52574 20.8385C9.21207 20.9178 8.89332 20.7279 8.81394 20.4142C8.73457 20.1004 8.92449 19.7817 9.23824 19.7024L27.0111 15.2041C27.3249 15.1247 27.6436 15.3146 27.7229 15.6284C27.8023 15.9421 27.6123 16.2607 27.2986 16.3402Z" fill="#76BEFF"/>
<path d="M28.2518 20.1082L10.4789 24.6065C10.1652 24.6859 9.84644 24.496 9.76707 24.1822C9.68769 23.8685 9.87761 23.5498 10.1914 23.4704L27.9643 18.9721C28.2779 18.8928 28.5967 19.0827 28.676 19.3964C28.7554 19.7102 28.5655 20.0289 28.2518 20.1082Z" fill="#76BEFF"/>
<path d="M19.4932 31.4312C20.2172 34.2917 18.479 37.2082 15.6183 37.9322C12.7578 38.6562 9.8413 36.9179 9.11731 34.0573C8.39333 31.1967 10.1317 28.2803 12.9922 27.5563C15.8528 26.8323 18.7693 28.5706 19.4932 31.4312Z" fill="#36B990"/>
<path d="M13.9819 35.6065C13.8365 35.6433 13.6771 35.6246 13.5381 35.5418L10.8808 33.9579C10.6028 33.7922 10.5118 33.4326 10.6774 33.1545C10.8431 32.8766 11.2028 32.7856 11.4807 32.9513L13.6347 34.2352L16.3894 29.6136C16.5551 29.3357 16.9148 29.2447 17.1927 29.4103C17.4707 29.576 17.5617 29.9356 17.3961 30.2137L14.3414 35.3386C14.2586 35.4774 14.1272 35.5697 13.9819 35.6065Z" fill="white"/>
<path d="M29.7946 26.2049L21.6908 28.256C21.377 28.3354 21.0584 28.1455 20.979 27.8317C20.8996 27.518 21.0895 27.1993 21.4033 27.1199L29.5071 25.0688C29.8208 24.9894 30.1395 25.1794 30.2189 25.4931C30.2983 25.8069 30.1083 26.1255 29.7946 26.2049Z" fill="#76BEFF"/>
<path d="M30.7028 29.79L22.599 31.841C22.2853 31.9203 21.9666 31.7304 21.8872 31.4167C21.8078 31.1029 21.9977 30.7843 22.3115 30.7049L30.4153 28.6538C30.729 28.5744 31.0477 28.7643 31.1271 29.0781C31.2065 29.3919 31.0165 29.7105 30.7028 29.79Z" fill="#76BEFF"/>
<path d="M39.3793 6.52015C38.8214 7.07812 38.1341 7.42726 37.4143 7.56921C36.1051 7.82554 34.8897 8.41445 33.8479 9.23866L31.2432 6.63398C31.3575 6.48866 31.4664 6.34007 31.5707 6.1882C32.2237 5.24577 32.6927 4.18343 32.9204 3.05202C33.0657 2.33226 33.4192 1.64609 33.9815 1.09038C35.4941 -0.40446 38.0093 -0.355319 39.4643 1.19476C39.7151 1.4621 39.9201 1.75656 40.0803 2.06812C40.8179 3.50726 40.5842 5.31531 39.3793 6.52015Z" fill="#A54B0E"/>
<path d="M39.007 5.37376C38.0385 6.34227 36.7721 6.37376 35.5693 6.86391C34.5763 7.26852 33.5265 8.14329 32.5486 7.16532L31.5713 6.18805C32.224 5.24587 32.6946 4.17688 32.9209 3.05188C33.1507 1.91305 33.9095 0.914929 34.9513 0.398757C36.8032 -0.518743 39.1329 0.22446 40.0809 2.06798C40.2648 3.23641 39.9068 4.47384 39.007 5.37376Z" fill="#BF6015"/>
<path d="M34.2189 11.4599L34.2133 11.4654L29.0205 6.27264L29.0261 6.26709C29.1675 6.12568 29.3338 6.0235 29.51 5.96107C29.6519 5.90967 29.8022 5.88428 29.9514 5.88428C30.2861 5.88428 30.6209 6.01131 30.8767 6.26709L34.2189 9.60928C34.5884 9.97881 34.6912 10.5147 34.5254 10.9765C34.4625 11.1522 34.3603 11.3185 34.2189 11.4599Z" fill="#6D2929"/>
<path d="M34.5252 10.9765L29.5098 5.96107C29.6517 5.90967 29.802 5.88428 29.9512 5.88428C30.2859 5.88428 30.6207 6.01131 30.8765 6.26709L34.2187 9.60928C34.5882 9.97881 34.6909 10.5147 34.5252 10.9765Z" fill="#844242"/>
<path d="M32.9898 15.2853L32.5617 15.7134C32.4694 15.8057 32.365 15.878 32.2534 15.93C31.8485 16.1206 31.3502 16.0487 31.0149 15.7134L24.7725 9.47102C24.4371 9.1357 24.3653 8.63742 24.5559 8.2325C24.6078 8.12094 24.6802 8.01648 24.7725 7.92422L25.2006 7.49609L32.9898 15.2853Z" fill="#4D5961"/>
<path d="M32.9896 15.2853L32.5614 15.7134C32.4692 15.8057 32.3648 15.878 32.2532 15.93L24.5557 8.2325C24.6076 8.12094 24.68 8.01648 24.7722 7.92422L25.2004 7.49609L32.9896 15.2853Z" fill="#454545"/>
<path d="M34.5613 16.2C34.2497 16.4585 33.937 16.4585 33.6255 16.2L24.2861 6.86063C23.9541 6.5286 24.0474 6.19547 24.3027 5.91047C24.6308 5.54586 25.2263 5.26078 25.5385 5.16196C26.6328 4.81446 27.8603 5.11282 28.6724 5.92485L34.5613 11.8138C34.8082 12.0607 35.0049 12.3391 35.1507 12.6363C35.7213 13.7947 35.5253 15.236 34.5613 16.2Z" fill="#D88521"/>
<path d="M34.2437 14.9156C33.9321 15.1741 33.6195 15.1741 33.3079 14.9156L24.3027 5.91047C24.6309 5.54586 25.2264 5.26078 25.5385 5.16196C26.6329 4.81446 27.8604 5.11282 28.6724 5.92485L34.5613 11.8138C34.8083 12.0607 35.0049 12.3391 35.1508 12.6363C35.1734 13.4588 34.8712 14.2881 34.2437 14.9156Z" fill="#FEA832"/>
</svg>
