<svg width="40" height="40" viewBox="0 0 40 40" fill="none" xmlns="http://www.w3.org/2000/svg">
<path d="M19.2071 2.14593V24.5114C19.2071 24.8348 18.9454 25.0973 18.6212 25.0973H15.5012C15.177 25.0973 14.9153 24.8348 14.9153 24.5114V2.14593C14.9153 1.31396 15.391 0.591361 16.0847 0.23592C16.3777 0.0851505 16.7097 9.53674e-07 17.0612 9.53674e-07C18.2447 9.53674e-07 19.2071 0.962426 19.2071 2.14593Z" fill="#F9F05A"/>
<path d="M19.2071 2.14593V24.5114C19.2071 24.8348 18.9454 25.0973 18.6212 25.0973H16.6683C16.9925 25.0973 17.2542 24.8348 17.2542 24.5114V2.14593C17.2542 1.31396 16.7784 0.591361 16.0847 0.23592C16.3777 0.085151 16.7097 1.43051e-06 17.0612 1.43051e-06C18.2447 1.43051e-06 19.2071 0.962426 19.2071 2.14593Z" fill="#FFC047"/>
<path d="M25.0848 2.14593V24.5114C25.0848 24.8348 24.8231 25.0973 24.4989 25.0973H21.3789C21.0547 25.0973 20.793 24.8348 20.793 24.5114V2.14593C20.793 1.31396 21.2687 0.591361 21.9624 0.23592C22.2554 0.085151 22.5874 1.43051e-06 22.9389 1.43051e-06C24.1224 1.43051e-06 25.0848 0.962426 25.0848 2.14593Z" fill="#F9F05A"/>
<path d="M25.0848 2.14593V24.5114C25.0848 24.8348 24.8231 25.0973 24.4989 25.0973H22.546C22.8701 25.0973 23.1318 24.8348 23.1318 24.5114V2.14593C23.1318 1.31396 22.6561 0.591361 21.9624 0.23592C22.2553 0.085151 22.5874 1.43051e-06 22.9389 1.43051e-06C24.1224 1.43051e-06 25.0848 0.962426 25.0848 2.14593Z" fill="#FFC047"/>
<path d="M22.2413 27.7049C22.2241 27.7049 22.2077 27.6971 22.1906 27.6807L22.2413 27.7049Z" fill="#F9F05A"/>
<path d="M22.5194 36.6995V39.4141C22.5194 39.7375 22.2569 40 21.9335 40H18.0666C17.7432 40 17.4807 39.7375 17.4807 39.4141V36.6995C17.4807 36.3761 17.7432 36.1136 18.0666 36.1136H21.9335C22.2569 36.1136 22.5194 36.3761 22.5194 36.6995Z" fill="#B3C8DD"/>
<path d="M22.5193 36.6995V39.4141C22.5193 39.7375 22.2569 40 21.9334 40H19.9805C20.3039 40 20.5664 39.7375 20.5664 39.4141V36.6995C20.5664 36.3761 20.3039 36.1136 19.9805 36.1136H21.9334C22.2569 36.1136 22.5193 36.3761 22.5193 36.6995Z" fill="#8AA5BC"/>
<path d="M27.2885 24.8918L25.0848 27.476V35.4925C25.0848 36.4815 24.2809 37.2854 23.2919 37.2854H16.7081C15.7191 37.2854 14.9153 36.4815 14.9153 35.4925V27.476L12.7115 24.8918C12.5631 24.7176 12.5295 24.4731 12.6256 24.2661C12.7209 24.0583 12.9287 23.9255 13.1576 23.9255H26.8424C27.0713 23.9255 27.2791 24.0583 27.3744 24.2661C27.4705 24.4731 27.4369 24.7176 27.2885 24.8918Z" fill="#B3C8DD"/>
<path d="M27.3744 24.2661C27.4705 24.4731 27.4369 24.7176 27.2885 24.8918L25.0848 27.476V35.4925C25.0848 36.4815 24.2809 37.2854 23.2919 37.2854H20.9484C21.9373 37.2854 22.7412 36.4815 22.7412 35.4925V27.476L24.9449 24.8918C25.0934 24.7176 25.1269 24.4731 25.0309 24.2661C24.9356 24.0583 24.7278 23.9255 24.4989 23.9255H26.8424C27.0713 23.9255 27.2791 24.0583 27.3744 24.2661Z" fill="#8AA5BC"/>
<path d="M25.0848 27.476V35.4925C25.0848 36.4815 24.281 37.2854 23.292 37.2854H16.7081C15.7191 37.2854 14.9153 36.4815 14.9153 35.4925V27.476H25.0848Z" fill="#D7F4FF"/>
<path d="M22.7412 27.476H25.0848V35.4925C25.0848 36.4815 24.2809 37.2854 23.2919 37.2854H20.9484C21.9373 37.2854 22.7412 36.4815 22.7412 35.4925V27.476Z" fill="#BBDAEA"/>
<path d="M25.7634 31.4722H14.236C13.9124 31.4722 13.6501 31.7346 13.6501 32.0581C13.6501 32.3817 13.9124 32.644 14.236 32.644H25.7635C26.0871 32.644 26.3494 32.3817 26.3494 32.0581C26.3494 31.7346 26.0871 31.4722 25.7634 31.4722Z" fill="#8AA5BC"/>
<path d="M14.236 30.2825H25.7635C26.0871 30.2825 26.3494 30.0202 26.3494 29.6966C26.3494 29.373 26.0871 29.1107 25.7635 29.1107H14.236C13.9124 29.1107 13.6501 29.373 13.6501 29.6966C13.6501 30.0202 13.9124 30.2825 14.236 30.2825Z" fill="#8AA5BC"/>
<path d="M25.7634 33.8244H14.236C13.9124 33.8244 13.6501 34.0867 13.6501 34.4103C13.6501 34.7339 13.9124 34.9962 14.236 34.9962H25.7635C26.0871 34.9962 26.3494 34.7339 26.3494 34.4103C26.3494 34.0867 26.0871 33.8244 25.7634 33.8244Z" fill="#8AA5BC"/>
<path d="M11.4562 12.2587C11.4562 11.9352 11.1939 11.6728 10.8703 11.6728H8.15962C7.83598 11.6728 7.57373 11.9352 7.57373 12.2587C7.57373 12.5823 7.83598 12.8446 8.15962 12.8446H10.8703C11.1938 12.8446 11.4562 12.5823 11.4562 12.2587Z" fill="#F9F05A"/>
<path d="M10.8825 7.64597C10.9969 7.76041 11.1468 7.81759 11.2968 7.81759C11.4467 7.81759 11.5967 7.76041 11.7112 7.64597C11.94 7.41716 11.94 7.04617 11.7112 6.81744L9.79453 4.90071C9.56564 4.6719 9.19473 4.6719 8.96592 4.90071C8.73711 5.12952 8.73711 5.50051 8.96592 5.72924L10.8825 7.64597Z" fill="#F9F05A"/>
<path d="M11.0173 16.8716L9.10056 18.7883C8.87175 19.0171 8.87175 19.3881 9.10056 19.6168C9.21501 19.7313 9.36492 19.7885 9.51491 19.7885C9.66482 19.7885 9.8148 19.7313 9.92925 19.6168L11.846 17.7001C12.0748 17.4713 12.0748 17.1003 11.846 16.8716C11.6171 16.6428 11.2462 16.6428 11.0173 16.8716Z" fill="#F9F05A"/>
<path d="M31.8404 11.6728H29.1297C28.8061 11.6728 28.5438 11.9352 28.5438 12.2587C28.5438 12.5823 28.8061 12.8446 29.1297 12.8446H31.8404C32.164 12.8446 32.4263 12.5823 32.4263 12.2587C32.4263 11.9352 32.164 11.6728 31.8404 11.6728Z" fill="#F9F05A"/>
<path d="M28.7031 7.81759C28.853 7.81759 29.003 7.76041 29.1175 7.64597L31.0341 5.72924C31.2629 5.50043 31.2629 5.12944 31.0341 4.90071C30.8052 4.6719 30.4343 4.6719 30.2055 4.90071L28.2888 6.81744C28.06 7.04625 28.06 7.41723 28.2888 7.64597C28.4032 7.76033 28.5532 7.81759 28.7031 7.81759Z" fill="#F9F05A"/>
<path d="M28.9826 16.8716C28.7537 16.6428 28.3828 16.6428 28.154 16.8716C27.9252 17.1004 27.9252 17.4714 28.154 17.7001L30.0708 19.6168C30.1852 19.7312 30.3352 19.7885 30.4851 19.7885C30.635 19.7885 30.785 19.7313 30.8994 19.6168C31.1283 19.388 31.1283 19.017 30.8994 18.7883L28.9826 16.8716Z" fill="#F9F05A"/>
</svg>
