<svg width="40" height="40" viewBox="0 0 40 40" fill="none" xmlns="http://www.w3.org/2000/svg">
<path d="M29.3881 12.782C29.2881 12.782 29.1882 12.7439 29.1119 12.6677C28.9593 12.5151 28.9593 12.2677 29.1119 12.1152L33.0377 8.18945C33.1902 8.03695 33.4375 8.03695 33.5901 8.18945C33.7427 8.34203 33.7427 8.58937 33.5901 8.74187L29.6643 12.6677C29.588 12.7439 29.488 12.782 29.3881 12.782Z" fill="#C4D3D6"/>
<path d="M5.17791 36.9922C5.07791 36.9922 4.97799 36.9541 4.90167 36.8777C4.74909 36.7252 4.74909 36.4779 4.90167 36.3254L11.4446 29.7824C11.5972 29.6298 11.8445 29.6298 11.9971 29.7824C12.1496 29.9349 12.1496 30.1823 11.9971 30.3348L5.45409 36.8777C5.37784 36.9541 5.27791 36.9922 5.17791 36.9922Z" fill="#C4D3D6"/>
<path d="M30.3514 35.0391C31.8616 35.0391 33.0858 33.8148 33.0858 32.3047C33.0858 30.7945 31.8616 29.5703 30.3514 29.5703C28.8413 29.5703 27.6171 30.7945 27.6171 32.3047C27.6171 33.8148 28.8413 35.0391 30.3514 35.0391Z" fill="#FFDD40"/>
<path d="M5.74207 24.8828C6.60535 24.8828 7.30457 25.582 7.30457 26.4453C7.30457 27.3086 6.60535 28.0078 5.74207 28.0078C4.87957 28.0078 4.17957 27.3086 4.17957 26.4453C4.17957 25.582 4.87957 24.8828 5.74207 24.8828Z" fill="#FFDD40"/>
<path d="M36.5857 7.81094C37.1279 8.35313 37.1279 9.23203 36.5857 9.77422C36.0437 10.3163 35.1656 10.3174 34.6225 9.77422C33.7904 8.94219 32.8373 7.98906 32.0053 7.15703C31.4631 6.61484 31.4631 5.73594 32.0053 5.19375C32.5464 4.65258 33.4264 4.65156 33.9686 5.19375L36.5857 7.81094Z" fill="#313A52"/>
<path d="M32.66 15.6633C33.2014 16.2047 33.2014 17.0836 32.66 17.6258C32.1181 18.1678 31.24 18.1691 30.6967 17.6258C30.71 17.6391 30.3023 17.2314 24.1537 11.0828C23.6115 10.5406 23.6115 9.66172 24.1537 9.11954C24.7 8.57313 25.5772 8.58055 26.1162 9.11954L29.3881 12.3914L32.66 15.6633Z" fill="#94D4FF"/>
<path d="M13.3552 26.4578L15.3146 28.418L13.6841 30.0586C13.1429 30.5998 12.263 30.6008 11.7208 30.0586C11.1787 29.5164 11.1787 28.6375 11.7208 28.0953L13.3552 26.4578Z" fill="#94D4FF"/>
<path d="M30.3695 17.2984L18.4062 29.2625C17.7859 29.8828 16.7804 29.8828 16.1601 29.2625C16.1512 29.2545 14.7492 27.8523 12.5171 25.6195C11.8968 24.9993 11.8968 23.9937 12.5171 23.3734L24.4804 11.4102L30.3695 17.2984Z" fill="#BCE4FF"/>
<path d="M13.6435 10.4859C13.6474 10.5476 13.649 10.6094 13.649 10.6719C13.649 11.5984 13.2709 12.4406 12.6615 13.05C12.0802 13.6312 11.2881 14.0023 10.4123 14.0351C10.3701 14.0367 10.3271 14.0375 10.2842 14.0375C9.35759 14.0375 8.51619 13.6594 7.90681 13.05V13.0492C7.36306 12.5062 7.00447 11.7789 6.93259 10.9711C6.924 10.8726 6.91931 10.7726 6.91931 10.6719C6.91931 9.7453 7.29744 8.9039 7.90681 8.29452C8.51619 7.68515 9.35759 7.30702 10.2842 7.30702C11.2107 7.30702 12.0521 7.68515 12.6615 8.29452C13.2295 8.86249 13.5967 9.6328 13.6435 10.4859Z" fill="#FF4155"/>
<path d="M35.2343 19.8047C35.5585 19.8047 35.8202 20.0672 35.8202 20.3906C35.8202 20.7141 35.5585 20.9766 35.2343 20.9766C34.9108 20.9766 34.6483 20.7141 34.6483 20.3906C34.6483 20.0672 34.9107 19.8047 35.2343 19.8047Z" fill="#94D4FF"/>
<path d="M28.203 25.6641C28.5272 25.6641 28.7889 25.9266 28.7889 26.25C28.7889 26.5734 28.5272 26.8359 28.203 26.8359C27.8796 26.8359 27.6171 26.5734 27.6171 26.25C27.6171 25.9266 27.8795 25.6641 28.203 25.6641Z" fill="#94D4FF"/>
<path d="M25.4686 4.57031C25.7928 4.57031 26.0546 4.83281 26.0546 5.15625C26.0546 5.47969 25.7928 5.74219 25.4686 5.74219C25.1452 5.74219 24.8827 5.47969 24.8827 5.15625C24.8827 4.83281 25.1451 4.57031 25.4686 4.57031Z" fill="#94D4FF"/>
<path d="M20.3905 34.2578C20.7147 34.2578 20.9764 34.5203 20.9764 34.8438C20.9764 35.1672 20.7147 35.4297 20.3905 35.4297C20.0671 35.4297 19.8046 35.1672 19.8046 34.8438C19.8046 34.5203 20.067 34.2578 20.3905 34.2578Z" fill="#94D4FF"/>
<path d="M19.6093 6.91406C19.9335 6.91406 20.1952 7.17656 20.1952 7.5C20.1952 7.82344 19.9335 8.08594 19.6093 8.08594C19.2858 8.08594 19.0233 7.82344 19.0233 7.5C19.0233 7.17656 19.2857 6.91406 19.6093 6.91406Z" fill="#94D4FF"/>
<path d="M8.28113 19.8047C8.60535 19.8047 8.86707 20.0672 8.86707 20.3906C8.86707 20.7141 8.60535 20.9766 8.28113 20.9766C7.95769 20.9766 7.69519 20.7141 7.69519 20.3906C7.69519 20.0672 7.95761 19.8047 8.28113 19.8047Z" fill="#94D4FF"/>
<path d="M4.37488 31.1328C4.6991 31.1328 4.96082 31.3953 4.96082 31.7188C4.96082 32.0422 4.6991 32.3047 4.37488 32.3047C4.05144 32.3047 3.78894 32.0422 3.78894 31.7188C3.78894 31.3953 4.05136 31.1328 4.37488 31.1328Z" fill="#94D4FF"/>
<path d="M3.59363 3.39844C3.91785 3.39844 4.17957 3.66094 4.17957 3.98438C4.17957 4.30781 3.91785 4.57031 3.59363 4.57031C3.27019 4.57031 3.00769 4.30781 3.00769 3.98438C3.00769 3.66094 3.27011 3.39844 3.59363 3.39844Z" fill="#94D4FF"/>
<path d="M26.0651 17.6769C25.9125 17.5243 25.6652 17.5244 25.5127 17.677L23.8262 19.3637L22.7941 18.3316C22.6415 18.1791 22.3942 18.1791 22.2416 18.3316C22.0891 18.4841 22.0891 18.7315 22.2416 18.884L23.2737 19.9161L21.8634 21.3266L20.8308 20.294C20.6782 20.1415 20.4309 20.1415 20.2784 20.294C20.1258 20.4466 20.1258 20.6939 20.2784 20.8464L21.311 21.8791L19.9002 23.2901L18.8674 22.2573C18.7148 22.1048 18.4676 22.1048 18.315 22.2573C18.1624 22.4098 18.1624 22.6572 18.315 22.8097L19.3474 23.8421L18.315 24.8745C18.1624 25.027 18.1624 25.2744 18.315 25.4269C18.3913 25.5032 18.4912 25.5413 18.5912 25.5413C18.6912 25.5413 18.7912 25.5032 18.8675 25.4269L20.1723 24.122C20.1738 24.1206 20.1755 24.1198 20.1769 24.1183L24.0996 20.1952C24.1006 20.1942 24.1018 20.1935 24.1027 20.1926C24.1037 20.1916 24.1044 20.1905 24.1053 20.1895L26.0653 18.2292C26.2177 18.0767 26.2177 17.8294 26.0651 17.6769Z" fill="#E1EBEF"/>
<path d="M10.2842 9.04374C10.0685 9.04374 9.89355 8.86882 9.89355 8.65312V5.39999C9.89355 5.18429 10.0685 5.00937 10.2842 5.00937C10.4999 5.00937 10.6748 5.18429 10.6748 5.39999V8.65312C10.6748 8.86882 10.5 9.04374 10.2842 9.04374Z" fill="#E80054"/>
<path d="M11.7115 9.63515C11.6115 9.63515 11.5116 9.59702 11.4352 9.52077C11.2827 9.3682 11.2827 9.12085 11.4352 8.96835L13.0063 7.39726C13.159 7.24476 13.4062 7.24484 13.5587 7.39726C13.7113 7.54984 13.7113 7.79718 13.5587 7.94968L11.9877 9.52077C11.9114 9.59702 11.8115 9.63515 11.7115 9.63515Z" fill="#E80054"/>
<path d="M15.0499 10.8766H12.303C12.0873 10.8766 11.9124 10.7016 11.9124 10.4859C11.9124 10.2702 12.0873 10.0953 12.303 10.0953H15.0499C15.2656 10.0953 15.4405 10.2702 15.4405 10.4859C15.4405 10.7016 15.2656 10.8766 15.0499 10.8766Z" fill="#E80054"/>
<path d="M14.3818 15.1609C14.2818 15.1609 14.1819 15.1228 14.1055 15.0466L11.4352 12.3763C11.2827 12.2237 11.2827 11.9763 11.4352 11.8238C11.5878 11.6713 11.8351 11.6713 11.9877 11.8238L14.658 14.4941C14.8105 14.6467 14.8105 14.8941 14.658 15.0466C14.5818 15.1228 14.4818 15.1609 14.3818 15.1609Z" fill="#E80054"/>
<path d="M10.4124 15.9852C10.1967 15.9852 10.0217 15.8102 10.0217 15.5945V11.6445C10.0217 11.4288 10.1967 11.2539 10.4124 11.2539C10.6281 11.2539 10.803 11.4288 10.803 11.6445V15.5945C10.803 15.8102 10.6281 15.9852 10.4124 15.9852Z" fill="#E80054"/>
<path d="M6.24588 15.1008C6.14588 15.1008 6.04588 15.0627 5.96955 14.9863C5.81705 14.8338 5.81713 14.5864 5.96971 14.4339L7.61627 12.7881C7.62088 12.783 7.62564 12.778 7.63057 12.7731L8.57979 11.8238C8.73236 11.6713 8.97963 11.6713 9.13221 11.8238C9.28479 11.9764 9.28479 12.2238 9.13221 12.3763L8.19736 13.3111C8.19268 13.3163 8.18783 13.3213 8.18291 13.3263L6.52197 14.9865C6.4458 15.0627 6.34588 15.1008 6.24588 15.1008Z" fill="#E80054"/>
<path d="M8.26545 11.3617H5.82483C5.60913 11.3617 5.4342 11.1868 5.4342 10.9711C5.4342 10.7554 5.60913 10.5805 5.82483 10.5805H8.26545C8.48116 10.5805 8.65608 10.7554 8.65608 10.9711C8.65608 11.1868 8.48123 11.3617 8.26545 11.3617Z" fill="#E80054"/>
<path d="M8.85604 9.63516C8.75604 9.63516 8.65596 9.59695 8.57971 9.52062L6.74236 7.68242C6.58979 7.52984 6.58979 7.2825 6.74236 7.13C6.89494 6.9775 7.14221 6.9775 7.29479 7.13L9.13236 8.96844C9.28486 9.12109 9.28471 9.36844 9.13213 9.52086C9.05596 9.59703 8.95596 9.63516 8.85604 9.63516Z" fill="#E80054"/>
<path d="M10.2842 3.00781C10.9428 3.00781 11.4803 3.54531 11.4803 4.20391C11.4803 4.86328 10.9428 5.4 10.2842 5.4C9.62485 5.4 9.08813 4.86328 9.08813 4.20391C9.08821 3.54531 9.62485 3.00781 10.2842 3.00781Z" fill="#FF4155"/>
<path d="M14.4381 6.51875C14.7569 6.8375 14.7569 7.35468 14.4381 7.67343C14.1186 7.99297 13.6014 7.99297 13.2826 7.67343C12.9639 7.35468 12.9639 6.8375 13.2826 6.51875C13.6014 6.19922 14.1185 6.19922 14.4381 6.51875Z" fill="#FF4155"/>
<path d="M16.06 11.4961C16.6179 11.4961 17.0701 11.0438 17.0701 10.4859C17.0701 9.92805 16.6179 9.47578 16.06 9.47578C15.5021 9.47578 15.0498 9.92805 15.0498 10.4859C15.0498 11.0438 15.5021 11.4961 16.06 11.4961Z" fill="#FF4155"/>
<path d="M16.3459 14.7703C16.8881 15.3125 16.8881 16.1914 16.3459 16.7336C15.8037 17.2758 14.924 17.2758 14.3819 16.7336C13.8397 16.1914 13.8397 15.3125 14.3819 14.7703C14.924 14.2273 15.8037 14.2273 16.3459 14.7703Z" fill="#FF4155"/>
<path d="M10.4123 15.5945C11.0021 15.5945 11.4802 16.0727 11.4802 16.6625C11.4802 17.2523 11.0021 17.7305 10.4123 17.7305C9.82322 17.7305 9.34509 17.2523 9.34509 16.6625C9.34517 16.0727 9.82322 15.5945 10.4123 15.5945Z" fill="#FF4155"/>
<path d="M6.24592 14.7101C6.77639 15.2406 6.77639 16.1008 6.24592 16.6305C5.71545 17.1609 4.85608 17.1609 4.32561 16.6305C3.79592 16.1008 3.79592 15.2406 4.32561 14.7101C4.85608 14.1805 5.71545 14.1805 6.24592 14.7101Z" fill="#FF4155"/>
<path d="M4.92805 10.0742C5.42336 10.0742 5.82493 10.4758 5.82493 10.9711C5.82493 11.4664 5.42336 11.8688 4.92805 11.8688C4.43196 11.8688 4.0304 11.4664 4.0304 10.9711C4.03032 10.4758 4.43196 10.0742 4.92805 10.0742Z" fill="#FF4155"/>
<path d="M7.01853 6.05469C7.39119 6.42735 7.39119 7.03282 7.01853 7.40625C6.64509 7.77969 6.03962 7.77969 5.66619 7.40625C5.29275 7.03282 5.29275 6.42735 5.66619 6.05469C6.0397 5.68125 6.64517 5.68125 7.01853 6.05469Z" fill="#FF4155"/>
</svg>
