<svg width="40" height="40" viewBox="0 0 40 40" fill="none" xmlns="http://www.w3.org/2000/svg">
<path d="M24.7865 3.72881L24.6102 2.14915C24.4933 1.11799 23.6209 0.338929 22.5831 0.338983H17.417C16.3792 0.338929 15.5068 1.11799 15.3899 2.14915L15.2136 3.72881L14.9153 6.44068L20 7.45763L25.0848 6.44068L24.7865 3.72881Z" fill="#3B97D3"/>
<path d="M25.0848 6.44068L20 7.45763L14.9153 6.44068L15.2136 3.72881H24.7865L25.0848 6.44068Z" fill="#2980BA"/>
<path d="M38.6441 35.5932V15.9322C38.6443 14.2512 37.7544 12.6957 36.3051 11.8441L35.1864 11.1864L28.2305 7.0983C27.5024 6.66572 26.6707 6.43846 25.8237 6.44068H14.2373C13.4893 6.44291 12.8836 7.04868 12.8813 7.79661V9.83051C12.8836 10.5784 13.4893 11.1842 14.2373 11.1864V14.8136C17.5504 16.3845 19.6623 19.7232 19.6623 23.3898C19.6623 27.0565 17.5504 30.3952 14.2373 31.9661V35.5932C13.4893 35.5955 12.8836 36.2012 12.8813 36.9492V38.3051C12.8836 39.053 13.4893 39.6588 14.2373 39.661H38.6441C39.392 39.6588 39.9978 39.053 40 38.3051V36.9492C39.9978 36.2012 39.392 35.5955 38.6441 35.5932ZM35.2542 16.6102V28.8136C35.2542 29.9369 34.3436 30.8475 33.2203 30.8475C32.097 30.8475 31.1864 29.9369 31.1864 28.8136V17.7017L30.061 16.9492C29.4555 16.5471 29.1104 15.8525 29.1559 15.127C29.2013 14.4016 29.6303 13.7555 30.2813 13.4321C30.9323 13.1088 31.7063 13.1572 32.3119 13.5593L34.3458 14.9153C34.9129 15.2929 35.2538 15.9289 35.2542 16.6102Z" fill="#26B99A"/>
<path d="M36.3051 11.8441L35.1865 11.1864H14.2373V14.8136C17.5504 16.3845 19.6623 19.7232 19.6623 23.3898C19.6623 27.0565 17.5504 30.3952 14.2373 31.9661V35.5932H38.6441V15.9322C38.6443 14.2512 37.7544 12.6958 36.3051 11.8441ZM35.2543 28.8136C35.2543 29.9368 34.3436 30.8475 33.2204 30.8475C32.0971 30.8475 31.1865 29.9368 31.1865 28.8136V17.7017L30.061 16.9492C29.4555 16.5471 29.1105 15.8525 29.1559 15.127C29.2013 14.4016 29.6304 13.7555 30.2813 13.4321C30.9323 13.1088 31.7063 13.1572 32.3119 13.5593L34.3458 14.9153C34.9129 15.2929 35.2538 15.9289 35.2543 16.6102V28.8136Z" fill="#14A085"/>
<path d="M19.661 23.3898C19.6607 27.6146 16.8681 31.3307 12.81 32.506C8.75202 33.6814 4.40564 32.0331 2.1475 28.4624C-0.110641 24.8917 0.263125 20.2583 3.06442 17.0958C5.86572 13.9332 10.4201 13.0029 14.2373 14.8136C17.5492 16.3856 19.6602 19.7238 19.661 23.3898Z" fill="white"/>
<path d="M5.76266 22.7119C6.69874 22.7119 7.45758 21.953 7.45758 21.017C7.45758 20.0809 6.69874 19.322 5.76266 19.322C4.82659 19.322 4.06775 20.0809 4.06775 21.017C4.06775 21.953 4.82659 22.7119 5.76266 22.7119Z" fill="#24AE5F"/>
<path d="M11.5255 30.1695C12.6488 30.1695 13.5594 29.2589 13.5594 28.1356C13.5594 27.0123 12.6488 26.1017 11.5255 26.1017C10.4022 26.1017 9.49158 27.0123 9.49158 28.1356C9.49158 29.2589 10.4022 30.1695 11.5255 30.1695Z" fill="#24AE5F"/>
<path d="M14.5763 24.7458C13.6402 24.7458 12.8813 23.9869 12.8813 23.0508C12.8585 21.8707 12.0129 20.8675 10.8536 20.6454C9.96366 20.4363 9.39996 19.5591 9.57942 18.6627C9.75887 17.7664 10.6168 17.1738 11.5186 17.3234C14.2658 17.8552 16.2553 20.2527 16.2712 23.0508C16.2712 23.5004 16.0926 23.9315 15.7747 24.2493C15.4569 24.5672 15.0258 24.7458 14.5763 24.7458Z" fill="#4C8056"/>
<path d="M23.0508 24.0678H19.661C19.2866 24.0678 18.983 23.7643 18.983 23.3898C18.983 23.0154 19.2866 22.7119 19.661 22.7119H23.0508C23.4253 22.7119 23.7288 23.0154 23.7288 23.3898C23.7288 23.7643 23.4253 24.0678 23.0508 24.0678Z" fill="#C03A2B"/>
<path d="M14.5295 14.202C13.1686 13.5508 11.6782 13.2153 10.1695 13.2203C4.55304 13.2203 0 17.7734 0 23.3898C0 29.0063 4.55304 33.5593 10.1695 33.5593C11.6779 33.5644 13.168 33.229 14.5288 32.5783C18.0758 30.8941 20.3362 27.3184 20.3362 23.3919C20.3362 19.4654 18.0758 15.8897 14.5288 14.2054L14.5295 14.202ZM10.1695 14.5763C12.273 14.5706 14.3075 15.326 15.8976 16.703L3.48339 29.1166C1.23947 26.5066 0.722729 22.8282 2.16071 19.701C3.59869 16.5738 6.72753 14.5717 10.1695 14.5763ZM13.9451 31.3546C10.8035 32.8453 7.07847 32.3441 4.44271 30.0759L16.8563 17.6624C18.6475 19.7447 19.3637 22.5441 18.7926 25.2309C18.2214 27.9176 16.4285 30.1836 13.9451 31.3573V31.3546Z" fill="#E64C3C"/>
<path d="M25.0847 25.4237C26.208 25.4237 27.1186 24.5131 27.1186 23.3898C27.1186 22.2665 26.208 21.3559 25.0847 21.3559C23.9614 21.3559 23.0508 22.2665 23.0508 23.3898C23.0508 24.5131 23.9614 25.4237 25.0847 25.4237Z" fill="#F3D55B"/>
</svg>
