<svg width="40" height="40" viewBox="0 0 40 40" fill="none" xmlns="http://www.w3.org/2000/svg">
<path d="M22.7086 4.18703C22.1165 5.02109 21.4691 5.83422 20.768 6.62078C18.266 9.42774 20.2133 13.9041 23.9545 13.9154C24.0233 13.9156 24.0922 13.9156 24.1611 13.9154C27.9023 13.9041 29.8497 9.42758 27.3476 6.62055C26.6466 5.83406 25.9993 5.02109 25.4072 4.18703C24.7444 3.25313 23.3715 3.25313 22.7086 4.18703Z" fill="#2ECEFB"/>
<path d="M13.5776 0.468363C13.1817 1.0261 12.7488 1.56977 12.2801 2.09563C10.6071 3.97242 11.9092 6.96555 14.4107 6.97305C14.4567 6.97321 14.5028 6.97321 14.5488 6.97305C17.0504 6.96555 18.3525 3.97235 16.6796 2.09547C16.2108 1.56961 15.778 1.02602 15.3821 0.468363C14.9388 -0.15609 14.0208 -0.15609 13.5776 0.468363Z" fill="#A4E7FF"/>
<path d="M17.3109 9.05852C16.6177 10.0352 15.8596 10.9872 15.0387 11.9081C12.1091 15.1947 14.3892 20.436 18.7697 20.4492C18.8503 20.4495 18.9309 20.4495 19.0116 20.4492C23.3921 20.4361 25.6723 15.1946 22.7427 11.9079C21.9219 10.987 21.1639 10.0351 20.4707 9.05852C19.6945 7.965 18.087 7.96508 17.3109 9.05852Z" fill="#A4E7FF"/>
<path d="M31.286 24.1829L25.2672 31.923L21.2056 28.7647L27.2244 21.0245C28.071 19.9358 29.6399 19.7395 30.7286 20.5862L30.8476 20.6787C31.9363 21.5252 32.1326 23.0941 31.286 24.1829Z" fill="#FFCBBE"/>
<path d="M23.1175 26.0068C23.1175 27.4276 22.0347 28.5794 20.6991 28.5794H15.3746" fill="#FFDDCF"/>
<path d="M15.9458 34.0183C16.2038 34.0149 16.4683 34.0194 16.7358 34.0194L25.0217 34.0192C25.4846 34.0192 25.9393 33.8896 26.3401 33.6434L35.7546 27.1637C37.0354 26.3771 37.4743 24.6349 36.7348 23.2724C35.9953 21.9099 34.3575 21.4431 33.0765 22.2298L26.0303 26.5571C25.3453 26.9778 24.5683 27.1992 23.7773 27.1992H22.8419C23.0176 26.8427 23.1175 26.4373 23.1175 26.0068C23.1175 24.586 22.0347 23.4342 20.6991 23.4342H12.3043C12.1909 23.4342 12.0785 23.4391 11.9673 23.4485L10.1594 24.7388V29.0288L13.7235 33.6252L15.9458 34.0183Z" fill="#FFDDCF"/>
<path d="M11.8772 24.9328C11.8772 24.4303 11.9083 23.9352 11.9673 23.4487C10.2658 23.5937 8.85357 24.8273 8.34474 26.4941L3.45506 33.0062C2.58966 34.1587 2.76646 35.8393 3.84998 36.7599L6.97623 39.4159C8.05974 40.3365 9.63966 40.1484 10.5051 38.9959L13.5367 34.9585C14.1466 34.1462 15.0034 34.0305 15.9458 34.0183C13.4493 31.7877 11.8772 28.5441 11.8772 24.9328Z" fill="#FFCBBE"/>
<path d="M20.699 29.183H15.3745C15.041 29.183 14.7709 28.9127 14.7709 28.5794C14.7709 28.246 15.0411 27.9758 15.3745 27.9758H20.699C21.6997 27.9758 22.5138 27.0925 22.5138 26.0069C22.5138 25.6735 22.784 25.4033 23.1174 25.4033C23.4507 25.4033 23.721 25.6735 23.721 26.0069C23.721 27.7581 22.3653 29.183 20.699 29.183Z" fill="#FFCBBE"/>
</svg>
