<svg width="30" height="32" viewBox="0 0 30 32" fill="none" xmlns="http://www.w3.org/2000/svg">
<path d="M0.581543 19.0289V28.5171C0.581543 28.879 0.874168 29.1718 1.23617 29.1718H3.54167C3.90367 29.1718 4.19629 28.8791 4.19629 28.5171V19.0289C4.19629 18.6681 3.90367 18.3743 3.54167 18.3743H1.23617C0.874168 18.3743 0.581543 18.6681 0.581543 19.0289Z" fill="#0272B8" fill-opacity="0.48"/>
<path d="M0.581543 19.0289V28.5171C0.581543 28.879 0.874168 29.1718 1.23617 29.1718H1.74979C2.11179 29.1718 2.40442 28.8791 2.40442 28.5171V19.0289C2.40442 18.6681 2.11179 18.3743 1.74979 18.3743H1.23617C0.874168 18.3743 0.581543 18.6681 0.581543 19.0289Z" fill="#0272B8" fill-opacity="0.48"/>
<path d="M15.7508 21.1476C13.4863 19.2807 10.9875 16.2164 10.6006 13.0516C11.4681 12.5507 12.023 11.6223 12.1578 10.4303C13.3882 9.43045 14.7237 9.21045 15.6601 9.21045C17.0178 9.21045 18.3638 9.66282 19.3443 10.4354C19.4802 11.6247 20.0345 12.5509 20.9011 13.0514C20.5142 16.2161 18.0153 19.2807 15.7508 21.1476Z" fill="#0272B8" fill-opacity="0.48"/>
<path d="M20.9007 13.0511C20.514 16.2158 18.0152 19.281 15.7506 21.1473C15.6011 21.0242 15.451 20.8963 15.3002 20.7623C17.4345 18.8761 19.6385 16.0073 20 13.051C19.1335 12.5507 18.5791 11.6247 18.4433 10.4351C17.5713 9.74809 16.4106 9.31446 15.2095 9.22684C15.3675 9.21484 15.5181 9.20996 15.6598 9.20996C17.0176 9.20996 18.3635 9.66271 19.3441 10.4351C19.4798 11.6248 20.0341 12.5508 20.9007 13.0511Z" fill="#0272B8" fill-opacity="0.48"/>
<path d="M16.2011 20.7625C16.0503 20.8963 15.9002 21.0243 15.7507 21.1475C13.4861 19.281 10.9873 16.2166 10.6006 13.0517C11.4677 12.5508 12.0226 11.6225 12.1577 10.4305C13.3882 9.43058 14.7237 9.21021 15.66 9.21021C15.8107 9.21021 15.9608 9.21558 16.1103 9.22708C15.2227 9.29496 14.1028 9.58196 13.0585 10.4306C12.9233 11.6226 12.3685 12.5511 11.5013 13.0518C11.8628 16.0081 14.0668 18.8762 16.2011 20.7625Z" fill="#0272B8" fill-opacity="0.48"/>
<path d="M9.06461 25.4843L8.93586 25.4318C8.32236 25.1834 7.94761 26.1096 8.55836 26.3581C8.68761 26.4103 8.75561 26.4481 8.87711 26.4481C9.41811 26.4481 9.57574 25.6938 9.06461 25.4843Z" fill="#0A0A0A"/>
<path d="M11.9607 26.6606L10.802 26.1906C10.186 25.9412 9.81572 26.8698 10.4257 27.1168C11.6845 27.6273 11.6436 27.6243 11.772 27.6243C12.3171 27.6243 12.4683 26.8671 11.9607 26.6606Z" fill="#0A0A0A"/>
<path d="M26.4533 17.7167L23.7508 19.183V12.8592C25.5588 14.4723 28.0777 11.8336 26.3495 10.1054C22.0984 5.85282 24.0779 7.80745 17.927 1.79295C16.677 0.5592 14.8133 0.5317 13.5858 1.7317C8.27403 6.89582 8.00178 7.21357 5.14203 10.1154C3.47766 11.8055 5.85853 14.4169 7.69078 12.9104V19.1242C6.68453 19.1005 5.67203 19.2355 4.69578 19.5305V19.0317C4.69578 18.3955 4.17828 17.8767 3.54203 17.8767H1.23578C0.599531 17.8767 0.0820312 18.3955 0.0820312 19.0317V28.518C0.0820312 29.1542 0.599531 29.673 1.23578 29.673H3.54203C4.17828 29.673 4.69578 29.1542 4.69578 28.518V28.1255C5.76703 27.6917 6.94328 27.6542 8.03828 28.0217L15.6533 30.8967C16.8857 31.3643 18.3174 31.1817 19.3633 30.3829C19.4074 30.3517 28.8022 21.7407 28.842 21.7042C31.4548 19.527 28.774 16.3879 26.4533 17.7167ZM3.69578 28.518C3.69578 28.6029 3.62703 28.673 3.54203 28.673H1.23578C1.15078 28.673 1.08203 28.6029 1.08203 28.518V19.0317C1.08203 18.9467 1.15078 18.8767 1.23578 18.8767H3.54203C3.62703 18.8767 3.69578 18.9467 3.69578 19.0317V28.518ZM7.12828 12.0717C6.29891 12.9133 5.02553 11.6559 5.85453 10.8179C9.65866 6.95707 8.41128 8.17033 14.2895 2.44295C15.1122 1.63833 16.375 1.66445 17.2258 2.50545C23.258 8.40532 21.4608 6.63045 25.6433 10.8129C26.476 11.6487 25.2138 12.9122 24.3783 12.0767C20.0662 7.76457 22.1923 9.86245 16.0758 3.8817C15.8808 3.69045 15.5708 3.69045 15.3758 3.8817C9.60716 9.52382 11.1942 7.94257 7.12828 12.0717ZM22.7508 11.8642V19.7255L17.1383 22.7705L11.6708 20.0955C10.727 19.6317 9.71953 19.3317 8.69078 19.2005V11.9117C11.9134 8.64057 10.187 10.3595 15.7258 4.93795C21.1812 10.2733 19.6292 8.74095 22.7508 11.8642ZM28.1758 20.958C28.1528 20.981 18.7685 29.576 18.7445 29.5979C17.9795 30.1717 16.9333 30.3117 16.007 29.9617C15.9938 29.9567 8.38078 27.0813 8.36703 27.0779C7.16703 26.6729 5.88828 26.6705 4.69578 27.0604V20.5792C6.84703 19.8483 9.20728 19.9985 11.2308 20.993L17.8295 24.2217C19.2082 24.8343 18.2239 27.102 16.7458 26.3567C11.079 23.5852 16.0418 26.012 9.61078 22.8667C9.01703 22.5758 8.57753 23.4745 9.17203 23.7642C9.17566 23.766 12.0959 25.1946 16.302 27.2517C18.9449 28.5891 20.857 24.5701 18.2408 23.3104C23.6723 20.3628 21.4479 21.5698 26.9395 18.5905C28.2427 17.8454 29.8908 19.5843 28.1758 20.958Z" fill="#0A0A0A"/>
<path d="M19.8407 10.3792C19.8257 10.2467 19.7582 10.1254 19.6532 10.0429C18.5795 9.19545 17.1232 8.71045 15.6595 8.71045C14.6657 8.71045 13.197 8.9417 11.842 10.0417C11.7407 10.1242 11.6757 10.2442 11.6607 10.3742C11.5445 11.4004 11.0795 12.1979 10.3507 12.6179C10.177 12.7192 10.0795 12.9129 10.1045 13.1117C10.612 17.2692 14.3107 20.6092 15.4332 21.533C15.6162 21.6858 15.8845 21.6865 16.0682 21.533C17.1907 20.6092 20.8895 17.2692 21.397 13.1117C21.422 12.9129 21.3245 12.7192 21.1507 12.6179C20.4232 12.1979 19.9582 11.4029 19.8407 10.3792ZM15.7507 20.4929C13.747 18.7529 11.6045 16.0554 11.1407 13.2967C11.9345 12.7217 12.4532 11.8167 12.6257 10.6992C13.7095 9.88545 14.8657 9.71045 15.6595 9.71045C16.832 9.71045 17.992 10.0729 18.877 10.7092C19.052 11.8217 19.5695 12.7242 20.3607 13.2954C19.897 16.0554 17.7545 18.7529 15.7507 20.4929Z" fill="#0A0A0A"/>
<path d="M17.0907 13.0204L15.1491 15.0624L14.4495 14.1206C14.0555 13.5904 13.2522 14.1859 13.6467 14.717L14.7006 16.1358C14.885 16.384 15.25 16.4076 15.4643 16.1821L17.8153 13.7095C18.2706 13.2306 17.5467 12.541 17.0907 13.0204Z" fill="#0A0A0A"/>
</svg>
